<svg viewBox="0 0 1323.0113525390625 400" xmlns="http://www.w3.org/2000/svg"><g><g><g><g><g><line x1="60" y1="370.90909090909" x2="55" y2="370.90909090909" style="visibility: inherit;" fill="rgb(0, 0, 0)" stroke="rgb(204, 204, 204)" stroke-width="1px"></line><line x1="60" y1="336.5454545454536" x2="55" y2="336.5454545454536" style="visibility: inherit;" fill="rgb(0, 0, 0)" stroke="rgb(204, 204, 204)" stroke-width="1px"></line><line x1="60" y1="302.1818181818172" x2="55" y2="302.1818181818172" style="visibility: inherit;" fill="rgb(0, 0, 0)" stroke="rgb(204, 204, 204)" stroke-width="1px"></line><line x1="60" y1="267.81818181818085" x2="55" y2="267.81818181818085" style="visibility: inherit;" fill="rgb(0, 0, 0)" stroke="rgb(204, 204, 204)" stroke-width="1px"></line><line x1="60" y1="233.45454545454442" x2="55" y2="233.45454545454442" style="visibility: inherit;" fill="rgb(0, 0, 0)" stroke="rgb(204, 204, 204)" stroke-width="1px"></line><line x1="60" y1="199.09090909090804" x2="55" y2="199.09090909090804" style="visibility: inherit;" fill="rgb(0, 0, 0)" stroke="rgb(204, 204, 204)" stroke-width="1px"></line><line x1="60" y1="164.7272727272718" x2="55" y2="164.7272727272718" style="visibility: inherit;" fill="rgb(0, 0, 0)" stroke="rgb(204, 204, 204)" stroke-width="1px"></line><line x1="60" y1="130.3636363636354" x2="55" y2="130.3636363636354" style="visibility: inherit;" fill="rgb(0, 0, 0)" stroke="rgb(204, 204, 204)" stroke-width="1px"></line><line x1="60" y1="95.99999999999903" x2="55" y2="95.99999999999903" style="visibility: inherit;" fill="rgb(0, 0, 0)" stroke="rgb(204, 204, 204)" stroke-width="1px"></line><line x1="60" y1="61.6363636363626" x2="55" y2="61.6363636363626" style="visibility: inherit;" fill="rgb(0, 0, 0)" stroke="rgb(204, 204, 204)" stroke-width="1px"></line><line x1="60" y1="27.27272727272623" x2="55" y2="27.27272727272623" style="visibility: inherit;" fill="rgb(0, 0, 0)" stroke="rgb(204, 204, 204)" stroke-width="1px"></line></g><g transform="translate(50, 0)"><text x="0" y="370.90909090909" dx="0em" dy="0.3em" style="text-anchor: end; visibility: inherit; font-family: &quot;Helvetica Neue&quot;, sans-serif; font-size: 12px; font-weight: 200;" fill="rgb(50, 49, 63)" stroke="none" stroke-width="1px">0.145</text><text x="0" y="336.5454545454536" dx="0em" dy="0.3em" style="text-anchor: end; visibility: inherit; font-family: &quot;Helvetica Neue&quot;, sans-serif; font-size: 12px; font-weight: 200;" fill="rgb(50, 49, 63)" stroke="none" stroke-width="1px">0.15</text><text x="0" y="302.1818181818172" dx="0em" dy="0.3em" style="text-anchor: end; visibility: inherit; font-family: &quot;Helvetica Neue&quot;, sans-serif; font-size: 12px; font-weight: 200;" fill="rgb(50, 49, 63)" stroke="none" stroke-width="1px">0.155</text><text x="0" y="267.81818181818085" dx="0em" dy="0.3em" style="text-anchor: end; visibility: inherit; font-family: &quot;Helvetica Neue&quot;, sans-serif; font-size: 12px; font-weight: 200;" fill="rgb(50, 49, 63)" stroke="none" stroke-width="1px">0.16</text><text x="0" y="233.45454545454442" dx="0em" dy="0.3em" style="text-anchor: end; visibility: inherit; font-family: &quot;Helvetica Neue&quot;, sans-serif; font-size: 12px; font-weight: 200;" fill="rgb(50, 49, 63)" stroke="none" stroke-width="1px">0.165</text><text x="0" y="199.09090909090804" dx="0em" dy="0.3em" style="text-anchor: end; visibility: inherit; font-family: &quot;Helvetica Neue&quot;, sans-serif; font-size: 12px; font-weight: 200;" fill="rgb(50, 49, 63)" stroke="none" stroke-width="1px">0.17</text><text x="0" y="164.7272727272718" dx="0em" dy="0.3em" style="text-anchor: end; visibility: inherit; font-family: &quot;Helvetica Neue&quot;, sans-serif; font-size: 12px; font-weight: 200;" fill="rgb(50, 49, 63)" stroke="none" stroke-width="1px">0.175</text><text x="0" y="130.3636363636354" dx="0em" dy="0.3em" style="text-anchor: end; visibility: inherit; font-family: &quot;Helvetica Neue&quot;, sans-serif; font-size: 12px; font-weight: 200;" fill="rgb(50, 49, 63)" stroke="none" stroke-width="1px">0.18</text><text x="0" y="95.99999999999903" dx="0em" dy="0.3em" style="text-anchor: end; visibility: inherit; font-family: &quot;Helvetica Neue&quot;, sans-serif; font-size: 12px; font-weight: 200;" fill="rgb(50, 49, 63)" stroke="none" stroke-width="1px">0.185</text><text x="0" y="61.6363636363626" dx="0em" dy="0.3em" style="text-anchor: end; visibility: inherit; font-family: &quot;Helvetica Neue&quot;, sans-serif; font-size: 12px; font-weight: 200;" fill="rgb(50, 49, 63)" stroke="none" stroke-width="1px">0.19</text><text x="0" y="27.27272727272623" dx="0em" dy="0.3em" style="text-anchor: end; visibility: inherit; font-family: &quot;Helvetica Neue&quot;, sans-serif; font-size: 12px; font-weight: 200;" fill="rgb(50, 49, 63)" stroke="none" stroke-width="1px">0.195</text></g><line x1="60" y1="0" x2="60" y2="378" fill="rgb(0, 0, 0)" stroke="rgb(204, 204, 204)" stroke-width="1px"></line></g></g><g transform="translate(60, 0)" clip-path="url(#clip_0)"><clipPath id="clip_0"><rect width="1263" height="377"></rect></clipPath><g><g><g><line x1="130.87624999999986" y1="0" x2="130.87624999999986" y2="378" fill="rgb(0, 0, 0)" stroke="rgb(60, 60, 60)" stroke-width="1px" opacity="0.25"></line><line x1="288.7524999999997" y1="0" x2="288.7524999999997" y2="378" fill="rgb(0, 0, 0)" stroke="rgb(60, 60, 60)" stroke-width="1px" opacity="0.25"></line><line x1="446.6287499999995" y1="0" x2="446.6287499999995" y2="378" fill="rgb(0, 0, 0)" stroke="rgb(60, 60, 60)" stroke-width="1px" opacity="0.25"></line><line x1="604.5049999999994" y1="0" x2="604.5049999999994" y2="378" fill="rgb(0, 0, 0)" stroke="rgb(60, 60, 60)" stroke-width="1px" opacity="0.25"></line><line x1="762.3812499999993" y1="0" x2="762.3812499999993" y2="378" fill="rgb(0, 0, 0)" stroke="rgb(60, 60, 60)" stroke-width="1px" opacity="0.25"></line><line x1="920.2574999999991" y1="0" x2="920.2574999999991" y2="378" fill="rgb(0, 0, 0)" stroke="rgb(60, 60, 60)" stroke-width="1px" opacity="0.25"></line><line x1="1078.133749999999" y1="0" x2="1078.133749999999" y2="378" fill="rgb(0, 0, 0)" stroke="rgb(60, 60, 60)" stroke-width="1px" opacity="0.25"></line><line x1="1236.0099999999989" y1="0" x2="1236.0099999999989" y2="378" fill="rgb(0, 0, 0)" stroke="rgb(60, 60, 60)" stroke-width="1px" opacity="0.25"></line></g><g><line x1="0" y1="370.90909090909" x2="1263.01" y2="370.90909090909" fill="rgb(0, 0, 0)" stroke="rgb(60, 60, 60)" stroke-width="1px" opacity="0.25"></line><line x1="0" y1="336.5454545454536" x2="1263.01" y2="336.5454545454536" fill="rgb(0, 0, 0)" stroke="rgb(60, 60, 60)" stroke-width="1px" opacity="0.25"></line><line x1="0" y1="302.1818181818172" x2="1263.01" y2="302.1818181818172" fill="rgb(0, 0, 0)" stroke="rgb(60, 60, 60)" stroke-width="1px" opacity="0.25"></line><line x1="0" y1="267.81818181818085" x2="1263.01" y2="267.81818181818085" fill="rgb(0, 0, 0)" stroke="rgb(60, 60, 60)" stroke-width="1px" opacity="0.25"></line><line x1="0" y1="233.45454545454442" x2="1263.01" y2="233.45454545454442" fill="rgb(0, 0, 0)" stroke="rgb(60, 60, 60)" stroke-width="1px" opacity="0.25"></line><line x1="0" y1="199.09090909090804" x2="1263.01" y2="199.09090909090804" fill="rgb(0, 0, 0)" stroke="rgb(60, 60, 60)" stroke-width="1px" opacity="0.25"></line><line x1="0" y1="164.7272727272718" x2="1263.01" y2="164.7272727272718" fill="rgb(0, 0, 0)" stroke="rgb(60, 60, 60)" stroke-width="1px" opacity="0.25"></line><line x1="0" y1="130.3636363636354" x2="1263.01" y2="130.3636363636354" fill="rgb(0, 0, 0)" stroke="rgb(60, 60, 60)" stroke-width="1px" opacity="0.25"></line><line x1="0" y1="95.99999999999903" x2="1263.01" y2="95.99999999999903" fill="rgb(0, 0, 0)" stroke="rgb(60, 60, 60)" stroke-width="1px" opacity="0.25"></line><line x1="0" y1="61.6363636363626" x2="1263.01" y2="61.6363636363626" fill="rgb(0, 0, 0)" stroke="rgb(60, 60, 60)" stroke-width="1px" opacity="0.25"></line><line x1="0" y1="27.27272727272623" x2="1263.01" y2="27.27272727272623" fill="rgb(0, 0, 0)" stroke="rgb(60, 60, 60)" stroke-width="1px" opacity="0.25"></line></g></g></g><g><g><line x1="0" y1="1367.4545454545446" x2="1263.01" y2="1367.4545454545446" fill="rgb(0, 0, 0)" stroke="rgb(153, 153, 153)" stroke-width="1.5px"></line></g></g><g><g><line x1="130.87624999999986" y1="0" x2="130.87624999999986" y2="378" fill="rgb(0, 0, 0)" stroke="rgb(153, 153, 153)" stroke-width="1.5px"></line></g></g><g><g><g><g><g><path stroke="rgb(255, 112, 67)" stroke-width="2px" d="M146.66387499999985,-12.821417097481515L149.82139999999984,18.38336367974L152.97892499999986,75.82599346577456L156.13644999999983,45.19780037423294L159.29397499999985,107.76026854290325L162.45149999999984,108.22714626479387L165.60902499999983,138.08776229370946L168.76654999999982,151.9121651384366L171.92407499999982,137.03339521089674L175.0815999999998,135.41935528755016L178.23912499999983,145.6230713527668L181.39664999999982,140.8882754135275L184.55417499999982,151.17766482696624L187.71169999999984,125.38239373095621L190.8692249999998,174.09065687814604L194.0267499999998,185.16138555068804L197.18427499999981,202.7214260690907L200.3417999999998,189.7395572733096L203.4993249999998,191.29716814125942L206.65684999999982,177.60697144098842L209.81437499999979,173.15242460468662L212.97189999999978,204.75059707057292L216.12942499999977,182.29220753561387L219.2869499999998,182.4663318796758L222.44447499999978,189.16672547344857L225.6019999999998,229.52289291344132L228.7595249999998,239.18077325358544L231.91704999999976,204.24432666722987L235.07457499999975,220.34621596291464L238.23209999999978,190.21268540376911L241.38962499999977,204.57766740531173L244.54714999999976,230.72485801817146L247.70467499999978,166.9620010438448L250.86219999999975,218.9730820892193L254.01972499999974,247.92367990777336L257.17724999999973,235.62942679400996L260.33477499999975,248.91460445365325L263.4922999999998,234.9115528998856L266.64982499999974,224.19039567873494L269.8073499999997,219.71524244375811L272.9648749999997,237.94906088570008L276.12239999999974,217.31159333808256L279.2799249999997,195.81453172257216L282.4374499999997,245.66519982324846L285.59497499999975,245.17154766882186L288.7524999999997,269.65295119495875L291.91002499999973,235.26533929277758L295.0675499999997,250.25356909724297L298.2250749999997,232.9369628299374L301.38259999999974,226.30824843250545L304.5401249999997,254.38453827762862L307.6976499999997,212.82560200984895L310.8551749999997,245.18598992764342L314.0126999999997,255.2297212685808L317.1702249999997,266.74233778483375L320.3277499999997,275.410053243835L323.4852749999997,253.37870979196924L326.6427999999997,250.84994453416647L329.8003249999997,242.35933936384393L332.9578499999997,241.96537423699652L336.1153749999997,247.27018687316038L339.2728999999997,218.3960622563213L342.4304249999997,258.87034719960906L345.58794999999964,271.3652099058346L348.74547499999966,279.9934415064483L351.9029999999997,273.3951165299672L355.06052499999964,266.87992552305434L358.21804999999966,254.48873809264228L361.3755749999997,254.4638484231059L364.53309999999965,263.1607203282278L367.69062499999967,249.82264062639817L370.8481499999997,237.03204525575165L374.00567499999966,255.76494076378873L377.1631999999997,282.26712158504364L380.3207249999996,302.7279590358527L383.4782499999996,266.8588743637813L386.6357749999996,280.57253998316224L389.79329999999965,251.4153052923632L392.9508249999996,254.4603919787105L396.10834999999963,276.559317166839L399.26587499999965,233.66639076891258L402.4233999999996,264.25558489229917L405.5809249999996,296.7567477818322L408.73844999999955,288.9828150629511L411.89597499999957,301.6061279053621L415.0534999999996,277.4302339753516L418.21102499999955,270.3229423165434L421.3685499999996,268.4066250872618L424.5260749999996,277.11282615365906L427.68359999999956,259.4886616855878L430.8411249999996,240.6269801233999L433.9986499999996,281.3567452594605L437.1561749999995,293.4289508076296L440.3136999999995,304.72094490303664L443.47122499999955,280.02588529845866L446.6287499999995,289.0716248362781L449.78627499999953,278.12318327915L452.94379999999956,257.3223321567662L456.1013249999995,298.0000920025184L459.25884999999954,266.451857754321L462.41637499999956,268.27689899787L465.5738999999995,282.7731566211986L468.73142499999955,305.8562634632746L471.88894999999957,312.819623315879L475.04647499999953,284.6724603467633L478.2039999999995,291.5802698456452L481.3615249999995,274.3181620827095L484.5190499999995,276.6164653729285L487.6765749999995,290.8919379953243L490.8340999999995,241.04282658867388L493.9916249999995,289.4381590957303L497.1491499999995,309.5509698042248L500.30667499999953,309.6491770607101L503.4641999999995,312.2524264509891L506.6217249999995,299.762143514816L509.77924999999954,287.8950181844541L512.9367749999996,283.1655503754931L516.0942999999994,293.4690073757774L519.2518249999995,279.24432402168907L522.4093499999994,253.3615349928313L525.5668749999994,301.00468573569884L528.7243999999995,307.6704002208697L531.8819249999995,328.17839390739346L535.0394499999994,293.75584208333953L538.1969749999995,306.9960140840575L541.3544999999995,285.799233108238L544.5120249999994,278.413081988033L547.6695499999995,307.3335876112377L550.8270749999995,258.3244359355584L553.9845999999994,294.1731713373821L557.1421249999994,312.1549421663199L560.2996499999995,315.6325946201687L563.4571749999994,329.75966595112965L566.6146999999994,300.33237642109265L569.7722249999995,299.735481255125L572.9297499999994,303.32443828497696L576.0872749999994,289.5564470328255L579.2447999999995,283.98838737532253L582.4023249999995,267.7541296326207L585.5598499999994,300.14321648410566L588.7173749999995,316.17576900879243L591.8748999999995,327.3809124371518L595.0324249999994,307.2856330649977L598.1899499999994,313.4093147823435L601.3474749999993,301.5637251270907L604.5049999999994,280.3606968084935L607.6625249999994,317.0916882724749L610.8200499999994,289.4229254289998L613.9775749999994,285.485516905361L617.1350999999994,296.9369189500293L620.2926249999994,329.1524439496923L623.4501499999994,337.4565560608274L626.6076749999994,301.91407570587506L629.7651999999994,320.8459876267267L632.9227249999994,290.88046707019896L636.0802499999993,298.8641386572182L639.2377749999994,319.1369036930036L642.3952999999993,254.2747408020158L645.5528249999994,307.22906325659255L648.7103499999994,332.2967405586247L651.8678749999995,324.51930456481864L655.0253999999993,331.4725178493522L658.1829249999993,318.5503769733118L661.3404499999994,311.5517415716354L664.4979749999993,297.5151279796843L667.6554999999994,316.8053298953726L670.8130249999994,292.8659283943592L673.9705499999994,273.9534272268719L677.1280749999993,319.3202810563474L680.2855999999994,325.3329747423858L683.4431249999993,342.0232546604308L686.6006499999994,309.997288716752L689.7581749999994,323.059029008497L692.9156999999994,306.0917212373665L696.0732249999993,297.244477064688L699.2307499999993,322.00093205824754L702.3882749999993,280.0145061302834L705.5457999999993,315.6818196807931L708.7033249999994,322.2083739570922L711.8608499999992,331.5273065678129L715.0183749999993,340.22188339366664L718.1758999999993,323.3094611665408L721.3334249999994,318.72698816896354L724.4909499999993,308.83628349452033L727.6484749999994,305.51314176195643L730.8059999999992,306.35832179674276L733.9635249999993,282.04040612827305L737.1210499999993,316.51324555164547L740.2785749999993,337.7160711442056L743.4360999999993,338.62451162522484L746.5936249999992,327.3737084085759L749.7511499999993,326.58083772677105L752.9086749999992,318.86306550981664L756.0661999999993,305.9005692420977L759.2237249999993,322.85797671816954L762.3812499999993,306.8439979128141L765.5387749999993,296.63287839379336L768.6962999999993,308.15803614745823L771.8538249999992,338.1618002599354L775.0113499999993,353.71299944336187L778.1688749999993,324.34269076587464L781.3263999999992,334.2015840697301L784.4839249999993,303.2590528355592L787.6414499999992,307.9156900504408L790.7989749999992,328.40510623287093L793.9564999999992,281.66791713789723L797.1140249999993,319.09353685922025L800.2715499999993,343.8832901007483L803.4290749999993,337.66298020942776L806.5865999999992,346.82746411927116L809.7441249999993,330.69105669208386L812.9016499999992,322.50290919822123L816.0591749999993,317.94914829430695L819.2166999999993,325.40771331274146L822.3742249999991,305.52605396972035L825.5317499999992,293.09171711738736L828.6892749999992,327.2644750634852L831.8467999999992,340.5270311970704L835.0043249999992,350.2841520612136L838.1618499999993,326.58334585552967L841.3193749999991,336.2914723164139L844.4768999999992,320.2259796953943L847.6344249999992,301.11667927380404L850.7919499999992,337.06602728876516L853.9494749999992,307.8300590092091L857.1069999999993,317.95101670711125L860.2645249999991,326.6314368203737L863.4220499999991,347.6010032839225L866.5795749999992,351.3294951575587L869.7370999999991,329.2550101906957L872.8946249999992,335.881811664472L876.0521499999992,319.2427936990216L879.2096749999993,314.63473001240584L882.3671999999991,330.48382669343744L885.5247249999992,290.2617802115126L888.6822499999992,323.56602738728265L891.8397749999992,349.50351319125826L894.9972999999992,347.0077055566439L898.154824999999,353.3569756349665L901.3123499999991,335.9724179744801L904.4698749999991,329.37493282127406L907.6273999999992,320.24719935127166L910.7849249999991,332.2583462112753L913.9424499999992,318.7867991222566L917.0999749999991,296.94633604161214L920.2574999999991,332.6648259271044L923.4150249999991,346.1057502378081L926.5725499999992,365.1423509973167L929.7300749999991,333.69084077903995L932.8875999999992,344.30214901665283L936.0451249999991,319.4232085083709L939.202649999999,310.04617747705845L942.3601749999991,343.4293637574208L945.5176999999991,297.31855820060287L948.6752249999992,327.14940204434373L951.832749999999,353.16259739662655L954.9902749999991,348.6282980035123L958.147799999999,359.7764590309894L961.3053249999991,335.97545537622875L964.4628499999991,336.7294509426015L967.6203749999992,330.7027944089791L970.7778999999991,324.79441353037066L973.9354249999991,319.2114177660387L977.0929499999991,302.6791359438441L980.250474999999,334.89069764916746L983.4079999999991,351.1263514913367L986.5655249999991,359.50674312302084L989.7230499999991,337.04483364222983L992.880574999999,345.4179455544923L996.0380999999991,338.06595562107924L999.195624999999,311.9441772058093L1002.3531499999991,349.61276070302023L1005.5106749999991,319.26425207141L1008.6681999999992,317.35521101532237L1011.825724999999,327.91123274752744L1014.9832499999991,360.1489078662258L1018.140774999999,369.049403196113L1021.298299999999,332.49774313038944L1024.455824999999,348.7416022110768L1027.613349999999,321.4171846138085L1030.770874999999,329.07972321780403L1033.928399999999,344.89525970682047L1037.0859249999992,288.07182682140336L1040.243449999999,336.3026426560675L1043.400974999999,364.05573982151657L1046.558499999999,354.46375630635214L1049.716024999999,361.3700055007189L1052.873549999999,346.2182828393457L1056.0310749999992,341.83330508955487L1059.188599999999,327.4802859555332L1062.346124999999,342.55697637475214L1065.503649999999,322.5917489500953L1068.661174999999,301.0290877815728L1071.8186999999991,347.29547364230854L1074.976224999999,354.7603742488804" style="fill: none;" fill="none"></path></g></g></g></g><g opacity="0.2"><g><g><g><path stroke="rgb(255, 112, 67)" stroke-width="2px" d="M146.66387499999985,-10.351715456356771L149.82139999999984,22.638548352500607L152.97892499999986,83.65907653895192L156.13644999999983,41.021228768607784L159.29397499999985,116.29151415824794L162.45149999999984,108.29081140864878L165.60902499999983,142.159664479168L168.76654999999982,153.79731098088251L171.92407499999982,135.00447203896164L175.0815999999998,135.1992589343668L178.23912499999983,147.01448717984186L181.39664999999982,140.242621421813L184.55417499999982,152.5807633833442L187.71169999999984,121.86485676331858L190.8692249999998,180.7326927618537L194.0267499999998,186.67103036967092L197.18427499999981,205.11597704887294L200.3417999999998,187.9693024375212L203.4993249999998,191.50956962325256L206.65684999999982,175.74012643640592L209.81437499999979,172.54498639973627L212.97189999999978,209.0594387704666L216.12942499999977,179.22969987175583L219.2869499999998,182.49007610841133L222.44447499999978,190.0804155089629L225.6019999999998,235.0260066552586L228.7595249999998,240.49775693633242L231.91704999999976,199.48026576909052L235.07457499999975,222.5419281395989L238.23209999999978,186.10356760024928L241.38962499999977,206.53652858734034L244.54714999999976,234.29038401083417L247.70467499999978,158.26706600189112L250.86219999999975,226.06550223177032L254.01972499999974,251.8714887012125L257.17724999999973,233.95293773304235L260.33477499999975,250.72621958905904L263.4922999999998,233.0020458698263L266.64982499999974,222.72841969403254L269.8073499999997,219.1049942753522L272.9648749999997,240.4354906732376L276.12239999999974,214.49739321795278L279.2799249999997,192.88311422954808L282.4374499999997,252.46301820061325L285.59497499999975,245.10423146594556L288.7524999999997,272.99132440306823L291.91002499999973,230.57611948793487L295.0675499999997,252.29741861603378L298.2250749999997,230.5756074298502L301.38259999999974,225.40433283285563L304.5401249999997,258.213123256509L307.6976499999997,207.15847433696996L310.8551749999997,249.59877009825178L314.0126999999997,256.59932099689036L317.1702249999997,268.3122400370502L320.3277499999997,276.59201444278966L323.4852749999997,250.3744356848967L326.6427999999997,250.50511290810226L329.8003249999997,241.20152956789093L332.9578499999997,241.91165171969922L336.1153749999997,247.99357041445546L339.2728999999997,214.4586816267524L342.4304249999997,264.3895678736937L345.58794999999964,273.0690548203198L348.74547499999966,281.1700185428956L351.9029999999997,272.4953449422653L355.06052499999964,265.99149038574814L358.21804999999966,252.79903071576803L361.3755749999997,254.46045437726008L364.53309999999965,264.3466574061991L367.69062499999967,248.0038115761487L370.8481499999997,235.28787315975438L374.00567499999966,258.31942651488464L377.1631999999997,285.8810553333966L380.3207249999996,305.5180732336902L383.4782499999996,261.9676355448627L386.6357749999996,282.44258529489593L389.79329999999965,247.43931874361806L392.9508249999996,254.8756310723035L396.10834999999963,279.5728069652201L399.26587499999965,227.8173553510136L402.4233999999996,268.42683863639735L405.5809249999996,301.1887245394957L408.73844999999955,287.9227333285582L411.89597499999957,303.32748874750905L415.0534999999996,274.13352116671376L418.21102499999955,269.3537661812512L421.3685499999996,268.14530910145055L424.5260749999996,278.30003538998596L427.68359999999956,257.08536653085093L430.8411249999996,238.05493263764717L433.9986499999996,286.91080414165054L437.1561749999995,295.0751606551074L440.3136999999995,306.2607622796829L443.47122499999955,276.6583771705618L446.6287499999995,290.3051347732534L449.78627499999953,276.6302139759054L452.94379999999956,254.4858524582593L456.1013249999995,303.54705925421183L459.25884999999954,262.14982581138514L462.41637499999956,268.5257682583539L465.5738999999995,284.7499190243798L468.73142499999955,309.0039598508305L471.88894999999957,313.76917238668864L475.04647499999953,280.8342108509747L478.2039999999995,292.52224386821996L481.3615249999995,271.9642382968546L484.5190499999995,276.9298703670492L487.6765749999995,292.83859335292374L490.8340999999995,234.24522048776703L493.9916249999995,296.03752261941986L497.1491499999995,312.2936258099286L500.30667499999953,309.6625689593219L503.4641999999995,312.6074150042091L506.6217249999995,298.05892311442886L509.77924999999954,286.2767738212229L512.9367749999996,282.5206229469983L516.0942999999994,294.8740242394524L519.2518249999995,277.30459447340434L522.4093499999994,249.83206376162343L525.5668749999994,307.5014790188173L528.7243999999995,308.5793612870293L531.8819249999995,330.9749385010103L535.0394499999994,289.0618577436958L538.1969749999995,308.8014920841554L541.3544999999995,282.9087629751716L544.5120249999994,277.40587956255035L547.6695499999995,311.27729292349284L550.8270749999995,251.64136979796572L553.9845999999994,299.06163525581263L557.1421249999994,314.6070018248115L560.2996499999995,316.10681995478444L563.4571749999994,331.6860847689879L566.6146999999994,296.3195642124513L569.7722249999995,299.6540864597658L572.9297499999994,303.8138415163204L576.0872749999994,287.6789936802594L579.2447999999995,283.2291065129357L582.4023249999995,265.5403672131615L585.5598499999994,304.5599101456719L588.7173749999995,318.3620261712498L591.8748999999995,328.90888654101883L595.0324249999994,304.5453676960675L598.1899499999994,314.24436228925435L601.3474749999993,299.94841744682907L604.5049999999994,277.4693747650483L607.6625249999994,322.10045983574514L610.8200499999994,285.6499123139805L613.9775749999994,284.9485975612284L617.1350999999994,298.4984737743021L620.2926249999994,333.54547008601L623.4501499999994,338.58893498507314L626.6076749999994,297.06737383929067L629.7651999999994,323.4276119795703L632.9227249999994,286.7942597215816L636.0802499999993,299.95282114635717L639.2377749999994,321.9013716524288L642.3952999999993,245.42990040779017L645.5528249999994,314.45010722767125L648.7103499999994,335.71506019072L651.8678749999995,323.4587451111177L655.0253999999993,332.42068329724304L658.1829249999993,316.7882668538517L661.3404499999994,310.59738219867955L664.4979749999993,295.60104430805455L667.6554999999994,319.4358119747846L670.8130249999994,289.60146455331187L673.9705499999994,271.3744497949417L677.1280749999993,325.50667021491216L680.2855999999994,326.1528875177547L683.4431249999993,344.2992019219822L686.6006499999994,305.63011154261403L689.7581749999994,324.840175411917L692.9156999999994,303.7779974503941L696.0732249999993,296.0380346775045L699.2307499999993,325.376812284642L702.3882749999993,274.28908441283386L705.5457999999993,320.5455442558626L708.7033249999994,323.09835863113307L711.8608499999992,332.79807010563843L715.0183749999993,341.40750750628285L718.1758999999993,321.0032217719329L721.3334249999994,318.10210548747574L724.4909499999993,307.4875510389145L727.6484749999994,305.05998607115214L730.8059999999992,306.4735736196682L733.9635249999993,278.72432671893625L737.1210499999993,321.2140872911964L740.2785749999993,340.6073655431911L743.4360999999993,338.7483898726367L746.5936249999992,325.839507969942L749.7511499999993,326.4727189974342L752.9086749999992,317.81064202568655L756.0661999999993,304.1329561146813L759.2237249999993,325.1703504649066L762.3812499999993,304.6602735302655L765.5387749999993,295.24045300483607L768.6962999999993,309.7296485684125L771.8538249999992,342.2532226389095L775.0113499999993,355.83361751382904L778.1688749999993,320.3376486734901L781.3263999999992,335.54597861116486L784.4839249999993,299.0396167581722L787.6414499999992,308.55068603428833L790.7989749999992,331.199117530475L793.9564999999992,275.2946640794918L797.1140249999993,324.1970304575824L800.2715499999993,347.2637109973204L803.4290749999993,336.8147561333387L806.5865999999992,348.0771664706134L809.7441249999993,328.49063749746745L812.9016499999992,321.38634363087647L816.0591749999993,317.32818089831864L819.2166999999993,326.4247903607099L822.3742249999991,302.8149186047631L825.5317499999992,291.3961257284328L828.6892749999992,331.92439660158925L831.8467999999992,342.33556157892303L835.0043249999992,351.6146685426876L838.1618499999993,323.35141773657267L841.3193749999991,337.61530774289815L844.4768999999992,318.03523070161896L847.6344249999992,298.5108655799509L850.7919499999992,341.968211108987L853.9494749999992,303.84333606199687L857.1069999999993,319.3311473022798L860.2645249999991,327.81513047218226L863.4220499999991,350.460489619861L866.5795749999992,351.8379258675999L869.7370999999991,326.2448531497599L872.8946249999992,336.78546641089605L876.0521499999992,316.973836703733L879.2096749999993,314.0063576915038L882.3671999999991,332.6450671499416L885.5247249999992,284.7769556912499L888.6822499999992,328.10751563852386L891.8397749999992,353.0404430736185L894.9972999999992,346.6673681519239L898.154824999999,354.2227851911015L901.3123499999991,333.6017964753228L904.4698749999991,328.4752757549276L907.6273999999992,319.0025084235442L910.7849249999991,333.89622987400304L913.9424499999992,316.9497699737539L917.0999749999991,293.96809107606964L920.2574999999991,337.5355290933079L923.4150249999991,347.93860355290406L926.5725499999992,367.738251100886L929.7300749999991,329.40199847654765L932.8875999999992,345.7491455945092L936.0451249999991,316.03062571178685L939.202649999999,308.7674914273339L942.3601749999991,347.9816164320156L945.5176999999991,291.0307210792185L948.6752249999992,331.217244386672L951.832749999999,356.7098513083015L954.9902749999991,348.0099844499058L958.147799999999,361.29666280746363L961.3053249999991,332.7298639687615L964.4628499999991,336.8322685198341L967.6203749999992,329.8809776089399L970.7778999999991,323.98872522874217L973.9354249999991,318.4501001618116L977.0929499999991,300.42473387718104L980.250474999999,339.28318333625697L983.4079999999991,353.3403042879962L986.5655249999991,360.64952380006866L989.7230499999991,333.9818459857584L992.880574999999,346.5597335425281L996.0380999999991,337.0634115392502L999.195624999999,308.3821165128178L1002.3531499999991,354.7493857253672L1005.5106749999991,315.12581907619034L1008.6681999999992,317.09488723494695L1011.825724999999,329.3506902564646L1014.9832499999991,364.5449544733211L1018.140774999999,370.263107104734L1021.298299999999,327.51342584869985L1024.455824999999,350.9566739038978L1027.613349999999,317.69112766872655L1030.770874999999,330.1246148456217L1033.928399999999,347.0519237735045L1037.0859249999992,280.32317688248276L1040.243449999999,342.8795720880672L1043.400974999999,367.8402530713505L1046.558499999999,353.15575855428426L1049.716024999999,362.3117667544962L1052.873549999999,344.1521388400675L1056.0310749999992,341.23535357821976L1059.188599999999,325.5230560736213L1062.346124999999,344.61288870464574L1065.503649999999,319.8692179376419L1068.661174999999,298.08872489495616L1071.8186999999991,353.60452625968145L1074.976224999999,355.77831524068563" style="fill: none;" fill="none"></path></g></g></g></g></g></g><g transform="translate(60, 378)" clip-path="url(#clip_1)"><clipPath id="clip_1"><rect width="1263" height="21"></rect></clipPath><g><g><line x1="130.87624999999986" y1="0" x2="130.87624999999986" y2="5" style="visibility: inherit;" fill="rgb(0, 0, 0)" stroke="rgb(204, 204, 204)" stroke-width="1px"></line><line x1="288.7524999999997" y1="0" x2="288.7524999999997" y2="5" style="visibility: inherit;" fill="rgb(0, 0, 0)" stroke="rgb(204, 204, 204)" stroke-width="1px"></line><line x1="446.6287499999995" y1="0" x2="446.6287499999995" y2="5" style="visibility: inherit;" fill="rgb(0, 0, 0)" stroke="rgb(204, 204, 204)" stroke-width="1px"></line><line x1="604.5049999999994" y1="0" x2="604.5049999999994" y2="5" style="visibility: inherit;" fill="rgb(0, 0, 0)" stroke="rgb(204, 204, 204)" stroke-width="1px"></line><line x1="762.3812499999993" y1="0" x2="762.3812499999993" y2="5" style="visibility: inherit;" fill="rgb(0, 0, 0)" stroke="rgb(204, 204, 204)" stroke-width="1px"></line><line x1="920.2574999999991" y1="0" x2="920.2574999999991" y2="5" style="visibility: inherit;" fill="rgb(0, 0, 0)" stroke="rgb(204, 204, 204)" stroke-width="1px"></line><line x1="1078.133749999999" y1="0" x2="1078.133749999999" y2="5" style="visibility: inherit;" fill="rgb(0, 0, 0)" stroke="rgb(204, 204, 204)" stroke-width="1px"></line><line x1="1236.0099999999989" y1="0" x2="1236.0099999999989" y2="5" style="visibility: inherit;" fill="rgb(0, 0, 0)" stroke="rgb(204, 204, 204)" stroke-width="1px"></line></g><g transform="translate(0, 8)"><text x="130.87624999999986" y="0" dx="0em" dy="0.95em" style="text-anchor: middle; visibility: inherit; font-family: &quot;Helvetica Neue&quot;, sans-serif; font-size: 12px; font-weight: 200;" fill="rgb(50, 49, 63)" stroke="none" stroke-width="1px">0</text><text x="288.7524999999997" y="0" dx="0em" dy="0.95em" style="text-anchor: middle; visibility: inherit; font-family: &quot;Helvetica Neue&quot;, sans-serif; font-size: 12px; font-weight: 200;" fill="rgb(50, 49, 63)" stroke="none" stroke-width="1px">50</text><text x="446.6287499999995" y="0" dx="0em" dy="0.95em" style="text-anchor: middle; visibility: inherit; font-family: &quot;Helvetica Neue&quot;, sans-serif; font-size: 12px; font-weight: 200;" fill="rgb(50, 49, 63)" stroke="none" stroke-width="1px">100</text><text x="604.5049999999994" y="0" dx="0em" dy="0.95em" style="text-anchor: middle; visibility: inherit; font-family: &quot;Helvetica Neue&quot;, sans-serif; font-size: 12px; font-weight: 200;" fill="rgb(50, 49, 63)" stroke="none" stroke-width="1px">150</text><text x="762.3812499999993" y="0" dx="0em" dy="0.95em" style="text-anchor: middle; visibility: inherit; font-family: &quot;Helvetica Neue&quot;, sans-serif; font-size: 12px; font-weight: 200;" fill="rgb(50, 49, 63)" stroke="none" stroke-width="1px">200</text><text x="920.2574999999991" y="0" dx="0em" dy="0.95em" style="text-anchor: middle; visibility: inherit; font-family: &quot;Helvetica Neue&quot;, sans-serif; font-size: 12px; font-weight: 200;" fill="rgb(50, 49, 63)" stroke="none" stroke-width="1px">250</text><text x="1078.133749999999" y="0" dx="0em" dy="0.95em" style="text-anchor: middle; visibility: inherit; font-family: &quot;Helvetica Neue&quot;, sans-serif; font-size: 12px; font-weight: 200;" fill="rgb(50, 49, 63)" stroke="none" stroke-width="1px">300</text><text x="1236.0099999999989" y="0" dx="0em" dy="0.95em" style="text-anchor: middle; visibility: inherit; font-family: &quot;Helvetica Neue&quot;, sans-serif; font-size: 12px; font-weight: 200;" fill="rgb(50, 49, 63)" stroke="none" stroke-width="1px">350</text></g><line x1="0" y1="0" x2="1263.01" y2="0" fill="rgb(0, 0, 0)" stroke="rgb(204, 204, 204)" stroke-width="1px"></line></g></g></g></g></svg>