<svg viewBox="0 0 1323.0113525390625 400" xmlns="http://www.w3.org/2000/svg"><g><g><g><g><g><line x1="60" y1="377.6363636363629" x2="55" y2="377.6363636363629" style="visibility: inherit;" fill="rgb(0, 0, 0)" stroke="rgb(204, 204, 204)" stroke-width="1px"></line><line x1="60" y1="343.2727272727265" x2="55" y2="343.2727272727265" style="visibility: inherit;" fill="rgb(0, 0, 0)" stroke="rgb(204, 204, 204)" stroke-width="1px"></line><line x1="60" y1="308.90909090909037" x2="55" y2="308.90909090909037" style="visibility: inherit;" fill="rgb(0, 0, 0)" stroke="rgb(204, 204, 204)" stroke-width="1px"></line><line x1="60" y1="274.54545454545405" x2="55" y2="274.54545454545405" style="visibility: inherit;" fill="rgb(0, 0, 0)" stroke="rgb(204, 204, 204)" stroke-width="1px"></line><line x1="60" y1="240.18181818181765" x2="55" y2="240.18181818181765" style="visibility: inherit;" fill="rgb(0, 0, 0)" stroke="rgb(204, 204, 204)" stroke-width="1px"></line><line x1="60" y1="205.81818181818133" x2="55" y2="205.81818181818133" style="visibility: inherit;" fill="rgb(0, 0, 0)" stroke="rgb(204, 204, 204)" stroke-width="1px"></line><line x1="60" y1="171.45454545454498" x2="55" y2="171.45454545454498" style="visibility: inherit;" fill="rgb(0, 0, 0)" stroke="rgb(204, 204, 204)" stroke-width="1px"></line><line x1="60" y1="137.09090909090864" x2="55" y2="137.09090909090864" style="visibility: inherit;" fill="rgb(0, 0, 0)" stroke="rgb(204, 204, 204)" stroke-width="1px"></line><line x1="60" y1="102.72727272727246" x2="55" y2="102.72727272727246" style="visibility: inherit;" fill="rgb(0, 0, 0)" stroke="rgb(204, 204, 204)" stroke-width="1px"></line><line x1="60" y1="68.36363636363615" x2="55" y2="68.36363636363615" style="visibility: inherit;" fill="rgb(0, 0, 0)" stroke="rgb(204, 204, 204)" stroke-width="1px"></line><line x1="60" y1="33.99999999999977" x2="55" y2="33.99999999999977" style="visibility: inherit;" fill="rgb(0, 0, 0)" stroke="rgb(204, 204, 204)" stroke-width="1px"></line></g><g transform="translate(50, 0)"><text x="0" y="377.6363636363629" dx="0em" dy="0.3em" style="text-anchor: end; visibility: hidden; font-family: &quot;Helvetica Neue&quot;, sans-serif; font-size: 12px; font-weight: 200;" fill="rgb(50, 49, 63)" stroke="none" stroke-width="1px">0.135</text><text x="0" y="343.2727272727265" dx="0em" dy="0.3em" style="text-anchor: end; visibility: inherit; font-family: &quot;Helvetica Neue&quot;, sans-serif; font-size: 12px; font-weight: 200;" fill="rgb(50, 49, 63)" stroke="none" stroke-width="1px">0.14</text><text x="0" y="308.90909090909037" dx="0em" dy="0.3em" style="text-anchor: end; visibility: inherit; font-family: &quot;Helvetica Neue&quot;, sans-serif; font-size: 12px; font-weight: 200;" fill="rgb(50, 49, 63)" stroke="none" stroke-width="1px">0.145</text><text x="0" y="274.54545454545405" dx="0em" dy="0.3em" style="text-anchor: end; visibility: inherit; font-family: &quot;Helvetica Neue&quot;, sans-serif; font-size: 12px; font-weight: 200;" fill="rgb(50, 49, 63)" stroke="none" stroke-width="1px">0.15</text><text x="0" y="240.18181818181765" dx="0em" dy="0.3em" style="text-anchor: end; visibility: inherit; font-family: &quot;Helvetica Neue&quot;, sans-serif; font-size: 12px; font-weight: 200;" fill="rgb(50, 49, 63)" stroke="none" stroke-width="1px">0.155</text><text x="0" y="205.81818181818133" dx="0em" dy="0.3em" style="text-anchor: end; visibility: inherit; font-family: &quot;Helvetica Neue&quot;, sans-serif; font-size: 12px; font-weight: 200;" fill="rgb(50, 49, 63)" stroke="none" stroke-width="1px">0.16</text><text x="0" y="171.45454545454498" dx="0em" dy="0.3em" style="text-anchor: end; visibility: inherit; font-family: &quot;Helvetica Neue&quot;, sans-serif; font-size: 12px; font-weight: 200;" fill="rgb(50, 49, 63)" stroke="none" stroke-width="1px">0.165</text><text x="0" y="137.09090909090864" dx="0em" dy="0.3em" style="text-anchor: end; visibility: inherit; font-family: &quot;Helvetica Neue&quot;, sans-serif; font-size: 12px; font-weight: 200;" fill="rgb(50, 49, 63)" stroke="none" stroke-width="1px">0.17</text><text x="0" y="102.72727272727246" dx="0em" dy="0.3em" style="text-anchor: end; visibility: inherit; font-family: &quot;Helvetica Neue&quot;, sans-serif; font-size: 12px; font-weight: 200;" fill="rgb(50, 49, 63)" stroke="none" stroke-width="1px">0.175</text><text x="0" y="68.36363636363615" dx="0em" dy="0.3em" style="text-anchor: end; visibility: inherit; font-family: &quot;Helvetica Neue&quot;, sans-serif; font-size: 12px; font-weight: 200;" fill="rgb(50, 49, 63)" stroke="none" stroke-width="1px">0.18</text><text x="0" y="33.99999999999977" dx="0em" dy="0.3em" style="text-anchor: end; visibility: inherit; font-family: &quot;Helvetica Neue&quot;, sans-serif; font-size: 12px; font-weight: 200;" fill="rgb(50, 49, 63)" stroke="none" stroke-width="1px">0.185</text></g><line x1="60" y1="0" x2="60" y2="378" fill="rgb(0, 0, 0)" stroke="rgb(204, 204, 204)" stroke-width="1px"></line></g></g><g transform="translate(60, 0)" clip-path="url(#clip_0)"><clipPath id="clip_0"><rect width="1263" height="377"></rect></clipPath><g><g><g><line x1="134.87624999999983" y1="0" x2="134.87624999999983" y2="378" fill="rgb(0, 0, 0)" stroke="rgb(60, 60, 60)" stroke-width="1px" opacity="0.25"></line><line x1="292.75249999999966" y1="0" x2="292.75249999999966" y2="378" fill="rgb(0, 0, 0)" stroke="rgb(60, 60, 60)" stroke-width="1px" opacity="0.25"></line><line x1="450.6287499999995" y1="0" x2="450.6287499999995" y2="378" fill="rgb(0, 0, 0)" stroke="rgb(60, 60, 60)" stroke-width="1px" opacity="0.25"></line><line x1="608.5049999999993" y1="0" x2="608.5049999999993" y2="378" fill="rgb(0, 0, 0)" stroke="rgb(60, 60, 60)" stroke-width="1px" opacity="0.25"></line><line x1="766.3812499999991" y1="0" x2="766.3812499999991" y2="378" fill="rgb(0, 0, 0)" stroke="rgb(60, 60, 60)" stroke-width="1px" opacity="0.25"></line><line x1="924.2574999999989" y1="0" x2="924.2574999999989" y2="378" fill="rgb(0, 0, 0)" stroke="rgb(60, 60, 60)" stroke-width="1px" opacity="0.25"></line><line x1="1082.1337499999988" y1="0" x2="1082.1337499999988" y2="378" fill="rgb(0, 0, 0)" stroke="rgb(60, 60, 60)" stroke-width="1px" opacity="0.25"></line><line x1="1240.0099999999986" y1="0" x2="1240.0099999999986" y2="378" fill="rgb(0, 0, 0)" stroke="rgb(60, 60, 60)" stroke-width="1px" opacity="0.25"></line></g><g><line x1="0" y1="377.6363636363629" x2="1263.01" y2="377.6363636363629" fill="rgb(0, 0, 0)" stroke="rgb(60, 60, 60)" stroke-width="1px" opacity="0.25"></line><line x1="0" y1="343.2727272727265" x2="1263.01" y2="343.2727272727265" fill="rgb(0, 0, 0)" stroke="rgb(60, 60, 60)" stroke-width="1px" opacity="0.25"></line><line x1="0" y1="308.90909090909037" x2="1263.01" y2="308.90909090909037" fill="rgb(0, 0, 0)" stroke="rgb(60, 60, 60)" stroke-width="1px" opacity="0.25"></line><line x1="0" y1="274.54545454545405" x2="1263.01" y2="274.54545454545405" fill="rgb(0, 0, 0)" stroke="rgb(60, 60, 60)" stroke-width="1px" opacity="0.25"></line><line x1="0" y1="240.18181818181765" x2="1263.01" y2="240.18181818181765" fill="rgb(0, 0, 0)" stroke="rgb(60, 60, 60)" stroke-width="1px" opacity="0.25"></line><line x1="0" y1="205.81818181818133" x2="1263.01" y2="205.81818181818133" fill="rgb(0, 0, 0)" stroke="rgb(60, 60, 60)" stroke-width="1px" opacity="0.25"></line><line x1="0" y1="171.45454545454498" x2="1263.01" y2="171.45454545454498" fill="rgb(0, 0, 0)" stroke="rgb(60, 60, 60)" stroke-width="1px" opacity="0.25"></line><line x1="0" y1="137.09090909090864" x2="1263.01" y2="137.09090909090864" fill="rgb(0, 0, 0)" stroke="rgb(60, 60, 60)" stroke-width="1px" opacity="0.25"></line><line x1="0" y1="102.72727272727246" x2="1263.01" y2="102.72727272727246" fill="rgb(0, 0, 0)" stroke="rgb(60, 60, 60)" stroke-width="1px" opacity="0.25"></line><line x1="0" y1="68.36363636363615" x2="1263.01" y2="68.36363636363615" fill="rgb(0, 0, 0)" stroke="rgb(60, 60, 60)" stroke-width="1px" opacity="0.25"></line><line x1="0" y1="33.99999999999977" x2="1263.01" y2="33.99999999999977" fill="rgb(0, 0, 0)" stroke="rgb(60, 60, 60)" stroke-width="1px" opacity="0.25"></line></g></g></g><g><g><line x1="0" y1="1305.4545454545434" x2="1263.01" y2="1305.4545454545434" fill="rgb(0, 0, 0)" stroke="rgb(153, 153, 153)" stroke-width="1.5px"></line></g></g><g><g><line x1="134.87624999999983" y1="0" x2="134.87624999999983" y2="378" fill="rgb(0, 0, 0)" stroke="rgb(153, 153, 153)" stroke-width="1.5px"></line></g></g><g><g><g><g><g><path stroke="rgb(0, 119, 187)" stroke-width="2px" d="M144.34882499999983,-4.307936840988248L147.5063499999998,33.17440927972393L150.66387499999982,43.14315866341809L153.8213999999998,101.2490599826856L156.9789249999998,41.39097949946978L160.1364499999998,104.04426399739879L163.2939749999998,142.64842606058488L166.45149999999978,68.1771356723653L169.6090249999998,173.24447182345972L172.7665499999998,171.6449639648519L175.9240749999998,194.50169140637567L179.08159999999978,176.48051878755112L182.23912499999977,198.62637488954593L185.39664999999977,199.39140106310018L188.5541749999998,207.30148728498136L191.71169999999978,149.27687789894097L194.86922499999974,212.0953817199428L198.02674999999977,207.79028037823105L201.18427499999976,38.511244225068936L204.34179999999975,204.5442011556103L207.49932499999977,210.562116749299L210.65684999999976,221.53945460882295L213.81437499999973,174.22768489714423L216.97189999999972,219.02241236710026L220.12942499999974,128.10056229441545L223.28694999999973,234.73410255909997L226.44447499999976,233.27477441692432L229.60199999999972,191.750677950935L232.7595249999997,247.54305922123822L235.9170499999997,134.91839466468414L239.07457499999973,235.53322665450037L242.23209999999972,149.35017150945285L245.3896249999997,251.26002974785132L248.5471499999997,257.95886252817667L251.7046749999997,131.3791961365901L254.8621999999997,194.34786361329466L258.0197249999997,220.1744918368725L261.17724999999973,244.86219535282163L264.3347749999997,269.85635887385666L267.49229999999966,265.9384173998843L270.6498249999997,244.08766826211894L273.8073499999997,265.0208237650621L276.96487499999967,244.28171952822913L280.1223999999997,238.48662290603968L283.27992499999965,272.2929722710021L286.43744999999967,261.8031061964456L289.59497499999964,269.91703344913947L292.75249999999966,283.1266890448716L295.9100249999997,80.44379132369005L299.06754999999964,233.44074179813668L302.2250749999996,261.3560351491988L305.3825999999996,168.01680155707578L308.54012499999965,263.42563637270064L311.69764999999967,233.48813849469812L314.85517499999963,280.1270621273283L318.0126999999996,255.71546603743226L321.1702249999996,147.47681509197193L324.32774999999964,264.34907308905133L327.4852749999996,221.49184135399884L330.6427999999996,237.34700087046897L333.80032499999965,282.4039254705141L336.9578499999996,263.8802420868871L340.11537499999963,266.23173374860704L343.27289999999954,252.56894070974445L346.43042499999956,213.3741234291447L349.5879499999996,278.21896598993305L352.7454749999996,276.9593758180835L355.90299999999957,284.92517312520806L359.0605249999996,284.47786579150403L362.2180499999996,288.06819087221396L365.37557499999957,277.3975040983603L368.5330999999996,297.211119299786L371.6906249999996,261.279778857905L374.8481499999996,287.61624283550674L378.00567499999954,272.50731185312054L381.1631999999995,268.10683111576384L384.3207249999995,297.94365398910963L387.47824999999955,287.78286704161985L390.6357749999995,182.92887421696045L393.79329999999953,230.7456780102828L396.95082499999955,255.91575804504092L400.1083499999995,269.2652558602714L403.26587499999954,299.4399957575533L406.42339999999956,222.15779443643208L409.5809249999995,301.2337194205062L412.73844999999955,293.1655794420326L415.89597499999957,226.8825833086781L419.0534999999996,280.0828605661937L422.21102499999955,276.7328826638473L425.3685499999996,289.2700032240434L428.5260749999996,304.6133558731822L431.68359999999956,282.4707816217123L434.8411249999995,280.9964367648809L437.9986499999995,315.26882520795823L441.1561749999995,252.0411955255038L444.3136999999995,305.03539003059535L447.4712249999995,255.01170730248072L450.6287499999995,288.4998827167208L453.78627499999953,196.46773067698265L456.9437999999995,293.0091685862361L460.1013249999995,139.01059831155536L463.25884999999954,273.503690296379L466.4163749999995,308.66045281099827L469.57389999999947,296.31642194367294L472.7314249999995,254.8809827944952L475.88894999999945,304.9202361772213L479.0464749999995,295.8190200694766L482.2039999999995,309.18446137867363L485.36152499999946,309.52137612624347L488.5190499999995,257.3044349471604L491.6765749999995,262.51871149205965L494.83409999999947,322.1143691545287L497.9916249999995,248.42558327681442L501.1491499999995,289.7352250377729L504.3066749999994,185.62331361723375L507.46419999999944,297.6594200171852L510.62172499999946,303.57764595076765L513.7792499999995,321.9608910957872L516.9367749999994,302.11559476947616L520.0942999999994,310.8771412163918L523.2518249999995,302.61196175324807L526.4093499999994,327.53811993492536L529.5668749999994,267.07294006144116L532.7243999999995,247.96505482076964L535.8819249999995,306.50965589413516L539.0394499999994,290.8026686407673L542.1969749999994,294.31948584434406L545.3544999999993,322.95399542107174L548.5120249999994,312.794388145749L551.6695499999994,319.17650404102096L554.8270749999994,330.01874344650037L557.9845999999994,302.4547456468376L561.1421249999994,296.85606888252727L564.2996499999994,282.0794689313385L567.4571749999994,308.7552491623851L570.6146999999994,296.3720475172835L573.7722249999994,245.14400361222977L576.9297499999993,254.60292343883822L580.0872749999994,277.8880535180434L583.2447999999994,311.2246003462674L586.4023249999993,305.610476859972L589.5598499999994,319.10543743712435L592.7173749999994,336.078234844139L595.8748999999993,298.6127780357273L599.0324249999994,283.4912427720933L602.1899499999994,326.68117323467084L605.3474749999993,301.0096305357796L608.5049999999993,309.47406265434427L611.6625249999993,311.0889270464139L614.8200499999994,286.9005939788761L617.9775749999993,302.94015318664424L621.1350999999993,257.55289620222106L624.2926249999994,300.79243286378505L627.4501499999993,308.7973164843641L630.6076749999993,324.02235783728446L633.7651999999993,310.00281185816766L636.9227249999993,335.45933181155993L640.0802499999993,325.31138879550554L643.2377749999994,325.6269751340063L646.3952999999992,303.8376035970433L649.5528249999993,272.2104626498453L652.7103499999993,304.98283841135253L655.8678749999993,313.5654697155021L659.0253999999993,321.3532904784086L662.1829249999992,281.558622407915L665.3404499999992,319.782467351913L668.4979749999992,300.3674376090234L671.6554999999993,300.01437487697376L674.8130249999992,331.51316316425243L677.9705499999993,335.6761273282754L681.1280749999993,274.5015311305277L684.2855999999992,286.4415983207763L687.4431249999992,303.4115677338565L690.6006499999993,251.55856978013142L693.7581749999993,318.123243106739L696.9156999999992,331.99165919462814L700.0732249999993,320.65528786067904L703.2307499999991,317.8292655895761L706.3882749999992,331.5357814782925L709.5457999999992,342.2537984198811L712.7033249999993,329.24324137862254L715.8608499999992,341.8863183294478L719.0183749999993,325.9273465875947L722.1758999999992,322.309861187984L725.3334249999992,303.4306278234535L728.4909499999992,322.21109216696937L731.6484749999992,335.07970379029086L734.8059999999992,341.4437637880253L737.9635249999991,322.7717825192781L741.1210499999992,313.90553918383733L744.2785749999991,343.4425006471892L747.4360999999992,313.0688065786693L750.5936249999992,317.06939194797854L753.7511499999993,322.4132684400068L756.9086749999991,343.5225521508495L760.0661999999992,330.36980317811486L763.2237249999991,310.91311684463017L766.3812499999991,325.8172537698902L769.5387749999992,341.64462959545256L772.6962999999992,353.7608007380687L775.8538249999991,338.8137584184321L779.0113499999991,289.79922281807256L782.1688749999992,327.6570377196135L785.3263999999991,330.8606691532757L788.4839249999992,332.6447931691812L791.6414499999992,339.93213071542687L794.7989749999992,277.73159949078246L797.9564999999991,338.7606053925677L801.1140249999991,319.41115252229076L804.2715499999991,351.6354995155954L807.4290749999991,343.25544191818915L810.5865999999992,346.1930427472841L813.744124999999,342.1766998472333L816.9016499999991,342.9792507422264L820.0591749999991,294.9775968543558L823.2166999999992,342.44142029943254L826.3742249999991,313.1154030493041L829.5317499999992,346.86957065976975L832.689274999999,337.9641901310884L835.846799999999,325.3253831250256L839.0043249999991,336.31552788952274L842.161849999999,295.9411012808548L845.3193749999991,337.7631694278719L848.476899999999,331.14793985130257L851.634424999999,340.1617533314722L854.791949999999,324.71310270248L857.9494749999991,263.805866971514L861.1069999999991,329.43219269930086L864.2645249999991,343.50289412214556L867.422049999999,299.36467855915265L870.579574999999,350.1442125913432L873.737099999999,336.9527725634203L876.894624999999,285.48273339578145L880.0521499999991,338.0816091712811L883.209674999999,341.91808716793594L886.3671999999991,326.6020286754838L889.524724999999,295.62290063710253L892.682249999999,311.7478854551444L895.839774999999,347.0557736288842L898.9972999999991,309.4301365724956L902.154824999999,331.5894356597865L905.3123499999989,342.37901801144307L908.469874999999,330.5482772282061L911.6273999999989,352.42554344286026L914.784924999999,339.0774624795305L917.942449999999,325.5198984295194L921.0999749999991,355.3530365580323L924.2574999999989,316.94011276190236L927.415024999999,251.1179259124092L930.572549999999,325.64955466631227L933.730074999999,350.6830508156332L936.887599999999,337.0388822393853L940.0451249999988,356.9238503055238L943.2026499999989,342.09183529944903L946.3601749999989,342.60596456042674L949.517699999999,338.31061108340174L952.6752249999989,272.8719303887236L955.832749999999,340.1304837927949L958.9902749999989,319.7443368538104L962.1477999999989,347.64296277169996L965.3053249999989,330.44960010505207L968.462849999999,340.3351613860798L971.620374999999,338.5124279616048L974.7778999999989,346.004737586471L977.935424999999,313.88807911523446L981.0929499999988,351.07889468532534L984.2504749999989,354.4560000122323L987.4079999999989,331.3263748743615L990.565524999999,269.319160445433L993.7230499999989,331.29358506964405L996.880574999999,335.1422997197702L1000.0380999999988,344.3803376660484L1003.1956249999989,281.34810508138776L1006.3531499999989,256.01393725972935L1009.5106749999989,312.4914543467774L1012.6681999999989,271.0879740791079L1015.8257249999988,309.9921360215724L1018.9832499999989,313.6175608468192L1022.1407749999988,328.38231563367935L1025.298299999999,339.32708654379604L1028.4558249999989,330.7336835784617L1031.613349999999,356.5289770689351L1034.7708749999988,325.86390661152245L1037.9283999999989,364.1259893500227L1041.085924999999,343.9669929590627L1044.2434499999988,325.43027480419585L1047.4009749999989,314.5768460273452L1050.5584999999987,348.2288794593771L1053.7160249999988,327.36698413940337L1056.8735499999989,356.4232776940483L1060.031074999999,363.74509399390894L1063.1885999999988,276.8910797897057L1066.346124999999,318.64152451113495L1069.5036499999987,359.6787475821436L1072.6611749999988,365.20432957741025L1075.818699999999,300.4648010357999L1078.9762249999987,322.9602716496555" style="fill: none;" fill="none"></path></g><g><path stroke="rgb(255, 112, 67)" stroke-width="2px" d="M153.8213999999998,-43.61663632025915L156.9789249999998,13.825993465775298L160.1364499999998,-16.80219962576615L163.2939749999998,45.76026854290399L166.45149999999978,46.22714626479461L169.6090249999998,76.08776229371017L172.7665499999998,89.91216513843727L175.9240749999998,75.03339521089742L179.08159999999978,73.41935528755084L182.23912499999977,83.62307135276745L185.39664999999977,78.88827541352816L188.5541749999998,89.17766482696692L191.71169999999978,63.38239373095695L194.86922499999974,112.09065687814666L198.02674999999977,123.16138555068869L201.18427499999976,140.7214260690913L204.34179999999975,127.7395572733102L207.49932499999977,129.29716814126002L210.65684999999976,115.60697144098907L213.81437499999973,111.15242460468727L216.97189999999972,142.75059707057355L220.12942499999974,120.29220753561447L223.28694999999973,120.46633187967643L226.44447499999976,127.16672547344916L229.60199999999972,167.5228929134419L232.7595249999997,177.18077325358598L235.9170499999997,142.24432666723044L239.07457499999973,158.3462159629152L242.23209999999972,128.2126854037697L245.3896249999997,142.57766740531233L248.5471499999997,168.72485801817203L251.7046749999997,104.96200104384542L254.8621999999997,156.97308208921984L258.0197249999997,185.92367990777387L261.17724999999973,173.62942679401053L264.3347749999997,186.91460445365377L267.49229999999966,172.91155289988615L270.6498249999997,162.1903956787355L273.8073499999997,157.71524244375865L276.96487499999967,175.94906088570062L280.1223999999997,155.31159333808316L283.27992499999965,133.81453172257275L286.43744999999967,183.66519982324897L289.59497499999964,183.1715476688224L292.75249999999966,207.65295119495923L295.9100249999997,173.26533929277815L299.06754999999964,188.25356909724348L302.2250749999996,170.93696282993798L305.3825999999996,164.30824843250602L308.54012499999965,192.38453827762913L311.69764999999967,150.82560200984952L314.85517499999963,183.18598992764393L318.0126999999996,193.22972126858133L321.1702249999996,204.74233778483426L324.32774999999964,213.41005324383548L327.4852749999996,191.37870979196975L330.6427999999996,188.849944534167L333.80032499999965,180.35933936384444L336.9578499999996,179.9653742369971L340.11537499999963,185.27018687316092L343.27289999999954,156.39606225632187L346.43042499999956,196.87034719960957L349.5879499999996,209.3652099058351L352.7454749999996,217.99344150644876L355.90299999999957,211.39511652996768L359.0605249999996,204.8799255230548L362.2180499999996,192.48873809264282L365.37557499999957,192.46384842310644L368.5330999999996,201.1607203282283L371.6906249999996,187.8226406263987L374.8481499999996,175.03204525575222L378.00567499999954,193.76494076378924L381.1631999999995,220.26712158504415L384.3207249999995,240.72795903585313L387.47824999999955,204.8588743637818L390.6357749999995,218.5725399831627L393.79329999999953,189.4153052923637L396.95082499999955,192.46039197871104L400.1083499999995,214.55931716683946L403.26587499999954,171.66639076891315L406.42339999999956,202.25558489229968L409.5809249999995,234.75674778183264L412.73844999999955,226.98281506295154L415.89597499999957,239.60612790536254L419.0534999999996,215.43023397535208L422.21102499999955,208.32294231654393L425.3685499999996,206.40662508726223L428.5260749999996,215.11282615365957L431.68359999999956,197.48866168558826L434.8411249999995,178.62698012340047L437.9986499999995,219.35674525946098L441.1561749999995,231.42895080763006L444.3136999999995,242.7209449030371L447.4712249999995,218.02588529845917L450.6287499999995,227.07162483627854L453.78627499999953,216.1231832791505L456.9437999999995,195.32233215676672L460.1013249999995,236.0000920025188L463.25884999999954,204.45185775432148L466.4163749999995,206.2768989978705L469.57389999999947,220.77315662119906L472.7314249999995,243.85626346327504L475.88894999999945,250.81962331587943L479.0464749999995,222.67246034676373L482.2039999999995,229.58026984564566L485.36152499999946,212.31816208270996L488.5190499999995,214.61646537292893L491.6765749999995,228.89193799532478L494.83409999999947,179.0428265886744L497.9916249999995,227.4381590957308L501.1491499999995,247.5509698042252L504.3066749999994,247.64917706071054L507.46419999999944,250.25242645098956L510.62172499999946,237.76214351481644L513.7792499999995,225.89501818445456L516.9367749999994,221.1655503754936L520.0942999999994,231.46900737577786L523.2518249999995,217.24432402168958L526.4093499999994,191.36153499283182L529.5668749999994,239.00468573569927L532.7243999999995,245.67040022087014L535.8819249999995,266.17839390739385L539.0394499999994,231.75584208333996L542.1969749999994,244.9960140840579L545.3544999999993,223.79923310823847L548.5120249999994,216.4130819880335L551.6695499999994,245.33358761123816L554.8270749999994,196.3244359355589L557.9845999999994,232.17317133738257L561.1421249999994,250.15494216632038L564.2996499999994,253.63259462016913L567.4571749999994,267.75966595113005L570.6146999999994,238.3323764210931L573.7722249999994,237.73548125512545L576.9297499999993,241.3244382849774L580.0872749999994,227.55644703282593L583.2447999999994,221.98838737532301L586.4023249999993,205.75412963262121L589.5598499999994,238.14321648410615L592.7173749999994,254.17576900879288L595.8748999999993,265.38091243715223L599.0324249999994,245.2856330649981L602.1899499999994,251.40931478234393L605.3474749999993,239.56372512709117L608.5049999999993,218.360696808494L611.6625249999993,255.09168827247535L614.8200499999994,227.4229254290003L617.9775749999993,223.48551690536146L621.1350999999993,234.9369189500298L624.2926249999994,267.1524439496928L627.4501499999993,275.4565560608278L630.6076749999993,239.91407570587555L633.7651999999993,258.84598762672715L636.9227249999993,228.8804670701994L640.0802499999993,236.8641386572186L643.2377749999994,257.136903693004L646.3952999999992,192.27474080201634L649.5528249999993,245.22906325659298L652.7103499999993,270.2967405586252L655.8678749999993,262.5193045648191L659.0253999999993,269.4725178493526L662.1829249999992,256.5503769733122L665.3404499999992,249.55174157163583L668.4979749999992,235.51512797968476L671.6554999999993,254.80532989537303L674.8130249999992,230.86592839435963L677.9705499999993,211.95342722687238L681.1280749999993,257.3202810563479L684.2855999999992,263.33297474238617L687.4431249999992,280.0232546604311L690.6006499999993,247.99728871675245L693.7581749999993,261.0590290084974L696.9156999999992,244.09172123736695L700.0732249999993,235.24447706468848L703.2307499999991,260.00093205824794L706.3882749999992,218.01450613028388L709.5457999999992,253.68181968079358L712.7033249999993,260.2083739570926L715.8608499999992,269.5273065678133L719.0183749999993,278.22188339366704L722.1758999999992,261.3094611665412L725.3334249999992,256.72698816896394L728.4909499999992,246.83628349452076L731.6484749999992,243.5131417619569L734.8059999999992,244.35832179674318L737.9635249999991,220.04040612827347L741.1210499999992,254.51324555164592L744.2785749999991,275.716071144206L747.4360999999992,276.6245116252252L750.5936249999992,265.3737084085763L753.7511499999993,264.58083772677145L756.9086749999991,256.86306550981703L760.0661999999992,243.90056924209813L763.2237249999991,260.85797671817L766.3812499999991,244.84399791281447L769.5387749999992,234.63287839379382L772.6962999999992,246.15803614745863L775.8538249999991,276.1618002599358L779.0113499999991,291.71299944336226L782.1688749999992,262.34269076587503L785.3263999999991,272.2015840697305L788.4839249999992,241.25905283555966L791.6414499999992,245.9156900504412L794.7989749999992,266.4051062328714L797.9564999999991,219.66791713789775L801.1140249999991,257.09353685922065L804.2715499999991,281.8832901007487L807.4290749999991,275.66298020942816L810.5865999999992,284.82746411927155L813.744124999999,268.6910566920843L816.9016499999991,260.50290919822163L820.0591749999991,255.94914829430735L823.2166999999992,263.40771331274186L826.3742249999991,243.5260539697208L829.5317499999992,231.09171711738784L832.689274999999,265.2644750634855L835.846799999999,278.5270311970708L839.0043249999991,288.284152061214L842.161849999999,264.58334585553007L845.3193749999991,274.2914723164143L848.476899999999,258.22597969539476L851.634424999999,239.11667927380446L854.791949999999,275.06602728876555L857.9494749999991,245.83005900920952L861.1069999999991,255.95101670711168L864.2645249999991,264.6314368203741L867.422049999999,285.6010032839229L870.579574999999,289.3294951575591L873.737099999999,267.2550101906961L876.894624999999,273.8818116644724L880.0521499999991,257.242793699022L883.209674999999,252.6347300124063L886.3671999999991,268.48382669343783L889.524724999999,228.26178021151307L892.682249999999,261.56602738728304L895.839774999999,287.50351319125866L898.9972999999991,285.0077055566443L902.154824999999,291.35697563496683L905.3123499999989,273.9724179744805L908.469874999999,267.37493282127446L911.6273999999989,258.2471993512721L914.784924999999,270.2583462112757L917.942449999999,256.786799122257L921.0999749999991,234.94633604161257L924.2574999999989,270.6648259271048L927.415024999999,284.1057502378085L930.572549999999,303.14235099731707L933.730074999999,271.69084077904034L936.887599999999,282.3021490166532L940.0451249999988,257.4232085083713L943.2026499999989,248.04617747705888L946.3601749999989,281.42936375742113L949.517699999999,235.31855820060335L952.6752249999989,265.14940204434413L955.832749999999,291.16259739662695L958.9902749999989,286.6282980035127L962.1477999999989,297.7764590309897L965.3053249999989,273.9754553762291L968.462849999999,274.72945094260183L971.620374999999,268.7027944089795L974.7778999999989,262.79441353037106L977.935424999999,257.2114177660392L981.0929499999988,240.6791359438445L984.2504749999989,272.89069764916786L987.4079999999989,289.12635149133706L990.565524999999,297.50674312302124L993.7230499999989,275.0448336422303L996.880574999999,283.4179455544927L1000.0380999999988,276.06595562107964L1003.1956249999989,249.94417720580972L1006.3531499999989,287.6127607030206L1009.5106749999989,257.2642520714104L1012.6681999999989,255.35521101532282L1015.8257249999988,265.91123274752783L1018.9832499999989,298.1489078662261L1022.1407749999988,307.04940319611336L1025.298299999999,270.49774313038984L1028.4558249999989,286.7416022110772L1031.613349999999,259.4171846138089L1034.7708749999988,267.0797232178044L1037.9283999999989,282.89525970682087L1041.085924999999,226.07182682140382L1044.2434499999988,274.302642656068L1047.4009749999989,302.05573982151697L1050.5584999999987,292.4637563063525L1053.7160249999988,299.37000550071923L1056.8735499999989,284.21828283934605L1060.031074999999,279.83330508955527L1063.1885999999988,265.4802859555336L1066.346124999999,280.55697637475254L1069.5036499999987,260.5917489500957L1072.6611749999988,239.02908778157322L1075.818699999999,285.2954736423089L1078.9762249999987,292.76037424888074" style="fill: none;" fill="none"></path></g></g></g></g><g opacity="0.2"><g><g><g><path stroke="rgb(0, 119, 187)" stroke-width="2px" d="M141.1912999999998,-58.62159479748129L144.34882499999983,5.207674394954154L147.5063499999998,38.28457843173612L150.66387499999982,44.50249975377841L153.8213999999998,109.17256832122769L156.9789249999998,33.22851690379031L160.1364499999998,112.58789333430173L163.2939749999998,147.91262995112987L166.45149999999978,58.02195971662326L169.6090249999998,187.5718358429991L172.7665499999998,171.42684925686189L175.9240749999998,197.61851787567093L179.08159999999978,174.02308615771162L182.23912499999977,201.64626435799985L185.39664999999977,199.49572281403928L188.5541749999998,208.38013540614688L191.71169999999978,141.36443116448103L194.86922499999974,220.66154133189758L198.02674999999977,207.20322110436132L201.18427499999976,15.427739295092294L204.34179999999975,227.18505891886574L207.49932499999977,211.38274160298386L210.65684999999976,223.0363643169398L213.81437499999973,167.7760799364606L216.97189999999972,225.1307842948215L220.12942499999974,115.70212819359483L223.28694999999973,249.27503986792075L226.44447499999976,233.07577512480947L229.60199999999972,186.08830116011833L232.7595249999997,255.15111121264317L235.9170499999997,119.5604858615178L239.07457499999973,249.25343101674807L242.23209999999972,137.59793671694632L245.3896249999997,265.15682859854206L248.5471499999997,258.8723397254938L251.7046749999997,114.11833253773739L254.8621999999997,202.93450008739077L258.0197249999997,223.6963047764513L261.17724999999973,248.22870037772387L264.3347749999997,273.26465389945236L267.49229999999966,265.4041526534335L270.6498249999997,241.1080206524237L273.8073499999997,267.875344970009L276.96487499999967,241.45365985957008L280.1223999999997,237.69638245755922L283.27992499999965,276.9029290025879L286.43744999999967,260.3726699135515L289.59497499999964,271.0234780745067L292.75249999999966,284.92800571701684L295.9100249999997,52.80521436171074L299.06754999999964,254.3039623173795L302.2250749999996,265.16266606070724L305.3825999999996,155.28872424905913L308.54012499999965,276.4359320293768L311.69764999999967,229.4057524204249L314.85517499999963,286.48691534995976L318.0126999999996,252.3866120251737L321.1702249999996,132.7169990539547L324.32774999999964,280.28619917956206L327.4852749999996,215.64767339012792L330.6427999999996,239.50906807726028L333.80032499999965,288.54805155233845L336.9578499999996,261.3542852618472L340.11537499999963,266.552391702478L343.27289999999954,250.7058325680814L346.43042499999956,208.0293756181539L349.5879499999996,287.06144452094975L352.7454749999996,276.78761352192214L355.90299999999957,286.0114182125433L359.0605249999996,284.41686933690795L362.2180499999996,288.557780655947L365.37557499999957,275.9424104473802L368.5330999999996,299.9129759181624L371.6906249999996,256.3800506158303L374.8481499999996,291.2075788324523L378.00567499999954,270.447003082795L381.1631999999995,267.50676556066975L384.3207249999995,302.01231165365675L387.47824999999955,286.39730518514403L390.6357749999995,168.63060246814337L393.79329999999953,237.2661512548268L396.95082499999955,259.3480416861442L400.1083499999995,271.0856419259846L403.26587499999954,303.5547330162736L406.42339999999956,211.61931243809738L409.5809249999995,312.0168001001525L412.73844999999955,292.06537853587696L415.89597499999957,217.8439929268572L419.0534999999996,287.3374438285822L422.21102499999955,276.2760674953455L425.3685499999996,290.97961057316115L428.5260749999996,306.7056312344285L431.68359999999956,279.45133967833027L434.8411249999995,280.79538973894927L437.9986499999995,319.9423327229233L441.1561749999995,243.41924602335095L444.3136999999995,312.2618710994714L447.4712249999995,248.19029602137425L450.6287499999995,293.0664520913898L453.78627499999953,183.91789176247295L456.9437999999995,306.1739101193162L460.1013249999995,118.01079327409883L463.25884999999954,291.84365738521865L466.4163749999995,313.4545567902645L469.57389999999947,294.6331450072196L472.7314249999995,249.2306956377891L475.88894999999945,311.7437707294111L479.0464749999995,294.5779451456931L482.2039999999995,311.0070215572004L485.36152499999946,309.56731904636666L488.5190499999995,250.1839429681946L491.6765749999995,263.2297492027277L494.83409999999947,330.24104974486545L497.9916249999995,238.377112475308L501.1491499999995,295.3683580051763L504.3066749999994,171.42623478716027L507.46419999999944,312.93707088990584L510.62172499999946,304.3846767598926L513.7792499999995,324.4676972519261L516.9367749999994,299.40941799770644L520.0942999999994,312.0718975500621L523.2518249999995,301.4848918264556L526.4093499999994,330.93714150515405L529.5668749999994,258.82768826051137L532.7243999999995,245.35943410613268L535.8819249999995,314.4930105859577L539.0394499999994,288.66080674258086L542.1969749999994,294.7990518266498L545.3544999999993,326.8587012724436L548.5120249999994,311.40898715365955L551.6695499999994,320.04679257219425L554.8270749999994,331.49723063815657L557.9845999999994,298.6960186741563L561.1421249999994,296.09261296012124L564.2996499999994,280.06447802890375L567.4571749999994,312.3928555575278L570.6146999999994,294.6834291111333L573.7722249999994,238.15836126154068L576.9297499999993,255.89277614246663L580.0872749999994,281.0632985288441L583.2447999999994,315.7704930955707L586.4023249999993,304.84491456638625L589.5598499999994,320.9456593340087L592.7173749999994,338.3927072178227L595.8748999999993,293.5038521073075L599.0324249999994,281.4292152361431L602.1899499999994,332.57070920684055L605.3474749999993,297.50896562229445L608.5049999999993,310.6283033977849L611.6625249999993,311.3091358271506L614.8200499999994,283.60218492421177L617.9775749999993,305.1273658058854L621.1350999999993,251.36372479525426L624.2926249999994,306.68873331763467L627.4501499999993,309.88889152353397L630.6076749999993,326.0984998399555L633.7651999999993,308.0910555882881L636.9227249999993,338.93067544156787L640.0802499999993,323.9275783842254L643.2377749999994,325.6700096347109L646.3952999999992,300.86632566018477L649.5528249999993,267.8976707025002L652.7103499999993,309.4517987424671L655.8678749999993,314.73582852970407L659.0253999999993,322.4152660369867L662.1829249999992,276.1320767619387L665.3404499999992,324.99480984427646L668.4979749999992,297.7199335531749L671.6554999999993,299.9662299589671L674.8130249999992,335.808452476154L677.9705499999993,336.24380425973305L681.1280749999993,266.1595407399259L684.2855999999992,288.0697893012648L687.4431249999992,305.72565447200367L690.6006499999993,244.48770642280525L693.7581749999993,327.20024401491276L696.9156999999992,333.8828068429767L700.0732249999993,319.10941904241326L703.2307499999991,317.4438989162439L706.3882749999992,333.4048518267538L709.5457999999992,343.7153461846432L712.7033249999993,327.4690745093599L715.8608499999992,343.6103742772876L719.0183749999993,323.75112316825107L722.1758999999992,321.81656772440067L725.3334249999992,300.8561869101085L728.4909499999992,324.7720645774488L731.6484749999992,336.83451446619836L734.8059999999992,342.3115901513527L737.9635249999991,320.22560325535795L741.1210499999992,312.69650600173196L744.2785749999991,347.47026811946455L747.4360999999992,308.9269392056892L750.5936249999992,317.6149263165207L753.7511499999993,323.141978870738L756.9086749999991,346.40109083869174L760.0661999999992,328.57624650001463L763.2237249999991,308.2599323446094L766.3812499999991,327.84963607788023L769.5387749999992,343.80290811712024L772.6962999999992,355.41300589388L775.8538249999991,336.77552537484536L779.0113499999991,283.11542250893274L782.1688749999992,332.81946702436903L785.3263999999991,331.2975279851387L788.4839249999992,332.88808280771366L791.6414499999992,340.9258585626422L794.7989749999992,269.24970886923995L797.9564999999991,347.08274256099287L801.1140249999991,316.7725907672529L804.2715499999991,356.02972865104607L807.4290749999991,342.11270679127017L810.5865999999992,346.5936246785244L813.744124999999,341.62901672449914L816.9016499999991,343.08868950063464L820.0591749999991,288.4319167787373L823.2166999999992,348.9137598601248L826.3742249999991,309.11640069701394L829.5317499999992,351.4724116975604L832.689274999999,336.7498200589954L835.846799999999,323.6019094423808L839.0043249999991,337.81418399377236L842.161849999999,290.43549765240004L845.3193749999991,343.46617872064695L848.476899999999,330.2458630908613L851.634424999999,341.3909097151316L854.791949999999,322.6064685257992L857.9494749999991,255.5003348263822L861.1069999999991,338.3812371167263L864.2645249999991,345.4216261343516L867.422049999999,293.345830982381L870.579574999999,357.06869450482384L873.737099999999,335.1539398323399L876.894624999999,278.46409169110325L880.0521499999991,345.25418314066735L883.209674999999,342.4412432583889L886.3671999999991,324.51347524469486L889.524724999999,291.3984740864141L892.682249999999,313.946747021241L895.839774999999,351.8704856525761L898.9972999999991,304.29936788298807L902.154824999999,334.61115826259896L905.3123499999989,343.85032469575987L908.469874999999,328.93499439412835L911.6273999999989,355.4088070175858L914.784924999999,337.2572696208947L917.942449999999,323.671139695427L921.0999749999991,359.42119175737486L924.2574999999989,311.70198678970274L927.415024999999,242.1421731602057L930.572549999999,335.812958587299L933.730074999999,354.0967093814496L936.887599999999,335.17831379716984L940.0451249999988,359.6354368599971L943.2026499999989,340.0692877986208L946.3601749999989,342.6760730960146L949.517699999999,337.72488106380746L952.6752249999989,263.9484739303583L955.832749999999,349.3021047115319L958.9902749999989,316.96440772576705L962.1477999999989,351.44732085141203L965.3053249999989,328.10505065050927L968.462849999999,341.6831924698563L971.620374999999,338.26387340372196L974.7778999999989,347.0264161716801L977.935424999999,309.50853477824757L981.0929499999988,356.15036953579227L984.2504749999989,354.9165143749924L987.4079999999989,328.1723350828338L990.565524999999,260.86363120512476L993.7230499999989,339.7446429729455L996.880574999999,335.66712444478753L1000.0380999999988,345.6400701132681L1003.1956249999989,272.7528006380249L1006.3531499999989,252.55927801132145L1009.5106749999989,320.19293394955656L1012.6681999999989,265.44204495169845L1015.8257249999988,315.29724901372674L1018.9832499999989,314.11193695935276L1022.1407749999988,330.3956912864332L1025.298299999999,340.81955530426654L1028.4558249999989,329.5618559013707L1031.613349999999,360.04651709036324L1034.7708749999988,321.6823060946025L1037.9283999999989,369.34354608709094L1041.085924999999,341.21803890574995L1044.2434499999988,322.9025405103504L1047.4009749999989,313.0968330123202L1050.5584999999987,352.81779310919956L1053.7160249999988,324.5221802321341L1056.8735499999989,360.38549954240904L1060.031074999999,364.7435234893445L1063.1885999999988,265.0473505800415L1066.346124999999,324.334766973148L1069.5036499999987,365.27473254637215L1072.6611749999988,365.95781803131035L1075.818699999999,291.6366835073985L1078.9762249999987,326.0278358242722" style="fill: none;" fill="none"></path></g><g><path stroke="rgb(255, 112, 67)" stroke-width="2px" d="M153.8213999999998,-39.36145164749854L156.9789249999998,21.659076538952718L160.1364499999998,-20.978771231391363L163.2939749999998,54.29151415824862L166.45149999999978,46.29081140864952L169.6090249999998,80.15966447916867L172.7665499999998,91.7973109808832L175.9240749999998,73.00447203896232L179.08159999999978,73.19925893436749L182.23912499999977,85.01448717984255L185.39664999999977,78.24262142181362L188.5541749999998,90.58076338334484L191.71169999999978,59.86485676331927L194.86922499999974,118.73269276185431L198.02674999999977,124.67103036967154L201.18427499999976,143.1159770488735L204.34179999999975,125.9693024375218L207.49932499999977,129.50956962325319L210.65684999999976,113.74012643640657L213.81437499999973,110.5449863997369L216.97189999999972,147.0594387704672L220.12942499999974,117.22969987175645L223.28694999999973,120.49007610841193L226.44447499999976,128.08041550896345L229.60199999999972,173.02600665525912L232.7595249999997,178.497756936333L235.9170499999997,137.48026576909112L239.07457499999973,160.5419281395995L242.23209999999972,124.10356760024987L245.3896249999997,144.5365285873409L248.5471499999997,172.29038401083469L251.7046749999997,96.26706600189175L254.8621999999997,164.06550223177086L258.0197249999997,189.87148870121302L261.17724999999973,171.95293773304292L264.3347749999997,188.72621958905955L267.49229999999966,171.00204586982682L270.6498249999997,160.72841969403314L273.8073499999997,157.10499427535277L276.96487499999967,178.43549067323815L280.1223999999997,152.49739321795337L283.27992499999965,130.88311422954868L286.43744999999967,190.4630182006138L289.59497499999964,183.1042314659461L292.75249999999966,210.99132440306875L295.9100249999997,168.57611948793542L299.06754999999964,190.29741861603432L302.2250749999996,168.57560742985078L305.3825999999996,163.40433283285623L308.54012499999965,196.2131232565095L311.69764999999967,145.15847433697056L314.85517499999963,187.5987700982523L318.0126999999996,194.59932099689092L321.1702249999996,206.31224003705063L324.32774999999964,214.59201444279014L327.4852749999996,188.3744356848972L330.6427999999996,188.50511290810277L333.80032499999965,179.20152956789147L336.9578499999996,179.91165171969976L340.11537499999963,185.993570414456L343.27289999999954,152.45868162675296L346.43042499999956,202.3895678736942L349.5879499999996,211.06905482032033L352.7454749999996,219.17001854289612L355.90299999999957,210.4953449422658L359.0605249999996,203.99149038574865L362.2180499999996,190.79903071576854L365.37557499999957,192.46045437726062L368.5330999999996,202.3466574061996L371.6906249999996,186.00381157614922L374.8481499999996,173.28787315975495L378.00567499999954,196.31942651488518L381.1631999999995,223.88105533339711L384.3207249999995,243.51807323369061L387.47824999999955,199.96763554486316L390.6357749999995,220.44258529489642L393.79329999999953,185.4393187436186L396.95082499999955,192.875631072304L400.1083499999995,217.57280696522056L403.26587499999954,165.81735535101413L406.42339999999956,206.42683863639783L409.5809249999995,239.18872453949615L412.73844999999955,225.92273332855868L415.89597499999957,241.32748874750953L419.0534999999996,212.13352116671427L422.21102499999955,207.35376618125173L425.3685499999996,206.14530910145106L428.5260749999996,216.30003538998642L431.68359999999956,195.08536653085142L434.8411249999995,176.0549326376477L437.9986499999995,224.910804141651L441.1561749999995,233.07516065510785L444.3136999999995,244.26076227968335L447.4712249999995,214.65837717056226L450.6287499999995,228.30513477325388L453.78627499999953,214.6302139759059L456.9437999999995,192.4858524582598L460.1013249999995,241.5470592542123L463.25884999999954,200.14982581138565L466.4163749999995,206.5257682583544L469.57389999999947,222.7499190243803L472.7314249999995,247.00395985083094L475.88894999999945,251.7691723866891L479.0464749999995,218.83421085097524L482.2039999999995,230.52224386822041L485.36152499999946,209.96423829685511L488.5190499999995,214.9298703670497L491.6765749999995,230.8385933529242L494.83409999999947,172.24522048776757L497.9916249999995,234.03752261942032L501.1491499999995,250.29362580992904L504.3066749999994,247.6625689593223L507.46419999999944,250.6074150042095L510.62172499999946,236.05892311442932L513.7792499999995,224.27677382122337L516.9367749999994,220.5206229469988L520.0942999999994,232.8740242394529L523.2518249999995,215.30459447340485L526.4093499999994,187.83206376162397L529.5668749999994,245.50147901881772L532.7243999999995,246.57936128702977L535.8819249999995,268.9749385010107L539.0394499999994,227.06185774369624L542.1969749999994,246.80149208415585L545.3544999999993,220.90876297517207L548.5120249999994,215.40587956255084L551.6695499999994,249.27729292349326L554.8270749999994,189.64136979796626L557.9845999999994,237.06163525581306L561.1421249999994,252.60700182481193L564.2996499999994,254.1068199547849L567.4571749999994,269.6860847689883L570.6146999999994,234.31956421245178L573.7722249999994,237.65408645976623L576.9297499999993,241.81384151632082L580.0872749999994,225.6789936802599L583.2447999999994,221.2291065129362L586.4023249999993,203.54036721316203L589.5598499999994,242.55991014567235L592.7173749999994,256.36202617125025L595.8748999999993,266.9088865410192L599.0324249999994,242.54536769606798L602.1899499999994,252.24436228925478L605.3474749999993,237.94841744682952L608.5049999999993,215.46937476504883L611.6625249999993,260.10045983574554L614.8200499999994,223.649912313981L617.9775749999993,222.94859756122887L621.1350999999993,236.49847377430257L624.2926249999994,271.5454700860105L627.4501499999993,276.58893498507354L630.6076749999993,235.06737383929115L633.7651999999993,261.4276119795707L636.9227249999993,224.79425972158208L640.0802499999993,237.95282114635762L643.2377749999994,259.90137165242925L646.3952999999992,183.42990040779068L649.5528249999993,252.4501072276717L652.7103499999993,273.7150601907204L655.8678749999993,261.4587451111181L659.0253999999993,270.42068329724344L662.1829249999992,254.78826685385218L665.3404499999992,248.59738219867998L668.4979749999992,233.601044308055L671.6554999999993,257.435811974785L674.8130249999992,227.60146455331233L677.9705499999993,209.37444979494222L681.1280749999993,263.50667021491256L684.2855999999992,264.1528875177551L687.4431249999992,282.2992019219826L690.6006499999993,243.6301115426145L693.7581749999993,262.8401754119174L696.9156999999992,241.77799745039454L700.0732249999993,234.03803467750498L703.2307499999991,263.3768122846424L706.3882749999992,212.28908441283437L709.5457999999992,258.545544255863L712.7033249999993,261.09835863113346L715.8608499999992,270.7980701056388L719.0183749999993,279.40750750628325L722.1758999999992,259.0032217719333L725.3334249999992,256.10210548747614L728.4909499999992,245.48755103891492L731.6484749999992,243.0599860711526L734.8059999999992,244.4735736196686L737.9635249999991,216.72432671893677L741.1210499999992,259.2140872911968L744.2785749999991,278.6073655431915L747.4360999999992,276.74838987263706L750.5936249999992,263.8395079699424L753.7511499999993,264.4727189974346L756.9086749999991,255.81064202568695L760.0661999999992,242.13295611468175L763.2237249999991,263.170350464907L766.3812499999991,242.66027353026598L769.5387749999992,233.24045300483652L772.6962999999992,247.72964856841296L775.8538249999991,280.2532226389099L779.0113499999991,293.8336175138294L782.1688749999992,258.3376486734905L785.3263999999991,273.54597861116525L788.4839249999992,237.03961675817263L791.6414499999992,246.55068603428873L794.7989749999992,269.1991175304754L797.9564999999991,213.29466407949226L801.1140249999991,262.1970304575828L804.2715499999991,285.2637109973208L807.4290749999991,274.8147561333391L810.5865999999992,286.07716647061375L813.744124999999,266.49063749746784L816.9016499999991,259.38634363087687L820.0591749999991,255.32818089831906L823.2166999999992,264.4247903607103L826.3742249999991,240.81491860476356L829.5317499999992,229.39612572843328L832.689274999999,269.9243966015897L835.846799999999,280.33556157892343L839.0043249999991,289.6146685426879L842.161849999999,261.3514177365731L845.3193749999991,275.61530774289855L848.476899999999,256.03523070161935L851.634424999999,236.51086557995137L854.791949999999,279.9682111089874L857.9494749999991,241.84333606199732L861.1069999999991,257.3311473022802L864.2645249999991,265.81513047218266L867.422049999999,288.4604896198614L870.579574999999,289.8379258676003L873.737099999999,264.2448531497603L876.894624999999,274.78546641089645L880.0521499999991,254.9738367037334L883.209674999999,252.0063576915042L886.3671999999991,270.645067149942L889.524724999999,222.7769556912504L892.682249999999,266.10751563852426L895.839774999999,291.0404430736189L898.9972999999991,284.6673681519242L902.154824999999,292.2227851911019L905.3123499999989,271.6017964753232L908.469874999999,266.475275754928L911.6273999999989,257.0025084235446L914.784924999999,271.89622987400344L917.942449999999,254.94976997375431L921.0999749999991,231.9680910760701L924.2574999999989,275.5355290933083L927.415024999999,285.9386035529044L930.572549999999,305.7382511008864L933.730074999999,267.40199847654804L936.887599999999,283.74914559450957L940.0451249999988,254.0306257117873L943.2026499999989,246.76749142733433L946.3601749999989,285.981616432016L949.517699999999,229.03072107921898L952.6752249999989,269.2172443866724L955.832749999999,294.70985130830184L958.9902749999989,286.0099844499062L962.1477999999989,299.29666280746403L965.3053249999989,270.72986396876195L968.462849999999,274.8322685198345L971.620374999999,267.88097760894027L974.7778999999989,261.98872522874257L977.935424999999,256.450100161812L981.0929499999988,238.42473387718147L984.2504749999989,277.28318333625737L987.4079999999989,291.34030428799656L990.565524999999,298.649523800069L993.7230499999989,271.9818459857588L996.880574999999,284.5597335425284L1000.0380999999988,275.0634115392506L1003.1956249999989,246.38211651281824L1006.3531499999989,292.7493857253676L1009.5106749999989,253.12581907619077L1012.6681999999989,255.09488723494735L1015.8257249999988,267.350690256465L1018.9832499999989,302.54495447332147L1022.1407749999988,308.26310710473433L1025.298299999999,265.51342584870025L1028.4558249999989,288.95667390389815L1031.613349999999,255.691127668727L1034.7708749999988,268.1246148456221L1037.9283999999989,285.0519237735049L1041.085924999999,218.32317688248327L1044.2434499999988,280.8795720880676L1047.4009749999989,305.84025307135084L1050.5584999999987,291.1557585542846L1053.7160249999988,300.3117667544966L1056.8735499999989,282.1521388400679L1060.031074999999,279.23535357822016L1063.1885999999988,263.5230560736217L1066.346124999999,282.61288870464614L1069.5036499999987,257.8692179376423L1072.6611749999988,236.0887248949566L1075.818699999999,291.6045262596818L1078.9762249999987,293.77831524068597" style="fill: none;" fill="none"></path></g></g></g></g></g></g><g transform="translate(60, 378)" clip-path="url(#clip_1)"><clipPath id="clip_1"><rect width="1263" height="21"></rect></clipPath><g><g><line x1="134.87624999999983" y1="0" x2="134.87624999999983" y2="5" style="visibility: inherit;" fill="rgb(0, 0, 0)" stroke="rgb(204, 204, 204)" stroke-width="1px"></line><line x1="292.75249999999966" y1="0" x2="292.75249999999966" y2="5" style="visibility: inherit;" fill="rgb(0, 0, 0)" stroke="rgb(204, 204, 204)" stroke-width="1px"></line><line x1="450.6287499999995" y1="0" x2="450.6287499999995" y2="5" style="visibility: inherit;" fill="rgb(0, 0, 0)" stroke="rgb(204, 204, 204)" stroke-width="1px"></line><line x1="608.5049999999993" y1="0" x2="608.5049999999993" y2="5" style="visibility: inherit;" fill="rgb(0, 0, 0)" stroke="rgb(204, 204, 204)" stroke-width="1px"></line><line x1="766.3812499999991" y1="0" x2="766.3812499999991" y2="5" style="visibility: inherit;" fill="rgb(0, 0, 0)" stroke="rgb(204, 204, 204)" stroke-width="1px"></line><line x1="924.2574999999989" y1="0" x2="924.2574999999989" y2="5" style="visibility: inherit;" fill="rgb(0, 0, 0)" stroke="rgb(204, 204, 204)" stroke-width="1px"></line><line x1="1082.1337499999988" y1="0" x2="1082.1337499999988" y2="5" style="visibility: inherit;" fill="rgb(0, 0, 0)" stroke="rgb(204, 204, 204)" stroke-width="1px"></line><line x1="1240.0099999999986" y1="0" x2="1240.0099999999986" y2="5" style="visibility: inherit;" fill="rgb(0, 0, 0)" stroke="rgb(204, 204, 204)" stroke-width="1px"></line></g><g transform="translate(0, 8)"><text x="134.87624999999983" y="0" dx="0em" dy="0.95em" style="text-anchor: middle; visibility: inherit; font-family: &quot;Helvetica Neue&quot;, sans-serif; font-size: 12px; font-weight: 200;" fill="rgb(50, 49, 63)" stroke="none" stroke-width="1px">0</text><text x="292.75249999999966" y="0" dx="0em" dy="0.95em" style="text-anchor: middle; visibility: inherit; font-family: &quot;Helvetica Neue&quot;, sans-serif; font-size: 12px; font-weight: 200;" fill="rgb(50, 49, 63)" stroke="none" stroke-width="1px">50</text><text x="450.6287499999995" y="0" dx="0em" dy="0.95em" style="text-anchor: middle; visibility: inherit; font-family: &quot;Helvetica Neue&quot;, sans-serif; font-size: 12px; font-weight: 200;" fill="rgb(50, 49, 63)" stroke="none" stroke-width="1px">100</text><text x="608.5049999999993" y="0" dx="0em" dy="0.95em" style="text-anchor: middle; visibility: inherit; font-family: &quot;Helvetica Neue&quot;, sans-serif; font-size: 12px; font-weight: 200;" fill="rgb(50, 49, 63)" stroke="none" stroke-width="1px">150</text><text x="766.3812499999991" y="0" dx="0em" dy="0.95em" style="text-anchor: middle; visibility: inherit; font-family: &quot;Helvetica Neue&quot;, sans-serif; font-size: 12px; font-weight: 200;" fill="rgb(50, 49, 63)" stroke="none" stroke-width="1px">200</text><text x="924.2574999999989" y="0" dx="0em" dy="0.95em" style="text-anchor: middle; visibility: inherit; font-family: &quot;Helvetica Neue&quot;, sans-serif; font-size: 12px; font-weight: 200;" fill="rgb(50, 49, 63)" stroke="none" stroke-width="1px">250</text><text x="1082.1337499999988" y="0" dx="0em" dy="0.95em" style="text-anchor: middle; visibility: inherit; font-family: &quot;Helvetica Neue&quot;, sans-serif; font-size: 12px; font-weight: 200;" fill="rgb(50, 49, 63)" stroke="none" stroke-width="1px">300</text><text x="1240.0099999999986" y="0" dx="0em" dy="0.95em" style="text-anchor: middle; visibility: inherit; font-family: &quot;Helvetica Neue&quot;, sans-serif; font-size: 12px; font-weight: 200;" fill="rgb(50, 49, 63)" stroke="none" stroke-width="1px">350</text></g><line x1="0" y1="0" x2="1263.01" y2="0" fill="rgb(0, 0, 0)" stroke="rgb(204, 204, 204)" stroke-width="1px"></line></g></g></g></g></svg>