<svg viewBox="0 0 1323.0113525390625 400" xmlns="http://www.w3.org/2000/svg"><g><g><g><g><g><line x1="60" y1="373.76923076923197" x2="55" y2="373.76923076923197" style="visibility: inherit;" fill="rgb(0, 0, 0)" stroke="rgb(204, 204, 204)" stroke-width="1px"></line><line x1="60" y1="344.6923076923089" x2="55" y2="344.6923076923089" style="visibility: inherit;" fill="rgb(0, 0, 0)" stroke="rgb(204, 204, 204)" stroke-width="1px"></line><line x1="60" y1="315.61538461538584" x2="55" y2="315.61538461538584" style="visibility: inherit;" fill="rgb(0, 0, 0)" stroke="rgb(204, 204, 204)" stroke-width="1px"></line><line x1="60" y1="286.53846153846274" x2="55" y2="286.53846153846274" style="visibility: inherit;" fill="rgb(0, 0, 0)" stroke="rgb(204, 204, 204)" stroke-width="1px"></line><line x1="60" y1="257.4615384615397" x2="55" y2="257.4615384615397" style="visibility: inherit;" fill="rgb(0, 0, 0)" stroke="rgb(204, 204, 204)" stroke-width="1px"></line><line x1="60" y1="228.38461538461658" x2="55" y2="228.38461538461658" style="visibility: inherit;" fill="rgb(0, 0, 0)" stroke="rgb(204, 204, 204)" stroke-width="1px"></line><line x1="60" y1="199.30769230769383" x2="55" y2="199.30769230769383" style="visibility: inherit;" fill="rgb(0, 0, 0)" stroke="rgb(204, 204, 204)" stroke-width="1px"></line><line x1="60" y1="170.23076923077076" x2="55" y2="170.23076923077076" style="visibility: inherit;" fill="rgb(0, 0, 0)" stroke="rgb(204, 204, 204)" stroke-width="1px"></line><line x1="60" y1="141.1538461538477" x2="55" y2="141.1538461538477" style="visibility: inherit;" fill="rgb(0, 0, 0)" stroke="rgb(204, 204, 204)" stroke-width="1px"></line><line x1="60" y1="112.07692307692457" x2="55" y2="112.07692307692457" style="visibility: inherit;" fill="rgb(0, 0, 0)" stroke="rgb(204, 204, 204)" stroke-width="1px"></line><line x1="60" y1="83.00000000000153" x2="55" y2="83.00000000000153" style="visibility: inherit;" fill="rgb(0, 0, 0)" stroke="rgb(204, 204, 204)" stroke-width="1px"></line><line x1="60" y1="53.92307692307844" x2="55" y2="53.92307692307844" style="visibility: inherit;" fill="rgb(0, 0, 0)" stroke="rgb(204, 204, 204)" stroke-width="1px"></line><line x1="60" y1="24.846153846155403" x2="55" y2="24.846153846155403" style="visibility: inherit;" fill="rgb(0, 0, 0)" stroke="rgb(204, 204, 204)" stroke-width="1px"></line></g><g transform="translate(50, 0)"><text x="0" y="373.76923076923197" dx="0em" dy="0.3em" style="text-anchor: end; visibility: hidden; font-family: &quot;Helvetica Neue&quot;, sans-serif; font-size: 12px; font-weight: 200;" fill="rgb(50, 49, 63)" stroke="none" stroke-width="1px">0.38</text><text x="0" y="344.6923076923089" dx="0em" dy="0.3em" style="text-anchor: end; visibility: inherit; font-family: &quot;Helvetica Neue&quot;, sans-serif; font-size: 12px; font-weight: 200;" fill="rgb(50, 49, 63)" stroke="none" stroke-width="1px">0.385</text><text x="0" y="315.61538461538584" dx="0em" dy="0.3em" style="text-anchor: end; visibility: inherit; font-family: &quot;Helvetica Neue&quot;, sans-serif; font-size: 12px; font-weight: 200;" fill="rgb(50, 49, 63)" stroke="none" stroke-width="1px">0.39</text><text x="0" y="286.53846153846274" dx="0em" dy="0.3em" style="text-anchor: end; visibility: inherit; font-family: &quot;Helvetica Neue&quot;, sans-serif; font-size: 12px; font-weight: 200;" fill="rgb(50, 49, 63)" stroke="none" stroke-width="1px">0.395</text><text x="0" y="257.4615384615397" dx="0em" dy="0.3em" style="text-anchor: end; visibility: inherit; font-family: &quot;Helvetica Neue&quot;, sans-serif; font-size: 12px; font-weight: 200;" fill="rgb(50, 49, 63)" stroke="none" stroke-width="1px">0.4</text><text x="0" y="228.38461538461658" dx="0em" dy="0.3em" style="text-anchor: end; visibility: inherit; font-family: &quot;Helvetica Neue&quot;, sans-serif; font-size: 12px; font-weight: 200;" fill="rgb(50, 49, 63)" stroke="none" stroke-width="1px">0.405</text><text x="0" y="199.30769230769383" dx="0em" dy="0.3em" style="text-anchor: end; visibility: inherit; font-family: &quot;Helvetica Neue&quot;, sans-serif; font-size: 12px; font-weight: 200;" fill="rgb(50, 49, 63)" stroke="none" stroke-width="1px">0.41</text><text x="0" y="170.23076923077076" dx="0em" dy="0.3em" style="text-anchor: end; visibility: inherit; font-family: &quot;Helvetica Neue&quot;, sans-serif; font-size: 12px; font-weight: 200;" fill="rgb(50, 49, 63)" stroke="none" stroke-width="1px">0.415</text><text x="0" y="141.1538461538477" dx="0em" dy="0.3em" style="text-anchor: end; visibility: inherit; font-family: &quot;Helvetica Neue&quot;, sans-serif; font-size: 12px; font-weight: 200;" fill="rgb(50, 49, 63)" stroke="none" stroke-width="1px">0.42</text><text x="0" y="112.07692307692457" dx="0em" dy="0.3em" style="text-anchor: end; visibility: inherit; font-family: &quot;Helvetica Neue&quot;, sans-serif; font-size: 12px; font-weight: 200;" fill="rgb(50, 49, 63)" stroke="none" stroke-width="1px">0.425</text><text x="0" y="83.00000000000153" dx="0em" dy="0.3em" style="text-anchor: end; visibility: inherit; font-family: &quot;Helvetica Neue&quot;, sans-serif; font-size: 12px; font-weight: 200;" fill="rgb(50, 49, 63)" stroke="none" stroke-width="1px">0.43</text><text x="0" y="53.92307692307844" dx="0em" dy="0.3em" style="text-anchor: end; visibility: inherit; font-family: &quot;Helvetica Neue&quot;, sans-serif; font-size: 12px; font-weight: 200;" fill="rgb(50, 49, 63)" stroke="none" stroke-width="1px">0.435</text><text x="0" y="24.846153846155403" dx="0em" dy="0.3em" style="text-anchor: end; visibility: inherit; font-family: &quot;Helvetica Neue&quot;, sans-serif; font-size: 12px; font-weight: 200;" fill="rgb(50, 49, 63)" stroke="none" stroke-width="1px">0.44</text></g><line x1="60" y1="0" x2="60" y2="378" fill="rgb(0, 0, 0)" stroke="rgb(204, 204, 204)" stroke-width="1px"></line></g></g><g transform="translate(60, 0)" clip-path="url(#clip_0)"><clipPath id="clip_0"><rect width="1263" height="377"></rect></clipPath><g><g><g><line x1="2.0000000000000067" y1="0" x2="2.0000000000000067" y2="378" fill="rgb(0, 0, 0)" stroke="rgb(60, 60, 60)" stroke-width="1px" opacity="0.25"></line><line x1="159.87625" y1="0" x2="159.87625" y2="378" fill="rgb(0, 0, 0)" stroke="rgb(60, 60, 60)" stroke-width="1px" opacity="0.25"></line><line x1="317.75249999999994" y1="0" x2="317.75249999999994" y2="378" fill="rgb(0, 0, 0)" stroke="rgb(60, 60, 60)" stroke-width="1px" opacity="0.25"></line><line x1="475.62874999999997" y1="0" x2="475.62874999999997" y2="378" fill="rgb(0, 0, 0)" stroke="rgb(60, 60, 60)" stroke-width="1px" opacity="0.25"></line><line x1="633.505" y1="0" x2="633.505" y2="378" fill="rgb(0, 0, 0)" stroke="rgb(60, 60, 60)" stroke-width="1px" opacity="0.25"></line><line x1="791.3812499999999" y1="0" x2="791.3812499999999" y2="378" fill="rgb(0, 0, 0)" stroke="rgb(60, 60, 60)" stroke-width="1px" opacity="0.25"></line><line x1="949.2574999999999" y1="0" x2="949.2574999999999" y2="378" fill="rgb(0, 0, 0)" stroke="rgb(60, 60, 60)" stroke-width="1px" opacity="0.25"></line><line x1="1107.13375" y1="0" x2="1107.13375" y2="378" fill="rgb(0, 0, 0)" stroke="rgb(60, 60, 60)" stroke-width="1px" opacity="0.25"></line></g><g><line x1="0" y1="373.76923076923197" x2="1263.01" y2="373.76923076923197" fill="rgb(0, 0, 0)" stroke="rgb(60, 60, 60)" stroke-width="1px" opacity="0.25"></line><line x1="0" y1="344.6923076923089" x2="1263.01" y2="344.6923076923089" fill="rgb(0, 0, 0)" stroke="rgb(60, 60, 60)" stroke-width="1px" opacity="0.25"></line><line x1="0" y1="315.61538461538584" x2="1263.01" y2="315.61538461538584" fill="rgb(0, 0, 0)" stroke="rgb(60, 60, 60)" stroke-width="1px" opacity="0.25"></line><line x1="0" y1="286.53846153846274" x2="1263.01" y2="286.53846153846274" fill="rgb(0, 0, 0)" stroke="rgb(60, 60, 60)" stroke-width="1px" opacity="0.25"></line><line x1="0" y1="257.4615384615397" x2="1263.01" y2="257.4615384615397" fill="rgb(0, 0, 0)" stroke="rgb(60, 60, 60)" stroke-width="1px" opacity="0.25"></line><line x1="0" y1="228.38461538461658" x2="1263.01" y2="228.38461538461658" fill="rgb(0, 0, 0)" stroke="rgb(60, 60, 60)" stroke-width="1px" opacity="0.25"></line><line x1="0" y1="199.30769230769383" x2="1263.01" y2="199.30769230769383" fill="rgb(0, 0, 0)" stroke="rgb(60, 60, 60)" stroke-width="1px" opacity="0.25"></line><line x1="0" y1="170.23076923077076" x2="1263.01" y2="170.23076923077076" fill="rgb(0, 0, 0)" stroke="rgb(60, 60, 60)" stroke-width="1px" opacity="0.25"></line><line x1="0" y1="141.1538461538477" x2="1263.01" y2="141.1538461538477" fill="rgb(0, 0, 0)" stroke="rgb(60, 60, 60)" stroke-width="1px" opacity="0.25"></line><line x1="0" y1="112.07692307692457" x2="1263.01" y2="112.07692307692457" fill="rgb(0, 0, 0)" stroke="rgb(60, 60, 60)" stroke-width="1px" opacity="0.25"></line><line x1="0" y1="83.00000000000153" x2="1263.01" y2="83.00000000000153" fill="rgb(0, 0, 0)" stroke="rgb(60, 60, 60)" stroke-width="1px" opacity="0.25"></line><line x1="0" y1="53.92307692307844" x2="1263.01" y2="53.92307692307844" fill="rgb(0, 0, 0)" stroke="rgb(60, 60, 60)" stroke-width="1px" opacity="0.25"></line><line x1="0" y1="24.846153846155403" x2="1263.01" y2="24.846153846155403" fill="rgb(0, 0, 0)" stroke="rgb(60, 60, 60)" stroke-width="1px" opacity="0.25"></line></g></g></g><g><g><line x1="0" y1="2583.615384615384" x2="1263.01" y2="2583.615384615384" fill="rgb(0, 0, 0)" stroke="rgb(153, 153, 153)" stroke-width="1.5px"></line></g></g><g><g><line x1="159.87625" y1="0" x2="159.87625" y2="378" fill="rgb(0, 0, 0)" stroke="rgb(153, 153, 153)" stroke-width="1.5px"></line></g></g><g><g><g><g><g><path stroke="rgb(255, 112, 67)" stroke-width="2px" d="M175.66387499999996,-22.47945752290167L178.82139999999998,7.136452055698555L181.97892499999998,62.64488552990713L185.13644999999997,32.87612160240286L188.293975,94.02463149505678L191.45149999999998,94.39299611839192L194.609025,124.0973107872197L197.76655,137.94756103659486L200.924075,123.02409335708234L204.08159999999995,121.40394099580072L207.23912499999997,131.62336740790536L210.39664999999997,126.87509433752717L213.55417499999996,137.2035324151936L216.71169999999998,111.4126421298289L219.86922499999997,160.42356226033002L223.02675,171.63190021693092L226.18427499999999,189.61013552936618L229.34179999999998,176.3011776863718L232.499325,177.88784358113608L235.65684999999996,163.93160564530243L238.81437499999996,159.40224261511105L241.97189999999995,191.71599207993518L245.12942499999997,168.71341345959493L248.28694999999996,168.87543495483663L251.44447499999998,175.71075192743518L254.60199999999998,217.35424946450422L257.759525,227.37606039479664L260.91704999999996,191.20270415167354L264.074575,207.7934531890681L267.2321,176.80643105103857L270.38962499999997,191.51677672631365L273.54714999999993,218.57609564041934L276.70467499999995,153.24978296845688L279.8622,206.45639667983951L283.01972499999994,236.55170938225896L286.17724999999996,223.67083557560747L289.334775,237.55944874777276L292.49229999999994,222.9192286672623L295.64982499999996,211.7694898330735L298.80735,207.12881900281874L301.964875,226.0918157902461L305.12239999999997,204.65563623143473L308.27992499999993,182.52681390986493L311.43744999999996,234.22661901465818L314.594975,233.64003864621984L317.75249999999994,259.42360727860927L320.91002499999996,223.32124851697964L324.06755,238.96867406379423L327.22507499999995,220.86619898760856L330.38259999999997,213.9664090591313L333.540125,243.3215175085168L336.69764999999995,200.06273835161022L339.855175,233.68587043545577L343.0127,244.19321046926592L346.17022499999996,256.3295974543064L349.32775,265.508537172846L352.485275,242.25496447374778L355.6427999999999,239.58563228751962L358.80032499999993,230.69094548885533L361.95784999999995,230.27726035314808L365.1153749999999,235.82978189184013L368.27289999999994,205.78835124882653L371.43042499999996,248.07195167765954L374.5879499999999,261.2277287301054L377.74547499999994,270.37907347269936L380.90299999999996,263.36910482695095L384.0605249999999,256.47155656098096L387.21804999999995,243.41035520350363L390.37557499999997,243.38020499918218L393.53309999999993,252.54316783509472L396.69062499999995,238.51084166153728L399.84815,225.130165589957L403.00567499999994,244.75984519381288L406.16319999999996,272.8185281516567L409.320725,294.7000716048937L412.47824999999995,256.4919213017511L415.63577499999997,271.00283015607886L418.7933,240.2053165310092L421.95082499999995,243.37871686051085L425.10835,266.74178707128283L428.265875,221.67653471926954L431.4234,253.73359396339504L434.580925,288.31364422703405L437.73845,279.9620916910952L440.895975,293.48401669436714L444.0535,267.6709612165117L447.211025,260.1166149324695L450.36855,258.0843836246142L453.526075,267.31532859537964L456.6836,248.67835828602838L459.84112500000003,228.88963452708174L462.99865,271.8813500276459L466.15617499999996,284.72175024466105L469.3136999999999,296.8327703604999L472.47122499999995,270.4303812776068L475.62874999999997,280.0556235112811L478.78627499999993,268.39180624354424L481.94379999999995,246.4014663617705L485.101325,289.66385638803035L488.25885,256.05701911973745L491.41637499999996,257.9521334408681L494.5739,273.3407116632351L497.731425,298.06665591268376L500.88894999999997,305.5605530190746L504.046475,275.38483245338745L507.204,282.7359463791819L510.361525,264.3576299805562L513.51905,266.7876061552946L516.676575,282.00351273335457L519.8341,229.39286749428425L522.991625,280.5298312278222L526.14915,302.0537629437744L529.306675,302.1373791291724L532.4642,304.9442245420387L535.621725,291.50395085714115L538.7792499999999,278.80026131611044L541.9367749999999,273.75303793271195L545.0943,284.7558621439722L548.2518249999999,269.5857198927543L551.4093499999999,242.24382622372195L554.566875,292.9102389107589L557.7244,300.01266584944426L560.8819249999999,322.22126183766443L564.03945,285.1022678705518L567.196975,299.2864844065476L570.3544999999999,276.57436928749246L573.512025,268.69849975923506L576.66955,299.66858618592005L579.8270749999999,247.52426183762609L582.9846,285.5588403961352L586.142125,304.85635106735805L589.29965,308.59943584411576L592.457175,323.9334141908728L595.6147,292.1406821735854L598.772225,291.4722341363863L601.9297499999999,295.3253701280166L605.087275,280.5750320316823L608.2447999999999,274.62975365776316L611.4023249999999,257.4025043730712L614.55985,291.94283980617456L617.717375,309.19752411919126L620.8748999999999,321.3433486732538L624.032425,299.6020148144012L627.18995,306.19608658469394L630.3474749999999,293.43676414131465L633.505,270.78146780880826L636.662525,310.2234916721487L639.8200499999999,280.4572900658868L642.977575,276.22785572972646L646.1350999999999,288.471453493373L649.2926249999999,323.3021712931494L652.4501499999999,332.3283116826859L655.607675,293.85299203517235L658.7651999999999,314.25947033243915L661.922725,282.0163774055169L665.0802499999999,290.5396219612141L668.2377749999999,312.40397952114046L671.3952999999999,243.32101296053492L674.552825,299.6386525637071L677.71035,326.7263462485546L680.867875,318.23340311347783L684.0253999999999,325.79425991123486L687.182925,311.7606292059884L690.3404499999999,304.19029519501333L693.497975,289.09419086163507L696.6555,309.87936377833614L699.813025,284.12865594827633L702.9705499999999,263.97448270077496L706.1280749999999,312.6614660665833L709.2855999999999,319.12097786315775L712.4431249999999,337.3295977808734L715.60065,302.5480076176123L718.7581749999999,316.65338837488787L721.9157,298.3127928671478L725.0732249999999,288.80022227256586L728.23075,315.51595044332026L731.3882749999999,270.4602921290193L734.5458,308.700984203339L737.703325,315.72704945863126L740.86085,325.8546518822086L744.0183749999999,335.34952052081155L747.1759,316.92449322731625L750.3334249999999,311.94748641675244L753.49095,301.26156188425125L756.648475,297.68024689911977L759.806,298.58895662550555L762.9635249999999,272.5730251943727L766.12105,309.59248045461413L769.2785749999999,332.627251509512L772.4360999999999,333.60151349955356L775.593625,321.33409250157695L778.7511499999998,320.468552271854L781.9086749999999,312.0947395119709L785.0661999999999,298.1025070881831L788.223725,316.43441327440655L791.3812499999999,299.1224479998419L794.538775,288.1454842503529L797.6962999999998,300.53274681806994L800.8538249999999,333.1254720235182L804.0113499999999,350.17145549231066L807.168875,318.0680549165528L810.3263999999999,328.7748364971906L813.483925,295.28801486452727L816.6414499999998,300.2713089209608L819.7989749999999,322.46719198051284L822.9564999999999,272.232710508577L826.114025,312.40015658896743L829.2715499999999,339.3857969760079L832.429075,332.55216670563635L835.5866,342.590098083103L838.7441249999999,324.94949684676027L841.9016499999999,316.0417626883238L845.0591749999999,311.10415099438774L848.2167,319.1948999026107L851.3742249999999,297.70634741284675L854.53175,284.3550097270278L857.6892749999998,321.25254982435365L860.8467999999999,335.692223542142L864.0043249999999,346.39009355317467L867.16185,320.49132559781384L870.3193749999999,331.05502852211725L873.4769,313.57924706361354L876.6344249999999,292.9656691013936L879.7919499999999,331.9428965416049L882.9494749999999,300.20975977582737L886.107,311.1133350301935L889.2645249999999,320.52623372683166L892.42205,343.4533108643689L895.5795749999999,347.5376896368881L898.7370999999999,323.3944306050794L901.8946249999999,330.605750125534L905.05215,312.5144673441431L908.209675,307.5195543532288L911.3671999999998,324.72410109239576L914.5247249999999,281.3789702226369L917.6822499999998,317.23827914348635L920.8397749999999,345.5569443331665L923.9972999999999,342.7882590924278L927.154825,349.76908862797166L930.3123499999998,330.71157262423526L933.4698749999999,323.50927988218325L936.6273999999999,313.5957075670925L939.7849249999999,326.6536813520499L942.9424499999999,312.0168843680724L946.099975,288.4934423422672L949.2574999999999,327.1384152077961L952.4150249999999,341.8068451741515L955.5725499999999,362.79990170971297L958.7300749999999,328.2490390885331L961.8875999999999,339.8250485230695L965.045125,312.72323513654663L968.20265,302.569124941475L971.360175,338.9006243527664L974.5176999999999,288.9545552068036L977.6752249999998,321.12672070588644L980.8327499999999,349.5821788739284L983.9902749999999,344.56903338212766L987.1478,356.85386619614997L990.3053249999998,330.7255087586028L993.4628499999999,331.53092883421306L996.6203749999999,324.9550685093153L999.7778999999999,318.5278080860202L1002.9354249999999,312.47114576126427L1006.09295,294.6402991672606L1009.2504749999998,329.55857833347363L1012.4079999999999,347.3256153885762L1015.5655249999999,356.554618509106L1018.72305,331.89080348280316L1021.8805749999999,341.04491733832447L1025.0381,332.99055644835073L1028.1956249999998,304.63562616793547L1031.35315,345.7012388124979L1034.510675,312.56575578358996L1037.6682,310.465121523124L1040.825725,321.91853567089197L1043.98325,357.29911035956275L1047.1407749999998,367.12513349923785L1050.2983,326.9590920503476L1053.455825,344.7044545197884L1056.6133499999999,314.88957697061255L1059.770875,323.1920635763325L1062.9283999999998,340.4758462847444L1066.0859249999999,279.0954669886704L1069.24345,331.15665095793423L1072.400975,361.6216229070815L1075.5584999999999,350.993671134349L1078.716025,358.61174425691985L1081.8735499999998,341.9269562632994L1085.0310749999999,337.11149866409147L1088.1886,321.45315943528755L1091.346125,337.9117433700941L1094.5036499999999,316.14971685681263L1097.661175,292.875910035974L1100.8186999999998,343.1800721195918L1103.9762249999999,351.3241698743742" style="fill: none;" fill="none"></path></g></g></g></g><g opacity="0.2"><g><g><g><path stroke="rgb(255, 112, 67)" stroke-width="2px" d="M175.66387499999996,-20.186867200409665L178.82139999999998,11.174973121057747L181.97892499999998,70.21421465507069L185.13644999999997,28.816744877743417L188.293975,102.36306461921254L191.45149999999998,94.44322765790645L194.609025,128.14789915084984L197.76655,139.83623152512914L200.924075,120.98907503715071L204.08159999999995,121.18301112835366L207.23912499999997,133.01692555501054L210.39664999999997,126.22760255520305L213.55417499999996,138.61195578942073L216.71169999999998,107.89570254546095L219.86922499999997,167.10686955085308L223.02675,173.16030993828548L226.18427499999999,192.0617130719712L229.34179999999998,174.48631979869103L232.499325,178.10420711224035L235.65684999999996,162.02848229041606L238.81437499999996,158.78460220190337L241.97189999999995,196.12241246150228L245.12942499999997,165.57669819318474L248.28694999999996,168.897528795097L251.44447499999998,176.6428406055171L254.60199999999998,223.0329082195589L257.759525,228.7426709762L260.91704999999996,186.26997375488423L264.074575,210.055828057804L267.2321,172.5809280322162L270.38962499999997,193.52273295476024L273.54714999999993,222.26600276507L276.70467499999995,144.3416494222802L279.8622,213.7118440041189L283.01972499999994,240.6556156598618L286.17724999999996,221.91435278379137L289.334775,239.45335054397717L292.49229999999994,220.92283501991994L295.64982499999996,210.2490709011385L298.80735,206.49600025323858L301.964875,228.67767898853145L305.12239999999997,201.7325208370516L308.27992499999993,179.50924722965087L311.43744999999996,241.27659243803893L314.594975,233.5600504141601L317.75249999999994,262.9395484557532L320.91002499999996,218.3981995949392L324.06755,241.1024139110872L327.22507499999995,218.39767965903786L330.38259999999997,213.025528614339L333.540125,247.3244868425236L336.69764999999995,194.16381392112282L339.855175,238.2708429923438L343.0127,245.62602956478545L346.17022499999996,257.98455931590286L349.32775,266.7602107708284L352.485275,239.0840227420527L355.6427999999999,239.22163244394292L358.80032499999993,229.47803365267376L361.95784999999995,230.2208487437335L365.1153749999999,236.5869439198434L368.27289999999994,201.69179252477932L371.43042499999996,253.8378971906822L374.5879499999999,263.0216983281662L377.74547499999994,271.6269841194166L380.90299999999996,262.4132000116215L384.0605249999999,255.53098179743972L387.21804999999995,241.62928229112026L390.37557499999997,243.3760936076838L393.53309999999993,253.79266276726491L396.69062499999995,236.59734263787038L399.84815,223.30552794383257L403.00567499999994,247.43661968524773L406.16319999999996,276.64471219136294L409.320725,297.68391843942624L412.47824999999995,251.2817189876863L415.63577499999997,272.9815904543963L418.7933,236.0056555821359L421.95082499999995,243.81145326907952L425.10835,269.9276602818429L428.265875,215.53127303490407L431.4234,258.1050111330486L434.580925,293.0291056266211L437.73845,278.8232436180128L440.895975,295.3279155584495L444.0535,264.150999105895L447.211025,259.08647680282724L450.36855,257.80726117354305L453.526075,268.57409381866586L456.6836,246.13695324384383L459.84112500000003,226.19117219631624L462.99865,277.7438566868135L466.15617499999996,286.4727139106177L469.3136999999999,298.48427310356857L472.47122499999995,266.8300554935762L475.62874999999997,281.36815654314614L478.78627499999993,266.80128570703494L481.94379999999995,243.40278365061965L485.101325,295.56327320979324L488.25885,251.47426858315237L491.41637499999996,258.2105581210223L494.5739,275.4391541481031L497.731425,301.4383755830631L500.88894999999997,306.58244807903714L504.046475,271.2699614671574L507.204,283.7383710054264L510.361525,261.8514959261981L513.51905,267.1189665427588L516.676575,284.07840908490823L519.8341,222.2186885980473L522.991625,287.5030535551231L526.14915,304.98884454140426L529.306675,302.1487813362721L532.4642,305.32697618924783L535.621725,289.67118626374594L538.7792499999999,277.06794001506057L541.9367749999999,273.0647801986121L545.0943,286.2562472636896L548.2518249999999,267.5170641312246L551.4093499999999,238.51538617794466L554.566875,299.8192951862642L557.7244,300.98117861381075L560.8819249999999,325.24970674514896L564.03945,280.0405868750365L567.196975,301.22069575236526L570.3544999999999,273.4772626803485L573.512025,267.6245175508366L576.66955,303.8917797895591L579.8270749999999,240.4136721537677L582.9846,290.7453738359318L586.142125,307.4878297952518L589.29965,309.1098564954917L592.457175,326.0244112381581L595.6147,287.80530962577365L598.772225,291.38108213131375L601.9297499999999,295.85079776323886L605.087275,278.5636222912728L608.2447999999999,273.8190338795015L611.4023249999999,255.05333401606765L614.55985,296.65288554705234L617.717375,311.55043561642117L620.8748999999999,322.99959747608017L624.032425,296.6372874700119L627.18995,307.0952781897338L630.3474749999999,291.6968565353993L633.505,267.69210921801186L636.662525,315.60194947169504L639.8200499999999,276.3982625741238L642.977575,275.65111468388614L646.1350999999999,290.1410350065978L649.2926249999999,328.05181462948264L652.4501499999999,333.55914900853213L655.607675,288.60635753778445L658.7651999999999,317.04217191843014L661.922725,277.6195920063912L665.0802499999999,291.7018825824457L668.2377749999999,315.385482824767L671.3952999999999,233.9006084295433L674.552825,307.31833069141226L677.71035,330.42012266012466L680.867875,317.0752745041493L684.0253999999999,326.82528583820175L687.182925,309.8469522916366L690.3404499999999,303.1579769207894L693.497975,287.0356311798109L696.6555,312.7137055397046L699.813025,280.6171957896319L702.9705499999999,261.22618634884304L706.1280749999999,319.3006001619205L709.2855999999999,320.0018203808724L712.4431249999999,339.8125914060165L715.60065,297.80506350444045L718.7581749999999,318.57684938724356L721.9157,295.8118025706377L725.0732249999999,287.5030535551231L728.23075,319.15900428478665L731.3882749999999,264.31633872252377L734.5458,313.91562403165506L737.703325,316.6851492661709L740.86085,327.2356885763328L744.0183749999999,336.6442753351664L747.1759,314.4119895054757L750.3334249999999,311.26880366985745L753.49095,299.8043903570922L756.648475,297.19188576478354L759.806,298.71287158819473L762.9635249999999,269.0253981810363L766.12105,314.64058799010184L769.2785749999999,335.7683566533615L772.4360999999999,333.7343674072865L775.593625,319.66126236548916L778.7511499999998,320.35052405871005L781.9086749999999,310.9528559538047L785.0661999999999,296.1944753940302L788.223725,318.934218663437L791.3812499999999,296.7617254624013L794.538775,286.64862555724056L797.6962999999998,302.22191898639517L800.8538249999999,337.5699345515337L804.0113499999999,352.49590778350955L807.168875,313.6903184744041L810.3263999999999,330.2348521672775L813.483925,290.72163009643685L816.6414499999998,300.9508490195654L819.7989749999999,325.49390330681564L822.9564999999999,265.38255394422225L826.114025,317.8775355999299L829.2715499999999,343.0656570287864L832.429075,331.6203080324039L835.5866,343.95890690730295L838.7441249999999,322.5439603145319L841.9016499999999,314.82707166671884L845.0591749999999,310.4308403088509L848.2167,320.298183844641L851.3742249999999,294.77609025515176L854.53175,282.53437276987063L857.6892749999998,326.2840325648981L860.8467999999999,337.6612699582039L864.0043249999999,347.8488940092246L867.16185,316.95967542208285L870.3193749999999,332.49553346634036L873.4769,311.19618595563577L876.6344249999999,290.15472665199997L879.7919499999999,337.25797301072464L882.9494749999999,295.88251385322116L886.107,312.60018620124356L889.2645249999999,321.8098108218279L892.42205,346.5797304740331L895.5795749999999,348.0946503785953L898.7370999999999,320.10216800983267L901.8946249999999,331.58911187832297L905.05215,310.04747423759L908.209675,306.8384298544677L911.3671999999998,327.07017564773685L914.5247249999999,275.46827055857864L917.6822499999998,322.12818490542026L920.8397749999999,349.4185804953954L923.9972999999999,342.4107111050545L927.154825,350.7210199282732L930.3123499999998,328.11282044190756L933.4698749999999,322.5271490537216L936.6273999999999,312.2438567968528L939.7849249999999,328.434314140908L942.9424499999999,310.02095750662124L946.099975,285.28570024783926L949.2574999999999,332.40818423491385L952.4150249999999,343.8070856241092L955.5725499999999,365.66259123728946L958.7300749999999,323.5375578220087L961.8875999999999,341.4035952641426L965.045125,309.02753331111154L968.20265,301.18447355123794L971.360175,343.85491972703323L974.5176999999999,282.1437275959908L977.6752249999998,325.51383418303396L980.8327499999999,353.46246862411624L983.9902749999999,343.8854226332457L987.1478,358.52907067078934L990.3053249999998,327.16255092620975L993.4628499999999,331.6407588445236L996.6203749999999,324.05836028319266L999.7778999999999,317.65136348284335L1002.9354249999999,311.6452372624337L1006.09295,292.2088200862604L1009.2504749999998,334.32016185613907L1012.4079999999999,349.7483931688175L1015.5655249999999,357.8131189346326L1018.72305,328.52755597921646L1021.8805749999999,342.29320559134976L1025.0381,331.8922345088091L1028.1956249999998,300.7690447660606L1031.35315,351.3010950822109L1034.510675,308.0472808251027L1037.6682,310.1786713966969L1040.825725,323.4803648728603L1043.98325,362.1237341807451L1047.1407749999998,368.4650457455574L1050.2983,321.48190458004416L1053.455825,347.12427667471206L1056.6133499999999,310.8239118502703L1059.770875,324.3242208407488L1062.9283999999998,342.83272574498227L1066.0859249999999,270.7254152664785L1069.24345,338.25590331737936L1072.400975,365.7759372637834L1075.5584999999999,349.54440498352176L1078.716025,359.65057240999784L1081.8735499999998,339.65175790053274L1085.0310749999999,336.4548453551085L1088.1886,319.3179313586321L1091.346125,340.15609572484067L1094.5036499999999,313.18216778681955L1097.661175,289.70220910585977L1100.8186999999998,350.0397305855397L1103.9762249999999,352.4347286591175" style="fill: none;" fill="none"></path></g></g></g></g></g></g><g transform="translate(60, 378)" clip-path="url(#clip_1)"><clipPath id="clip_1"><rect width="1263" height="21"></rect></clipPath><g><g><line x1="2.0000000000000067" y1="0" x2="2.0000000000000067" y2="5" style="visibility: inherit;" fill="rgb(0, 0, 0)" stroke="rgb(204, 204, 204)" stroke-width="1px"></line><line x1="159.87625" y1="0" x2="159.87625" y2="5" style="visibility: inherit;" fill="rgb(0, 0, 0)" stroke="rgb(204, 204, 204)" stroke-width="1px"></line><line x1="317.75249999999994" y1="0" x2="317.75249999999994" y2="5" style="visibility: inherit;" fill="rgb(0, 0, 0)" stroke="rgb(204, 204, 204)" stroke-width="1px"></line><line x1="475.62874999999997" y1="0" x2="475.62874999999997" y2="5" style="visibility: inherit;" fill="rgb(0, 0, 0)" stroke="rgb(204, 204, 204)" stroke-width="1px"></line><line x1="633.505" y1="0" x2="633.505" y2="5" style="visibility: inherit;" fill="rgb(0, 0, 0)" stroke="rgb(204, 204, 204)" stroke-width="1px"></line><line x1="791.3812499999999" y1="0" x2="791.3812499999999" y2="5" style="visibility: inherit;" fill="rgb(0, 0, 0)" stroke="rgb(204, 204, 204)" stroke-width="1px"></line><line x1="949.2574999999999" y1="0" x2="949.2574999999999" y2="5" style="visibility: inherit;" fill="rgb(0, 0, 0)" stroke="rgb(204, 204, 204)" stroke-width="1px"></line><line x1="1107.13375" y1="0" x2="1107.13375" y2="5" style="visibility: inherit;" fill="rgb(0, 0, 0)" stroke="rgb(204, 204, 204)" stroke-width="1px"></line></g><g transform="translate(0, 8)"><text x="2.0000000000000067" y="0" dx="0em" dy="0.95em" style="text-anchor: middle; visibility: hidden; font-family: &quot;Helvetica Neue&quot;, sans-serif; font-size: 12px; font-weight: 200;" fill="rgb(50, 49, 63)" stroke="none" stroke-width="1px">-50</text><text x="159.87625" y="0" dx="0em" dy="0.95em" style="text-anchor: middle; visibility: inherit; font-family: &quot;Helvetica Neue&quot;, sans-serif; font-size: 12px; font-weight: 200;" fill="rgb(50, 49, 63)" stroke="none" stroke-width="1px">0</text><text x="317.75249999999994" y="0" dx="0em" dy="0.95em" style="text-anchor: middle; visibility: inherit; font-family: &quot;Helvetica Neue&quot;, sans-serif; font-size: 12px; font-weight: 200;" fill="rgb(50, 49, 63)" stroke="none" stroke-width="1px">50</text><text x="475.62874999999997" y="0" dx="0em" dy="0.95em" style="text-anchor: middle; visibility: inherit; font-family: &quot;Helvetica Neue&quot;, sans-serif; font-size: 12px; font-weight: 200;" fill="rgb(50, 49, 63)" stroke="none" stroke-width="1px">100</text><text x="633.505" y="0" dx="0em" dy="0.95em" style="text-anchor: middle; visibility: inherit; font-family: &quot;Helvetica Neue&quot;, sans-serif; font-size: 12px; font-weight: 200;" fill="rgb(50, 49, 63)" stroke="none" stroke-width="1px">150</text><text x="791.3812499999999" y="0" dx="0em" dy="0.95em" style="text-anchor: middle; visibility: inherit; font-family: &quot;Helvetica Neue&quot;, sans-serif; font-size: 12px; font-weight: 200;" fill="rgb(50, 49, 63)" stroke="none" stroke-width="1px">200</text><text x="949.2574999999999" y="0" dx="0em" dy="0.95em" style="text-anchor: middle; visibility: inherit; font-family: &quot;Helvetica Neue&quot;, sans-serif; font-size: 12px; font-weight: 200;" fill="rgb(50, 49, 63)" stroke="none" stroke-width="1px">250</text><text x="1107.13375" y="0" dx="0em" dy="0.95em" style="text-anchor: middle; visibility: inherit; font-family: &quot;Helvetica Neue&quot;, sans-serif; font-size: 12px; font-weight: 200;" fill="rgb(50, 49, 63)" stroke="none" stroke-width="1px">300</text></g><line x1="0" y1="0" x2="1263.01" y2="0" fill="rgb(0, 0, 0)" stroke="rgb(204, 204, 204)" stroke-width="1px"></line></g></g></g></g></svg>