<svg viewBox="0 0 1323.0113525390625 400" xmlns="http://www.w3.org/2000/svg"><g><g><g><g><g><line x1="50" y1="363.2727272727266" x2="45" y2="363.2727272727266" style="visibility: inherit;" fill="rgb(0, 0, 0)" stroke="rgb(204, 204, 204)" stroke-width="1px"></line><line x1="50" y1="328.90909090909025" x2="45" y2="328.90909090909025" style="visibility: inherit;" fill="rgb(0, 0, 0)" stroke="rgb(204, 204, 204)" stroke-width="1px"></line><line x1="50" y1="294.54545454545394" x2="45" y2="294.54545454545394" style="visibility: inherit;" fill="rgb(0, 0, 0)" stroke="rgb(204, 204, 204)" stroke-width="1px"></line><line x1="50" y1="260.18181818181756" x2="45" y2="260.18181818181756" style="visibility: inherit;" fill="rgb(0, 0, 0)" stroke="rgb(204, 204, 204)" stroke-width="1px"></line><line x1="50" y1="225.8181818181812" x2="45" y2="225.8181818181812" style="visibility: inherit;" fill="rgb(0, 0, 0)" stroke="rgb(204, 204, 204)" stroke-width="1px"></line><line x1="50" y1="191.4545454545449" x2="45" y2="191.4545454545449" style="visibility: inherit;" fill="rgb(0, 0, 0)" stroke="rgb(204, 204, 204)" stroke-width="1px"></line><line x1="50" y1="157.09090909090853" x2="45" y2="157.09090909090853" style="visibility: inherit;" fill="rgb(0, 0, 0)" stroke="rgb(204, 204, 204)" stroke-width="1px"></line><line x1="50" y1="122.72727272727215" x2="45" y2="122.72727272727215" style="visibility: inherit;" fill="rgb(0, 0, 0)" stroke="rgb(204, 204, 204)" stroke-width="1px"></line><line x1="50" y1="88.36363636363586" x2="45" y2="88.36363636363586" style="visibility: inherit;" fill="rgb(0, 0, 0)" stroke="rgb(204, 204, 204)" stroke-width="1px"></line><line x1="50" y1="53.99999999999949" x2="45" y2="53.99999999999949" style="visibility: inherit;" fill="rgb(0, 0, 0)" stroke="rgb(204, 204, 204)" stroke-width="1px"></line><line x1="50" y1="19.636363636363114" x2="45" y2="19.636363636363114" style="visibility: inherit;" fill="rgb(0, 0, 0)" stroke="rgb(204, 204, 204)" stroke-width="1px"></line></g><g transform="translate(40, 0)"><text x="0" y="363.2727272727266" dx="0em" dy="0.3em" style="text-anchor: end; visibility: inherit; font-family: &quot;Helvetica Neue&quot;, sans-serif; font-size: 12px; font-weight: 200;" fill="rgb(50, 49, 63)" stroke="none" stroke-width="1px">0.16</text><text x="0" y="328.90909090909025" dx="0em" dy="0.3em" style="text-anchor: end; visibility: inherit; font-family: &quot;Helvetica Neue&quot;, sans-serif; font-size: 12px; font-weight: 200;" fill="rgb(50, 49, 63)" stroke="none" stroke-width="1px">0.17</text><text x="0" y="294.54545454545394" dx="0em" dy="0.3em" style="text-anchor: end; visibility: inherit; font-family: &quot;Helvetica Neue&quot;, sans-serif; font-size: 12px; font-weight: 200;" fill="rgb(50, 49, 63)" stroke="none" stroke-width="1px">0.18</text><text x="0" y="260.18181818181756" dx="0em" dy="0.3em" style="text-anchor: end; visibility: inherit; font-family: &quot;Helvetica Neue&quot;, sans-serif; font-size: 12px; font-weight: 200;" fill="rgb(50, 49, 63)" stroke="none" stroke-width="1px">0.19</text><text x="0" y="225.8181818181812" dx="0em" dy="0.3em" style="text-anchor: end; visibility: inherit; font-family: &quot;Helvetica Neue&quot;, sans-serif; font-size: 12px; font-weight: 200;" fill="rgb(50, 49, 63)" stroke="none" stroke-width="1px">0.2</text><text x="0" y="191.4545454545449" dx="0em" dy="0.3em" style="text-anchor: end; visibility: inherit; font-family: &quot;Helvetica Neue&quot;, sans-serif; font-size: 12px; font-weight: 200;" fill="rgb(50, 49, 63)" stroke="none" stroke-width="1px">0.21</text><text x="0" y="157.09090909090853" dx="0em" dy="0.3em" style="text-anchor: end; visibility: inherit; font-family: &quot;Helvetica Neue&quot;, sans-serif; font-size: 12px; font-weight: 200;" fill="rgb(50, 49, 63)" stroke="none" stroke-width="1px">0.22</text><text x="0" y="122.72727272727215" dx="0em" dy="0.3em" style="text-anchor: end; visibility: inherit; font-family: &quot;Helvetica Neue&quot;, sans-serif; font-size: 12px; font-weight: 200;" fill="rgb(50, 49, 63)" stroke="none" stroke-width="1px">0.23</text><text x="0" y="88.36363636363586" dx="0em" dy="0.3em" style="text-anchor: end; visibility: inherit; font-family: &quot;Helvetica Neue&quot;, sans-serif; font-size: 12px; font-weight: 200;" fill="rgb(50, 49, 63)" stroke="none" stroke-width="1px">0.24</text><text x="0" y="53.99999999999949" dx="0em" dy="0.3em" style="text-anchor: end; visibility: inherit; font-family: &quot;Helvetica Neue&quot;, sans-serif; font-size: 12px; font-weight: 200;" fill="rgb(50, 49, 63)" stroke="none" stroke-width="1px">0.25</text><text x="0" y="19.636363636363114" dx="0em" dy="0.3em" style="text-anchor: end; visibility: inherit; font-family: &quot;Helvetica Neue&quot;, sans-serif; font-size: 12px; font-weight: 200;" fill="rgb(50, 49, 63)" stroke="none" stroke-width="1px">0.26</text></g><line x1="50" y1="0" x2="50" y2="378" fill="rgb(0, 0, 0)" stroke="rgb(204, 204, 204)" stroke-width="1px"></line></g></g><g transform="translate(50, 0)" clip-path="url(#clip_0)"><clipPath id="clip_0"><rect width="1273" height="377"></rect></clipPath><g><g><g><line x1="83.7281818181819" y1="0" x2="83.7281818181819" y2="378" fill="rgb(0, 0, 0)" stroke="rgb(60, 60, 60)" stroke-width="1px" opacity="0.25"></line><line x1="199.45636363636382" y1="0" x2="199.45636363636382" y2="378" fill="rgb(0, 0, 0)" stroke="rgb(60, 60, 60)" stroke-width="1px" opacity="0.25"></line><line x1="315.18454545454574" y1="0" x2="315.18454545454574" y2="378" fill="rgb(0, 0, 0)" stroke="rgb(60, 60, 60)" stroke-width="1px" opacity="0.25"></line><line x1="430.9127272727276" y1="0" x2="430.9127272727276" y2="378" fill="rgb(0, 0, 0)" stroke="rgb(60, 60, 60)" stroke-width="1px" opacity="0.25"></line><line x1="546.6409090909095" y1="0" x2="546.6409090909095" y2="378" fill="rgb(0, 0, 0)" stroke="rgb(60, 60, 60)" stroke-width="1px" opacity="0.25"></line><line x1="662.3690909090914" y1="0" x2="662.3690909090914" y2="378" fill="rgb(0, 0, 0)" stroke="rgb(60, 60, 60)" stroke-width="1px" opacity="0.25"></line><line x1="778.0972727272733" y1="0" x2="778.0972727272733" y2="378" fill="rgb(0, 0, 0)" stroke="rgb(60, 60, 60)" stroke-width="1px" opacity="0.25"></line><line x1="893.8254545454552" y1="0" x2="893.8254545454552" y2="378" fill="rgb(0, 0, 0)" stroke="rgb(60, 60, 60)" stroke-width="1px" opacity="0.25"></line><line x1="1009.5536363636371" y1="0" x2="1009.5536363636371" y2="378" fill="rgb(0, 0, 0)" stroke="rgb(60, 60, 60)" stroke-width="1px" opacity="0.25"></line><line x1="1125.281818181819" y1="0" x2="1125.281818181819" y2="378" fill="rgb(0, 0, 0)" stroke="rgb(60, 60, 60)" stroke-width="1px" opacity="0.25"></line><line x1="1241.010000000001" y1="0" x2="1241.010000000001" y2="378" fill="rgb(0, 0, 0)" stroke="rgb(60, 60, 60)" stroke-width="1px" opacity="0.25"></line></g><g><line x1="0" y1="363.2727272727266" x2="1273.01" y2="363.2727272727266" fill="rgb(0, 0, 0)" stroke="rgb(60, 60, 60)" stroke-width="1px" opacity="0.25"></line><line x1="0" y1="328.90909090909025" x2="1273.01" y2="328.90909090909025" fill="rgb(0, 0, 0)" stroke="rgb(60, 60, 60)" stroke-width="1px" opacity="0.25"></line><line x1="0" y1="294.54545454545394" x2="1273.01" y2="294.54545454545394" fill="rgb(0, 0, 0)" stroke="rgb(60, 60, 60)" stroke-width="1px" opacity="0.25"></line><line x1="0" y1="260.18181818181756" x2="1273.01" y2="260.18181818181756" fill="rgb(0, 0, 0)" stroke="rgb(60, 60, 60)" stroke-width="1px" opacity="0.25"></line><line x1="0" y1="225.8181818181812" x2="1273.01" y2="225.8181818181812" fill="rgb(0, 0, 0)" stroke="rgb(60, 60, 60)" stroke-width="1px" opacity="0.25"></line><line x1="0" y1="191.4545454545449" x2="1273.01" y2="191.4545454545449" fill="rgb(0, 0, 0)" stroke="rgb(60, 60, 60)" stroke-width="1px" opacity="0.25"></line><line x1="0" y1="157.09090909090853" x2="1273.01" y2="157.09090909090853" fill="rgb(0, 0, 0)" stroke="rgb(60, 60, 60)" stroke-width="1px" opacity="0.25"></line><line x1="0" y1="122.72727272727215" x2="1273.01" y2="122.72727272727215" fill="rgb(0, 0, 0)" stroke="rgb(60, 60, 60)" stroke-width="1px" opacity="0.25"></line><line x1="0" y1="88.36363636363586" x2="1273.01" y2="88.36363636363586" fill="rgb(0, 0, 0)" stroke="rgb(60, 60, 60)" stroke-width="1px" opacity="0.25"></line><line x1="0" y1="53.99999999999949" x2="1273.01" y2="53.99999999999949" fill="rgb(0, 0, 0)" stroke="rgb(60, 60, 60)" stroke-width="1px" opacity="0.25"></line><line x1="0" y1="19.636363636363114" x2="1273.01" y2="19.636363636363114" fill="rgb(0, 0, 0)" stroke="rgb(60, 60, 60)" stroke-width="1px" opacity="0.25"></line></g></g></g><g><g><line x1="0" y1="913.0909090909082" x2="1273.01" y2="913.0909090909082" fill="rgb(0, 0, 0)" stroke="rgb(153, 153, 153)" stroke-width="1.5px"></line></g></g><g><g><line x1="83.7281818181819" y1="0" x2="83.7281818181819" y2="378" fill="rgb(0, 0, 0)" stroke="rgb(153, 153, 153)" stroke-width="1.5px"></line></g></g><g><g><g><g><g><path stroke="rgb(255, 112, 67)" stroke-width="2px" d="M104.96430318181828,-9.102669030950551L105.83805095454557,4.515094821376238L106.61921618181829,12.765872711632824L108.70810986363647,22.980999719527347L109.18838181818192,32.08761505467788L109.72073145454556,35.061507137875935L109.81910040909102,41.597958950181805L112.49242140909102,47.714771410057836L113.43560609090919,54.71074820179723L114.65653840909101,55.88530890945748L116.84380104545467,62.07696573307322L117.90850031818194,66.41946437253381L118.38877227272738,71.7875737658037L119.6039181818183,78.41297090864657L122.49133631818194,83.15840891796347L122.56077322727283,82.69168001560774L123.38822972727283,87.25579598492311L124.03630754545466,93.12272520352292L125.12993886363648,97.93425791548532L126.89479363636376,105.29376688772783L126.91215286363648,109.96165202616777L128.85059990909102,116.93208479101554L129.05312422727286,120.35304718639208L130.40135754545466,123.03282912745513L131.06100818181832,127.70219711563774L131.29825095454558,131.80871532047772L132.90108627272738,136.79654506207706L132.9589503636365,140.05086675902882L135.09992172727286,140.45135032915442L135.42974704545466,142.55951666609818L137.31033000000014,141.34530853741867L138.51390309090922,143.9744679961165L139.0115342727274,148.7614670184458L139.8447771818183,152.0449429170399L143.90104995454558,155.6617693678419L144.36396268181832,158.9138030010949L144.6127782727274,161.3855457411174L145.10462304545467,163.22668723975826L146.10567181818195,165.95003240315336L146.82897295454558,165.70977549006687L147.18194390909105,168.12317188293846L147.49441000000013,169.01975124733713L150.4570514545456,171.84065542099717L150.6537893636365,175.11584146339015L151.34237204545468,175.88078259900436L152.98571222727287,179.51274704792945L153.0146442727274,181.92824074314058L154.11406200000013,183.47754105723527L154.84314954545468,186.64989028263636L158.23977168181833,187.2813772809382L159.14823790909105,189.6631747606245L159.30447095454562,190.74680499198277L162.40598622727288,191.4339985987664L162.53907363636378,192.6545852289769L163.6384913636365,194.91832742807796L166.4391133636365,196.9966450118395L168.60323036363653,198.03851907190187L169.24552177272741,200.02421695194943L169.78944422727287,202.36892733640772L173.26128968181834,203.73956551836304L174.9451347272729,205.61512611153333L176.98195072727287,206.38064399739613L178.16816459090924,207.8974497577253L181.26967986363653,204.17435264782378L182.47903936363653,206.0436621143369L182.6584180454547,207.5344024305493L183.9314280454547,210.69590509309833L184.0587290454547,212.22359312391424L185.23915650000018,213.84604555957532L185.3201662272729,206.68737431852304L190.49321595454563,207.8071475389729L194.34117800000016,209.00325362490508L194.64785768181835,210.93964412840188L196.74253777272742,212.8608216596058L197.37325636363653,214.3264150396345L197.89981959090926,216.58955547046165L199.42743159090926,218.17878557895077L199.76304331818199,219.40915270936097L199.81512100000018,221.95384243206684L200.8682474545456,223.45557502145462L200.9145387272729,224.79510640560645L201.32537377272746,226.67949112691886L202.00238363636382,227.55298106873855L202.5752381363638,228.88751391018735L202.80090809090927,229.87969274476237L203.963976318182,230.7981402316323L203.98133554545473,230.3244608673432L204.4037434090911,230.9788348354598L205.70568545454563,232.64308183321518L206.0760156363638,234.3915935280535L206.58521963636383,234.86628901100863L207.0886372272729,235.57569247977253L210.14964763636382,236.29570737770246L212.4468520454547,235.90828871609077L212.93869681818202,236.66476448109188L213.10071627272745,237.18534152875114L217.61411536363656,238.34430759449032L217.67197945454564,239.85761695738697L217.92658145454564,239.57767615157667L218.4705039090911,240.7703595622931L218.90448459090928,242.2181416496544L219.28638759090927,242.2054098253394L219.94025181818202,243.00899772417773L220.6924850000002,243.50546809039994L220.7561355000002,243.8270693821494L220.87186368181835,244.54078519827289L223.45260213636382,245.17087371259376L224.23376736363656,245.52271689909261L224.2453401818184,245.99326444555268L224.46522372727293,247.292363698324L226.19536004545475,248.22699583446152L226.8087194090911,249.86214398788493L228.00650609090928,251.19403036701607L229.85237059090932,252.90509355259837L230.65089504545475,253.95424595097637L233.0869732727275,254.49908243715387L233.2894975909093,254.72759611074324L233.71769186363656,255.56429875221082L235.92810013636384,255.72584111128293L238.78658622727292,256.6363316838799L238.79237263636384,257.6506577111889L240.8523342727275,258.0058971797589L242.88336386363656,259.04520323515493L243.45043195454568,259.5886989325714L243.6529562727275,260.0700332154581L244.73501477272748,261.0194473160181L245.2615780000002,262.40241645706055L248.28208354545475,262.9390489100801L248.8896565000002,263.4516742519993L251.3604531818184,263.78134858718124L251.51089981818205,264.5913122716278L251.89280281818202,264.61489109253205L252.6971136818184,265.01452521574L253.05587104545475,265.89328064745354L254.25944413636387,265.7357407634094L255.06954140909113,265.37959522977155L256.3309785909093,265.8149109306127L257.3493865909093,267.0814035562635L257.499833227273,266.8654830741349L258.32728972727296,267.9557854790717L259.21261031818204,268.67685577535553L260.040066818182,269.65246264519817L260.8617369090911,270.2946850599367L261.4056593636366,270.7352371741119L261.48666909090934,271.4306743017223L265.45614572727294,272.304684769269L265.6702428636366,273.35695860748683L268.19890363636387,274.03112398127377L268.5229425454548,274.4334465821401L268.9164183636366,273.94012146520356L270.09105940909114,274.939506860495L271.4103606818184,275.3207718402157L272.0295064545457,274.83787081459843L272.69494350000025,275.49210992520705L273.3025164545457,275.73442715425665L274.0663224545457,276.0875463354392L274.11261372727296,276.69519757787714L274.87641972727295,277.455850004765L275.7270218636366,278.146044134582L276.84958522727294,278.48976050620195L277.0116046818184,279.1793739418595L278.94426531818203,280.0520062129922L279.013702227273,280.54000104020815L279.12364400000024,280.97879232142634L279.2220129545457,280.7441164825772L279.53447904545476,280.358971617107L279.7485761818184,281.2279037653569L279.96267331818206,280.39104258981365L280.6744016363639,281.47016388861573L282.5607710000002,281.2735997316163L283.5039556818184,281.44239380056047L283.9321499545457,282.039374748778L288.17937422727294,282.3458661962079L288.30088881818205,283.53882636553556L289.0473355909093,283.91268262113437L290.71382140909117,283.69673842002425L291.1651613181821,284.11432426333755L291.76694786363663,284.4939459794921L292.253006227273,284.5583926070008L295.6785604090911,285.29944531222554L295.85215268181844,285.8999271789681L296.4770848636366,286.46549362744173L296.95735681818206,286.8105778357557L298.99417281818205,287.52731359666194L300.65487222727296,287.5089405564066L302.246134727273,288.4412200273583L302.89421254545476,288.13003180298L306.2445434090912,288.5857684439523L307.77794181818206,288.7655650875587L308.47231090909116,289.26396807222545L309.28819459090937,290.13090125122204L311.1109134545457,290.3869587560038L313.46019554545484,290.86201471618284L314.4786035454548,290.72474504061L314.657982227273,291.1188971946015L315.3002736363639,291.1135038012737L316.8973225454548,291.3917261599763L318.07775000000026,291.38492522011654L319.02093468181846,291.88034533165165L319.04408031818207,292.6501873546207L319.35076000000026,293.0109887499607L319.7731678636367,293.81429650627535L321.2024109090912,294.01780139765003L322.38283836363667,294.4786894793893L322.5390714090912,294.8229264383018L322.94412004545484,294.97514609823986L324.0898290454548,295.0976565906038L327.5327424545457,295.617749776072L329.36124772727305,295.4349221691996L329.4654030909094,295.13428394757756L330.68054900000027,295.77146817875837L335.5411326363639,296.01770727304773L336.0561230454548,296.2462068062386L336.2412881363639,296.4523213797779L336.65790959090936,296.90462307720526L336.81414263636395,297.41435219806044L336.83728827272756,297.25045620674615L337.2018320454548,297.09292289597977L338.2896769545457,297.7609833610053L338.7525896818185,298.30125177434394L339.48746363636394,299.1905107042179L339.52796850000027,299.24177769961767L339.78257050000025,299.7837080593375L340.0892501818185,300.12426996300115L343.05189163636396,300.60008806420626L343.9082801818185,300.83506414994145L345.91037772727304,301.0466488224623L346.2691350909094,301.3394563963041L347.0503003181821,301.96530986840776L347.9240480909094,302.11561562213217L351.7430780909094,302.1713883802809L351.8356606363639,301.62633740783656L352.2927869545457,301.16340447255425L357.43111822727303,301.3517305325207L359.0744584090912,301.4966816660824L359.3811380909094,301.45729891015185L359.56051677272757,301.62201836456745L359.7688275000003,301.9337379616684L359.99449745454575,302.5744849381534L360.79302190909124,302.93572953955425L361.1691385000003,303.1380400509854L361.30222590909125,303.69152406143854L361.91558527272764,303.8627371855528L362.52315822727303,304.71279545792413L362.78933304545484,304.67348348167525L364.496323727273,305.08041360631137L368.83613054545486,305.4881496195436L369.2932568636367,306.19941813722437L370.0223444090912,306.637436728019L373.08335481818216,305.5929749546735L373.3726752727276,305.43394404484354L374.0033938636367,305.7431816817569L374.176986136364,305.61029668242264L374.5993940000003,306.09478698950375L376.6882876818185,306.6889048150051L377.78770540909125,306.6765415822697L378.71353086363666,307.1058043580454L379.6104242727276,307.2346489342666L380.1485603181821,307.36979724378773L383.4525999090912,307.74763306680336L384.355279727273,308.5356852336231L384.6272409545457,308.75116335891335L386.3110860000003,309.15430382480287L386.66405695454574,309.8068964670146L387.5725231818185,309.5560223973362L388.5677855454548,309.7012301882658L389.86394118181846,309.94800821876L390.0548926818185,310.3149751966635L390.94021327272753,310.37638996391775L391.0270094090912,310.6922928745398L393.1159030909094,311.21727624799536L394.4930684545457,311.64256751098065L394.5335733181821,311.6937583015887L394.5567189545457,311.8938529903398L395.39574827272753,311.9471224344321L395.65035027272756,312.2473282371097L396.90600104545484,312.31017302682795L397.5887973181821,312.87671389599114L400.19268140909116,313.1183383674065L400.8639048636366,313.17297010785865L401.6161380454549,313.6451726495557L401.8765264545458,313.4921032255417L403.7108181363639,313.7420923451469L405.1227019545458,313.6389602246716L405.168993227273,312.78282345154486L406.1063915000003,313.18311891191354L406.41307118181845,313.3925643139714L409.71711077272755,313.76836866935867L410.7008003181821,313.9995693769526L410.78181004545485,314.0991732647094L411.2852276363639,314.16695305939606L412.32099486363666,314.6352640856612L412.5119463636367,315.0724493961506L413.5477135909094,315.3063358086406L415.2836363181821,315.691625111437L415.3183547727276,314.83681898186916L416.3541220000003,315.19261567518697L417.9511709090912,315.5233774926721L421.0468997727276,315.63305017396954L421.88592909090937,316.1489079882507L422.5571525454548,316.2181086919553L423.50033722727306,316.1794089187317L423.6565702727276,316.0840316819777L423.75493922727304,316.30092017142636L426.6539301818185,316.4115370011654L426.9258914090912,316.67141743149176L427.6260469090912,317.00405705883475L428.8296200000003,317.11986261482883L429.0032122727276,317.14887845168926L431.94849450000027,317.18584983051477L431.98321295454576,317.5940848306966L432.11051395454575,317.9814591887571L432.6312907727276,318.5483364041931L433.66127159090945,318.51986339236606L437.885350227273,318.77178157461685L438.2961852727276,319.2623780699951L439.2335835454549,319.54421359255315L440.6338945454549,319.7986461346187L443.2898563181821,319.7844673599106L443.7527690454549,319.6872873782128L445.47133254545486,319.70277938770744L445.65071122727306,320.11842645179047L447.54286700000034,320.5430902537281L448.4108283636367,320.0525109567385L449.5449645454549,320.11084115914224L450.7543240454549,320.364861542238L451.24038240909124,320.6970443661771L452.1546350454549,320.8570507770945L453.2771984090913,321.36636704417833L454.6254317272731,321.3063308903055L455.3603056818185,321.40003717492976L457.0730827727276,321.3999934013438L458.0336266818185,321.8808603862372L459.20248131818215,322.0411419069883L461.2624429545458,322.46621926058657L461.53440418181856,322.72367713536715L463.3224045909094,322.8309831730011L463.5654337727276,323.3879195634777L465.91471586363673,323.5886383674282L467.3555317272731,323.2548764029594L470.18508577272763,323.2054518306578L471.2787170909095,322.9169766079394L471.53910550000035,322.9017387708765L473.96361090909124,321.2449855621274L478.72582559090944,321.40996077651084L478.82998095454576,320.5796217336571L479.391262636364,320.25065243608594L479.68636950000035,320.3201197607364L480.6179813636367,320.4179425410522L483.9798850454549,320.5168265968423L484.06089477272764,320.71246201100513L485.62322522727305,320.7886995563538L485.74473981818215,320.8355462312349L487.1508372272731,320.97872587662766L487.60796354545494,321.086702540034L488.28497340909126,321.28893833064126L491.45013918181854,321.2807939305515L492.1329354545458,321.11273360919245L492.5727025454549,321.3484590384312L494.07138250000037,321.49659643309354L494.540081636364,321.7966250922991L497.0398103636367,321.93620664257975L497.76889790909127,322.14842481138385L497.9193445454549,322.27364759175504L498.59056800000036,322.42125297872394L499.8057139090913,322.5309940960021L500.1008207727277,322.4980551600053L500.22812177272766,322.7838242061173L500.41907327272764,322.375623702037L500.56373350000035,322.5948811012844L502.0681998636367,323.0049033406094L502.0797726818185,323.1242259350934L502.6699864090913,323.4986263290114L502.68734563636406,323.57478689107273L503.578452636364,323.8808817783931L504.53321013636406,323.9792330570345L505.4011715000004,324.14599094293766L506.18812313636397,324.6790112128153L507.17181268181855,325.0453359088419L507.976123545455,325.27259938234795L510.7304542727277,325.58567858661434L511.0024155000004,325.8223206672207L511.34960004545496,326.0437633737752L511.48268745454584,326.4967782927033L513.0045130454549,326.0694776383868L517.136009136364,326.2382063367384L518.6983395909094,326.28944166038036L520.4226895000004,326.5545484351452L520.5268448636367,326.8739462052963L520.9897575909094,326.89405668494874L523.0786512727277,326.9364702681343L524.0681272272732,326.88248940919505L524.7567099090913,327.09936374224696L525.9892150454549,326.926822309953L526.2843219090913,326.9783824422706L527.1175648181822,326.7255973442126L527.3895260454549,326.7867371613983L528.0665359090913,326.8917579925784L528.7377593636368,326.8852029053216L528.7782642272731,327.15839306337796L530.4273908181822,327.3784474619019L532.348478636364,327.54832149349954L534.4952364090913,327.5912004928157L535.849256136364,327.73146446496884L536.2716640000003,327.87573073325774L539.5525579545459,328.2163872367924L539.9460337727277,328.30711030393286L540.3915872727276,328.3714324320592L540.4725970000004,328.70693886797835L540.6982669545458,328.83527271264313L540.8834320454549,328.9359880657194L543.2732190000004,329.3113925597297L544.3089862272731,329.3035839002011L546.4962488636368,329.6736428733784L546.8202877727276,329.9412359176657L546.8434334090913,329.80487857656146L547.2195500000004,330.21363663674384L547.5956665909094,330.355365162011L548.897608636364,330.5432880380112L548.9901911818185,330.2146625328003L549.8234340909095,330.4199814768942L549.9738807272731,330.680125832927L550.1879778636368,330.7980538247434L552.4041725454549,330.7276824533022L552.5141143181822,330.2502292340434L553.104328045455,330.4189752457132L554.6319400454549,330.25177626741777L555.2858042727277,330.80799170662806L555.4883285909095,330.5870309210301L557.935979636364,330.66306738264444L562.4725243636368,330.7687866228753L562.6692622727277,330.7741284368336L563.1263885909095,330.9261362351093L564.7350103181823,331.1453768271092L565.5451075909095,330.7710897022323L568.4093800909095,331.1626392359947L569.3409919545459,331.2592715433613L570.926468045455,331.51837386212566L572.1531867727277,331.6107751474525L573.2641773181822,331.48224134762324L573.7560220909096,331.6405072720248L574.5198280909095,331.7390101276174L575.6886827272732,332.05499414540725L575.8738478181822,332.3303107865281L576.0879449545458,332.3039470899165L576.5508576818186,332.34310363351415L577.4246054545458,332.4787796290664L578.5124503636367,332.6769925243885L578.691829045455,332.58469677994736L578.882780545455,332.2055606578208L579.5424311818186,332.1829370663906L579.9069749545458,332.2240042506051L581.4403733636368,332.3937027668173L585.8727627272732,332.43809552232756L585.947986045455,332.24363183280366L586.3646075000005,332.5605953211119L587.1920640000004,332.6839360214408L589.4198315000004,332.903323992841L589.7496568181822,332.8645845822235L590.9995211818186,332.968015011837L591.9427058636368,333.2341328089186L593.7249198636368,333.4083877027203L596.832221545455,333.39991254883734L597.6481052272732,333.6969975681588L600.2346300909095,333.7058903025047L600.7264748636368,333.79004813883216L600.8190574090913,333.84133476567933L603.0294656818187,333.7250885487203L603.127834636364,333.84840557771366L604.3487669545459,333.5877819484451L604.7075243181823,333.5844727855174L605.8763789545459,333.8101200274379L607.1088840909096,333.93830040751686L610.835331545455,334.2268956075933L612.0273318181822,334.2223954356234L613.9021283636368,334.06542658849855L614.0178565454551,334.1044229118094L614.0352157727277,334.32478409635416L614.527060545455,334.441551074266L614.5444197727277,334.4170438336845L616.6217406363642,334.4627565386044L616.7721872727277,334.55983548496044L620.2961104090914,334.912790481703L620.637508545455,334.92748964770095L622.5933148181823,334.8827986093968L623.1545965000005,334.6417526064721L624.5896259545459,334.7084264957884L627.0777818636369,335.06052686671353L629.8494718181822,335.26288311661114L630.7521516363641,335.3885030329121L632.1871810909096,335.5232361615667L632.8063268636369,335.4446652101431L633.7668707727278,335.6724190866336L634.5017447272731,335.7344272902661L635.2944827727277,336.0876811598533L635.6185216818186,336.2969225528297L635.8036867727278,336.378918348458L636.2145218181823,336.42629790145384L638.4133572727277,336.4211554911398L638.9283476818187,336.440798744026L639.0614350909096,336.59161700022435L640.9651636818187,336.86091199990574L642.3191834090915,337.0036060121673L642.6953000000005,336.5254521661359L645.9125434545459,336.7632284439383L646.3175920909096,337.014564895844L647.4170098181824,337.23555000681586L648.4585634545459,337.63702255201713L649.6158452727277,337.8804851657395L650.0787580000004,338.129897987256L650.7152630000005,338.17638713827887L651.6005835909095,338.3767215393353L652.022991454546,338.3769921753052L653.1339820000005,338.44394923846335L653.5390306363641,338.7016257044166L653.8225646818187,338.9691503496326L656.9009343181823,339.26219722051957L659.5106048181823,339.4439090960648L660.1239641818187,339.3258385395877L660.1355370000005,339.54958056816946L661.6978674545459,339.61519718154483L665.6441984545459,339.7271877960081L665.777285863637,339.7799354087813L666.7146841363642,339.7928178633127L667.3338299090914,339.91195889235814L667.6752280454551,340.06660432290346L668.1381407727278,340.142576090812L668.572121454546,340.44660095697765L669.0523934090915,340.4578211558645L669.5095197272733,340.65980546488925L670.0939470454551,340.968642037497L670.6494423181823,341.0578653467605L671.0429181363642,341.3649636950892L673.4963555909096,341.1401461134431L673.6120837727277,340.89653739487756L675.7183366818186,340.97894769956247L676.8871913181823,341.2263566410004L677.0723564090914,341.2374844749453L677.3848225000005,341.38489849436417L677.9055993181823,341.5677709477815L679.0339490909096,341.6832009372819L679.2133277727277,341.947005027L679.5315802727279,342.0715621116816L679.7341045909095,342.2076407750035L679.7919686818186,341.76693529214253L680.920318454546,341.96630689394624L682.4016391818186,342.10593059997774L682.7198916818188,342.2143253451842L685.2080475909096,342.467990357956L687.1117761818188,342.8707696310871L687.4473879090914,342.82510133508526L689.5883592727279,343.1839978029133L690.1901458181823,343.277532996512L690.271155545455,343.290362445688L690.6183400909097,343.4166770439978L690.6993498181823,343.60018568828815L690.786145954546,343.7620396496759L690.8613692727279,343.79331934650196L691.0870392272732,343.84274675485324L691.8392724090913,344.0927183171885L693.8124379090914,344.16297072339887L694.8308459090914,344.1948021460556L695.363195545455,344.4989081171138L695.7798170000004,344.6588684674657L695.8608267272732,344.80508182497005L698.3026913636369,345.0350568831428L698.6325166818187,345.17312194202555L699.3442450000005,345.3803281170783L700.3626530000006,345.40739949989313L700.9412939090915,345.5244362867885L701.537294045455,345.74296316260853L703.4699546818188,345.89317271425386L707.2947710909096,345.69860228717516L707.717178954546,345.83811900294L708.7818782272732,345.90288910691015L711.2584613181823,346.1399256970813L712.0511993636369,346.3790523189733L715.8470837272732,346.5515536693827L715.8528701363641,346.8875530850064L716.1884818636369,347.0666429183025L717.3457636818188,347.07990569148717L719.2032010000006,347.1090121715762L720.5977255909097,347.31975747248725L721.338385954546,347.28850591613366L721.529337454546,347.3483793499223L722.6519008181824,347.6474439586853L723.6240175454551,347.74665224877884L723.8323282727279,347.91150236969185L723.9422700454551,348.212132139304L724.4977653181824,348.1912963981261L727.1421542727278,348.50059962180956L727.379397045455,348.73416462602665L727.8886010454551,347.9372144525385L729.1731838636368,348.0014512965661L730.058504454546,348.2189879367405L731.3141552272733,348.36680578404275L734.5256122727278,348.4900380013609L735.6481756363643,348.7106139186867L735.8738455909097,348.6585130421752L737.0253410000006,348.9144895862917L739.4556328181824,349.1108381508883L741.0006040454551,348.9746743476225L741.8801382272733,349.09139942543766L743.2630900000006,349.11409148732395L745.0684496363642,349.15079454845454L746.0347799545459,349.3362487192639L748.1236736363642,349.3815448579863L749.7207225454551,349.5768629545122L750.0274022272733,349.72601418253817L752.0931502727279,349.66889174887524L752.1625871818187,349.79731389621156L753.5918302272734,349.9657393932209L753.6323350909096,350.28189968900597L754.2456944545461,350.44485655270597L755.1773063181823,350.44821326255783L755.6980831363642,350.66448738584853L757.5728796818187,350.9011040761573L758.8458896818187,351.0849289424197L759.0657732272733,351.2319069899224L759.4823946818188,351.2761827122217L759.7080646363643,351.1440851535785L760.3792880909097,351.114101635608L760.8306280000005,351.0037068241971L760.9116377272733,351.3033237703268L761.0100066818187,351.5282256885557L761.634938863637,351.43950032027806L764.4124152272733,351.3200318953195L765.5118329545461,351.0312918109132L766.1830564090915,351.20773708385883L767.4560664090915,351.2581598046927L767.6238722727279,351.27570292933444L770.291406863637,351.416022802901L771.7785140000005,351.64533105501255L771.946319863637,351.9194335769488L772.2992908181824,352.18307145660117L774.0583591818188,352.14290814037616L775.0304759090915,352.259833421154L777.9757581363642,352.39239122072854L779.7811177727278,352.50240488216497L783.0388660909098,352.29115353601827L784.9946723636369,352.57609713462017L785.0004587727279,352.82502196641167L785.8047696363642,352.90074411014234L785.9783619090914,352.9996303272088L786.2156046818188,352.7029736322412L786.8868281363642,352.9509488216977L788.7153334090916,353.0896180741514L788.9583625909097,353.2850901839061L790.8563047727279,353.5089918491707L791.0356834545461,353.56144849687445L793.269237363637,353.59777292213084L793.3386742727279,353.86538153569666L793.9462472272733,354.19137292495L795.8499758181823,354.31833064990985L798.9804231363642,354.2304776694952L799.119296954546,354.25781216313226L799.310248454546,354.37859564078843L801.8389092272732,354.735313452049L802.2208122272734,354.95678991929015L802.3828316818187,355.1248199134923L804.3212787272732,355.148014386638L805.6405800000007,355.26457915452465L805.7215897272732,355.3511130965881L805.9761917272734,355.5167822099525L807.2781337727279,355.45456977117675L808.7073768181824,355.64291462989394L815.3848929090915,355.77403404669286L816.7909903181825,355.97710402692064L818.2260197727279,356.26839168725445L818.532699454546,356.2783282490365L819.1634180454553,356.52043874108904L819.933010454546,356.62242397993333L820.9977097272733,356.9284858927546L821.7383700909097,356.8148942199474L822.0450497727279,356.93407587313595L822.288078954546,357.1949772593681L823.1444675000006,357.3296271938284L823.3296325909097,357.57398300456066L823.6826035454552,357.7175064718526L823.7867589090915,357.8981306030207L825.0366232727279,357.9827519679202L826.1476138181824,358.1382155201537L826.7494003636369,358.2323326070283L829.3185660000006,358.2950648495202L831.019770272728,357.956243283161L832.0150326363643,358.02814600523925L832.5242366363643,357.95208026645855L832.5936735454552,358.0162133203307L832.6399648181824,358.22533129967667L833.0797319090915,358.31396473228915L833.3285475000006,358.32844471517143L834.0634214545461,358.3986256667003L835.5273829545462,358.4987451182972L836.3721986818188,358.48448686018327L840.0292092272733,358.52858601344315L841.3195784545461,358.70796662369725L844.5888995909097,358.7558059215458L844.6525500909097,358.85203635771126L845.6825309090915,358.90455032050534L845.9949970000006,359.07902339115657L846.8166670909098,358.9810364679939L851.445794363637,359.28988785429243L852.8345325454552,358.98879145717615L852.9271150909096,359.0849451642622L854.5125911818188,359.35169132524936L855.1606690000006,359.22362993597835L856.1906498181825,359.13668761623876L856.3758149090916,359.3496344484005L856.7924363636371,359.17608325988016L858.2969027272734,359.1811890316412L859.147504863637,359.3272795175L861.2826898181825,359.30844176139306L861.3579131363642,359.5163060430173L861.8497579090915,359.4433217852849L864.0370205454552,359.59728350851316L864.181680772728,359.68347484775757L864.7950401363643,359.78180832474084L868.4520506818188,359.9285110959197L869.9391578181826,360.01374348459194L871.8891776818189,359.8734343986666L872.3000127272734,359.89750552585286L872.7513526363642,359.8972021644374L874.5740715000007,360.1177598021816L874.6030035454552,360.1381170903579L874.6897996818188,360.2025044932805L876.5993146818189,360.30887644481686L876.784479772728,360.445422851569L877.924402363637,360.5605600839544L879.2552764545461,360.5993962451258L879.7355484090916,360.8390860867446L879.8454901818188,361.0399984828419L880.4414903181826,361.0076680928521L882.0558984545461,361.12086082766086L884.8218020000007,361.1063893865691L884.983821454546,361.1715674944219L885.4814526363642,361.29109731631183L887.6860745000007,361.1004773645182L887.8133755000007,361.14236889814634L889.5319390000006,361.1822604348574L890.3709683181826,360.9293529024069L890.6371431363642,360.8688522346969L893.6807943181825,361.1221886246544L893.9122506818188,361.3239734574242L893.958541954546,361.47946386967004L894.0858429545461,361.41933964114423L894.1437070454551,361.6845431617852L894.5834741363642,361.6344259445445L894.7802120454553,361.8294721816278L895.2836296363644,361.7203590708947L895.4630083181826,361.75487994762756L898.165261363637,361.8465915997366L899.5482131363643,362.0256751008202L900.8964464545461,362.03980537187965L904.5476705909098,362.151078438385L904.7559813181825,362.16623353776475L905.3172630000007,362.2667867379107L906.5324089090916,362.36284543083815L906.5381953181825,362.6267035315738L908.2683316363643,362.6142585819679L909.7438659545462,362.6862517643298L910.5597496363644,362.958927497937L912.2609539090915,362.96975618499164L913.1636337272735,363.0824539037884L913.9910902272734,363.13985182048344L914.4887214090916,363.3555102318953L915.6228575909098,363.0011057224235L915.7675178181826,363.0216816096842L916.496605363637,362.95739541113323L916.9016540000007,363.11168193606954L918.2788193636371,363.2918950097008L918.6202175000006,363.4419141890483L919.3088001818188,363.64220125411504L920.0263149090916,363.61668768094955L924.3776945454553,363.82406246177453L926.2987823636371,363.8734141353517L926.3624328636371,364.12389004254794L926.8716368636371,364.1645621486878L927.0973068181825,364.4561231560193L927.3345495909098,364.6616100257719L930.3492687272734,364.79859788902326L930.8526863181825,364.9329597201948L932.5712498181825,364.8995651021913L936.4481439090915,364.85313886707956L937.1714450454552,364.9484586058848L941.2103585909099,365.036358225304L941.7832130909098,364.8789315499434L942.5701647272734,364.82330921070155L943.2761066363644,364.660109652724L943.6117183636371,364.8307579304672L944.0109805909099,365.070495028681L944.0341262272734,365.2502789957674L944.6185535454553,365.237283040423L945.1161847272734,365.3869118381982L948.4607291818189,365.0881052915698L949.1145934090915,365.0386511377382L949.855253772728,364.87384614806984L949.9420499090917,364.96471185761203L951.0298948181825,364.97886282126706L951.3250016818189,365.14535212480723L951.7242639090915,365.4438993880528L951.7474095454553,365.6313359916891L954.7968471363644,365.35196561091465L954.9067889090917,365.27251847430466L955.3697016363643,365.3169727827802L956.0756435454553,365.4890900667038L956.6832165000008,365.4337762326181L957.7189837272736,365.5747290569591L957.7999934545462,365.7139006491259L958.008304181819,365.69725351889474L958.2455469545462,365.52805478107126L958.7894694090917,365.71551089818223L959.0730034545462,365.6362674520953L959.6342851363643,365.6687744595422L960.1145570909099,365.8508465578411L960.617974681819,365.8056121310666L960.7221300454553,366.0089839342406L961.503295272728,366.02616261845776L964.743684363637,366.05059807812586L966.2886555909098,366.32190527997034L967.6947530000008,366.29010374218774L972.2660161818189,366.3394467144501L972.6537055909098,366.37094119996374L973.0066765454552,366.4054392938738L975.0897838181826,366.26830799739L975.4601140000008,366.2160256763375L977.8499009545461,366.1742785114385L978.6773574545462,366.4164220770791L981.7152222272736,366.49785088938523L982.1665621363644,366.63518978358013L984.0008538181826,366.72228826709016L984.7878054545463,366.80521096942L984.8746015909098,366.8710963882766L986.2401941363644,366.84597003644365L988.1960004090917,366.64852705070217L988.676272363637,366.75491088776624L990.1807387272735,366.90897979876235L991.1875739090916,367.0776112742217L991.609981772728,367.12944192582876L991.7488555909098,367.1609319596638L992.4547975000007,367.3113716886676L992.5647392727279,367.4692877990648L992.946642272728,367.5919531756055L993.8782541363644,367.8698897375534L994.4048173636372,368.0299639202657L994.6825650000007,368.09220585311886L995.7993419545462,368.1866679910126L996.8756140454553,368.12957140881673L997.5584103181826,368.043912246028L997.8130123181826,367.564360384681L997.9518861363645,367.6540704647222L998.2180609545462,367.8500910756195L1001.0476150000007,367.98421168365144L1002.0197317272734,367.87009688306637L1002.9224115454554,367.91925539628687L1003.6746447272735,368.0183576914083L1004.5946837727281,368.32640069060915L1006.1280821818189,368.37330300594704L1006.7877328181826,368.4970050261763L1008.2748399545462,368.4776803881685L1008.4600050454553,368.284526545044L1010.7224910000008,368.28632270949686L1011.0118114545462,368.45809624247465L1012.0070738181826,368.5506542897099L1012.2211709545462,368.64751857029165L1013.6504140000008,368.5466479429103L1015.0738706363644,368.4326370735225L1016.2600845000007,368.6067215055328L1016.4221039545463,368.68109846761325L1017.4462983636372,368.915285612534L1020.8371340909099,368.96152563927853L1020.9702215000009,369.17279688906103L1021.9481246363644,369.17373787611075L1021.9539110454554,368.9466243279794L1022.3184548181825,369.09866363146625L1022.7929403636372,369.14225655027093L1023.5393871363644,369.07992444019476L1023.8692124545462,369.0972151145694L1024.4999310454555,369.3482204927607L1024.9107660909099,369.2801073791162L1025.6919313181827,369.5175429661715L1027.6535240000007,369.71834848086957L1028.6256407272735,369.8378202016778L1032.4446707272734,370.0169309897623L1033.1216805909098,370.0901190137466L1036.2984191818189,369.6544826593321L1037.438341772728,369.6055052098166L1037.6697981363645,369.68459070220183L1038.3815264545462,369.8753610597709L1041.1647892272736,369.7174656501709L1041.9401680454553,369.8202491449631L1043.1148090909098,369.82954553271134L1044.2547316818188,369.8003763151032L1045.9964408181827,369.65939738172244L1046.1295282272736,369.48765757886997L1047.1710818636373,369.6150574200673L1047.2405187727281,369.3898405674024L1049.3062668181826,369.26070964762283L1049.7518203181826,368.6739973381527L1050.9206749545463,368.54730095134283L1051.4125197272735,368.53576338028614L1052.0548111363644,368.7478668543247L1052.3499180000008,368.8699823831097L1053.7849474545462,368.9969959581117L1056.0590062272736,369.2386294886508L1056.8864627272735,369.33674695570545L1058.0958222272736,369.4801244778347L1059.021647681819,369.6491925734599L1060.0111236363643,369.7199355570238L1060.8559393636372,369.9596719960583L1060.9195898636372,369.9927478197733L1061.6660366363644,370.0696293461441L1061.7817648181826,370.2011533244258L1063.5003283181825,370.30312790765686L1064.8369888181826,370.4675024676704L1066.34724159091,370.64839223724056L1066.6828533181827,370.79572936149714L1067.2036301363644,371.02450261044436L1067.9616497272734,370.78657789881663L1068.505572181819,370.81775011027383L1070.281999772728,370.92695624970713L1074.43085509091,370.92272113293586L1076.7917100000009,370.97464309567073L1077.0173799545462,371.11465628605157L1077.0752440454553,371.29148852261335L1080.3272059545463,371.2670848790862L1081.3976916363645,371.17791949211426L1084.61493509091,371.1994758052968L1085.31509059091,371.4896945879772L1085.7837897272734,371.60220638189907L1085.8705858636372,371.6853205046656L1086.4839452272736,371.6522487665067L1086.7443336363644,371.7847968740566L1087.4965668181826,372.0352856205072L1087.9941980000008,372.1960035116846L1088.503402000001,372.3261738082676L1089.0878293181827,372.38838575842834L1092.9589370000008,372.4534756296696L1094.3071703181827,372.5520041406848L1095.8984328181828,372.67619501484415L1096.9862777272735,372.65289036154104L1097.3334622727282,372.70760093536353L1097.9294624090917,372.6270823098531L1098.5370353636372,372.7500816487022L1099.5380841363644,372.73186038624647L1102.6048809545462,372.9357023299205L1103.6927258636372,373.03479767152413L1103.7737355909098,373.00023751232055L1103.8605317272736,372.8952081056413L1104.2655803636371,372.98261406838037L1104.79214359091,373.0618596928695L1105.5096583181826,373.0132390558614L1108.414435681819,372.58642404886234L1111.79369859091,372.53128250500384L1111.8862811363645,372.41046309549955L1112.106164681819,372.38911754431933L1112.4186307727282,372.4230825175073L1113.1477183181826,372.66393358140994L1114.8199905454555,372.2439546520441L1117.5338164090917,372.3432045209725L1117.568534863637,372.37083187041344L1117.7652727727282,372.45688373656833L1118.5175059545463,372.61065019812304L1118.8068264090919,372.7548867513898L1119.7963023636373,372.1723046568328L1120.4617394090917,372.25733502379677L1120.6295452727281,372.35481795411295L1122.1455844545465,372.2985411416635L1122.4291185000009,372.22664179694556L1123.430167272728,372.2308986443724L1124.2691965909098,372.3698403208394L1125.085080272728,372.43061722090994L1125.2760317727282,372.5355741555185" style="fill: none;" fill="none"></path></g></g></g></g><g opacity="0.2"><g><g><g><path stroke="rgb(255, 112, 67)" stroke-width="2px" d="M88.40360036363644,-23.811117605730033L89.59560063636371,38.62422706864044L91.4414651363637,204.94868107275474L91.742358409091,171.958263646472L92.03746527272736,258.5935246077445L93.76181518181826,106.4671611460767L93.779174409091,147.7284943732343L94.58927168181826,243.89249061454368L95.50931072727282,221.30786155570578L97.07742759090918,218.72186581654924L97.55191313636372,101.0531198111442L98.107408409091,299.25047567757633L98.11319481818192,141.97613626176607L99.26469022727282,132.36726389147964L102.41828318181828,226.01966643333375L102.51086572727282,225.36745805090067L102.85226386363647,275.5366561304433L104.663409909091,238.81671485033843L104.67498272727283,255.50668485598072L104.96430318181828,335.8321612748226L105.83805095454557,393.5614361221134L106.61921618181829,256.4894267320627L108.70810986363647,334.63353571024743L109.18838181818192,318.74032808433816L109.72073145454556,131.54925110123318L109.81910040909102,259.9905726801259L112.49242140909102,257.99293168024525L113.43560609090919,301.96049188483784L114.65653840909101,98.52816139567932L116.84380104545467,292.8279871507118L117.90850031818194,232.4322722391643L118.38877227272738,282.16678421063796L119.6039181818183,344.425110405141L122.49133631818194,278.239657141945L122.56077322727283,63.05774425376495L123.38822972727283,283.6225141395216L124.03630754545466,351.15037887746576L125.12993886363648,314.140663927251L126.89479363636376,443.01503302834186L126.91215286363648,328.6157266876908L128.85059990909102,450.0795399817547L129.05312422727286,287.109834519299L130.40135754545466,256.20682187513813L131.06100818181832,364.1829740134146L131.29825095454558,343.67832489447096L132.90108627272738,398.86159573901716L132.9589503636365,314.11593152176187L135.09992172727286,162.25082009488833L135.42974704545466,259.3043636408713L137.31033000000014,72.95982108332845L138.51390309090922,294.5299658125091L139.0115342727274,427.391014337539L139.8447771818183,346.2502902421078L143.90104995454558,372.9828458157446L144.36396268181832,357.3692731098689L144.6127782727274,314.54216867143396L145.10462304545467,279.0345761125732L146.10567181818195,339.7978975230991L146.82897295454558,150.14802002906742L147.18194390909105,326.69668660380563L147.49441000000013,228.76675564592477L150.4570514545456,362.4525249221102L150.6537893636365,399.4746828837822L151.34237204545468,228.9930341135366L152.98571222727287,435.06753311373905L153.0146442727274,354.1319906928316L154.11406200000013,295.36651510542026L154.84314954545468,418.693963798609L158.23977168181833,234.05667410113537L159.14823790909105,368.2898846756322L159.30447095454562,273.0166646783996L162.40598622727288,244.2404852888795L162.53907363636378,287.57452723112914L163.6384913636365,373.04557293111566L166.4391133636365,362.44607299024347L168.60323036363653,281.9372797770927L169.24552177272741,361.74987881833795L169.78944422727287,395.4858528158875L173.26128968181834,317.88554952361307L174.9451347272729,363.52825654636666L176.98195072727287,271.5338468768374L178.16816459090924,338.37893336469415L181.26967986363653,-119.49992394447372L182.47903936363653,370.2604378028343L182.6584180454547,339.8525853265409L183.9314280454547,494.18876105546883L184.0587290454547,350.6009917584326L185.23915650000018,362.2810366695571L185.3201662272729,-454.74199650504397L190.49321595454563,312.2844021645453L194.34117800000016,321.68583980473545L194.64785768181835,395.1148667335504L196.74253777272742,397.3256263082671L197.37325636363653,356.37101587382165L197.89981959090926,437.9735651558089L199.42743159090926,375.0719915953543L199.76304331818199,341.98208128322193L199.81512100000018,477.7522341988297L200.8682474545456,375.76265553994546L200.9145387272729,361.8539290211411L201.32537377272746,421.17657501047245L202.00238363636382,318.49285041202137L202.5752381363638,369.02125723795393L202.80090809090927,334.9512677517798L203.963976318182,328.8818432742893L203.98133554545473,179.31623108820426L204.4037434090911,302.0284419926724L205.70568545454563,414.82300950180337L206.0760156363638,427.35107380693546L206.58521963636383,287.67381529374495L207.0886372272729,315.1230985684822L210.14964763636382,317.6715604500331L212.4468520454547,191.77911039915895L212.93869681818202,323.5011881264767L213.10071627272745,297.40307251973525L217.61411536363656,373.43140869790795L217.67197945454564,417.5817736387246L217.92658145454564,206.45443907650977L218.4705039090911,382.9417610927055L218.90448459090928,416.07181675867537L219.28638759090927,240.6653469475827L219.94025181818202,340.9179221716788L220.6924850000002,304.43076249686095L220.7561355000002,283.5747903260312L220.87186368181835,333.37597226012775L223.45260213636382,324.1481223106378L224.23376736363656,289.93122335997435L224.2453401818184,305.79493644020715L224.46522372727293,413.5269904895256L226.19536004545475,368.63798176158497L226.8087194090911,461.94520594856886L230.65089504545475,392.7654418295074L233.0869732727275,327.05748273025796L233.2894975909093,285.3576741652049L233.71769186363656,368.4400201060549L235.92810013636384,277.65836880423745L238.78658622727292,381.03915807333794L238.79237263636384,397.11552887613055L240.8523342727275,307.1556283885776L242.88336386363656,403.7345452958881L243.45043195454568,335.71996934847334L243.6529562727275,327.90734553337035L244.73501477272748,395.64069918068907L245.2615780000002,459.68467432802305L248.28208354545475,339.9498763626266L248.8896565000002,337.4558462554752L251.3604531818184,311.655902071432L251.51089981818205,382.90392000024906L251.89280281818202,268.07919580286136L252.6971136818184,324.07105756889626L253.05587104545475,396.50070073387775L254.25944413636387,242.18697875196224L255.06954140909113,211.84108530391288L256.3309785909093,331.62432396411833L257.3493865909093,459.6188236583356L257.499833227273,233.8574835062021L258.32728972727296,435.5540394999758L260.040066818182,421.2685406424776L260.8617369090911,370.64227951656625L261.4056593636366,339.94301478429213L261.48666909090934,381.26466845382276L268.19890363636387,382.2049095088779L268.5229425454548,339.32583117484984L268.9164183636366,193.9562789635219L270.09105940909114,437.8083240118887L271.4103606818184,337.77388553185835L272.0295064545457,195.33294712413382L272.69494350000025,383.75204180587355L273.3025164545457,316.0337426662439L274.0663224545457,335.10816234892L274.11261372727296,378.7639815915708L275.7270218636366,395.2263417785812L276.84958522727294,337.0807637084608L277.0116046818184,397.3044783093706L278.94426531818203,430.24901533126763L279.013702227273,364.93692833726993L279.12364400000024,357.22861075401244L279.2220129545457,239.77026941559473L279.53447904545476,212.79607363180622L279.7485761818184,434.3733871741722L279.96267331818206,132.20939638397854L280.6744016363639,473.435379721901L282.5607710000002,246.14534136381957L283.5039556818184,311.7462803233748L283.9321499545457,389.7055875388052L288.17937422727294,337.87286635962334L288.30088881818205,500.6428435661569L289.0473355909093,352.2553490183564L290.71382140909117,244.04487910053888L291.1651613181821,361.1322855624279L291.76694786363663,354.8191726424471L292.253006227273,296.54962531003025L295.6785604090911,423.7855109518218L296.4770848636366,393.07528817653593L296.95735681818206,352.1389582157129L298.99417281818205,423.7939087044102L300.65487222727296,284.00097626989475L302.246134727273,467.1946718150912L302.89421254545476,228.21219674023658L306.2445434090912,376.7032550356598L307.77794181818206,323.6744173765176L308.47231090909116,386.4337412010533L309.28819459090937,459.8472015640946L311.1109134545457,340.72006292776564L313.46019554545484,384.62474239956185L314.4786035454548,263.52152040871647L314.657982227273,369.54509265856245L315.3002736363639,290.0360416499045L316.8973225454548,347.1958054954349L318.07775000000026,290.01540570909265L319.02093468181846,392.03929225964913L319.04408031818207,448.9023696509268L319.35076000000026,366.528814510865L319.7731678636367,458.1371835903681L321.2024109090912,335.80799213322666L322.38283836363667,389.48888455737654L322.5390714090912,366.05889880657134L322.94412004545484,326.5958623669358L324.0898290454548,320.6438016024497L327.5327424545457,404.47979463230416L329.36124772727305,257.02242799238667L329.4654030909094,231.73234004324073L330.68054900000027,430.6501616347913L335.5411326363639,348.3352883512317L336.0561230454548,344.97444631836566L336.2412881363639,340.5688521753652L336.65790959090936,394.0698073885651L336.81414263636395,407.3160331574347L336.83728827272756,261.7847730029707L337.2018320454548,262.8807821273798L338.2896769545457,443.3686603416089L339.48746363636394,494.3980904004784L339.52796850000027,310.5357238054269L339.78257050000025,419.5911407687441L340.0892501818185,375.6790364547203L343.05189163636396,406.53166258335045L343.9082801818185,353.3303125554859L345.91037772727304,348.48020078919086L346.2691350909094,367.20862282406137L347.0503003181821,443.23998014493355L347.9240480909094,336.1605441245159L351.7430780909094,314.8472528782752L351.8356606363639,177.3281655745067L352.2927869545457,195.23524644158047L357.43111822727303,344.5894810503173L359.0744584090912,334.88751652023944L359.3811380909094,292.35484548048476L359.56051677272757,339.81976240331414L359.7688275000003,374.4593140970571L359.99449745454575,452.1435437094075L360.79302190909124,387.5373287851154L361.1691385000003,350.6728335077106L361.30222590909125,434.1607806574208L361.91558527272764,344.3523981571191L362.52315822727303,506.3886217312372L362.78933304545484,295.31679426539966L364.496323727273,402.24399541724745L370.0223444090912,412.2220616665747L373.08335481818216,53.033234336158955L373.3726752727276,266.8585005348373L374.0033938636367,380.98754261840406L374.176986136364,273.1760171543462L374.5993940000003,424.7138722593128L376.6882876818185,452.5964590852904L377.78770540909125,303.63097897442844L378.71353086363666,413.1736192053008L379.6104242727276,339.16811728477415L380.1485603181821,340.96713095361474L383.4525999090912,401.959649562835L384.355279727273,505.6244518485929L384.6272409545457,362.8027726520185L386.3110860000003,410.5816835923622L386.66405695454574,474.4824872992249L387.5725231818185,246.06300242380604L388.5677855454548,346.5597781484771L389.86394118181846,372.7723387371404L390.0548926818185,404.0099813396274L390.94021327272753,326.10264801979L391.0270094090912,391.81910728324476L394.4930684545457,421.4923100254746L394.5335733181821,324.95389691266087L394.5567189545457,363.8731788721945L395.39574827272753,325.824498068202L395.65035027272756,390.67650087313154L396.90600104545484,328.77482313459507L397.5887973181821,461.72179500623116L400.19268140909116,376.7772986347019L400.8639048636366,327.6065626144403L401.6161380454549,438.74708009849826L401.8765264545458,272.8266399231818L403.7108181363639,380.33922587741444L405.1227019545458,286.0889955217182L405.168993227273,83.45409308780273L406.1063915000003,420.70077063820514L406.41307118181845,369.80168496478626L409.71711077272755,415.2565178762776L410.7008003181821,376.6051959124472L410.78181004545485,341.14292049407896L411.2852276363639,332.6193552342322L412.32099486363666,442.4688206694336L415.2836363181821,421.7013321356333L415.3183547727276,79.0240225683554L416.3541220000003,413.60246785120466L417.9511709090912,407.24777581474933L421.0468997727276,346.1258089217266L421.88592909090937,459.9469504789866L422.5571525454548,335.558005376295L423.50033722727306,305.3359275731167L423.6565702727276,289.2912531657646L423.75493922727304,377.3836266127493L426.6539301818185,347.6441123485559L426.9258914090912,390.2346971576858L427.6260469090912,411.4011301452457L428.8296200000003,350.06619829481235L429.0032122727276,325.42452949827305L431.94849450000027,327.75690286809686L431.98321295454576,434.6099068034772L432.6312907727276,481.84434638240054L433.66127159090945,310.2976167960594L437.885350227273,391.6979543404139L440.6338945454549,393.99371555718443L443.2898563181821,315.6397651759055L443.7527690454549,291.2112149542022L445.47133254545486,324.2532478354188L445.65071122727306,442.4995953603218L447.54286700000034,445.8783082203425L448.4108283636367,174.91770334677207L449.5449645454549,337.408480882644L450.7543240454549,395.8722518465729L451.24038240909124,419.67127785899356L452.1546350454549,368.6433071656654L453.2771984090913,473.8314566503865L454.6254317272731,303.29235496304193L455.3603056818185,349.5823034048074L457.0730827727276,321.38679788329324L458.0336266818185,467.17331899296084L459.20248131818215,370.5813958103L461.2624429545458,451.49415164644L461.53440418181856,401.05146334387973L463.3224045909094,355.5518253499805L463.5654337727276,493.60114880041573L465.91471586363673,385.07233237136427L467.3555317272731,220.7865352197121L470.18508577272763,307.99740067395237L471.2787170909095,233.95308475060838L471.53910550000035,318.1919650814744L473.96361090909124,-191.9741673686292L478.72582559090944,372.6287064443929L478.82998095454576,62.21812261234578L479.391262636364,217.66497792980832L479.68636950000035,342.0305219780309L480.6179813636367,351.0573379234828L483.9798850454549,351.5564409386022L484.06089477272764,382.2562689347694L485.62322522727305,344.8240036530922L485.74473981818215,335.63686232133284L487.1508372272731,366.3144669966258L487.60796354545494,355.34961361234775L488.28497340909126,385.5998034043739L491.45013918181854,318.68533304604557L492.1329354545458,267.4408641945226L492.5727025454549,396.79011596332833L494.07138250000037,369.0071244348173L494.540081636364,418.2251234162931L497.0398103636367,366.8919661045068L497.76889790909127,390.64229539307615L497.9193445454549,362.77425101670286L498.59056800000036,370.2607450376851L499.8057139090913,358.17258983308557L500.1008207727277,311.77797671881524L500.22812177272766,415.9807216254141L500.41907327272764,188.97589962048906L500.56373350000035,394.3954763304097L502.0681998636367,457.5509282892394L502.0797726818185,362.3591767332764L502.6699864090913,446.8576705130657L502.68734563636406,348.7194855321531L503.578452636364,425.14400105042824L504.53321013636406,356.58177898146823L505.4011715000004,379.5360115658147L511.48268745454584,479.07774775678394L513.0045130454549,181.86643396724298L517.136009136364,383.29144555872074L518.6983395909094,343.64780623262516L520.4226895000004,416.5469042496241L520.5268448636367,435.50641809810224L520.9897575909094,333.7472143715072L523.0786512727277,341.4178956855421L524.0681272272732,308.4161105697799L524.7567099090913,401.4326393821016L525.9892150454549,267.675335591489L526.2843219090913,344.7181612469927L527.1175648181822,239.5867990038606L527.3895260454549,347.90254806388447L528.0665359090913,363.23136526888004L528.7377593636368,324.612712610851L528.7782642272731,422.045025522058L532.348478636364,386.7716483311213L534.4952364090913,342.56802934949985L535.849256136364,376.81416681679747L536.2716640000003,378.4525990702883L539.5525579545459,447.86463273655215L539.9460337727277,360.23039765791395L540.3915872727276,351.04648229208794L540.4725970000004,447.1976770812808L540.6982669545458,374.2417918226929L540.8834320454549,364.6356333602552L543.2732190000004,462.6195352402594L544.3089862272731,326.52565920352873L546.4962488636368,461.5598822398613L546.8202877727276,425.4813449166031L546.8434334090913,281.0329851995809L547.2195500000004,476.6791652766134L548.897608636364,398.12018683823607L548.9901911818185,211.831100171262L549.8234340909095,404.5149218169119L549.9738807272731,424.72631527077004L550.1879778636368,373.5060155608431L552.4041725454549,305.19767189025816L552.5141143181822,156.73134600032404L553.104328045455,391.8529031168324L554.6319400454549,269.274902636354L555.2858042727277,534.0105965950265L555.4883285909095,249.72324481877357L557.935979636364,358.53784086487445L562.4725243636368,369.5920483849259L562.6692622727277,332.7391768260429L563.1263885909095,386.939910617741L564.7350103181823,412.07218226519433L565.5451075909095,192.37724544785183L568.4093800909095,476.18569490042535L569.3409919545459,367.110922141508L570.926468045455,427.8109019669613L572.1531867727277,366.00866590846607L573.2641773181822,283.55287424000767L573.7560220909096,390.75586987625405L574.5198280909095,368.59333029660246L575.6886827272732,450.47618017413333L575.8738478181822,435.68246366760883L576.0879449545458,322.3907389640802L576.5508576818186,347.0910384113132L577.4246054545458,383.66427505016264L578.5124503636367,407.5785653374405L578.691829045455,297.65024295720127L578.882780545455,188.46517288684788L579.5424311818186,323.5917199958448L579.9069749545458,347.84453188289234L581.4403733636368,397.0460937998505L585.8727627272732,349.37845308130375L585.947986045455,257.9158669385037L586.3646075000005,453.90563799034396L589.4198315000004,417.163166154514L589.7496568181822,317.96220461888686L590.9995211818186,372.8194480809292L591.9427058636368,435.9318359548389L593.7249198636368,400.76204811442915L596.832221545455,330.11887319521406L597.6481052272732,448.8911555788727L600.2346300909095,337.15946703607324L600.7264748636368,366.5249228694216L600.8190574090913,353.8215810819099L603.0294656818187,288.36703952875945L603.127834636364,382.04048765789315L604.3487669545459,231.5780057365238L604.7075243181823,332.28723436052087L605.8763789545459,422.4039782394056L610.835331545455,447.885268677364L612.0273318181822,332.44735492359445L613.9021283636368,272.05599250576654L614.0178565454551,349.5331970344884L614.0352157727277,421.64295751398197L614.527060545455,380.7808759754348L614.5444197727277,324.6765150481998L616.6217406363642,352.6590044064949L616.7721872727277,373.26109817894957L620.2961104090914,475.83288688009367L620.637508545455,340.8050645698194L622.5933148181823,316.9859658804801L623.1545965000005,237.96895148537317L624.5896259545459,361.488217137076L627.0777818636369,476.69314446232465L632.1871810909096,389.9606948765835L632.8063268636369,303.65217817913344L633.7668707727278,427.964775421402L634.5017447272731,360.8987358700139L635.2944827727277,479.6555028937073L635.6185216818186,421.45984554290703L635.8036867727278,369.80040481957457L636.2145218181823,355.7662240700282L638.4133572727277,334.3190296346485L638.9283476818187,344.48220488158074L639.0614350909096,398.42137940363386L642.3191834090915,395.6707569902587L642.6953000000005,139.65641072663337L645.9125434545459,434.80187737941674L650.0787580000004,441.69663707776436L650.7152630000005,357.50778482176975L651.6005835909095,421.7978038787835L652.022991454546,338.4898451458318L653.1339820000005,366.40346269173995L653.5390306363641,446.4503795125261L659.5106048181823,415.7439971728752L660.1239641818187,289.68011007525644L660.1355370000005,433.7569716518569L661.6978674545459,367.28123266046634L665.6441984545459,387.0106258392328L665.777285863637,362.080873164263L666.7146841363642,345.2467588077886L667.3338299090914,390.4203182133755L667.6752280454551,405.7155444080173L668.1381407727278,372.43719672072956L668.572121454546,469.85814194245705L669.0523934090915,345.24025567011336L669.5095197272733,426.86815182729134L671.0429181363642,472.9633645794602L673.4963555909096,244.67261110652518L673.6120837727277,236.22703229297232L675.7183366818186,376.4344757470211L676.8871913181823,447.81025216796115L677.0723564090914,346.03768372535643L677.3848225000005,405.05836906216297L679.7341045909095,401.37001467834756L679.7919686818186,149.9145215424619L680.920318454546,428.871169437061L687.1117761818188,519.3456626967943L687.4473879090914,322.7902466817329L689.5883592727279,500.834327686916L690.1901458181823,384.41653958233854L690.271155545455,348.9402337724506L690.6183400909097,399.11404037475523L690.786145954546,415.3107448274433L690.8613692727279,357.63815481012455L691.0870392272732,365.7475162852888L691.8392724090913,455.0116834532124L693.8124379090914,375.374822746623L694.8308459090914,358.3545752763742L695.363195545455,479.94481571154097L699.3442450000005,438.2403986237259L700.3626530000006,357.5544333132824L700.9412939090915,398.10369856791L703.4699546818188,413.54050882296065L707.2947710909096,257.96645827726826L707.717178954546,408.82291768897596L708.7818782272732,375.17880691181466L711.2584613181823,453.40950491211566L716.1884818636369,428.5036141438911L717.3457636818188,353.11806447939375L719.2032010000006,360.37618059461704L720.5977255909097,443.4950874827118L721.338385954546,333.009645906361L721.529337454546,374.73705440217736L722.6519008181824,484.6143757971844L723.9422700454551,486.3833316564553L724.4977653181824,338.6038292754774L727.1421542727278,490.9916751980775L727.8886010454551,-20.06264760277537L729.1731838636368,377.6979790709229L730.058504454546,448.9023696509268L735.6481756363643,451.15511798858574L735.8738455909097,324.432877811518L737.0253410000006,468.0740291638801L739.4556328181824,440.617730693383L741.0006040454551,285.4439047466619L741.8801382272733,403.6146724982689L743.2630900000006,359.7258156212887L745.0684496363642,366.33413002707675L746.0347799545459,436.25909227674595L748.1236736363642,370.6359812021249L749.7207225454551,441.33000348914686L750.0274022272733,419.8706220713522L752.0931502727279,322.77447529272536L752.1625871818187,410.32893172177336L754.2456944545461,427.51206486875293L755.1773063181823,352.037468303333L755.6980831363642,453.1744702512561L759.0657732272733,421.12808310985497L759.4823946818188,372.35490898652444L759.7080646363643,288.1861806132571L760.3792880909097,336.808246395804L760.8306280000005,298.2740833217441L760.9116377272733,494.5703211372542L761.0100066818187,459.18608337098834L761.634938863637,308.92156310514906L764.4124152272733,294.00766656615457L765.5118329545461,212.3646134896706L766.1830564090915,436.036654244769L767.4560664090915,375.5258286757896L767.6238722727279,359.72801747105274L770.291406863637,419.09500769051573L772.2992908181824,479.74895349415794L774.0583591818188,332.68848307566145L775.0304759090915,408.95661605488107L779.7811177727278,405.96082023057005L783.0388660909098,249.53040374409008L784.9946723636369,491.32963353395394L785.9783619090914,401.30411280285165L786.2156046818188,207.63903424956524L786.8868281363642,474.33629471605406L791.0356834545461,379.3460380164053L793.269237363637,371.4711479382075L793.3386742727279,485.67743398384545L795.8499758181823,416.9805662415238L798.9804231363642,310.8246781826013L799.119296954546,367.77685368061003L799.310248454546,414.17638255249307L802.3828316818187,438.5672965049737L804.3212787272732,366.67787461930993L805.6405800000007,413.26686498251763L805.9761917272734,438.1192968867035L807.2781337727279,324.4043561762023L808.7073768181824,449.7399430600073L818.2260197727279,502.23158058253136L818.532699454546,361.2624507275488L819.1634180454553,478.0821020169685L820.9977097272733,510.90364268692986L821.7383700909097,299.612295920198L822.0450497727279,417.01072646271035L829.3185660000006,390.19521747935835L831.019770272728,185.49492876096147L832.0150326363643,394.66210497509286L832.5242366363643,319.1598572731012L832.5936735454552,390.75433370200005L833.0797319090915,403.6453959833485L833.3285475000006,365.7412691766559L834.0634214545461,394.3609636155035L835.5273829545462,409.85097670555047L836.3721986818188,351.164358063177L840.0292092272733,381.19031761992994L845.9949970000006,449.1598324558945L846.8166670909098,308.34288626367334L851.445794363637,519.0485153902654L852.8345325454552,203.0965157747263L852.9271150909096,408.9146784977473L854.5125911818188,497.7157915397117L855.1606690000006,292.73530463738814L856.1906498181825,313.9552989006036L856.3758149090916,470.11396616155383L856.7924363636371,268.8202974687917L858.2969027272734,361.8418444503431L859.147504863637,435.52592751112786L861.2826898181825,349.4739519140931L861.3579131363642,468.13363272493467L861.8497579090915,321.2713799910106L864.0370205454552,440.19502674449507L869.9391578181826,404.7940958846693L871.8891776818189,286.08981481465366L872.3000127272734,372.56705465099964L872.7513526363642,359.73738813400206L874.5740715000007,476.4140216003758L874.6030035454552,370.88176908276233L874.6897996818188,394.21359329873803L879.8454901818188,467.7332033027295L880.4414903181826,343.8236981847063L882.0558984545461,421.3370028083968L884.8218020000007,353.40113018859455L884.983821454546,395.90579165111825L885.4814526363642,425.04573710398176L887.6860745000007,259.33913238481983L887.8133755000007,383.52540489760247L889.5319390000006,382.51521670818266L890.3709683181826,225.56357629732594L890.6371431363642,328.4585248556998L893.6807943181825,496.95236414129016L893.958541954546,444.9918844699853L894.0858429545461,329.09941675446186L894.1437070454551,504.36770769140867L894.5834741363642,334.64756610176715L894.7802120454553,466.9467844963067L895.2836296363644,302.8652473146259L895.4630083181826,380.3911485671991L899.5482131363643,458.8691706223915L900.8964464545461,369.68754721771523L904.5476705909098,422.42645758932224L904.7559813181825,370.3825124502176L905.3172630000007,416.8272560509762L906.5381953181825,506.03763151710615L908.2683316363643,355.8445689569814L909.7438659545462,401.8812022642649L910.5597496363644,511.5346006588495L912.2609539090915,368.87501344897464L913.1636337272735,424.59154158288715L914.4887214090916,481.25471149791304L915.6228575909098,169.08991907943323L915.7675178181826,374.2890035780987L916.496605363637,327.7253600900817L916.9016540000007,447.737949566407L919.3088001818188,473.770214503461L920.0263149090916,349.5765683542592L924.3776945454553,478.03545352545586L930.8526863181825,439.3528960184611L932.5712498181825,346.3881874843071L936.4481439090915,339.0974020632824L937.1714450454552,417.8710352507498L941.2103585909099,413.87821112979475L941.7832130909098,277.33423603664687L942.5701647272734,333.86718958074334L943.2761066363644,273.760633869604L943.6117183636371,459.9544777328311L944.0341262272734,465.62516257979587L944.6185535454553,357.9758059111502L945.1161847272734,449.05772807381305L948.4607291818189,197.86727620254806L949.1145934090915,337.3409404212772L949.855253772728,272.4994348070832L949.9420499090917,415.93545569073007L951.0298948181825,372.9229862256477L951.3250016818189,458.68262786214933L951.7474095454553,471.1010605313554L954.7968471363644,208.0296321565449L954.9067889090917,320.49868434125665L955.3697016363643,390.38933869925347L956.0756435454553,462.63863500681725L956.6832165000008,334.1885060288683L957.7189837272736,445.2563112649044L957.7999934545462,444.4488980770104L958.008304181819,356.2720862518651L958.2455469545462,269.65894619985L958.7894694090917,472.01042448390547L959.0730034545462,320.6679195382372L959.6342851363643,384.12958223169437L960.1145570909099,469.3285202654919L960.617974681819,340.0778908837919L960.7221300454553,481.76707681742516L961.503295272728,375.8115570870306L964.743684363637,379.98011954264143L966.2886555909098,521.0979254625054L967.6947530000008,348.1342543471937L972.2660161818189,394.53101810541955L973.0066765454552,386.1450428529213L975.0897838181826,287.7440696629605L975.4601140000008,336.255786928263L977.8499009545461,342.2333993911737L978.6773574545462,505.38229958035663L984.8746015909098,404.82241269675103L986.2401941363644,352.3620619231998L988.1960004090917,252.75048100948274L988.676272363637,428.1689841855649L995.7993419545462,423.15450177409366L996.8756140454553,334.88106458837274L997.5584103181826,318.1271385279563L997.8130123181826,87.91207077286407L997.9518861363645,420.0061126405536L1001.0476150000007,446.3642513426861L1002.0197317272734,301.1341325478114L1002.9224115454554,396.6882164044807L1006.7877328181826,441.0953784747551L1008.2748399545462,357.1284521926527L1008.4600050454553,254.7670681584959L1010.7224910000008,369.34267609769586L1011.0118114545462,469.55147035555336L1012.2211709545462,425.73425040461734L1013.6504140000008,309.0574633208182L1015.0738706363644,301.14724123477873L1016.2600845000007,471.4166931347407L1020.9702215000009,494.2890220284455L1021.9481246363644,369.73137938976225L1021.9539110454554,234.26380159638086L1022.3184548181825,459.322700467976L1022.7929403636372,395.0290970043696L1023.5393871363644,332.03991030562946L1023.8692124545462,379.37896335124907L1024.4999310454555,518.7078687494445L1024.9107660909099,328.7221835634919L1025.6919313181827,510.9942769679149L1033.1216805909098,413.81727621772006L1036.2984191818189,109.20283146337977L1037.438341772728,340.3039645281699L1037.6697981363645,417.0304406989698L1038.3815264545462,484.1595914092924L1041.1647892272736,275.0643849589602L1041.9401680454553,431.4766233834347L1043.1148090909098,375.40984751961383L1044.2547316818188,352.2794669541439L1045.9964408181827,284.92221997000894L1046.1295282272736,266.1929274363945L1047.1710818636373,446.29169271208957L1047.2405187727281,233.751794717528L1049.3062668181826,291.4396952715781L1049.7518203181826,14.858075185255075L1050.9206749545463,292.09308138760593L1051.4125197272735,361.5689174912186L1052.0548111363644,496.9082247343923L1067.2036301363644,510.6915226253589L1067.9616497272734,225.4401190931141L1068.505572181819,389.8727232976387L1070.281999772728,437.7249097498974L1074.43085509091,368.33059329336277L1076.7917100000009,402.773873123255L1077.0752440454553,479.727754289453L1080.3272059545463,356.2929782217193L1081.3976916363645,316.43156059221724L1084.61493509091,384.443064191124L1085.8705858636372,422.844092163172L1086.4839452272736,351.28310433300993L1086.7443336363644,453.4730001146136L1095.8984328181828,449.54561701687834L1096.9862777272735,358.21934073621514L1097.3334622727282,406.61292620138624L1097.9294624090917,322.6974105509838L1098.5370353636372,449.0686861168248L1099.5380841363644,361.41903808983824L1102.6048809545462,499.56974904103646L1103.6927258636372,434.6338711218394L1103.7737355909098,351.5041086023498L1103.8605317272736,307.5282018509772L1104.2655803636371,427.41426177458266L1104.79214359091,422.44151209701124L1105.5096583181826,342.69839933785465L1108.414435681819,106.30811590498087L1111.79369859091,338.1092835773115L1111.8862811363645,296.94391003521946L1112.106164681819,359.0482091578564L1112.4186307727282,393.66379653323713L1113.1477183181826,523.3752269853238L1114.8199905454555,109.28757707639119L1117.5338164090917,434.52234487100014L1118.8068264090919,463.33237129991636L1119.7963023636373,6.107002518393244L1120.4617394090917,425.7176597226743L1120.6295452727281,433.6804189682L1122.1455844545465,336.8745067119592L1122.4291185000009,326.9422696612092L1123.430167272728,374.9135608239601L1124.2691965909098,459.9820264577859" style="fill: none;" fill="none"></path></g></g></g></g></g></g><g transform="translate(50, 378)" clip-path="url(#clip_1)"><clipPath id="clip_1"><rect width="1273" height="21"></rect></clipPath><g><g><line x1="83.7281818181819" y1="0" x2="83.7281818181819" y2="5" style="visibility: inherit;" fill="rgb(0, 0, 0)" stroke="rgb(204, 204, 204)" stroke-width="1px"></line><line x1="199.45636363636382" y1="0" x2="199.45636363636382" y2="5" style="visibility: inherit;" fill="rgb(0, 0, 0)" stroke="rgb(204, 204, 204)" stroke-width="1px"></line><line x1="315.18454545454574" y1="0" x2="315.18454545454574" y2="5" style="visibility: inherit;" fill="rgb(0, 0, 0)" stroke="rgb(204, 204, 204)" stroke-width="1px"></line><line x1="430.9127272727276" y1="0" x2="430.9127272727276" y2="5" style="visibility: inherit;" fill="rgb(0, 0, 0)" stroke="rgb(204, 204, 204)" stroke-width="1px"></line><line x1="546.6409090909095" y1="0" x2="546.6409090909095" y2="5" style="visibility: inherit;" fill="rgb(0, 0, 0)" stroke="rgb(204, 204, 204)" stroke-width="1px"></line><line x1="662.3690909090914" y1="0" x2="662.3690909090914" y2="5" style="visibility: inherit;" fill="rgb(0, 0, 0)" stroke="rgb(204, 204, 204)" stroke-width="1px"></line><line x1="778.0972727272733" y1="0" x2="778.0972727272733" y2="5" style="visibility: inherit;" fill="rgb(0, 0, 0)" stroke="rgb(204, 204, 204)" stroke-width="1px"></line><line x1="893.8254545454552" y1="0" x2="893.8254545454552" y2="5" style="visibility: inherit;" fill="rgb(0, 0, 0)" stroke="rgb(204, 204, 204)" stroke-width="1px"></line><line x1="1009.5536363636371" y1="0" x2="1009.5536363636371" y2="5" style="visibility: inherit;" fill="rgb(0, 0, 0)" stroke="rgb(204, 204, 204)" stroke-width="1px"></line><line x1="1125.281818181819" y1="0" x2="1125.281818181819" y2="5" style="visibility: inherit;" fill="rgb(0, 0, 0)" stroke="rgb(204, 204, 204)" stroke-width="1px"></line><line x1="1241.010000000001" y1="0" x2="1241.010000000001" y2="5" style="visibility: inherit;" fill="rgb(0, 0, 0)" stroke="rgb(204, 204, 204)" stroke-width="1px"></line></g><g transform="translate(0, 8)"><text x="83.7281818181819" y="0" dx="0em" dy="0.95em" style="text-anchor: middle; visibility: inherit; font-family: &quot;Helvetica Neue&quot;, sans-serif; font-size: 12px; font-weight: 200;" fill="rgb(50, 49, 63)" stroke="none" stroke-width="1px">0</text><text x="199.45636363636382" y="0" dx="0em" dy="0.95em" style="text-anchor: middle; visibility: inherit; font-family: &quot;Helvetica Neue&quot;, sans-serif; font-size: 12px; font-weight: 200;" fill="rgb(50, 49, 63)" stroke="none" stroke-width="1px">20k</text><text x="315.18454545454574" y="0" dx="0em" dy="0.95em" style="text-anchor: middle; visibility: inherit; font-family: &quot;Helvetica Neue&quot;, sans-serif; font-size: 12px; font-weight: 200;" fill="rgb(50, 49, 63)" stroke="none" stroke-width="1px">40k</text><text x="430.9127272727276" y="0" dx="0em" dy="0.95em" style="text-anchor: middle; visibility: inherit; font-family: &quot;Helvetica Neue&quot;, sans-serif; font-size: 12px; font-weight: 200;" fill="rgb(50, 49, 63)" stroke="none" stroke-width="1px">60k</text><text x="546.6409090909095" y="0" dx="0em" dy="0.95em" style="text-anchor: middle; visibility: inherit; font-family: &quot;Helvetica Neue&quot;, sans-serif; font-size: 12px; font-weight: 200;" fill="rgb(50, 49, 63)" stroke="none" stroke-width="1px">80k</text><text x="662.3690909090914" y="0" dx="0em" dy="0.95em" style="text-anchor: middle; visibility: inherit; font-family: &quot;Helvetica Neue&quot;, sans-serif; font-size: 12px; font-weight: 200;" fill="rgb(50, 49, 63)" stroke="none" stroke-width="1px">100k</text><text x="778.0972727272733" y="0" dx="0em" dy="0.95em" style="text-anchor: middle; visibility: inherit; font-family: &quot;Helvetica Neue&quot;, sans-serif; font-size: 12px; font-weight: 200;" fill="rgb(50, 49, 63)" stroke="none" stroke-width="1px">120k</text><text x="893.8254545454552" y="0" dx="0em" dy="0.95em" style="text-anchor: middle; visibility: inherit; font-family: &quot;Helvetica Neue&quot;, sans-serif; font-size: 12px; font-weight: 200;" fill="rgb(50, 49, 63)" stroke="none" stroke-width="1px">140k</text><text x="1009.5536363636371" y="0" dx="0em" dy="0.95em" style="text-anchor: middle; visibility: inherit; font-family: &quot;Helvetica Neue&quot;, sans-serif; font-size: 12px; font-weight: 200;" fill="rgb(50, 49, 63)" stroke="none" stroke-width="1px">160k</text><text x="1125.281818181819" y="0" dx="0em" dy="0.95em" style="text-anchor: middle; visibility: inherit; font-family: &quot;Helvetica Neue&quot;, sans-serif; font-size: 12px; font-weight: 200;" fill="rgb(50, 49, 63)" stroke="none" stroke-width="1px">180k</text><text x="1241.010000000001" y="0" dx="0em" dy="0.95em" style="text-anchor: middle; visibility: inherit; font-family: &quot;Helvetica Neue&quot;, sans-serif; font-size: 12px; font-weight: 200;" fill="rgb(50, 49, 63)" stroke="none" stroke-width="1px">200k</text></g><line x1="0" y1="0" x2="1273.01" y2="0" fill="rgb(0, 0, 0)" stroke="rgb(204, 204, 204)" stroke-width="1px"></line></g></g></g></g></svg>