<svg viewBox="0 0 1323.0113525390625 400" xmlns="http://www.w3.org/2000/svg"><g><g><g><g><g><line x1="50" y1="377.7500000000004" x2="45" y2="377.7500000000004" style="visibility: inherit;" fill="rgb(0, 0, 0)" stroke="rgb(204, 204, 204)" stroke-width="1px"></line><line x1="50" y1="330.5000000000004" x2="45" y2="330.5000000000004" style="visibility: inherit;" fill="rgb(0, 0, 0)" stroke="rgb(204, 204, 204)" stroke-width="1px"></line><line x1="50" y1="283.25000000000057" x2="45" y2="283.25000000000057" style="visibility: inherit;" fill="rgb(0, 0, 0)" stroke="rgb(204, 204, 204)" stroke-width="1px"></line><line x1="50" y1="236.00000000000063" x2="45" y2="236.00000000000063" style="visibility: inherit;" fill="rgb(0, 0, 0)" stroke="rgb(204, 204, 204)" stroke-width="1px"></line><line x1="50" y1="188.75000000000065" x2="45" y2="188.75000000000065" style="visibility: inherit;" fill="rgb(0, 0, 0)" stroke="rgb(204, 204, 204)" stroke-width="1px"></line><line x1="50" y1="141.50000000000082" x2="45" y2="141.50000000000082" style="visibility: inherit;" fill="rgb(0, 0, 0)" stroke="rgb(204, 204, 204)" stroke-width="1px"></line><line x1="50" y1="94.25000000000085" x2="45" y2="94.25000000000085" style="visibility: inherit;" fill="rgb(0, 0, 0)" stroke="rgb(204, 204, 204)" stroke-width="1px"></line><line x1="50" y1="47.00000000000085" x2="45" y2="47.00000000000085" style="visibility: inherit;" fill="rgb(0, 0, 0)" stroke="rgb(204, 204, 204)" stroke-width="1px"></line></g><g transform="translate(40, 0)"><text x="0" y="377.7500000000004" dx="0em" dy="0.3em" style="text-anchor: end; visibility: hidden; font-family: &quot;Helvetica Neue&quot;, sans-serif; font-size: 12px; font-weight: 200;" fill="rgb(50, 49, 63)" stroke="none" stroke-width="1px">0.38</text><text x="0" y="330.5000000000004" dx="0em" dy="0.3em" style="text-anchor: end; visibility: inherit; font-family: &quot;Helvetica Neue&quot;, sans-serif; font-size: 12px; font-weight: 200;" fill="rgb(50, 49, 63)" stroke="none" stroke-width="1px">0.4</text><text x="0" y="283.25000000000057" dx="0em" dy="0.3em" style="text-anchor: end; visibility: inherit; font-family: &quot;Helvetica Neue&quot;, sans-serif; font-size: 12px; font-weight: 200;" fill="rgb(50, 49, 63)" stroke="none" stroke-width="1px">0.42</text><text x="0" y="236.00000000000063" dx="0em" dy="0.3em" style="text-anchor: end; visibility: inherit; font-family: &quot;Helvetica Neue&quot;, sans-serif; font-size: 12px; font-weight: 200;" fill="rgb(50, 49, 63)" stroke="none" stroke-width="1px">0.44</text><text x="0" y="188.75000000000065" dx="0em" dy="0.3em" style="text-anchor: end; visibility: inherit; font-family: &quot;Helvetica Neue&quot;, sans-serif; font-size: 12px; font-weight: 200;" fill="rgb(50, 49, 63)" stroke="none" stroke-width="1px">0.46</text><text x="0" y="141.50000000000082" dx="0em" dy="0.3em" style="text-anchor: end; visibility: inherit; font-family: &quot;Helvetica Neue&quot;, sans-serif; font-size: 12px; font-weight: 200;" fill="rgb(50, 49, 63)" stroke="none" stroke-width="1px">0.48</text><text x="0" y="94.25000000000085" dx="0em" dy="0.3em" style="text-anchor: end; visibility: inherit; font-family: &quot;Helvetica Neue&quot;, sans-serif; font-size: 12px; font-weight: 200;" fill="rgb(50, 49, 63)" stroke="none" stroke-width="1px">0.5</text><text x="0" y="47.00000000000085" dx="0em" dy="0.3em" style="text-anchor: end; visibility: inherit; font-family: &quot;Helvetica Neue&quot;, sans-serif; font-size: 12px; font-weight: 200;" fill="rgb(50, 49, 63)" stroke="none" stroke-width="1px">0.52</text></g><line x1="50" y1="0" x2="50" y2="378" fill="rgb(0, 0, 0)" stroke="rgb(204, 204, 204)" stroke-width="1px"></line></g></g><g transform="translate(50, 0)" clip-path="url(#clip_0)"><clipPath id="clip_0"><rect width="1273" height="377"></rect></clipPath><g><g><g><line x1="92.72818181818202" y1="0" x2="92.72818181818202" y2="378" fill="rgb(0, 0, 0)" stroke="rgb(60, 60, 60)" stroke-width="1px" opacity="0.25"></line><line x1="208.45636363636396" y1="0" x2="208.45636363636396" y2="378" fill="rgb(0, 0, 0)" stroke="rgb(60, 60, 60)" stroke-width="1px" opacity="0.25"></line><line x1="324.1845454545459" y1="0" x2="324.1845454545459" y2="378" fill="rgb(0, 0, 0)" stroke="rgb(60, 60, 60)" stroke-width="1px" opacity="0.25"></line><line x1="439.91272727272786" y1="0" x2="439.91272727272786" y2="378" fill="rgb(0, 0, 0)" stroke="rgb(60, 60, 60)" stroke-width="1px" opacity="0.25"></line><line x1="555.6409090909099" y1="0" x2="555.6409090909099" y2="378" fill="rgb(0, 0, 0)" stroke="rgb(60, 60, 60)" stroke-width="1px" opacity="0.25"></line><line x1="671.3690909090918" y1="0" x2="671.3690909090918" y2="378" fill="rgb(0, 0, 0)" stroke="rgb(60, 60, 60)" stroke-width="1px" opacity="0.25"></line><line x1="787.0972727272737" y1="0" x2="787.0972727272737" y2="378" fill="rgb(0, 0, 0)" stroke="rgb(60, 60, 60)" stroke-width="1px" opacity="0.25"></line><line x1="902.8254545454556" y1="0" x2="902.8254545454556" y2="378" fill="rgb(0, 0, 0)" stroke="rgb(60, 60, 60)" stroke-width="1px" opacity="0.25"></line><line x1="1018.5536363636376" y1="0" x2="1018.5536363636376" y2="378" fill="rgb(0, 0, 0)" stroke="rgb(60, 60, 60)" stroke-width="1px" opacity="0.25"></line><line x1="1134.2818181818195" y1="0" x2="1134.2818181818195" y2="378" fill="rgb(0, 0, 0)" stroke="rgb(60, 60, 60)" stroke-width="1px" opacity="0.25"></line><line x1="1250.0100000000016" y1="0" x2="1250.0100000000016" y2="378" fill="rgb(0, 0, 0)" stroke="rgb(60, 60, 60)" stroke-width="1px" opacity="0.25"></line></g><g><line x1="0" y1="377.7500000000004" x2="1273.01" y2="377.7500000000004" fill="rgb(0, 0, 0)" stroke="rgb(60, 60, 60)" stroke-width="1px" opacity="0.25"></line><line x1="0" y1="330.5000000000004" x2="1273.01" y2="330.5000000000004" fill="rgb(0, 0, 0)" stroke="rgb(60, 60, 60)" stroke-width="1px" opacity="0.25"></line><line x1="0" y1="283.25000000000057" x2="1273.01" y2="283.25000000000057" fill="rgb(0, 0, 0)" stroke="rgb(60, 60, 60)" stroke-width="1px" opacity="0.25"></line><line x1="0" y1="236.00000000000063" x2="1273.01" y2="236.00000000000063" fill="rgb(0, 0, 0)" stroke="rgb(60, 60, 60)" stroke-width="1px" opacity="0.25"></line><line x1="0" y1="188.75000000000065" x2="1273.01" y2="188.75000000000065" fill="rgb(0, 0, 0)" stroke="rgb(60, 60, 60)" stroke-width="1px" opacity="0.25"></line><line x1="0" y1="141.50000000000082" x2="1273.01" y2="141.50000000000082" fill="rgb(0, 0, 0)" stroke="rgb(60, 60, 60)" stroke-width="1px" opacity="0.25"></line><line x1="0" y1="94.25000000000085" x2="1273.01" y2="94.25000000000085" fill="rgb(0, 0, 0)" stroke="rgb(60, 60, 60)" stroke-width="1px" opacity="0.25"></line><line x1="0" y1="47.00000000000085" x2="1273.01" y2="47.00000000000085" fill="rgb(0, 0, 0)" stroke="rgb(60, 60, 60)" stroke-width="1px" opacity="0.25"></line></g></g></g><g><g><line x1="0" y1="1275.499999999999" x2="1273.01" y2="1275.499999999999" fill="rgb(0, 0, 0)" stroke="rgb(153, 153, 153)" stroke-width="1.5px"></line></g></g><g><g><line x1="92.72818181818202" y1="0" x2="92.72818181818202" y2="378" fill="rgb(0, 0, 0)" stroke="rgb(153, 153, 153)" stroke-width="1.5px"></line></g></g><g><g><g><g><g><path stroke="rgb(255, 112, 67)" stroke-width="2px" d="M113.66340990909113,-5.637017477184941L113.67498272727295,5.571523591894561L113.9643031818184,15.481847201207017L114.83805095454566,26.111328715267632L115.6192161818184,35.32114122929545L117.7081098636366,45.182435058904446L118.18838181818205,54.52342209780352L118.72073145454569,63.43416025197223L118.81910040909113,71.85314742107334L121.49242140909112,78.93798055705469L122.43560609090932,85.6915083395632L123.65653840909114,91.46600533121449L125.84380104545477,97.64177235960477L126.90850031818205,103.87732237428793L127.38877227272751,109.80626298970998L128.60391818181841,114.80223552034698L131.49133631818205,120.57501200147209L131.56077322727296,125.7611924083703L132.38822972727297,130.81789014194717L133.03630754545478,135.50445691411304L134.1299388636366,140.23620323212606L135.8947936363639,144.95741936167133L135.9121528636366,149.48249158818655L137.85059990909116,153.75747466222765L138.05312422727297,157.47265794262645L139.4013575454548,160.68270370886304L140.06100818181844,163.94143215600738L140.2982509545457,167.16747134669373L141.90108627272753,170.28976021692912L141.9589503636366,173.29772528724845L144.09992172727297,176.4175677608631L144.42974704545477,179.36295656661386L146.31033000000025,182.00635589958398L147.51390309090934,184.5818762931546L148.01153427272754,187.2456485701043L148.84477718181844,189.02260791298696L152.90104995454573,191.86926821528908L153.36396268181844,194.47365656210889L153.61277827272752,196.9040463625147L154.1046230454548,199.23010545712725L155.1056718181821,201.50263616581992L155.82897295454572,203.82805508086753L156.1819439090912,206.18910216858873L156.49441000000027,208.1397675892993L159.45705145454573,210.1702758276855L159.6537893636366,212.54027472044493L160.3423720454548,214.9318913595741L161.98571222727298,216.97447234024017L162.01464427272754,218.967197786533L163.11406200000027,220.7104295996125L163.8431495454548,222.6001757843108L167.23977168181844,224.64741272206132L168.1482379090912,226.53959238545593L168.3044709545457,228.37819896177498L171.40598622727302,230.3421503487709L171.5390736363639,232.14886605052246L172.63849136363663,233.49564442983703L175.43911336363664,235.20133812415895L177.60323036363667,236.7720663744735L178.24552177272756,238.27196705673882L178.789444227273,239.68663267955816L182.26128968181848,241.09805113677962L183.945134727273,242.27193006826258L185.98195072727302,243.9066399341742L187.16816459090938,245.0698836757248L190.26967986363667,245.4219883276483L191.47903936363664,245.74078661371647L191.65841804545485,246.2458971414736L192.93142804545485,247.18447611669268L193.05872904545484,248.18422738032297L194.23915650000032,249.33131790396882L194.32016622727303,250.19041098651988L199.49321595454578,251.74063682009393L203.3411780000003,253.32732596898927L203.6478576818185,254.85291343890282L205.74253777272756,255.92432021595056L206.37325636363667,256.91230779220393L206.8998195909094,257.94174350450555L208.4274315909094,259.2655091779671L208.76304331818213,260.5383874781082L208.81512100000032,261.78726724137863L209.86824745454575,262.88367097764234L209.91453872727305,263.9496743311479L210.3253737727276,265.0435281324737L211.00238363636396,265.27204645556026L211.57523813636394,265.944927059982L211.80090809090942,266.52350950526835L212.96397631818215,267.21924289939614L212.98133554545487,267.87710667307374L213.40374340909125,268.4969650724913L214.70568545454577,270.052086417834L215.07601563636393,271.7401519691616L215.58521963636397,272.70492721726964L216.08863722727307,273.5986882644082L219.14964763636397,274.98445603693375L221.4468520454549,275.7901230002672L221.93869681818217,276.16761957976706L222.1007162727276,276.5593440859597L226.6141153636367,277.7187774219267L226.67197945454578,278.87259629331646L226.92658145454578,279.9452761297609L227.47050390909124,280.9095915957696L227.90448459090942,281.65857848046267L228.28638759090944,282.4733125649605L228.94025181818216,283.793929930009L229.69248500000035,284.77463098288234L229.75613550000034,285.6906664323357L229.8718636818185,286.48886497752216L232.45260213636396,286.988378902034L233.2337673636367,287.4410099364635L233.24534018181853,287.87893458730287L233.46522372727307,288.34711589229573L235.1953600454549,289.7244168693906L235.80871940909125,290.8357018936301L237.00650609090943,291.75477774507L238.85237059090946,292.2270997197212L239.6508950454549,292.4272461017647L242.08697327272762,293.41671945945427L242.28949759090946,294.14915705098883L242.71769186363673,294.3805639666289L244.92810013636398,294.78796444022356L247.78658622727306,295.002665229831L247.79237263636398,295.2154172524963L249.85233427272763,294.9694731160199L251.88336386363673,295.3976048459223L252.45043195454582,295.46631146428047L252.65295627272764,295.4153663105109L253.73501477272762,295.50730437704107L254.26157800000036,295.68493940429494L257.2820835454549,295.3114102451279L257.8896565000004,295.02213593846295L260.3604531818185,295.97901681384405L260.51089981818217,296.8142373799627L260.8928028181822,297.53980567978556L261.69711368181856,297.895396944132L262.0558710454549,298.3673603736068L263.259444136364,298.13270241326126L264.0695414090913,298.59113046823063L265.33097859090947,299.0456550351993L266.34938659090943,299.27499969742667L266.4998332272731,299.43883741853404L267.3272897272731,300.274963294251L268.2126103181822,300.8560859873782L269.0400668181822,301.49917974909545L269.8617369090913,302.2435938894612L270.40565936363674,302.6910827598691L270.48666909090946,303.2165703968123L274.4561457272731,303.8246335263189L274.67024286363676,304.5284961406809L277.19890363636404,305.42598850142537L277.52294254545495,306.0512516660972L277.91641836363675,306.48798635066487L279.0910594090913,306.770105134341L280.4103606818186,306.99222629623375L281.02950645454587,306.9977144812718L281.6949435000004,307.46827169987915L282.30251645454587,307.7383562733707L283.06632245454585,307.8862578957307L283.11261372727313,308.0200041761072L283.8764197272731,308.3831344317473L284.72702186363676,308.8471928669282L285.8495852272731,309.52831273603965L286.0116046818186,310.12172070347253L287.94426531818226,310.502591372785L288.01370222727314,310.95196227006903L288.1236440000004,311.337013401387L288.22201295454585,311.5596073334546L288.53447904545493,311.6083315634242L288.7485761818186,311.69816294090043L288.9626733181822,311.7451745715879L289.67440163636405,311.94622937787244L291.5607710000004,311.4911212146016L292.5039556818186,311.6238605466545L292.9321499545459,311.7058778775085L297.1793742272732,311.90090869639596L297.3008888181822,312.1383512429712L298.0473355909095,312.5337831655501L299.71382140909134,312.81567230744645L300.16516131818224,313.0754311208915L300.76694786363674,313.44896809544184L301.25300622727315,313.9650767232994L304.67856040909135,314.4852729907892L304.8521526818186,315.12559360343323L305.4770848636368,315.1113442226278L305.95735681818223,315.074191614092L307.9941728181823,316.81625934917514L309.65487222727313,316.8595364094593L311.24613472727316,317.01186434356407L311.894212545455,316.9904350774399L315.2445434090913,317.9158365920841L316.7779418181822,317.57785940696874L317.47231090909133,317.3895530617976L318.28819459090954,317.40581731508405L320.11091345454594,317.65953234660157L322.460195545455,317.7946919767046L323.478603545455,317.8160011198028L323.6579822272732,317.8239291896098L324.30027363636407,317.53241835931385L325.897322545455,317.93614842418776L327.07775000000044,318.37379969950535L328.02093468181863,318.5053116955907L328.0440803181823,318.648760080466L328.35076000000043,318.77374816260755L328.77316786363684,318.98032904702063L330.2024109090914,319.0683154797085L331.38283836363684,319.3987981456491L331.5390714090914,319.7191962390696L331.944120045455,320.00240649780625L333.08982904545496,320.21361245151815L336.5327424545459,320.8077327127698L338.3612477272732,321.1584049777502L338.46540309090955,321.44423632332894L339.68054900000044,320.8466975603129L344.5411326363641,320.955397540342L345.05612304545497,321.0799433928183L345.2412881363641,321.16265922596193L345.6579095909096,321.2602200040071L345.8141426363641,321.35479257147006L345.83728827272773,321.4447148478036L346.201832045455,321.6893411333022L347.2896769545459,321.60028772376006L347.7525896818187,321.48496983706895L348.4874636363641,321.6516488745505L348.52796850000044,321.8221017116405L348.7825705000004,321.93387501476224L349.08925018181867,321.9737284799082L352.05189163636413,322.10181565756346L352.90828018181867,322.27787230634465L354.9103777272732,322.297502341284L355.2691350909096,322.202240967616L356.0503003181823,322.19843857346973L356.9240480909096,321.4219648274488L360.7430780909096,321.5976046295658L360.83566063636414,321.7017276707694L361.29278695454593,321.5730896953858L366.4311182272732,321.96191849298447L368.0744584090914,322.5018095734196L368.3811380909096,322.902754678711L368.56051677272774,323.2352410631989L368.7688275000005,323.63568845959367L368.994497454546,324.0322506024089L369.7930219090914,324.5114312706794L370.1691385000005,325.0009224351219L370.3022259090914,325.45769869452084L370.9155852727278,325.5664710702568L371.5231582272732,325.90646437751576L371.789333045455,326.0537561617016L373.49632372727325,326.0229033197077L377.83613054545503,326.02480099621243L378.2932568636369,325.96967883547387L379.02234440909143,325.95109395963453L382.0833548181824,326.3592817975999L382.3726752727278,326.57047769397525L383.0033938636369,326.68969788885676L383.1769861363642,326.64602893168984L383.59939400000053,326.5157520458315L385.68828768181874,327.1864438877104L386.7877054090914,327.5054186350364L387.7135308636369,327.67721037776295L388.6104242727278,327.6135790746631L389.1485603181824,327.56537284918284L392.4525999090914,327.762608782467L393.3552797272733,327.97949827017686L393.62724095454604,328.28558521720254L395.31108600000056,328.4027109085711L395.664056954546,328.87485196430805L396.5725231818187,329.2546418793488L397.56778554545514,329.58912901899345L398.86394118181875,329.67120702508004L399.0548926818187,329.83008645518925L399.9402132727278,329.9681824038759L400.0270094090915,330.10119930772925L402.1159030909096,330.1868313300512L403.493068454546,330.7536283903625L403.5335733181824,331.30191518701804L403.556718954546,331.83833413802944L404.3957482727279,332.16479787167407L404.6503502727278,332.51567694771796L405.9060010454551,332.5232682123746L406.5887973181824,332.2590989381669L409.1926814090915,332.4982733140204L409.86390486363695,332.478984736852L410.6161380454551,332.54963246369744L410.876526454546,332.6343197212192L412.71081813636425,332.75083283473873L414.122701954546,332.6240149026378L414.16899322727335,332.4696087743514L415.10639150000054,332.4821268863649L415.4130711818188,332.5481960808928L418.71711077272784,332.51838631354L419.7008003181824,332.6243309619386L419.7818100454551,332.572791368962L420.28522763636425,332.4905567889731L421.32099486363694,332.35004748344573L421.5119463636369,332.3071524536453L422.5477135909097,332.1724443669754L424.2836363181824,331.6460934792763L424.31835477272784,331.1338976355506L425.35412200000064,330.70903613645015L426.9511709090915,331.2444432065469L430.04689977272784,331.29893464044295L430.8859290909097,331.4744096816071L431.55715254545515,331.7513559539292L432.5003372272733,331.9749468077433L432.65657027272783,332.20180297937725L432.7549392272733,332.4350167777926L435.6539301818188,332.6250976951446L435.92589140909155,332.8730300033421L436.62604690909154,333.3951600326728L437.8296200000006,333.5816353717903L438.00321227272786,333.80966199640784L440.9484945000006,334.0301167150093L440.98321295454605,334.22533773591033L441.1105139545461,334.3540234254106L441.6312907727278,334.67066964107454L442.6612715909097,334.8803866292072L446.88535022727336,334.4419677064136L447.2961852727279,334.3207487517481L448.23358354545513,334.2435874410686L449.6338945454551,334.2456955774089L452.28985631818244,334.7198367729528L452.7527690454551,335.17577962162574L454.47133254545514,334.9967568897349L454.65071122727335,334.833696192758L456.5428670000006,334.79182185822015L457.410828363637,331.4889619983432L458.5449645454551,330.7425132314205L459.7543240454551,330.49651739227807L460.2403824090915,330.4777314110616L461.1546350454552,330.6345728103565L462.2771984090915,330.58524392275774L463.62543172727334,330.6399474354349L464.36030568181883,331.9541404970884L466.0730827727279,332.2681214383311L467.0336266818188,332.50381442839864L468.20248131818244,332.8845150887957L470.26244295454603,333.3228621832448L470.53440418181884,333.7179071280589L472.32240459090974,333.6543161315607L472.5654337727279,333.7480441328019L474.91471586363696,334.6126828570285L476.35553172727333,334.72509313789305L479.185085772728,334.73625791835747L480.2787170909097,334.6390789979034L480.53910550000063,334.52774444637623L482.9636109090916,334.5984788784321L487.7258255909097,334.73243477194745L487.8299809545461,334.83410753444593L488.3912626363643,335.0197189958027L488.68636950000064,333.93234755959384L489.617981363637,333.9097125578244L492.9798850454552,334.294393310337L493.0608947727279,334.58157056191635L494.6232252272734,334.932825322123L494.7447398181825,335.1506080030292L496.1508372272734,335.87822417335946L496.60796354545516,336.3528723939569L497.28497340909155,336.54136560687846L500.4501391818189,336.68305493779394L501.1329354545461,336.98484061675657L501.57270254545523,337.2783804129219L503.0713825000007,337.8012385003984L503.54008163636433,338.450276187011L506.039810363637,339.29939923412223L506.76889790909155,338.9597505455816L506.91934454545526,338.69333276950687L507.5905680000007,338.6689755901555L508.80571390909154,338.7386078146987L509.10082077272796,338.8100987090864L509.22812177272795,338.8921909226844L509.4190732727279,338.80484618923595L509.5637335000007,338.7854530026128L511.068199863637,338.92223750113146L511.07977268181884,339.0552033318699L511.6699864090916,339.0670975657739L511.68734563636434,339.0754899099169L512.5784526363643,339.0838360851511L513.5332101363642,338.8730059418077L514.4011715000007,338.68298601067835L515.1881231363643,338.68164528115295L516.1718126818189,338.61604798460803L516.9761235454552,337.66167259846264L519.7304542727279,337.7551547106818L520.0024155000007,337.45738569612246L520.3496000454553,337.3157550446277L520.4826874545461,337.18235526267387L522.0045130454553,337.06150747832294L526.1360091363644,336.7064818692882L527.6983395909098,337.2093196994187L529.4226895000007,337.45083440761584L529.526844863637,337.7096630829029L529.9897575909098,337.93724722833866L532.0786512727279,338.2403288142293L533.0681272272734,338.4953471737701L533.7567099090917,338.92892832177984L534.9892150454552,339.2811334933062L535.2843219090917,339.54003223529577L536.1175648181826,339.8771042522543L536.3895260454552,340.225328971288L537.0665359090916,340.6198628718357L537.7377593636371,340.98558767658005L537.7782642272734,341.28783780566044L539.4273908181825,341.33841465501825L541.3484786363643,341.4693331652138L543.4952364090916,341.5747915331401L544.8492561363644,341.56208970364446L545.2716640000007,341.60831100049296L548.5525579545462,341.83917721525904L548.946033772728,342.12255205521956L549.391587272728,342.1529195077756L549.4725970000007,342.1959900118049L549.6982669545462,342.2195449056895L549.8834320454553,342.212451394171L552.2732190000007,342.7004018938489L553.3089862272734,343.01573701384245L555.4962488636371,342.7449952521013L555.820287772728,342.55184130724575L555.8434334090916,342.35274981100133L556.2195500000007,342.23191757315675L556.5956665909098,342.1470517794915L557.8976086363643,341.76667394145113L557.9901911818189,339.00835185110304L558.8234340909098,338.8203785774775L558.9738807272735,338.78257336236635L559.1879778636371,338.867758038716L561.4041725454553,338.98005860329704L561.5141143181826,337.4193262974721L562.1043280454553,337.1275208503894L563.6319400454553,337.28484099740416L564.285804272728,337.4787690032145L564.4883285909099,337.72013751762154L566.9359796363643,337.92875327088274L571.472524363637,338.32183986468056L571.669262272728,338.7382724476014L572.1263885909099,338.2303486610391L573.7350103181825,338.0696640906207L574.5451075909099,338.0438814440954L577.4093800909098,338.19232203703956L578.3409919545462,338.34457841426024L579.9264680454553,338.39976101616475L581.1531867727281,338.3576493396755L582.2641773181826,337.18991317937196L582.7560220909098,336.55933824281465L583.5198280909099,336.07006098627636L584.6886827272735,335.8525753375792L584.8738478181826,335.70551564353116L585.0879449545462,335.6279749888633L585.5508576818189,335.68054254966216L586.4246054545462,336.0357092274214L587.5124503636371,336.10260752706347L587.6918290454553,336.1643303495264L587.8827805454553,336.2179522539007L588.542431181819,336.33243047428357L588.9069749545462,336.3367379612713L590.4403733636371,336.35919674651456L594.8727627272735,336.5101299702584L594.9479860454553,336.6155619595309L595.3646075000007,336.64345296357004L596.1920640000008,337.024283897757L598.4198315000008,337.38357715315885L598.7496568181825,337.71167577586124L599.999521181819,337.85440474188255L600.9427058636371,338.2115219976276L602.7249198636371,338.57207219201604L605.8322215454554,338.85392767036706L606.6481052272735,339.05435117764034L609.2346300909098,339.3761172770536L609.7264748636371,339.67039728577856L609.8190574090917,339.9214475865131L612.0294656818189,340.1643762688887L612.1278346363645,340.3691740658385L613.3487669545462,340.4907384772775L613.7075243181825,340.11810342395853L614.8763789545462,340.0280157859619L616.1088840909099,340.05612702108397L619.8353315454553,340.41293121573455L621.0273318181826,340.39023776774064L622.9021283636372,340.3631149052824L623.0178565454553,340.371747903623L623.0352157727281,340.3900707331461L623.5270605454554,340.42393180045997L623.5444197727281,340.45269031811995L625.6217406363644,339.92566245991077L625.772187272728,339.497478074391L629.2961104090917,339.5444785349931L629.6375085454554,339.6839717404504L631.5933148181826,340.51262603862995L632.1545965000008,341.11146598575897L633.5896259545462,341.45814878461726L636.0777818636371,341.79273668575064L638.8494718181826,341.8621903498406L639.7521516363645,341.8691934940498L641.1871810909099,341.9193915359594L641.8063268636372,342.7033140546867L642.7668707727281,343.05556904887663L643.5017447272735,343.25906580833407L644.2944827727281,343.5044017936524L644.6185216818191,343.7657589722013L644.8036867727282,343.1835676024572L645.2145218181826,343.0210572863677L647.4133572727281,342.9079394413909L647.928347681819,342.83756849813534L648.06143509091,342.7594223845294L649.965163681819,342.87655313345317L651.3191834090918,342.8301749448213L651.6953000000009,338.87907202162904L654.9125434545463,339.1440780535555L655.3175920909099,338.98934930711243L656.4170098181827,338.91295544684465L657.4585634545463,338.7776533383353L658.615845272728,338.40395125651423L659.0787580000009,339.1981112769015L659.7152630000008,339.8120089954439L660.60058359091,340.39914251884466L661.0229914545463,340.84549408567017L662.1339820000009,340.62522878326126L662.5390306363644,341.15378181312485L662.822564681819,341.9104814131817L665.9009343181827,341.94686411013146L668.5106048181827,342.2710013085829L669.123964181819,343.3052437484706L669.1355370000009,344.2989754225919L670.6978674545462,344.8812786948754L674.6441984545464,344.8884578606934L674.7772858636372,344.9164924483081L675.7146841363646,345.041981447461L676.3338299090917,345.1357840042194L676.6752280454555,344.9710062827066L677.1381407727281,344.9461780576029L677.5721214545463,345.0515026732955L678.0523934090918,345.22596572711956L678.5095197272736,345.33632367773964L679.0939470454555,345.38639938008697L679.6494423181827,345.0964609709914L680.0429181363645,344.94225008666336L682.49635559091,344.9720781290673L682.612083772728,344.9627953649396L684.718336681819,344.6923527781867L685.8871913181827,344.7890735118472L686.0723564090918,344.9307197237286L686.3848225000008,345.10478549375296L686.9055993181827,344.77478203492456L688.0339490909099,344.518645348793L688.2133277727281,344.2715470691748L688.5315802727281,344.2051744281404L688.73410459091,344.1102810857171L688.791968681819,343.99382090329846L689.9203184545464,344.32322374652136L691.4016391818191,343.69981427727953L691.719891681819,343.08530034097663L694.2080475909099,343.7966953367119L696.111776181819,344.03082425228513L696.4473879090917,344.25714728024127L698.5883592727282,344.5500971382888L699.1901458181827,344.78560768961546L699.2711555454555,345.0187747665996L699.6183400909099,345.28244678974596L699.6993498181827,345.52641543807664L699.7861459545463,345.7773066428511L699.8613692727282,346.0139083125979L700.0870392272736,346.24341068389305L700.8392724090918,346.36992359117534L702.8124379090917,346.6426291526007L703.8308459090917,347.1617104845754L704.3631955454555,347.55517298682884L704.7798170000009,347.76178624928696L704.8608267272735,347.90231983976116L707.3026913636372,348.27183702835777L707.632516681819,348.6502371173803L708.3442450000008,348.9710462038726L709.3626530000008,349.2167446348425L709.9412939090918,349.36351083485204L710.5372940454554,349.4911598106838L712.4699546818191,349.50903220920713L716.2947710909099,349.5109066935501L716.7171789545464,349.5075180189814L717.7818782272736,349.2754491836435L720.2584613181826,349.5422978622115L721.0511993636372,349.6695175621627L724.8470837272736,349.4756803851201L724.8528701363645,349.33767859712793L725.1884818636373,348.7989322623625L726.3457636818191,348.8219362734741L728.203201000001,349.1467555248747L729.59772559091,349.1234342563062L730.3383859545463,349.1806895402147L730.5293374545463,349.16741965507606L731.6519008181826,349.1415589571366L732.6240175454554,349.20437451127646L732.8323282727282,349.358701523787L732.9422700454554,349.51859845871957L733.4977653181828,349.67602468677626L736.1421542727281,349.81508275184603L736.3793970454554,350.014160378239L736.8886010454554,350.33063134024326L738.1731838636373,350.62915863038216L739.0585044545463,350.50289860268384L740.3141552272735,350.4019373069476L743.5256122727282,350.33088593434513L744.6481756363645,350.44159540672865L744.87384559091,350.5246875509232L746.0253410000009,350.381287659504L748.4556328181828,350.201813175562L750.0006040454556,350.03028167085046L750.8801382272737,349.63597144675157L752.263090000001,349.5402308753159L754.0684496363644,349.6704849777861L755.0347799545464,349.64727241260033L757.1236736363646,349.704502452828L758.7207225454554,349.2371701958487L759.0274022272737,348.8610545981837L761.0931502727282,349.136843252684L761.162587181819,349.3705399674932L762.5918302272737,349.4039552895453L762.63233509091,349.4567020268564L763.2456944545463,350.01139921915535L764.1773063181828,350.0596222909441L764.6980831363646,350.33159888678034L766.5728796818191,350.6436596909384L767.8458896818191,350.83329024404225L768.0657732272737,351.0367745285721L768.4823946818191,351.2474992530196L768.7080646363646,351.3897811356596L769.37928809091,351.52819830104903L769.830628000001,352.0195441200487L769.9116377272737,352.50786100243715L770.010006681819,353.00170989310396L770.6349388636372,353.47209077228194L773.4124152272736,353.2343940954829L774.5118329545464,353.26784035796754L775.1830564090918,353.3424617580402L776.4560664090918,353.4324959922939L776.6238722727281,353.50818847514574L779.2914068636373,353.5104980197738L780.7785140000009,353.20144046476696L780.9463198636373,353.012372512412L781.2992908181827,352.79806438678696L783.0583591818192,352.69066537371435L784.0304759090918,351.60122221771564L786.9757581363646,351.69225700301394L788.7811177727283,351.70152994858506L792.0388660909101,350.7554083930529L793.9946723636374,350.5613071657589L794.0004587727283,350.37429982846675L794.8047696363647,350.24611299146545L794.9783619090919,350.20748399060767L795.2156046818192,349.8631929266777L795.8868281363646,349.6195863926245L797.7153334090918,349.71181147801343L797.9583625909102,350.3114312273328L799.8563047727283,350.6766174761585L800.0356834545464,351.02984399908974L802.2692373636373,351.2830544451488L802.3386742727283,351.52735750167756L802.9462472272737,351.82720324696993L804.8499758181828,352.05915949767046L807.9804231363646,351.9471497695871L808.1192969545465,351.77226520086367L808.3102484545465,351.6266028742826L810.8389092272737,351.716162794577L811.2208122272737,351.8778886606189L811.3828316818192,352.04491965533936L813.3212787272738,351.9540922706439L814.640580000001,351.8089482220643L814.7215897272737,351.65661755100973L814.9761917272737,352.13759842400697L816.2781337727282,352.286493823277L817.7073768181829,352.1306167380732L824.384892909092,352.0014306389917L825.7909903181828,351.97454493855395L827.2260197727283,352.16421752769554L827.5326994545464,352.4832708897897L828.1634180454555,352.6784653351859L828.9330104545464,352.2775641489196L829.9977097272738,352.60563698495247L830.73837009091,352.73570499432515L831.0450497727282,352.81762735112244L831.2880789545464,352.98628763694256L832.144467500001,353.252757468136L832.3296325909101,353.10586302551553L832.6826035454557,352.85155996878456L832.786758909092,352.6978407260562L834.0366232727282,352.7442327671461L835.1476138181829,352.9458376418903L835.7494003636374,352.67598867474L838.318566000001,353.05749428171316L840.0197702727282,353.0720717707994L841.0150326363647,353.0129041331297L841.5242366363647,353.0059585659878L841.5936735454557,352.9756910230865L841.6399648181829,352.94987232598936L842.079731909092,353.05967780119664L842.328547500001,353.1512857107271L843.0634214545465,353.4916107966795L844.5273829545465,353.5977564064704L845.3721986818192,353.65157020062577L849.0292092272738,353.6592536863149L850.3195784545466,353.5149786316114L853.58889959091,353.5750699625065L853.65255009091,353.4893900509198L854.682530909092,353.3096804680897L854.994997000001,353.1003365438536L855.8166670909101,352.8973612534362L860.4457943636374,352.51941939043076L861.8345325454557,352.6071907876831L861.9271150909101,352.5773559831735L863.5125911818193,353.68324434696063L864.160669000001,353.4018044135266L865.1906498181828,353.58041835059174L865.3758149090919,353.7775545415209L865.7924363636374,353.96543798309585L867.2969027272737,353.6476194007492L868.1475048636374,353.9021307504368L870.2826898181828,354.1625182122666L870.3579131363647,354.43164953078485L870.849757909092,354.87885298424703L873.0370205454556,354.98363252215523L873.1816807727283,355.10981554749924L873.7950401363647,355.09769012189173L877.4520506818193,354.98256501843576L878.9391578181828,355.1033958659204L880.8891776818193,354.9211762519344L881.3000127272737,354.93943130347077L881.7513526363647,354.82207170011753L883.5740715000011,354.8115487568321L883.6030035454556,354.7779238654698L883.6897996818193,354.7155786388634L885.5993146818192,355.04046958035656L885.7844797727283,355.3983970435239L886.9244023636375,355.74556996467624L888.2552764545466,355.6180385048238L888.7355484090921,355.8015775000697L888.8454901818193,356.00582414506397L889.4414903181828,355.9165116353L891.0558984545465,355.79517408465676L893.8218020000011,355.5483495178392L893.9838214545465,355.4099492684806L894.4814526363647,355.3553670935488L896.6860745000012,355.29743777679766L896.8133755000011,355.255016812732L898.5319390000011,355.5323280163829L899.3709683181829,355.76569820478915L899.6371431363647,355.99494238797837L902.680794318183,355.8108899846086L902.9122506818193,355.8570817678567L902.9585419545465,355.9096889698312L903.0858429545465,356.0196746923581L903.1437070454556,356.18608977847254L903.5834741363648,356.41378472514833L903.7802120454558,356.6681309506236L904.2836296363648,356.9368747850348L904.4630083181829,357.2020109860408L907.1652613636375,357.03486317550437L908.5482131363648,356.9980318809687L909.8964464545467,357.2518546563L913.5476705909102,357.2232531949142L913.755981318183,357.18407587022193L914.317263000001,357.0110932348929L915.532408909092,356.89202341212354L915.5381953181829,356.77911942550503L917.2683316363648,356.5933598502505L918.7438659545467,356.4448621517804L919.5597496363648,357.3473320755096L921.260953909092,357.4032114546279L922.1636337272738,357.4924478389511L922.9910902272738,357.12963072291296L923.488721409092,357.03452762735606L924.6228575909101,356.6942480408997L924.7675178181829,356.28064179595526L925.4966053636374,355.8073700512815L925.9016540000011,355.40800429228057L927.2788193636376,355.505298568775L927.6202175000011,355.8355118288671L928.3088001818193,356.032322793241L929.026314909092,356.0142234970449L933.3776945454557,356.2912552943512L935.2987823636375,356.52996754654885L935.3624328636375,356.7684248721626L935.8716368636375,356.94351404487975L936.0973068181829,357.07763095114916L936.3345495909101,357.23612226353134L939.3492687272739,357.4694320005781L939.8526863181829,357.6986938878372L941.5712498181829,357.59854389973947L945.448143909092,357.63313937608723L946.1714450454557,357.593511700776L950.2103585909101,357.4860825695284L950.7832130909103,356.39502116382295L951.5701647272739,355.96003320876673L952.2761066363647,355.8254992507232L952.6117183636375,355.80905817020584L953.0109805909103,355.91180667198387L953.0341262272739,356.0169070867728L953.6185535454557,356.0880141430157L954.1161847272739,355.8149610013267L957.4607291818194,355.3857092349927L958.114593409092,354.45401003313947L958.8552537727285,353.6555133190638L958.9420499090921,352.90011093572656L960.0298948181829,352.615685508326L960.3250016818193,352.314735128233L960.724263909092,354.12869018035224L960.7474095454556,355.7127479299636L963.7968471363647,355.9002551618936L963.9067889090921,356.05923468149786L964.3697016363648,355.3612570684052L965.0756435454557,355.8747518229036L965.6832165000012,356.23422250064044L966.7189837272738,356.53464282199764L966.7999934545466,356.83549806385645L967.0083041818193,357.09692429924195L967.2455469545466,357.3245149611903L967.7894694090921,357.7182560434258L968.0730034545466,358.42354572327247L968.6342851363647,358.8938892390689L969.1145570909102,359.16096627246776L969.6179746818193,359.3845109038925L969.7221300454556,359.60756466599594L970.5032952727285,359.93036701723344L973.7436843636375,359.8494128226914L975.2886555909103,359.91084438698874L976.6947530000012,360.0754836635639L981.2660161818194,359.8918531679213L981.6537055909102,359.60380635425633L982.0066765454557,359.21801898273185L984.089783818183,359.0183423521841L984.4601140000012,358.74638888606177L986.8499009545466,359.24056643838304L987.6773574545466,359.4971044860873L990.7152222272739,359.4413104864066L991.1665621363649,359.3018878652652L993.000853818183,359.359895748002L993.7878054545467,359.29293378126016L993.8746015909103,359.2193301716611L995.2401941363648,359.3032019914005L997.1960004090921,359.49705673811826L997.6762723636375,359.5643101482235L999.1807387272739,359.50451733619764L1000.1875739090921,359.6069961996139L1000.6099817727286,359.65834545063586L1000.7488555909102,359.68826831820115L1001.4547975000012,359.806179284118L1001.5647392727284,359.93455454450884L1001.9466422727286,360.0590407202183L1002.8782541363648,359.88021784483215L1003.4048173636374,360.09736251959896L1003.6825650000012,360.4138180179053L1004.7993419545467,360.72296407371755L1005.8756140454558,360.43407416251944L1006.5584103181831,360.3421059409635L1006.813012318183,360.14108184388346L1006.9518861363648,359.755787002809L1007.2180609545467,359.44315092777776L1010.0476150000012,359.59671368952485L1011.0197317272739,359.5681774663056L1011.9224115454558,359.64131095813184L1012.674644727274,359.6583805472852L1013.5946837727286,359.4218041515104L1015.1280821818193,359.2303626310633L1015.787732818183,359.12204475613123L1017.2748399545467,358.5947088177837L1017.4600050454558,357.9527361488227L1019.7224910000011,358.72640912617464L1020.0118114545467,359.1509901536823L1021.007073818183,359.09492238142013L1021.2211709545467,359.040868901724L1022.6504140000012,358.92709417599207L1024.073870636365,359.0161374464601L1025.2600845000013,358.48700681509354L1025.4221039545466,357.9239019613915L1026.4462983636377,357.6150379243628L1029.8371340909102,357.6658085410009L1029.9702215000011,357.7447753085656L1030.9481246363648,357.5995282811668L1030.953911045456,357.4378202616512L1031.318454818183,357.3225004243663L1031.7929403636376,357.5250724709456L1032.539387136365,357.7669698096727L1032.8692124545466,357.9547432127621L1033.499931045456,358.1556168245291L1033.9107660909103,358.0677690457275L1034.6919313181832,358.1960489765223L1036.6535240000012,358.410582705987L1037.625640727274,358.88235467870476L1041.444670727274,359.11176789353624L1042.1216805909103,359.31158707144584L1045.2984191818193,359.62428599619886L1046.4383417727286,359.67875862384483L1046.669798136365,359.7509908146644L1047.3815264545467,359.7680267282173L1050.164789227274,359.68113713274033L1050.9401680454557,359.4348521512295L1052.1148090909103,359.5449270817123L1053.2547316818193,359.8982568805715L1054.9964408181831,359.65017582747043L1055.129528227274,359.3517783442054L1056.1710818636377,359.12735821705127L1056.2405187727286,358.90269031788245L1058.306266818183,357.3511941023835L1058.751820318183,356.2735519304907L1059.9206749545467,355.9297372336995L1060.412519727274,355.6424233078089L1061.0548111363648,355.55079294201835L1061.3499180000013,355.47270983479365L1062.7849474545467,355.1153563482082L1065.059006227274,356.61415311642753L1065.886462727274,357.187855434686L1067.0958222272739,357.5914821645241L1068.0216476818196,357.8793907374758L1069.0111236363648,358.23367347743675L1069.8559393636376,358.39360314113657L1069.9195898636376,358.5886229569474L1070.6660366363649,358.92365152400055L1070.781764818183,359.2572024271841L1072.500328318183,359.3765378450234L1073.836988818183,359.1817531572833L1075.3472415909105,359.44217143869463L1075.682853318183,360.1160701431813L1076.2036301363648,360.43132104548687L1076.9616497272739,360.6477733313084L1077.5055721818194,360.73634539256136L1079.2819997727286,360.7452433784394L1083.4308550909104,360.8336197354804L1085.7917100000013,361.0630245379725L1086.0173799545466,361.27464775780936L1086.0752440454557,361.5640160339741L1089.3272059545468,360.8843903474379L1090.397691636365,360.62785486118327L1093.6149350909104,361.1168155218405L1094.3150905909104,361.51134497673496L1094.783789727274,361.8715709568528L1094.8705858636376,362.1718080942269L1095.483945227274,362.35260172820836L1095.744333636365,362.4057420349664L1096.496566818183,363.1456064493001L1096.9941980000012,363.6903513111439L1097.5034020000014,364.0322899463772L1098.0878293181831,364.13737159611526L1101.9589370000012,364.27931324753615L1103.3071703181831,365.00616152166674L1104.8984328181832,365.3698227329444L1105.986277727274,365.64113695688195L1106.3334622727286,365.79963282927076L1106.9294624090921,365.5079431159416L1107.5370353636376,365.16479163100416L1108.538084136365,365.04683452352106L1111.6048809545466,365.11453427026134L1112.6927258636376,365.12965535773753L1112.7737355909103,365.12170226658253L1112.860531727274,365.10453467815245L1113.2655803636376,365.0373335854482L1113.7921435909104,364.53416564104174L1114.509658318183,364.1106443859742L1117.4144356818194,363.6401834030059L1120.7936985909105,363.22919030491835L1120.886281136365,362.7965824806099L1121.1061646818196,362.4779711932535L1121.4186307727286,362.15404329448296L1122.1477183181833,361.87918717559734L1123.819990545456,361.6882837820157L1126.5338164090922,361.2526617406042L1126.5685348636378,360.8443430951183L1126.7652727727286,360.4838388499375L1127.5175059545468,360.92863535762734L1127.8068264090923,362.02596015020197L1128.7963023636378,362.23555697632503L1129.4617394090922,362.16727342637427L1129.6295452727286,362.1635926796966L1131.145584454547,361.50093984582156L1131.4291185000013,361.1015173319284L1132.4301672727286,361.35299872944756L1133.2691965909103,361.5627050091374L1134.0850802727286,361.73416452039646L1134.2760317727286,361.88848709443477" style="fill: none;" fill="none"></path></g></g></g></g><g opacity="0.2"><g><g><g><path stroke="rgb(255, 112, 67)" stroke-width="2px" d="M96.47198850000021,-19.192052155732085L96.8596779090911,8.021197944880498L97.40360036363657,40.38451063633056L98.59560063636384,60.46374189853759L100.44146513636383,142.58008386194786L100.74235840909112,141.45763973891815L101.03746527272747,140.07546055317005L102.76181518181839,154.0412367433317L102.77917440909113,154.0245500504978L103.58927168181839,162.72261190414503L104.50931072727293,178.77506959438395L106.0774275909093,178.09753353893828L106.55191313636385,180.03804805874896L107.10740840909112,221.32381285727087L107.11319481818202,220.55439437925878L108.26469022727294,215.6497740298516L111.4182831818184,217.5467764139182L111.51086572727294,217.5572672039277L111.85226386363658,215.4849489331252L113.66340990909113,232.8763553053147L113.67498272727295,233.4946078360087L113.9643031818184,222.47618037462297L114.83805095454566,253.87046794593394L115.6192161818184,237.5331395417458L117.7081098636366,266.8058232516056L118.18838181818205,269.1896968632942L118.72073145454569,272.6360974013811L118.81910040909113,273.60139089822826L121.49242140909112,252.08597752451956L122.43560609090932,253.8882811665541L123.65653840909114,237.9131314456469L125.84380104545477,257.0224926918751L126.90850031818205,267.5260969549423L127.38877227272751,267.94502447545585L128.60391818181841,250.1492650359875L131.49133631818205,279.33393876254615L131.56077322727296,270.47006610035953L132.38822972727297,273.9013289213186L133.03630754545478,269.91806748509464L134.1299388636366,277.7280734032398L135.8947936363639,283.8844773471361L135.9121528636366,284.27158045768795L137.85059990909116,282.60819177329597L138.05312422727297,270.7362786978489L139.4013575454548,259.63385450840053L140.06100818181844,265.4740561842924L140.2982509545457,268.72908781468925L141.90108627272753,269.57764486968574L141.9589503636366,269.88624307513294L144.09992172727297,277.5490963011986L144.42974704545477,275.7179957926279L146.31033000000025,269.254049763084L147.51390309090934,270.32544809579906L148.01153427272754,276.67279849946556L148.84477718181844,249.16489097476065L152.90104995454573,288.97983293235353L153.36396268181844,284.003326028586L153.61277827272752,281.0770996958023L154.1046230454548,280.3752728849655L155.1056718181821,281.3404255658394L155.82897295454572,286.08486774563846L156.1819439090912,290.26379297673753L156.49441000000027,278.052161365748L159.45705145454573,283.4038724303251L159.6537893636366,298.5433497577911L160.3423720454548,302.23829048872045L161.98571222727298,291.9730876684194L162.01464427272754,292.54958826303533L163.11406200000027,285.4350020289427L163.8431495454548,293.1412969827657L167.23977168181844,301.4668301790958L168.1482379090912,297.9021442234521L168.3044709545457,298.06408259272627L171.40598622727302,305.1383250504737L171.5390736363639,301.2806010544305L172.63849136363663,285.2647555172449L175.43911336363664,301.0598720163112L177.60323036363667,297.6835978329187L178.24552177272756,296.68380442261747L178.789444227273,295.00710862875036L182.26128968181848,296.5142619907861L183.945134727273,288.5430217832332L185.98195072727302,308.5896541476255L187.16816459090938,291.2699231058364L190.26967986363667,259.45741209387836L191.47903936363664,258.4938083887106L191.65841804545485,266.52221988141594L192.93142804545485,284.98889702558574L193.05872904545484,288.5856890231376L194.23915650000032,295.8365147113805L194.32016622727303,285.12929055094776L199.49321595454578,314.9812207669025L203.3411780000003,318.2494890987878L203.6478576818185,317.4576808810239L205.74253777272756,300.0167072862392L206.37325636363667,297.68507640063814L206.8998195909094,300.540683522821L208.4274315909094,314.18969418108514L208.76304331818213,313.4882898181682L208.81512100000032,313.8705347776418L209.86824745454575,308.7212466746574L209.91453872727305,308.62401324510625L210.3253737727276,310.99324199557356L211.00238363636396,274.89358867704925L211.57523813636394,294.339711323381L211.80090809090942,290.9927268624311L212.96397631818215,296.7061941623693L212.98133554545487,295.8175749629741L213.40374340909125,294.8772763013845L214.70568545454577,336.36849160492466L215.07601563636393,343.8667309582238L215.58521963636397,314.0060701519256L216.08863722727307,311.93128760159067L219.14964763636397,334.52732275426433L221.4468520454549,310.4693361669784L221.93869681818217,292.4449619948869L222.1007162727276,293.4789736866956L226.6141153636367,327.88123126328037L226.67197945454578,328.87342061102436L226.92658145454578,326.5039102286105L227.47050390909124,322.8298806697135L227.90448459090942,314.2677062302833L228.28638759090944,317.9976397305732L228.94025181818216,341.4596227109437L229.69248500000035,327.65846039354847L229.75613550000034,325.8024354577069L229.8718636818185,321.48818607628397L232.45260213636396,308.92007882893137L233.2337673636367,307.34005320072225L233.24534018181853,307.1558659076696L233.46522372727307,308.98147459328226L235.1953600454549,350.50043064355896L235.80871940909125,339.9314173609023L237.00650609090943,332.4059301167731L238.85237059090946,313.1418121159082L239.6508950454549,301.2996816188102L242.08697327272762,337.3273779749875L242.28949759090946,326.6876046657567L242.71769186363673,304.6714496910577L244.92810013636398,312.92382898926786L247.78658622727306,304.5697805583482L247.79237263636398,304.70489348471216L249.85233427272763,283.98910361528453L251.88336386363673,314.52962394058756L252.45043195454582,298.5394069105392L252.65295627272764,293.13467863202146L253.73501477272762,299.62671744823507L254.26157800000036,303.65088592469743L257.2820835454549,278.54677747190055L257.8896565000004,282.02845241129455L260.3604531818185,338.99456869065807L260.51089981818217,334.38988636434124L260.8928028181822,330.2071591019635L261.69711368181856,313.9171448647981L262.0558710454549,319.64793252945L263.259444136364,287.5445661246782L264.0695414090913,319.2905415892606L265.33097859090947,319.5828051418071L266.34938659090943,309.64457701146654L266.4998332272731,306.8514217734342L267.3272897272731,338.1283392310147L268.2126103181822,327.1813054680829L269.0400668181822,330.64953248202846L269.8617369090913,336.0068057775502L270.40565936363674,322.999000653625L270.48666909090946,327.07787613570736L274.4561457272731,331.45098659396217L274.67024286363676,336.52486774325416L277.19890363636404,346.2463096827273L277.52294254545495,334.50479219853923L277.91641836363675,326.3724585175519L279.0910594090913,319.62138871848634L280.4103606818186,317.11542765796236L281.02950645454587,307.2479595541959L281.6949435000004,328.9343939274554L282.30251645454587,320.06488862633756L283.06632245454585,314.6394603997474L283.11261372727313,314.1295657604938L283.8764197272731,324.97816915810154L284.72702186363676,330.06359721720264L285.8495852272731,340.6814736425881L286.0116046818186,337.2740791291003L287.94426531818226,327.9368535727267L288.01370222727314,331.52977313101337L288.1236440000004,328.9761458635335L288.22201295454585,321.76038335263775L288.53447904545493,313.84201954305223L288.7485761818186,315.81780846417L288.9626733181822,313.901866331697L289.67440163636405,321.1728991121059L291.5607710000004,290.5986533612018L292.5039556818186,317.7194577753549L292.9321499545459,315.4734430015092L297.1793742272732,320.86268152296594L297.3008888181822,323.0522994995122L298.0473355909095,330.71508231759117L299.71382140909134,325.780256941915L300.16516131818224,325.0256241410975L300.76694786363674,330.63833761215255L301.25300622727315,337.72180351615L304.67856040909135,338.4365853965287L304.8521526818186,344.6155198961501L305.4770848636368,314.45492106676153L305.95735681818223,313.36225952208093L307.9941728181823,397.107701480389L309.65487222727313,318.8546457439666L311.24613472727316,324.0359694808726L311.894212545455,316.0020661652093L315.2445434090913,360.60721549391786L316.7779418181822,301.9825686812406L317.47231090909133,308.69864571094564L318.28819459090954,318.15662096440843L320.11091345454594,329.37416221201465L322.460195545455,324.0366031527524L323.478603545455,318.8002907782798L323.6579822272732,318.19020557403616L324.30027363636407,304.06206856668047L325.897322545455,336.595486953855L327.07775000000044,338.60457885265396L328.02093468181863,324.58564463257835L328.0440803181823,325.28212043643043L328.35076000000043,324.5544538944964L328.77316786363684,328.5363071709876L330.2024109090914,323.1390421390538L331.38283836363684,334.6911621391778L331.5390714090914,334.5472482144837L331.944120045455,333.1114181429152L333.08982904545496,329.99121780693577L336.5327424545459,348.31609326601074L338.3612477272732,337.3972226977353L338.46540309090955,334.682290732861L339.68054900000044,293.1683336496358L344.5411326363641,325.9911288619046L345.05612304545497,326.8505287468438L345.2412881363641,324.9956303387885L345.6579095909096,325.78166510164783L345.8141426363641,325.738293781877L345.83728827272773,325.6131787896161L346.201832045455,333.0306601822381L347.2896769545459,317.47112880647234L347.7525896818187,316.1373903155332L348.4874636363641,329.3818366825585L348.52796850000044,329.72817356884525L348.7825705000004,327.11878317594574L349.08925018181867,323.8226332813506L352.05189163636413,328.0447186082606L352.90828018181867,330.44725033640907L354.9103777272732,323.20846441388176L355.2691350909096,317.7810647636657L356.0503003181823,322.0219490230088L356.9240480909096,285.3783235996967L360.7430780909096,329.7514786124234L360.83566063636414,326.5359458625321L361.29278695454593,315.6001773774629L366.4311182272732,340.01752632856414L368.0744584090914,347.57420431077526L368.3811380909096,341.5240460187201L368.56051677272774,338.678296014667L368.7688275000005,342.23678606748626L368.994497454546,342.4542763382201L369.7930219090914,346.77310223877475L370.1691385000005,347.74325388670013L370.3022259090914,346.68157185614155L370.9155852727278,330.6208764314656L371.5231582272732,341.70626188814686L371.789333045455,332.89899724721954L373.49632372727325,324.5889538079505L377.83613054545503,326.11300508678005L378.2932568636369,323.407437384129L379.02234440909143,325.0871607214217L382.0833548181824,345.33537115156696L382.3726752727278,336.38926196098373L383.0033938636369,332.2327264696364L383.1769861363642,324.61556802690075L383.59939400000053,320.4579764157539L385.68828768181874,358.37478946149395L386.7877054090914,342.33908887207554L387.7135308636369,335.66666479408786L388.6104242727278,324.65415160358L389.1485603181824,325.32323870062874L392.4525999090914,336.9367544651036L393.3552797272733,338.06828121841L393.62724095454604,342.5241210609679L395.31108600000056,333.8514060825114L395.664056954546,350.8398675471549L396.5725231818187,346.9240569621329L397.56778554545514,345.1515358984475L398.86394118181875,333.4901427030568L399.0548926818187,337.22275170683906L399.9402132727278,336.3940497040753L400.0270094090915,336.290972411633L402.1159030909096,334.17176242172764L403.493068454546,357.130821153522L403.5335733181824,356.8186321407561L403.556718954546,356.8036352396016L404.3957482727279,347.35917831957386L404.6503502727278,348.84696948528335L405.9060010454551,332.8766075074677L406.5887973181824,319.9627970457082L409.1926814090915,343.63149787485645L409.86390486363695,331.5811005532746L410.6161380454551,335.8383898735051L410.876526454546,336.5767584294085L412.71081813636425,338.17501972615764L414.122701954546,326.71992193162487L414.16899322727335,325.28092350065754L415.10639150000054,333.0649488717322L415.4130711818188,335.62434959411667L418.71711077272784,331.130419030786L419.7008003181824,337.55733045935676L419.7818100454551,330.172940820456L420.28522763636425,328.6613517552619L421.32099486363694,325.80715279281185L421.5119463636369,330.3096731305127L422.5477135909097,325.89938725531147L424.2836363181824,307.1345322877174L424.31835477272784,307.2809808999305L425.35412200000064,310.9228340089326L426.9511709090915,356.1793980300431L430.04689977272784,333.8367612212901L430.8859290909097,339.64696909487293L431.55715254545515,344.6500902175908L432.5003372272733,342.3888673186307L432.65657027272783,342.7680143266921L432.7549392272733,343.2975527942185L435.6539301818188,341.47877368331L435.92589140909155,344.4215458929543L436.62604690909154,357.7160523384814L437.8296200000006,342.2678359895949L438.00321227272786,344.43154382705734L440.9484945000006,344.29945844411895L440.98321295454605,343.3193792700772L441.1105139545461,340.3487254977231L441.6312907727278,349.42156906426L442.6612715909097,344.6501606255774L446.88535022727336,314.01768746972135L447.2961852727279,328.67353233695076L448.23358354545513,330.64882840216205L449.6338945454551,334.3439099490647L452.28985631818244,356.8095495104794L452.7527690454551,356.4179402887826L454.47133254545514,326.65606188774154L454.65071122727335,327.236575737596L456.5428670000006,332.84084025025413L457.410828363637,177.60235416889262L458.5449645454551,295.9636011272674L459.7543240454551,319.03481978178075L460.2403824090915,329.60242490470455L461.1546350454552,337.94246214628265L462.2771984090915,328.2867812663321L463.62543172727334,333.18886692822025L464.36030568181883,393.1898490637545L466.0730827727279,346.8984284549956L467.0336266818188,343.48631660640285L468.20248131818244,350.62406706810043L470.26244295454603,353.7487735152249L470.53440418181884,352.1262214630847L472.32240459090974,330.6910731941466L472.5654337727279,338.11566579341934L474.91471586363696,374.90426126122514L476.35553172727333,339.96338258683727L479.185085772728,335.25653827190445L480.2787170909097,330.1104889363055L480.53910550000063,329.3394510746007L482.9636109090916,337.89479593932674L487.7258255909097,340.97500453889415L487.8299809545461,339.5722662210469L488.3912626363643,343.66965900361583L488.68636950000064,283.25784626603183L489.617981363637,332.8548514395957L492.9798850454552,352.22183550894306L493.0608947727279,347.9651094526057L494.6232252272734,351.30272965133236L494.7447398181825,345.30023756623314L496.1508372272734,369.78855776786844L496.60796354545516,358.47385349869774L497.28497340909155,345.326147705317L500.4501391818189,343.28656914830253L501.1329354545461,351.04982416331814L501.57270254545523,350.9591386765246L503.0713825000007,362.16977994144L503.54008163636433,368.6997686624531L506.039810363637,378.8744268119339L506.76889790909155,323.12967787683056L506.91934454545526,326.27628120780037L507.5905680000007,337.53374378383205L508.80571390909154,341.9840213954453L509.10082077272796,342.14215773344085L509.22812177272795,342.7183766961102L509.4190732727279,334.7338293790822L509.5637335000007,337.88155923783825L511.068199863637,345.2976324707274L511.07977268181884,345.25264176726387L511.6699864090916,339.6214814037089L511.68734563636434,339.4666542410855L512.5784526363643,339.4728501439099L513.5332101363642,329.0462018102412L514.4011715000007,329.8261110782628L515.1881231363643,338.61915330588863L516.1718126818189,335.5585181266074L516.9761235454552,293.17748668789915L519.7304542727279,342.1124455630784L520.0024155000007,323.57803593576L520.3496000454553,330.71416701376484L520.4826874545461,330.9643969982867L522.0045130454553,331.42859685421035L526.1360091363644,320.15810880065015L527.6983395909098,360.6475592702631L529.4226895000007,348.70833615958736L529.526844863637,349.7742426693444L529.9897575909098,348.5454824864869L532.0786512727279,352.36772085726307L533.0681272272734,350.38242685794876L533.7567099090917,359.1393497884278L534.9892150454552,355.6984410732989L535.2843219090917,351.60808908939407L536.1175648181826,355.58909747004554L536.3895260454552,356.4572279453282L537.0665359090916,359.01043276488826L537.7377593636371,358.03331072628544L537.7782642272734,355.37681739032314L539.4273908181825,343.69599159061954L541.3484786363643,347.57195125520275L543.4952364090916,346.49062539637134L544.8492561363644,340.97000557184265L545.2716640000007,343.7628791779284L548.5525579545462,352.6008417010312L548.946033772728,355.3318970948462L549.391587272728,343.5684827268128L549.4725970000007,344.2037035822873L549.6982669545462,343.31754866242454L549.8834320454553,341.8817889988427L552.2732190000007,365.44614519178907L553.3089862272734,357.71506662666843L555.4962488636371,330.12435930967376L555.820287772728,333.547947660089L555.8434334090916,333.07206007838295L556.2195500000007,336.5992889851336L556.5956665909098,338.19100233912513L557.8976086363643,324.03519499301956L557.9901911818189,210.4277544766671L558.8234340909098,330.0578941702847L558.9738807272735,337.02025833725975L559.1879778636371,342.8387039452796L561.4041725454553,344.2150392681365L561.5141143181826,264.66443474590835L562.1043280454553,323.5247370898728L563.6319400454553,344.618477031589L564.285804272728,346.518929407001L564.4883285909099,348.9718028455977L566.9359796363643,347.6536245197062L571.472524363637,356.6460621654992L571.669262272728,358.15082165598915L572.1263885909099,314.5527881681924L573.7350103181825,330.57912449538753L574.5451075909099,336.8419853150849L577.4093800909098,345.11210742592857L578.3409919545462,345.4422504752879L579.9264680454553,340.9721882194285L581.1531867727281,336.3945425599818L582.2641773181826,282.75386589765606L582.7560220909098,307.1639628261333L583.5198280909099,313.26150569319776L584.6886827272735,325.71407343447254L584.8738478181826,328.85004515945957L585.0879449545462,332.01326477527664L585.5508576818189,338.1310851424937L586.4246054545462,352.59253355860756L587.5124503636371,339.2212119996552L587.6918290454553,339.04167163372085L587.8827805454553,338.7176540791993L588.542431181819,341.66908647120044L588.9069749545462,336.53754118084953L590.4403733636371,337.4061645120387L594.8727627272735,343.5462338030343L594.9479860454553,341.5305235534911L595.3646075000007,337.94365908205555L596.1920640000008,354.7776454240088L598.4198315000008,354.1329194903378L598.7496568181825,353.0068141520028L599.999521181819,344.50807730853603L600.9427058636371,354.8594595044856L602.7249198636371,355.3800561577086L605.8322215454554,351.99336159229324L606.6481052272735,348.39762571454094L609.2346300909098,354.3761086761956L609.7264748636371,353.3890591114764L609.8190574090917,351.6248461902146L612.0294656818189,351.48916999995754L612.1278346363645,349.91639639437244L613.3487669545462,346.15780684351967L613.7075243181825,322.7466584295039L614.8763789545462,335.82832153141544L616.1088840909099,341.366613760591L619.8353315454553,357.0464019775395L621.0273318181826,339.3323158025746L622.9021283636372,339.0987021029L623.0178565454553,340.7742009609942L623.0352157727281,341.24424467980907L623.5270605454554,342.00246828794525L623.5444197727281,341.7933565676217L625.6217406363644,315.3566361516719L625.772187272728,319.5363358706241L629.2961104090917,341.7355516105895L629.6375085454554,346.18688534200237L631.5933148181826,379.1429628729824L632.1545965000008,369.0282923281197L633.5896259545462,357.6198750287299L636.0777818636371,357.390626624227L638.8494718181826,345.09999725222633L639.7521516363645,342.19566780328796L641.1871810909099,344.25953711569355L641.8063268636372,379.24843403697054L642.7668707727281,359.47709690034435L643.5017447272735,352.7457413375382L644.2944827727281,354.9415552169089L644.6185216818191,355.94979758560703L644.8036867727282,316.0427619814878L645.2145218181826,335.44509086012886L647.4133572727281,337.63456802070186L647.928347681819,339.5569876879458L648.06143509091,339.1163745075469L649.965163681819,348.3370044380431L651.3191834090918,340.66809612512634L651.6953000000009,154.6847657412298L654.9125434545463,351.4982526302342L655.3175920909099,331.77613067627L656.4170098181827,335.3515890538697L657.4585634545463,332.470071792603L658.615845272728,320.9825159162288L659.0787580000009,376.2206793874506L659.7152630000008,368.43102137744467L660.60058359091,367.77045364677946L661.0229914545463,361.65375980734865L662.1339820000009,330.3567760735755L662.5390306363644,365.7941718697552L662.822564681819,377.1867473721508L665.9009343181827,343.6429743766789L668.5106048181827,357.3818256258969L669.123964181819,391.52019406855146L669.1355370000009,390.6253789663319L670.6978674545462,372.0274613350634L674.6441984545464,345.2231408208613L674.7772858636372,346.223427087069L675.7146841363646,350.89211027324245L676.3338299090917,349.50873415172146L676.6752280454555,337.28928725421474L677.1381407727281,343.78871890902565L677.5721214545463,349.9615983217959L678.0523934090918,353.35920612514064L678.5095197272736,350.4810684472327L679.0939470454555,347.7208641469483L679.6494423181827,331.5799036175017L680.0429181363645,337.7531350702052L682.49635559091,346.36262367665813L682.612083772728,344.530044600368L684.718336681819,332.08465847373054L685.8871913181827,349.2980734556918L686.0723564090918,351.53409029543445L686.3848225000008,353.21951667964504L686.9055993181827,329.3904264569287L688.0339490909099,332.57786642015026L688.2133277727281,332.75212618708656L688.5315802727281,341.1109623610978L688.73410459091,339.6864679753785L688.791968681819,338.5645871162419L689.9203184545464,359.67959026992366L691.4016391818191,314.6372073441749L691.719891681819,314.43738947808794L694.2080475909099,376.96108977496664L696.111776181819,354.9456388801341L696.4473879090917,354.8080616742377L698.5883592727282,358.20707763731525L699.1901458181827,355.7648358047013L699.2711555454555,355.88875386118934L699.6183400909099,357.57453228533313L699.6993498181827,356.8999533653264L699.7861459545463,357.47356723249004L699.8613692727282,357.0440081059937L700.0870392272736,356.94255019724415L700.8392724090918,352.2678119242196L702.8124379090917,359.35585434734867L703.8308459090917,371.36069770157377L704.3631955454555,365.8979532420639L704.7798170000009,357.3938653916125L704.8608267272735,354.4538390934472L707.3026913636372,365.49831750989L707.632516681819,366.2908298075203L708.3442450000008,363.92681124806444L709.3626530000008,360.6709347218279L709.9412939090918,356.20558980107353L710.5372940454554,355.44201518595264L712.4699546818191,350.3422238975768L716.2947710909099,349.5982931107287L716.7171789545464,349.3495416939263L717.7818782272736,338.45665167272136L720.2584613181826,361.98249469697515L721.0511993636372,355.6003627479081L724.8470837272736,340.4391997605567L724.8528701363645,342.90418337285564L725.1884818636373,323.6831550598149L726.3457636818191,349.89435869455383L728.203201000001,364.28948278725187L729.59772559091,348.03622151911304L730.3383859545463,351.849870115519L730.5293374545463,348.548791661859L731.6519008181826,347.93596054613636L732.6240175454554,352.1327694058423L732.8323282727282,356.55326443910644L732.9422700454554,356.97282563149975L733.4977653181828,357.0150704234843L736.1421542727281,356.29782426357315L736.3793970454554,359.29495143890426L736.8886010454554,365.08417773246805L738.1731838636373,364.5461903065447L739.0585044545463,344.6167872399096L740.3141552272735,345.69522637128875L743.5256122727282,347.01854448020504L744.6481756363645,355.6027566194539L744.87384559091,354.39835759997413L746.0253410000009,343.6961324065928L748.4556328181828,341.83489727973983L750.0006040454556,342.0336590260272L750.8801382272737,331.25363300740764L752.263090000001,345.0769034326081L754.0684496363644,355.7427981048827L755.0347799545464,348.5651263147597L757.1236736363646,352.37250860035465L758.7207225454554,327.45061601698444L759.0274022272737,331.32692772150085L761.0931502727282,361.99383038282434L761.162587181819,360.2652439028029L762.5918302272737,350.96174377203033L762.63233509091,351.9157015830283L763.2456944545463,375.87082210183183L764.1773063181828,352.307733252645L764.6980831363646,363.0108737498526L766.5728796818191,365.1916203200821L767.8458896818191,359.6736759990458L768.0657732272737,360.52300754189537L768.4823946818191,361.07127453386823L768.7080646363646,358.02281993627594L769.37928809091,357.98106800019787L769.830628000001,374.92559488117735L769.9116377272737,375.27270625531713L770.010006681819,376.02445232868234L770.6349388636372,375.400778383017L773.4124152272736,342.1532117873435L774.5118329545464,354.82707183063076L775.1830564090918,356.8212372362618L776.4560664090918,357.62980255484626L776.6238722727281,357.036896899343L779.2914068636373,353.618166700006L780.7785140000009,338.7934834808116L780.9463198636373,344.1982117593293L781.2992908181827,342.8072315752511L783.0583591818192,347.6838295459752L784.0304759090918,300.812458351255L786.9757581363646,355.93620884418533L788.7811177727283,352.1338255256419L792.0388660909101,306.64815391600183L793.9946723636374,341.512499108911L794.0004587727283,341.65620180964515L794.8047696363647,344.2701687216763L794.9783619090919,348.406637936831L795.2156046818192,333.8126816898589L795.8868281363646,338.2628888934855L797.7153334090918,354.0112544894223L797.9583625909102,378.2651160955433L799.8563047727283,367.7012425959114L800.0356834545464,367.49691861867944L802.2692373636373,363.0874776393179L802.3386742727283,362.91652704775373L802.9462472272737,365.8057187795643L804.8499758181828,362.8727332800631L807.9804231363646,346.7253656238322L808.1192969545465,343.61931729316757L808.3102484545465,344.83596730232284L810.8389092272737,355.89135895669506L811.2208122272737,359.41739092767284L811.3828316818192,359.8317419290547L813.3212787272738,347.7198080271487L814.640580000001,345.0424739271407L814.7215897272737,344.5551098436122L814.9761917272737,374.5604590624575L816.2781337727282,359.22785262763546L817.7073768181829,344.863778457046L824.384892909092,345.97890014946506L825.7909903181828,350.7211596816783L827.2260197727283,361.0065695941452L827.5326994545464,367.35722917318384L828.1634180454555,361.7782411277298L828.9330104545464,333.58793939650104L829.9977097272738,367.9000747501854L830.73837009091,358.79934962093876L831.0450497727282,356.6367683112626L831.2880789545464,360.84906692802946L832.144467500001,365.6753231883053L832.3296325909101,346.2577861845498L832.6826035454557,340.9961973428731L832.786758909092,345.53159821033523L834.0366232727282,354.9069848954682L835.1476138181829,362.3444621562962L835.7494003636374,340.0958904176955L838.318566000001,370.84291736781637L840.0197702727282,353.7516602426772L841.0150326363647,350.25456595420883L841.5242366363647,352.68216292560146L841.5936735454557,351.5646473616366L841.6399648181829,351.7462295591836L842.079731909092,358.17870321869896L842.328547500001,357.42195817828224L843.0634214545465,369.3572384417061L844.5273829545465,358.54616250097797L845.3721986818192,356.1603174656634L849.0292092272738,354.0174503922467L850.3195784545466,346.7890144437556L853.58889959091,356.37646998465107L853.65255009091,349.4950750023131L854.682530909092,344.93179257214115L854.994997000001,343.34092411398933L855.8166670909101,343.43484836816833L860.4457943636374,334.90013304352806L861.8345325454557,356.69900897145317L861.9271150909101,351.1864860653882L863.5125911818193,405.23869740963016L864.160669000001,340.2813450545077L865.1906498181828,361.907228559256L865.3758149090919,362.96785447001497L865.7924363636374,362.72438365221063L867.2969027272737,338.8312221616511L868.1475048636374,365.7672056108717L870.2826898181828,366.30153182148973L870.3579131363647,366.97829338908235L870.849757909092,375.72704899311105L873.0370205454556,359.868354082108L873.1816807727283,360.99234718084375L873.7950401363647,354.53241440653846L877.4520506818193,349.61554306745575L878.9391578181828,360.73641414940397L880.8891776818193,346.42627249658153L881.3000127272737,355.7904643118386L881.7513526363647,349.3508794456725L883.5740715000011,354.32097922265575L883.6030035454556,353.2103636413817L883.6897996818193,351.8091038912539L885.5993146818192,370.1865741163496L885.7844797727283,372.0846326202158L886.9244023636375,371.9304391294722L888.2552764545466,349.67264394462154L888.7355484090921,364.3579897582535L888.8454901818193,365.5276072323326L889.4414903181828,351.7528479099278L891.0558984545465,350.1385335922246L893.8218020000011,344.04162439703987L893.9838214545465,348.9578620642428L894.4814526363647,352.81079831719444L896.6860745000012,352.59682844579265L896.8133755000011,353.2773920446639L898.5319390000011,368.4603110998873L899.3709683181829,366.6451932042841L899.6371431363647,366.68208698928396L902.680794318183,347.2305429279809L902.9122506818193,358.0104985386138L902.9585419545465,358.3621864318852L903.0858429545465,361.1471039354805L903.1437070454556,363.94420202076475L903.5834741363648,367.02870550751726L903.7802120454558,368.5255088955168L904.2836296363648,369.4654555171732L904.4630083181829,369.5624073147778L907.1652613636375,349.24259196221874L908.5482131363648,355.28099212050483L909.8964464545467,369.08482994139234L913.5476705909102,355.8898803889756L913.755981318183,355.3576664179568L914.317263000001,348.9468080103402L915.532408909092,351.34110200405166L915.5381953181829,351.51564340293453L917.2683316363648,347.9334258586173L918.7438659545467,349.5220412611966L919.5597496363648,399.41961812973057L921.260953909092,360.0082547515635L922.1636337272738,361.65256287157575L922.9910902272738,340.2154431790118L923.488721409092,352.6009121090178L924.6228575909101,340.8307385742669L924.7675178181829,336.9987134933476L925.4966053636374,333.7438930869107L925.9016540000011,336.78995381295726L927.2788193636376,360.0410648733382L927.6202175000011,371.22973884642164L928.3088001818193,365.2074621170763L929.026314909092,355.1704515814786L933.3776945454557,369.2062133103613L935.2987823636375,367.6585049480204L935.3624328636375,367.8850778490309L935.8716368636375,365.10600420832674L936.0973068181829,363.3300331532959L936.3345495909101,364.6248360276226L939.3492687272739,368.3461093455557L939.8526863181829,368.3866643458609L941.5712498181829,352.92964699864433L945.448143909092,359.2459474802022L946.1714450454557,355.7461072802548L950.2103585909101,352.4778389483695L950.7832130909103,305.53077916801027L951.5701647272739,335.6813096553092L952.2761066363647,349.55365444719837L952.6117183636375,355.04259067773864L953.0109805909103,360.7018438279633L953.0341262272739,360.9165881872181L953.6185535454557,359.40295729041145L954.1161847272739,343.08548393845604L957.4607291818194,335.37440124154136L958.114593409092,311.0190817266708L958.8552537727285,316.4303579479461L958.9420499090921,317.68397215008787L960.0298948181829,339.3560432940726L960.3250016818193,338.2847153693442L960.724263909092,438.69354511797457L960.7474095454556,429.56000986695324L963.7968471363647,364.6416635364298L963.9067889090921,363.4707083106045L964.3697016363648,322.8222061991696L965.0756435454557,379.81338772177736L965.6832165000012,372.9924027919773L966.7189837272738,370.53995180130045L966.7999934545466,370.86108262836973L967.0083041818193,369.28436617553274L967.2455469545466,367.93457466363947L967.7894694090921,376.0740899592642L968.0730034545466,391.3034782856707L968.6342851363647,380.82085560262243L969.1145570909102,371.61184298992197L969.6179746818193,369.80594854056875L969.7221300454556,370.0061184465889L970.5032952727285,374.97910495102445L973.7436843636375,356.07540543377445L975.2886555909103,362.7747253626589L976.6947530000012,367.75080981850664L981.2660161818194,351.3311744779353L981.6537055909102,346.17533843219326L982.0066765454557,341.2329794019465L984.089783818183,349.70960813760803L984.4601140000012,346.06817747652576L986.8499009545466,382.2786529660229L987.6773574545466,371.45666378736536L990.7152222272739,356.8402473926549L991.1665621363649,352.8021381348376L993.000853818183,362.06416796147863L993.7878054545467,356.17123070359276L993.8746015909103,355.7880000323062L995.2401941363648,363.2132263034586L997.1960004090921,368.53438030183355L997.6762723636375,362.699600040913L999.1807387272739,356.71703341603325L1000.1875739090921,364.3844631612305L1000.6099817727286,362.0521986037497L1000.7488555909102,361.0832438915972L1001.4547975000012,365.3030761629347L1001.5647392727284,365.9192868620161L1001.9466422727286,365.8624676167969L1002.8782541363648,351.5436657816176L1003.4048173636374,370.2204403579239L1003.6825650000012,375.1666718274359L1004.7993419545467,375.1350586414341L1005.8756140454558,346.96630175411747L1006.5584103181831,356.0546350777154L1006.813012318183,350.7695299685006L1006.9518861363648,341.7937086075549L1007.2180609545467,344.86835497617767L1010.0476150000012,366.75566333532373L1011.0197317272739,358.23784592747734L1011.9224115454558,363.05072467029134L1012.674644727274,360.45414853096054L1013.5946837727286,348.39283797144935L1015.1280821818193,350.30554133653686L1015.787732818183,354.0723686218266L1017.2748399545467,334.01080976426647L1017.4600050454558,328.0245819240813L1019.7224910000011,394.79430626332794L1020.0118114545467,378.9445531666283L1021.007073818183,356.4810962527995L1021.2211709545467,356.52094717323826L1022.6504140000012,353.6230248510842L1024.073870636365,363.1672498881821L1025.2600845000013,333.8194408565764L1025.4221039545466,331.67249011993454L1026.4462983636377,343.21609075367496L1029.8371340909102,360.03268632292793L1029.9702215000011,361.4261307865385L1030.9481246363648,350.8282502293591L1030.953911045456,349.8991464376454L1031.318454818183,351.94639946520374L1031.7929403636376,366.9687883108858L1032.539387136365,369.0439933091406L1032.8692124545466,366.70856039226095L1033.499931045456,367.52015325427095L1033.9107660909103,353.9723892807965L1034.6919313181832,364.1763371527199L1036.6535240000012,368.411940813065L1037.625640727274,380.87591464817564L1041.444670727274,369.80679343640844L1042.1216805909103,368.6269668042664L1045.2984191818193,374.2020120024685L1046.4383417727286,362.218220636249L1046.669798136365,363.1183867454533L1047.3815264545467,360.56222479045437L1050.164789227274,355.63042695820377L1050.9401680454557,347.95328091085L1052.1148090909103,364.67651548981706L1053.2547316818193,376.3701555430893L1054.9964408181831,348.0848734378819L1055.129528227274,345.44077190756843L1056.1710818636377,348.66510565578983L1056.2405187727286,348.4288868606095L1058.306266818183,285.02191837132034L1058.751820318183,306.03490035235933L1059.9206749545467,339.90142355859325L1060.412519727274,342.24812175333545L1061.0548111363648,351.279072567821L1061.3499180000013,351.83254975080536L1062.7849474545467,338.4558771848683L1065.059006227274,426.48663084209L1065.886462727274,383.9333110600714L1067.0958222272739,376.4081758558754L1068.0216476818196,371.3014141768221L1069.0111236363648,374.74999736249487L1069.8559393636376,365.8493717312817L1069.9195898636376,367.6802610158924L1070.6660366363649,374.54236420989076L1070.781764818183,374.807027831674L1072.500328318183,364.93984135985414L1073.836988818183,350.1010765433316L1075.3472415909105,371.582623675466L1075.682853318183,391.53258587420027L1076.2036301363648,375.12801784277L1076.9616497272739,370.7385727316145L1077.5055721818194,364.8654905259613L1079.2819997727286,361.16005900502245L1083.4308550909104,364.95364132523576L1085.7917100000013,371.75765793025533L1086.0173799545466,371.14032070338766L1086.0752440454557,375.05408945679704L1089.3272059545468,329.2008881568913L1090.397691636365,348.66841483116195L1093.6149350909104,383.9116958081726L1094.783789727274,378.66496305167715L1094.8705858636376,376.1685774773363L1095.483945227274,370.781028747559L1095.744333636365,364.88309252262155L1096.496566818183,397.6373807638887L1097.5034020000014,379.97314344346563L1098.0878293181831,369.03617802262346L1101.9589370000012,370.8964978456501L1103.3071703181831,398.89113578200374L1105.986277727274,378.2895476669077L1106.3334622727286,373.18855944275896L1106.9294624090921,351.9096464961772L1107.5370353636376,349.1673962324862L1108.538084136365,359.54778651893184L1111.6048809545466,368.2706319838766L1112.6927258636376,365.8345860540871L1112.7737355909103,364.7509367316965L1112.860531727274,364.3041980564598L1113.2655803636376,361.904482647777L1113.7921435909104,341.0769553035502L1114.509658318183,344.3664868474011L1117.4144356818194,341.7077404558663L1120.7936985909105,344.06908351182983L1120.886281136365,342.62881773710296L1121.1061646818196,347.62461642921016L1121.4186307727286,347.05283316969917L1122.1477183181833,349.0656566917901L1123.819990545456,352.7885493934159L1126.5338164090922,340.94437706470535L1126.5685348636378,341.80891673266933L1126.7652727727286,343.677474290133L1127.5175059545468,381.66462491452734L1127.8068264090923,413.18219687044655L1128.7963023636378,372.00676138699095L1129.4617394090922,358.9839593619113L1129.6295452727286,361.9919997751717L1131.145584454547,330.6086958497767L1131.4291185000013,342.4808201491837L1132.4301672727286,373.0768219679598L1133.2691965909103,371.33901204168836L1134.0850802727286,369.7274436354641L1134.2760317727286,369.0828585177664" style="fill: none;" fill="none"></path></g></g></g></g></g></g><g transform="translate(50, 378)" clip-path="url(#clip_1)"><clipPath id="clip_1"><rect width="1273" height="21"></rect></clipPath><g><g><line x1="92.72818181818202" y1="0" x2="92.72818181818202" y2="5" style="visibility: inherit;" fill="rgb(0, 0, 0)" stroke="rgb(204, 204, 204)" stroke-width="1px"></line><line x1="208.45636363636396" y1="0" x2="208.45636363636396" y2="5" style="visibility: inherit;" fill="rgb(0, 0, 0)" stroke="rgb(204, 204, 204)" stroke-width="1px"></line><line x1="324.1845454545459" y1="0" x2="324.1845454545459" y2="5" style="visibility: inherit;" fill="rgb(0, 0, 0)" stroke="rgb(204, 204, 204)" stroke-width="1px"></line><line x1="439.91272727272786" y1="0" x2="439.91272727272786" y2="5" style="visibility: inherit;" fill="rgb(0, 0, 0)" stroke="rgb(204, 204, 204)" stroke-width="1px"></line><line x1="555.6409090909099" y1="0" x2="555.6409090909099" y2="5" style="visibility: inherit;" fill="rgb(0, 0, 0)" stroke="rgb(204, 204, 204)" stroke-width="1px"></line><line x1="671.3690909090918" y1="0" x2="671.3690909090918" y2="5" style="visibility: inherit;" fill="rgb(0, 0, 0)" stroke="rgb(204, 204, 204)" stroke-width="1px"></line><line x1="787.0972727272737" y1="0" x2="787.0972727272737" y2="5" style="visibility: inherit;" fill="rgb(0, 0, 0)" stroke="rgb(204, 204, 204)" stroke-width="1px"></line><line x1="902.8254545454556" y1="0" x2="902.8254545454556" y2="5" style="visibility: inherit;" fill="rgb(0, 0, 0)" stroke="rgb(204, 204, 204)" stroke-width="1px"></line><line x1="1018.5536363636376" y1="0" x2="1018.5536363636376" y2="5" style="visibility: inherit;" fill="rgb(0, 0, 0)" stroke="rgb(204, 204, 204)" stroke-width="1px"></line><line x1="1134.2818181818195" y1="0" x2="1134.2818181818195" y2="5" style="visibility: inherit;" fill="rgb(0, 0, 0)" stroke="rgb(204, 204, 204)" stroke-width="1px"></line><line x1="1250.0100000000016" y1="0" x2="1250.0100000000016" y2="5" style="visibility: inherit;" fill="rgb(0, 0, 0)" stroke="rgb(204, 204, 204)" stroke-width="1px"></line></g><g transform="translate(0, 8)"><text x="92.72818181818202" y="0" dx="0em" dy="0.95em" style="text-anchor: middle; visibility: inherit; font-family: &quot;Helvetica Neue&quot;, sans-serif; font-size: 12px; font-weight: 200;" fill="rgb(50, 49, 63)" stroke="none" stroke-width="1px">0</text><text x="208.45636363636396" y="0" dx="0em" dy="0.95em" style="text-anchor: middle; visibility: inherit; font-family: &quot;Helvetica Neue&quot;, sans-serif; font-size: 12px; font-weight: 200;" fill="rgb(50, 49, 63)" stroke="none" stroke-width="1px">20k</text><text x="324.1845454545459" y="0" dx="0em" dy="0.95em" style="text-anchor: middle; visibility: inherit; font-family: &quot;Helvetica Neue&quot;, sans-serif; font-size: 12px; font-weight: 200;" fill="rgb(50, 49, 63)" stroke="none" stroke-width="1px">40k</text><text x="439.91272727272786" y="0" dx="0em" dy="0.95em" style="text-anchor: middle; visibility: inherit; font-family: &quot;Helvetica Neue&quot;, sans-serif; font-size: 12px; font-weight: 200;" fill="rgb(50, 49, 63)" stroke="none" stroke-width="1px">60k</text><text x="555.6409090909099" y="0" dx="0em" dy="0.95em" style="text-anchor: middle; visibility: inherit; font-family: &quot;Helvetica Neue&quot;, sans-serif; font-size: 12px; font-weight: 200;" fill="rgb(50, 49, 63)" stroke="none" stroke-width="1px">80k</text><text x="671.3690909090918" y="0" dx="0em" dy="0.95em" style="text-anchor: middle; visibility: inherit; font-family: &quot;Helvetica Neue&quot;, sans-serif; font-size: 12px; font-weight: 200;" fill="rgb(50, 49, 63)" stroke="none" stroke-width="1px">100k</text><text x="787.0972727272737" y="0" dx="0em" dy="0.95em" style="text-anchor: middle; visibility: inherit; font-family: &quot;Helvetica Neue&quot;, sans-serif; font-size: 12px; font-weight: 200;" fill="rgb(50, 49, 63)" stroke="none" stroke-width="1px">120k</text><text x="902.8254545454556" y="0" dx="0em" dy="0.95em" style="text-anchor: middle; visibility: inherit; font-family: &quot;Helvetica Neue&quot;, sans-serif; font-size: 12px; font-weight: 200;" fill="rgb(50, 49, 63)" stroke="none" stroke-width="1px">140k</text><text x="1018.5536363636376" y="0" dx="0em" dy="0.95em" style="text-anchor: middle; visibility: inherit; font-family: &quot;Helvetica Neue&quot;, sans-serif; font-size: 12px; font-weight: 200;" fill="rgb(50, 49, 63)" stroke="none" stroke-width="1px">160k</text><text x="1134.2818181818195" y="0" dx="0em" dy="0.95em" style="text-anchor: middle; visibility: inherit; font-family: &quot;Helvetica Neue&quot;, sans-serif; font-size: 12px; font-weight: 200;" fill="rgb(50, 49, 63)" stroke="none" stroke-width="1px">180k</text><text x="1250.0100000000016" y="0" dx="0em" dy="0.95em" style="text-anchor: middle; visibility: inherit; font-family: &quot;Helvetica Neue&quot;, sans-serif; font-size: 12px; font-weight: 200;" fill="rgb(50, 49, 63)" stroke="none" stroke-width="1px">200k</text></g><line x1="0" y1="0" x2="1273.01" y2="0" fill="rgb(0, 0, 0)" stroke="rgb(204, 204, 204)" stroke-width="1px"></line></g></g></g></g></svg>