<svg viewBox="0 0 1323.0113525390625 400" xmlns="http://www.w3.org/2000/svg"><g><g><g><g><g><line x1="60" y1="363.9230769230778" x2="55" y2="363.9230769230778" style="visibility: inherit;" fill="rgb(0, 0, 0)" stroke="rgb(204, 204, 204)" stroke-width="1px"></line><line x1="60" y1="334.8461538461547" x2="55" y2="334.8461538461547" style="visibility: inherit;" fill="rgb(0, 0, 0)" stroke="rgb(204, 204, 204)" stroke-width="1px"></line><line x1="60" y1="305.7692307692317" x2="55" y2="305.7692307692317" style="visibility: inherit;" fill="rgb(0, 0, 0)" stroke="rgb(204, 204, 204)" stroke-width="1px"></line><line x1="60" y1="276.6923076923086" x2="55" y2="276.6923076923086" style="visibility: inherit;" fill="rgb(0, 0, 0)" stroke="rgb(204, 204, 204)" stroke-width="1px"></line><line x1="60" y1="247.61538461538552" x2="55" y2="247.61538461538552" style="visibility: inherit;" fill="rgb(0, 0, 0)" stroke="rgb(204, 204, 204)" stroke-width="1px"></line><line x1="60" y1="218.53846153846243" x2="55" y2="218.53846153846243" style="visibility: inherit;" fill="rgb(0, 0, 0)" stroke="rgb(204, 204, 204)" stroke-width="1px"></line><line x1="60" y1="189.46153846153936" x2="55" y2="189.46153846153936" style="visibility: inherit;" fill="rgb(0, 0, 0)" stroke="rgb(204, 204, 204)" stroke-width="1px"></line><line x1="60" y1="160.3846153846163" x2="55" y2="160.3846153846163" style="visibility: inherit;" fill="rgb(0, 0, 0)" stroke="rgb(204, 204, 204)" stroke-width="1px"></line><line x1="60" y1="131.30769230769351" x2="55" y2="131.30769230769351" style="visibility: inherit;" fill="rgb(0, 0, 0)" stroke="rgb(204, 204, 204)" stroke-width="1px"></line><line x1="60" y1="102.23076923077048" x2="55" y2="102.23076923077048" style="visibility: inherit;" fill="rgb(0, 0, 0)" stroke="rgb(204, 204, 204)" stroke-width="1px"></line><line x1="60" y1="73.15384615384738" x2="55" y2="73.15384615384738" style="visibility: inherit;" fill="rgb(0, 0, 0)" stroke="rgb(204, 204, 204)" stroke-width="1px"></line><line x1="60" y1="44.07692307692429" x2="55" y2="44.07692307692429" style="visibility: inherit;" fill="rgb(0, 0, 0)" stroke="rgb(204, 204, 204)" stroke-width="1px"></line><line x1="60" y1="15.000000000001194" x2="55" y2="15.000000000001194" style="visibility: inherit;" fill="rgb(0, 0, 0)" stroke="rgb(204, 204, 204)" stroke-width="1px"></line></g><g transform="translate(50, 0)"><text x="0" y="363.9230769230778" dx="0em" dy="0.3em" style="text-anchor: end; visibility: inherit; font-family: &quot;Helvetica Neue&quot;, sans-serif; font-size: 12px; font-weight: 200;" fill="rgb(50, 49, 63)" stroke="none" stroke-width="1px">0.37</text><text x="0" y="334.8461538461547" dx="0em" dy="0.3em" style="text-anchor: end; visibility: inherit; font-family: &quot;Helvetica Neue&quot;, sans-serif; font-size: 12px; font-weight: 200;" fill="rgb(50, 49, 63)" stroke="none" stroke-width="1px">0.375</text><text x="0" y="305.7692307692317" dx="0em" dy="0.3em" style="text-anchor: end; visibility: inherit; font-family: &quot;Helvetica Neue&quot;, sans-serif; font-size: 12px; font-weight: 200;" fill="rgb(50, 49, 63)" stroke="none" stroke-width="1px">0.38</text><text x="0" y="276.6923076923086" dx="0em" dy="0.3em" style="text-anchor: end; visibility: inherit; font-family: &quot;Helvetica Neue&quot;, sans-serif; font-size: 12px; font-weight: 200;" fill="rgb(50, 49, 63)" stroke="none" stroke-width="1px">0.385</text><text x="0" y="247.61538461538552" dx="0em" dy="0.3em" style="text-anchor: end; visibility: inherit; font-family: &quot;Helvetica Neue&quot;, sans-serif; font-size: 12px; font-weight: 200;" fill="rgb(50, 49, 63)" stroke="none" stroke-width="1px">0.39</text><text x="0" y="218.53846153846243" dx="0em" dy="0.3em" style="text-anchor: end; visibility: inherit; font-family: &quot;Helvetica Neue&quot;, sans-serif; font-size: 12px; font-weight: 200;" fill="rgb(50, 49, 63)" stroke="none" stroke-width="1px">0.395</text><text x="0" y="189.46153846153936" dx="0em" dy="0.3em" style="text-anchor: end; visibility: inherit; font-family: &quot;Helvetica Neue&quot;, sans-serif; font-size: 12px; font-weight: 200;" fill="rgb(50, 49, 63)" stroke="none" stroke-width="1px">0.4</text><text x="0" y="160.3846153846163" dx="0em" dy="0.3em" style="text-anchor: end; visibility: inherit; font-family: &quot;Helvetica Neue&quot;, sans-serif; font-size: 12px; font-weight: 200;" fill="rgb(50, 49, 63)" stroke="none" stroke-width="1px">0.405</text><text x="0" y="131.30769230769351" dx="0em" dy="0.3em" style="text-anchor: end; visibility: inherit; font-family: &quot;Helvetica Neue&quot;, sans-serif; font-size: 12px; font-weight: 200;" fill="rgb(50, 49, 63)" stroke="none" stroke-width="1px">0.41</text><text x="0" y="102.23076923077048" dx="0em" dy="0.3em" style="text-anchor: end; visibility: inherit; font-family: &quot;Helvetica Neue&quot;, sans-serif; font-size: 12px; font-weight: 200;" fill="rgb(50, 49, 63)" stroke="none" stroke-width="1px">0.415</text><text x="0" y="73.15384615384738" dx="0em" dy="0.3em" style="text-anchor: end; visibility: inherit; font-family: &quot;Helvetica Neue&quot;, sans-serif; font-size: 12px; font-weight: 200;" fill="rgb(50, 49, 63)" stroke="none" stroke-width="1px">0.42</text><text x="0" y="44.07692307692429" dx="0em" dy="0.3em" style="text-anchor: end; visibility: inherit; font-family: &quot;Helvetica Neue&quot;, sans-serif; font-size: 12px; font-weight: 200;" fill="rgb(50, 49, 63)" stroke="none" stroke-width="1px">0.425</text><text x="0" y="15.000000000001194" dx="0em" dy="0.3em" style="text-anchor: end; visibility: inherit; font-family: &quot;Helvetica Neue&quot;, sans-serif; font-size: 12px; font-weight: 200;" fill="rgb(50, 49, 63)" stroke="none" stroke-width="1px">0.43</text></g><line x1="60" y1="0" x2="60" y2="378" fill="rgb(0, 0, 0)" stroke="rgb(204, 204, 204)" stroke-width="1px"></line></g></g><g transform="translate(60, 0)" clip-path="url(#clip_0)"><clipPath id="clip_0"><rect width="1263" height="377"></rect></clipPath><g><g><g><line x1="156.87624999999994" y1="0" x2="156.87624999999994" y2="378" fill="rgb(0, 0, 0)" stroke="rgb(60, 60, 60)" stroke-width="1px" opacity="0.25"></line><line x1="314.7524999999998" y1="0" x2="314.7524999999998" y2="378" fill="rgb(0, 0, 0)" stroke="rgb(60, 60, 60)" stroke-width="1px" opacity="0.25"></line><line x1="472.6287499999998" y1="0" x2="472.6287499999998" y2="378" fill="rgb(0, 0, 0)" stroke="rgb(60, 60, 60)" stroke-width="1px" opacity="0.25"></line><line x1="630.5049999999997" y1="0" x2="630.5049999999997" y2="378" fill="rgb(0, 0, 0)" stroke="rgb(60, 60, 60)" stroke-width="1px" opacity="0.25"></line><line x1="788.3812499999996" y1="0" x2="788.3812499999996" y2="378" fill="rgb(0, 0, 0)" stroke="rgb(60, 60, 60)" stroke-width="1px" opacity="0.25"></line><line x1="946.2574999999996" y1="0" x2="946.2574999999996" y2="378" fill="rgb(0, 0, 0)" stroke="rgb(60, 60, 60)" stroke-width="1px" opacity="0.25"></line><line x1="1104.1337499999995" y1="0" x2="1104.1337499999995" y2="378" fill="rgb(0, 0, 0)" stroke="rgb(60, 60, 60)" stroke-width="1px" opacity="0.25"></line><line x1="1262.0099999999993" y1="0" x2="1262.0099999999993" y2="378" fill="rgb(0, 0, 0)" stroke="rgb(60, 60, 60)" stroke-width="1px" opacity="0.25"></line></g><g><line x1="0" y1="363.9230769230778" x2="1263.01" y2="363.9230769230778" fill="rgb(0, 0, 0)" stroke="rgb(60, 60, 60)" stroke-width="1px" opacity="0.25"></line><line x1="0" y1="334.8461538461547" x2="1263.01" y2="334.8461538461547" fill="rgb(0, 0, 0)" stroke="rgb(60, 60, 60)" stroke-width="1px" opacity="0.25"></line><line x1="0" y1="305.7692307692317" x2="1263.01" y2="305.7692307692317" fill="rgb(0, 0, 0)" stroke="rgb(60, 60, 60)" stroke-width="1px" opacity="0.25"></line><line x1="0" y1="276.6923076923086" x2="1263.01" y2="276.6923076923086" fill="rgb(0, 0, 0)" stroke="rgb(60, 60, 60)" stroke-width="1px" opacity="0.25"></line><line x1="0" y1="247.61538461538552" x2="1263.01" y2="247.61538461538552" fill="rgb(0, 0, 0)" stroke="rgb(60, 60, 60)" stroke-width="1px" opacity="0.25"></line><line x1="0" y1="218.53846153846243" x2="1263.01" y2="218.53846153846243" fill="rgb(0, 0, 0)" stroke="rgb(60, 60, 60)" stroke-width="1px" opacity="0.25"></line><line x1="0" y1="189.46153846153936" x2="1263.01" y2="189.46153846153936" fill="rgb(0, 0, 0)" stroke="rgb(60, 60, 60)" stroke-width="1px" opacity="0.25"></line><line x1="0" y1="160.3846153846163" x2="1263.01" y2="160.3846153846163" fill="rgb(0, 0, 0)" stroke="rgb(60, 60, 60)" stroke-width="1px" opacity="0.25"></line><line x1="0" y1="131.30769230769351" x2="1263.01" y2="131.30769230769351" fill="rgb(0, 0, 0)" stroke="rgb(60, 60, 60)" stroke-width="1px" opacity="0.25"></line><line x1="0" y1="102.23076923077048" x2="1263.01" y2="102.23076923077048" fill="rgb(0, 0, 0)" stroke="rgb(60, 60, 60)" stroke-width="1px" opacity="0.25"></line><line x1="0" y1="73.15384615384738" x2="1263.01" y2="73.15384615384738" fill="rgb(0, 0, 0)" stroke="rgb(60, 60, 60)" stroke-width="1px" opacity="0.25"></line><line x1="0" y1="44.07692307692429" x2="1263.01" y2="44.07692307692429" fill="rgb(0, 0, 0)" stroke="rgb(60, 60, 60)" stroke-width="1px" opacity="0.25"></line><line x1="0" y1="15.000000000001194" x2="1263.01" y2="15.000000000001194" fill="rgb(0, 0, 0)" stroke="rgb(60, 60, 60)" stroke-width="1px" opacity="0.25"></line></g></g></g><g><g><line x1="0" y1="2515.615384615384" x2="1263.01" y2="2515.615384615384" fill="rgb(0, 0, 0)" stroke="rgb(153, 153, 153)" stroke-width="1.5px"></line></g></g><g><g><line x1="156.87624999999994" y1="0" x2="156.87624999999994" y2="378" fill="rgb(0, 0, 0)" stroke="rgb(153, 153, 153)" stroke-width="1.5px"></line></g></g><g><g><g><g><g><path stroke="rgb(0, 119, 187)" stroke-width="2px" d="M166.34882499999992,-21.837771615538657L169.5063499999999,15.083646084343172L172.66387499999993,24.637661742604962L175.82139999999993,82.83021359981387L178.9789249999999,22.77065379540079L182.1364499999999,85.80392429272462L185.2939749999999,125.4842738882819L188.4514999999999,49.75621952694638L191.60902499999992,157.29412216640736L194.7665499999999,155.20069652658685L197.9240749999999,179.1962455980825L201.08159999999992,160.32073374688395L204.2391249999999,183.51126264620794L207.39664999999988,184.2906952340938L210.5541749999999,192.72372170312164L213.7116999999999,131.9848389702861L216.8692249999999,197.87691545285884L220.0267499999999,193.19205991721014L223.1842749999999,21.412031702982233L226.3417999999999,190.80987695736457L229.49932499999989,196.1936345762919L232.65684999999988,208.0365397884944L235.81437499999987,158.0096566216848L238.9718999999999,205.23796736018312L242.12942499999988,110.60570844105825L245.28694999999988,222.46373426888573L248.4444749999999,220.49676106780078L251.60199999999986,176.18814269903376L254.75952499999985,235.82811487588967L257.91704999999985,117.69468181310856L261.07457499999987,223.0679475913355L264.2320999999999,132.09131679044307L267.38962499999985,240.0584354846652L270.5471499999999,247.08594487652192L273.7046749999999,114.75706531424692L276.86219999999986,179.49861106062488L280.0197249999998,206.51310019586728L283.17724999999984,232.84996181631422L286.33477499999987,260.10005539204224L289.49229999999983,255.94535421995937L292.64982499999985,232.82827506466117L295.8073499999999,254.64475346730802L298.96487499999984,232.2443997147137L302.12239999999986,225.87465648456046L305.2799249999998,262.5332353272671L308.43744999999984,251.16393993640258L311.59497499999986,259.9480939009084L314.7524999999998,274.53038379639713L317.91002499999985,63.64160160084725L321.06754999999987,221.38700581057188L324.22507499999983,250.8616140224412L327.38259999999985,152.09136202774903L330.5401249999999,253.22413663176025L333.69764999999984,220.9539387201719L336.8551749999998,271.31583473103035L340.01269999999977,244.55506428069575L343.1702249999998,130.888020480948L346.3277499999998,254.38965161423224L349.48527499999983,207.72315660890746L352.6427999999998,224.69731049437794L355.8003249999998,273.6168707800925L358.95784999999984,253.36391907592045L362.1153749999998,256.0052830873618L365.2728999999998,241.02107392538844L368.43042499999984,199.07245092211048L371.5879499999998,269.11618179505075L374.74547499999983,268.1218064359091L377.90299999999985,276.56647734101676L381.0605249999998,276.01473373186946L384.2180499999998,279.95675888961733L387.37557499999974,268.0805478139099L390.53309999999976,290.0549444130429L393.6906249999998,250.5945061120883L396.84814999999975,279.4370051891586L400.00567499999977,263.1971930429785L403.1631999999998,258.11683471913665L406.32072499999987,290.774423808218L409.47824999999983,279.73958975732126L412.63577499999985,167.35478569531324L415.7932999999998,217.55928743757121L418.9508249999998,244.74781157855008L422.1083499999998,259.29940755016065L425.2658749999998,292.4730483664927L428.4233999999998,209.44739558408918L431.5809249999998,294.6085453608807L434.73844999999983,285.65848443941894L437.8959749999998,213.6241937760651L441.0534999999998,271.2772304620143L444.21102499999984,267.6887163049223L447.3685499999998,281.2500827147796L450.5260749999998,298.15833509467757L453.68359999999984,273.74908393516387L456.8411249999998,271.952089160097L459.9986499999998,310.13793104870905L463.1561749999998,240.48957963299742L466.31369999999976,298.77193420902256L469.4712249999998,243.72016026048377L472.6287499999998,280.4861822446587L475.78627499999976,181.34897407620346L478.9437999999998,285.98016895234485L482.1013249999998,122.68620047917267L485.25884999999977,264.6183015377122L488.4163749999998,302.70890257021233L491.5738999999998,288.9104670293878L494.7314249999998,243.5705276904671L497.8889499999998,298.342166804091L501.0464749999998,288.1406053133809L504.2039999999998,303.0582508730567L507.3615249999998,303.40009035325085L510.5190499999998,247.85246229479296L513.6765749999997,251.90440056911183L516.8340999999997,317.9601378998843L519.9916249999998,236.63074736604594L523.1491499999997,281.7226140549119L526.3066749999997,170.54100701098753L529.4641999999998,290.843427328652L532.6217249999997,296.950289167341L535.7792499999997,317.67136199993365L538.9367749999998,295.2708745901769L542.0942999999997,304.8661839182248L545.2518249999997,295.6231456875772L548.4093499999998,323.78685761932263L551.5668749999998,257.45073827182125L554.7243999999997,236.3557000205133L557.8819249999998,300.24544130966154L561.0394499999998,282.9405485499526L564.1969749999997,286.8082152669367L567.3544999999997,318.4746731248658L570.5120249999998,306.9804908928999L573.6695499999997,314.18836718199015L576.8270749999997,326.33969266434565L579.9845999999998,296.9215899377485L583.1421249999997,289.48475789739825L586.2996499999997,273.1009795889755L589.4571749999998,302.56679841310455L592.6146999999997,289.0744492789055L595.7722249999997,232.90198722357036L598.9297499999998,242.98318700949775L602.0872749999997,268.8348562820593L605.2447999999997,305.47469694628245L608.4023249999997,299.0592651753965L611.5598499999996,314.46571458547146L614.7173749999997,333.24680426773693L617.8748999999997,291.63720338158925L621.0324249999996,274.6719656159309L624.1899499999997,322.69201623679L627.3474749999997,294.5910109214285L630.5049999999997,303.7427735162886L633.6625249999996,305.1516571274458L636.8200499999997,278.36377979554084L639.9775749999997,296.8195666907471L643.1350999999997,247.13509134301583L646.2926249999996,293.85681133875903L649.4501499999997,302.6093349704682L652.6076749999996,319.5094054178503L655.7651999999997,303.857929430806L658.9227249999997,332.3499708827764L662.0802499999998,321.7079386657334L665.2377749999997,321.39280394709755L668.3952999999997,297.34874304807795L671.5528249999996,262.28883775278297L674.7103499999997,299.1754693958086L677.8678749999997,307.98787807725864L681.0253999999996,316.70739213053537L684.1829249999997,272.5340904441727L687.3404499999996,315.2456311928448L690.4979749999997,293.2090931876941L693.6554999999996,292.74886922641764L696.8130249999997,327.94752872062304L699.9705499999997,332.72591069486987L703.1280749999997,265.17687105847546L706.2855999999996,277.93421157876156L709.4431249999997,296.64981974316026L712.6006499999996,239.88217761727378L715.7581749999997,313.11044903626515L718.9156999999997,328.5712674277015L722.0732249999998,315.700220058901L725.2307499999996,312.5323297060192L728.3882749999996,327.9069339223986L731.5457999999996,340.1707641033471L734.7033249999996,325.51797744304093L737.8608499999997,339.8005113628021L741.0183749999995,321.6949996071097L744.1758999999996,317.6046204828507L747.3334249999996,296.51851774236206L750.4909499999997,317.38498208016216L753.6484749999996,331.9641432830169L756.8059999999997,339.101828495256L759.9635249999995,318.11979501792837L763.1210499999996,308.2946747883968L766.2785749999996,341.5352922455011L769.4360999999997,307.9709709005016L772.5936249999996,311.93562382488494L775.7511499999996,317.75793157672774L778.9086749999997,341.6342417924713L782.0661999999995,326.854077832588L785.2237249999996,304.87365542244027L788.3812499999996,321.66666101960885L791.5387749999996,339.5564491714089L794.6962999999996,353.34450539107183L797.8538249999997,336.4066357137629L801.0113499999995,281.61428207854607L804.1688749999996,323.711466969262L807.3263999999996,327.33467805821937L810.4839249999997,329.1979144868227L813.6414499999996,337.5613558955759L816.7989749999997,268.3704609723109L819.9564999999996,336.3052972526429L823.1140249999996,315.5141849884849L826.2715499999996,350.89318501546165L829.4290749999996,341.3284742310166L832.5865999999996,344.6786674869701L835.7441249999995,340.1590467603072L838.9016499999996,340.97895206455513L842.0591749999995,287.4236437605695L845.2166999999996,340.4247513360705L848.3742249999996,307.3539298988407L851.5317499999996,345.3777147073214L854.6892749999995,335.5375541144184L857.8467999999996,321.11588080004293L861.0043249999995,333.47014946044317L864.1618499999996,288.41803804011715L867.3193749999996,335.20317228634894L870.4768999999997,327.8493828487399L873.6344249999995,338.0021170112325L876.7919499999995,320.4126581692034L879.9494749999996,253.12865112200535L883.1069999999995,325.90267570694476L886.2645249999996,341.6736467220646L889.4220499999996,292.22565419600426L892.5795749999996,349.1120203792725L895.7370999999995,334.10821691767666L898.8946249999996,276.96786290636624L902.0521499999995,335.49705018199506L905.2096749999996,340.62693223740234L908.3671999999996,322.50610794305993L911.5247249999996,288.192526926064L914.6822499999995,305.8460414840908L917.8397749999996,345.7542087085839L920.9972999999995,304.17282326590293L924.1548249999995,328.13077255198004L927.3123499999996,340.3470889793378L930.4698749999994,327.5026085010548L933.6273999999995,351.7905217662304L936.7849249999995,336.49498886375596L939.9424499999996,321.12096250759873L943.0999749999995,355.058733593611L946.2574999999996,312.0448448909753L949.4150249999994,239.82070876423722L952.5725499999995,321.7134331395481L955.7300749999995,349.8047852174083L958.8875999999996,334.2883479400085L962.0451249999995,356.83800382306725L965.2026499999996,339.8428979790748L968.3601749999995,340.604567155284L971.5176999999994,335.65993764075523L974.6752249999995,264.4587598275182L977.8327499999995,338.03072973178365L980.9902749999995,314.9839816428272L984.1477999999995,346.29027062597856L987.3053249999995,326.9227721043061L990.4628499999994,338.03367732297454L993.6203749999995,335.86784506305463L996.7778999999995,344.61728357077067L999.9354249999996,308.45077283642973L1003.0929499999995,350.2316432851111L1006.2504749999996,354.23021102020283L1009.4079999999994,327.84628216164907L1012.5655249999995,259.52478291260275L1015.7230499999995,327.9517911263318L1018.8805749999995,332.179200046104L1022.0380999999995,342.569278214776L1025.1956249999994,273.4153800567053L1028.3531499999995,244.7290747944041L1031.5106749999993,306.8261775381626L1034.6681999999994,261.52137591315727L1037.8257249999995,304.37776340634684L1040.9832499999995,307.9534430988654L1044.1407749999994,324.4380343759473L1047.2982999999995,336.8747167822565L1050.4558249999995,327.1014803195734L1053.6133499999994,356.3623565593886L1056.7708749999995,321.8086275020698L1059.9283999999996,365.14010604938557L1063.0859249999994,342.19652957268636L1066.2434499999995,321.3758189877302L1069.4009749999996,308.96221153865065L1072.5584999999994,346.9842131779832L1075.7160249999995,323.4117352570037L1078.8735499999993,356.4587260191854L1082.0310749999994,364.6821130743107L1085.1885999999995,268.0202708921039L1088.3461249999996,313.6276778008907L1091.5036499999994,359.9592095015081L1094.6611749999995,366.3450120058153L1097.8186999999994,294.4567410279834L1100.9762249999994,318.7522402147922" style="fill: none;" fill="none"></path></g><g><path stroke="rgb(255, 112, 67)" stroke-width="2px" d="M182.1364499999999,-35.123878397597366L185.2939749999999,26.02463149505644L188.4514999999999,26.39299611839158L191.60902499999992,56.09731078721944L194.7665499999999,69.94756103659455L197.9240749999999,55.02409335708205L201.08159999999992,53.40394099580044L204.2391249999999,63.62336740790505L207.39664999999988,58.87509433752683L210.5541749999999,69.20353241519331L213.7116999999999,43.41264212982861L216.8692249999999,92.42356226032973L220.0267499999999,103.63190021693066L223.1842749999999,121.61013552936589L226.3417999999999,108.30117768637149L229.49932499999989,109.88784358113577L232.65684999999988,95.93160564530211L235.81437499999987,91.40224261511077L238.9718999999999,123.71599207993486L242.12942499999988,100.71341345959462L245.28694999999988,100.87543495483635L248.4444749999999,107.7107519274349L251.60199999999986,149.3542494645039L254.75952499999985,159.37606039479635L257.91704999999985,123.20270415167326L261.07457499999987,139.7934531890678L264.2320999999999,108.80643105103826L267.38962499999985,123.51677672631334L270.5471499999999,150.57609564041903L273.7046749999999,85.2497829684566L276.86219999999986,138.45639667983923L280.0197249999998,168.55170938225865L283.17724999999984,155.67083557560719L286.33477499999987,169.55944874777245L289.49229999999983,154.91922866726202L292.64982499999985,143.76948983307318L295.8073499999999,139.12881900281843L298.96487499999984,158.09181579024582L302.12239999999986,136.65563623143444L305.2799249999998,114.52681390986459L308.43744999999984,166.22661901465787L311.59497499999986,165.64003864621955L314.7524999999998,191.42360727860898L317.91002499999985,155.32124851697935L321.06754999999987,170.96867406379394L324.22507499999983,152.86619898760824L327.38259999999985,145.966409059131L330.5401249999999,175.32151750851648L333.69764999999984,132.0627383516099L336.8551749999998,165.68587043545546L340.01269999999977,176.1932104692656L343.1702249999998,188.32959745430608L346.3277499999998,197.5085371728457L349.48527499999983,174.25496447374746L352.6427999999998,171.58563228751933L355.8003249999998,162.69094548885502L358.95784999999984,162.27726035314777L362.1153749999998,167.82978189183984L365.2728999999998,137.78835124882622L368.43042499999984,180.07195167765923L371.5879499999998,193.2277287301051L374.74547499999983,202.37907347269905L377.90299999999985,195.36910482695063L381.0605249999998,188.47155656098062L384.2180499999998,175.41035520350331L387.37557499999974,175.3802049991819L390.53309999999976,184.54316783509444L393.6906249999998,170.51084166153697L396.84814999999975,157.13016558995668L400.00567499999977,176.7598451938126L403.1631999999998,204.81852815165644L406.32072499999987,226.7000716048934L409.47824999999983,188.4919213017508L412.63577499999985,203.0028301560786L415.7932999999998,172.20531653100892L418.9508249999998,175.37871686051054L422.1083499999998,198.7417870712825L425.2658749999998,153.67653471926923L428.4233999999998,185.73359396339475L431.5809249999998,220.31364422703373L434.73844999999983,211.9620916910949L437.8959749999998,225.48401669436683L441.0534999999998,199.6709612165114L444.21102499999984,192.11661493246913L447.3685499999998,190.08438362461388L450.5260749999998,199.31532859537933L453.68359999999984,180.6783582860281L456.8411249999998,160.88963452708145L459.9986499999998,203.8813500276456L463.1561749999998,216.72175024466074L466.31369999999976,228.83277036049964L469.4712249999998,202.43038127760653L472.6287499999998,212.05562351128083L475.78627499999976,200.39180624354398L478.9437999999998,178.40146636177022L482.1013249999998,221.66385638803004L485.25884999999977,188.05701911973713L488.4163749999998,189.9521334408678L491.5738999999998,205.34071166323483L494.7314249999998,230.06665591268344L497.8889499999998,237.56055301907426L501.0464749999998,207.38483245338713L504.2039999999998,214.73594637918157L507.3615249999998,196.3576299805559L510.5190499999998,198.7876061552943L513.6765749999997,214.00351273335423L516.8340999999997,161.39286749428393L519.9916249999998,212.52983122782192L523.1491499999997,234.05376294377413L526.3066749999997,234.13737912917213L529.4641999999998,236.94422454203837L532.6217249999997,223.5039508571408L535.7792499999997,210.80026131611015L538.9367749999998,205.75303793271166L542.0942999999997,216.7558621439719L545.2518249999997,201.585719892754L548.4093499999998,174.24382622372167L551.5668749999998,224.91023891075858L554.7243999999997,232.01266584944395L557.8819249999998,254.2212618376641L561.0394499999998,217.10226787055151L564.1969749999997,231.2864844065473L567.3544999999997,208.57436928749215L570.5120249999998,200.69849975923478L573.6695499999997,231.66858618591976L576.8270749999997,179.52426183762577L579.9845999999998,217.5588403961349L583.1421249999997,236.85635106735774L586.2996499999997,240.59943584411548L589.4571749999998,255.9334141908725L592.6146999999997,224.14068217358508L595.7722249999997,223.47223413638602L598.9297499999998,227.32537012801626L602.0872749999997,212.575032031682L605.2447999999997,206.62975365776288L608.4023249999997,189.40250437307094L611.5598499999996,223.94283980617422L614.7173749999997,241.19752411919097L617.8748999999997,253.3433486732535L621.0324249999996,231.6020148144009L624.1899499999997,238.19608658469363L627.3474749999997,225.43676414131434L630.5049999999997,202.78146780880797L633.6625249999996,242.22349167214844L636.8200499999997,212.45729006588647L639.9775749999997,208.22785572972612L643.1350999999997,220.47145349337276L646.2926249999996,255.30217129314912L649.4501499999997,264.32831168268564L652.6076749999996,225.852992035172L655.7651999999997,246.25947033243884L658.9227249999997,214.01637740551658L662.0802499999998,222.53962196121378L665.2377749999997,244.40397952114017L668.3952999999997,175.3210129605346L671.5528249999996,231.63865256370684L674.7103499999997,258.72634624855425L677.8678749999997,250.23340311347752L681.0253999999996,257.7942599112346L684.1829249999997,243.76062920598804L687.3404499999996,236.19029519501302L690.4979749999997,221.09419086163476L693.6554999999996,241.87936377833583L696.8130249999997,216.128655948276L699.9705499999997,195.97448270077467L703.1280749999997,244.66146606658296L706.2855999999996,251.12097786315744L709.4431249999997,269.32959778087314L712.6006499999996,234.54800761761203L715.7581749999997,248.65338837488756L718.9156999999997,230.31279286714746L722.0732249999998,220.80022227256555L725.2307499999996,247.51595044331998L728.3882749999996,202.460292129019L731.5457999999996,240.70098420333863L734.7033249999996,247.72704945863094L737.8608499999997,257.8546518822083L741.0183749999995,267.34952052081127L744.1758999999996,248.9244932273159L747.3334249999996,243.94748641675213L750.4909499999997,233.26156188425097L753.6484749999996,229.68024689911945L756.8059999999997,230.58895662550523L759.9635249999995,204.5730251943724L763.1210499999996,241.59248045461382L766.2785749999996,264.6272515095117L769.4360999999997,265.6015134995533L772.5936249999996,253.33409250157663L775.7511499999996,252.4685522718537L778.9086749999997,244.0947395119706L782.0661999999995,230.10250708818276L785.2237249999996,248.43441327440627L788.3812499999996,231.12244799984157L791.5387749999996,220.14548425035264L794.6962999999996,232.53274681806965L797.8538249999997,265.1254720235179L801.0113499999995,282.1714554923104L804.1688749999996,250.0680549165525L807.3263999999996,260.77483649719034L810.4839249999997,227.28801486452699L813.6414499999996,232.27130892096048L816.7989749999997,254.46719198051255L819.9564999999996,204.2327105085767L823.1140249999996,244.40015658896712L826.2715499999996,271.3857969760076L829.4290749999996,264.55216670563607L832.5865999999996,274.5900980831027L835.7441249999995,256.9494968467599L838.9016499999996,248.04176268832347L842.0591749999995,243.10415099438745L845.2166999999996,251.19489990261042L848.3742249999996,229.7063474128465L851.5317499999996,216.3550097270275L854.6892749999995,253.25254982435337L857.8467999999996,267.69222354214173L861.0043249999995,278.3900935531744L864.1618499999996,252.4913255978135L867.3193749999996,263.0550285221169L870.4768999999997,245.57924706361325L873.6344249999995,224.96566910139333L876.7919499999995,263.9428965416046L879.9494749999996,232.20975977582705L883.1069999999995,243.11333503019318L886.2645249999996,252.52623372683138L889.4220499999996,275.45331086436863L892.5795749999996,279.5376896368878L895.7370999999995,255.3944306050791L898.8946249999996,262.6057501255337L902.0521499999995,244.5144673441428L905.2096749999996,239.51955435322847L908.3671999999996,256.7241010923955L911.5247249999996,213.37897022263655L914.6822499999995,249.23827914348607L917.8397749999996,277.55694433316614L920.9972999999995,274.78825909242744L924.1548249999995,281.7690886279713L927.3123499999996,262.711572624235L930.4698749999994,255.50927988218297L933.6273999999995,245.59570756709223L936.7849249999995,258.6536813520496L939.9424499999996,244.01688436807208L943.0999749999995,220.49344234226692L946.2574999999996,259.1384152077958L949.4150249999994,273.8068451741512L952.5725499999995,294.7999017097127L955.7300749999995,260.24903908853275L958.8875999999996,271.8250485230692L962.0451249999995,244.72323513654635L965.2026499999996,234.5691249414747L968.3601749999995,270.9006243527661L971.5176999999994,220.9545552068033L974.6752249999995,253.12672070588616L977.8327499999995,281.5821788739281L980.9902749999995,276.5690333821274L984.1477999999995,288.8538661961496L987.3053249999995,262.7255087586025L990.4628499999994,263.5309288342128L993.6203749999995,256.955068509315L996.7778999999995,250.5278080860199L999.9354249999996,244.47114576126393L1003.0929499999995,226.64029916726028L1006.2504749999996,261.5585783334733L1009.4079999999994,279.3256153885759L1012.5655249999995,288.5546185091057L1015.7230499999995,263.8908034828029L1018.8805749999995,273.0449173383242L1022.0380999999995,264.9905564483504L1025.1956249999994,236.6356261679352L1028.3531499999995,277.7012388124976L1031.5106749999993,244.56575578358965L1034.6681999999994,242.4651215231237L1037.8257249999995,253.91853567089166L1040.9832499999995,289.29911035956246L1044.1407749999994,299.12513349923756L1047.2982999999995,258.9590920503473L1050.4558249999995,276.7044545197881L1053.6133499999994,246.8895769706122L1056.7708749999995,255.19206357633217L1059.9283999999996,272.47584628474414L1063.0859249999994,211.09546698867013L1066.2434499999995,263.15665095793395L1069.4009749999996,293.62162290708113L1072.5584999999994,282.9936711343487L1075.7160249999995,290.61174425691956L1078.8735499999993,273.9269562632991L1082.0310749999994,269.1114986640912L1085.1885999999995,253.45315943528726L1088.3461249999996,269.9117433700938L1091.5036499999994,248.14971685681232L1094.6611749999995,224.87591003597367L1097.8186999999994,275.1800721195915L1100.9762249999994,283.3241698743739" style="fill: none;" fill="none"></path></g></g></g></g><g opacity="0.2"><g><g><g><path stroke="rgb(0, 119, 187)" stroke-width="2px" d="M166.34882499999992,-12.772244453428982L169.5063499999999,20.11734085816721L172.66387499999993,25.94044964130228L175.82139999999993,90.7655378855203L178.9789249999999,14.580716756675145L182.1364499999999,94.39936990004429L185.2939749999999,130.89523062339302L188.4514999999999,39.42966666588535L191.60902499999992,171.9583816161533L194.7665499999999,154.91522939388676L197.9240749999999,182.46836592601L201.08159999999992,157.74680031263014L204.2391249999999,186.67360749611592L207.39664999999988,184.39698149607835L210.5541749999999,193.87367985798866L213.7116999999999,123.70226405217204L216.8692249999999,206.86219860957323L220.0267499999999,192.55321598053084L223.1842749999999,-2.0125175989578565L226.3417999999999,213.90958312841664L229.49932499999989,196.9277833425092L232.65684999999988,209.65148140834032L235.81437499999987,151.18780891712L238.9718999999999,211.6781915517964L242.12942499999988,97.70130949754093L245.28694999999988,237.71710142722594L248.4444749999999,220.22853744947093L251.60199999999986,170.14605837601988L254.75952499999985,243.96083835455187L257.91704999999985,101.58557730454777L261.07457499999987,237.4370292883663L264.2320999999999,119.68541259032139L267.38962499999985,254.78122439751354L270.5471499999999,248.04424161177513L273.7046749999999,96.71221810120915L276.86219999999986,188.32700366240383L280.0197249999998,210.19689416885478L283.17724999999984,236.44135203728408L286.33477499999987,263.8159772432777L289.49229999999983,255.37880406013L292.64982499999985,229.6759460889386L295.8073499999999,257.61972779494164L298.96487499999984,229.18980602117784L302.12239999999986,225.00605513499434L305.2799249999998,267.5321324421819L308.43744999999984,249.61358147401174L311.59497499999986,261.1459330778865L314.7524999999998,276.51887787305486L317.91002499999985,34.88404039236332L321.06754999999987,242.89774274826146L324.22507499999983,254.88087877860534L327.38259999999985,138.6226913012002L330.5401249999999,267.0149695323073L333.69764999999984,216.55345718677327L336.8551749999998,278.1833660052382L340.01269999999977,240.90586831019573L343.1702249999998,115.3879690537097L346.3277499999998,271.23078313240734L349.48527499999983,201.3595436536359L352.6427999999998,227.01196784239647L355.8003249999998,280.28771990996233L358.95784999999984,250.6021529344422L362.1153749999998,256.36546908892217L365.2728999999998,238.97777267602874L368.43042499999984,193.3521841489362L371.5879499999998,278.66759964136077L374.74547499999983,267.9862097960262L377.90299999999985,277.7180233735314L381.0605249999998,275.93949596698565L384.2180499999998,280.4943077747648L387.37557499999974,266.46106448540417L390.53309999999976,293.0514530401973L393.6906249999998,245.2135372528673L396.84814999999975,283.37007324512285L400.00567499999977,260.9826732048631L403.1631999999998,257.4240585840675L406.32072499999987,295.2277314112746L409.47824999999983,278.23483965947173L412.63577499999985,152.02958514140306L415.7932999999998,224.4053558569698L418.9508249999998,248.45533759777462L422.1083499999998,261.2837160917438L425.2658749999998,296.99672665962896L428.4233999999998,198.12571565921593L431.5809249999998,306.22142942135247L434.73844999999983,284.4380215864925L437.8959749999998,203.80133595833513L441.0534999999998,279.1390081919166L444.21102499999984,267.1993734653189L447.3685499999998,283.0993599524874L450.5260749999998,300.4640058737544L453.68359999999984,270.4205496861394L456.8411249999998,271.70704441804247L459.9986499999998,315.3450913062472L463.1561749999998,230.99207716721855L466.31369999999976,306.71952801484423L469.4712249999998,236.21310017659212L472.6287499999998,285.4997306970459L475.78627499999976,167.83026387141405L478.9437999999998,300.2480591627277L482.1013249999998,100.41884114192197L485.25884999999977,283.97267895478564L488.4163749999998,307.9030754382803L491.5738999999998,287.02886218291155L494.7314249999998,237.38780868970528L497.8889499999998,305.8110266832214L501.0464749999998,286.74948329192034L504.2039999999998,305.0924752675579L507.3615249999998,303.4467048278231L510.5190499999998,240.27778574136687L513.6765749999997,252.45693760651906L516.8340999999997,326.96773844498944L519.9916249999998,225.54037592961336L523.1491499999997,287.8715049670302L526.3066749999997,155.37987877772508L529.4641999999998,307.24830282651556L532.6217249999997,297.78304305443487L535.7792499999997,320.4969628407414L538.9367749999998,292.2162626706646L542.0942999999997,306.1746351902311L545.2518249999997,294.362731383398L548.4093499999998,327.6273637918335L551.5668749999998,248.4049038153438L554.7243999999997,233.47910389533507L557.8819249999998,308.957678758182L561.0394499999998,280.58079044635576L564.1969749999997,287.33562436470714L567.3544999999997,322.79282646912884L570.5120249999998,305.41310240672277L573.6695499999997,315.17125940322967L576.8270749999997,327.99669159375793L579.9845999999998,292.9100304750305L583.1421249999997,288.4706444373507L586.2996499999997,270.86682800146343L589.4571749999998,306.58486461639495L592.6146999999997,287.2345834878784L595.7722249999997,225.2421060342065L598.9297499999998,244.35789607121492L602.0872749999997,272.3600839101361L605.2447999999997,310.4710388550401L608.4023249999997,298.18443357027587L611.5598499999996,316.5665940504817L614.7173749999997,335.8078619516822L617.8748999999997,285.96316689711443L621.0324249999996,272.35852410243206L624.1899499999997,329.2402049578162L627.3474749999997,290.75905565115215L630.5049999999997,304.99074114286077L633.6625249999996,305.34377761987633L636.8200499999997,274.71088743209936L639.9775749999997,299.3362649037297L643.1350999999997,240.3599356137799L646.2926249999996,300.22795497454223L649.4501499999997,303.80286092024676L652.6076749999996,321.8139604788569L655.7651999999997,301.72363725075445L658.9227249999997,336.23524926259057L662.0802499999998,320.2567524543185L665.2377749999997,321.3498310309199L668.3952999999997,294.07000747093883L671.5528249999996,257.5079415761517L674.7103499999997,304.20546461985754L677.8678749999997,309.1895701701834L681.0253999999996,317.8964167741638L684.1829249999997,266.5104583960323L687.3404499999996,321.06993220402734L690.4979749999997,290.2041107324463L693.6554999999996,292.68611141351647L696.8130249999997,332.74734592437835L699.9705499999997,333.3775082368126L703.1280749999997,255.9656383807852L706.2855999999996,279.673848922437L709.4431249999997,299.2019481292147L712.6006499999996,232.14113550919853L715.7581749999997,323.0961224115821L718.9156999999997,330.67956084471575L722.0732249999998,313.945077235883L725.2307499999996,312.10034465789886L728.3882749999996,330.00347086099566L731.5457999999996,341.8431045825674L734.7033249999996,323.5198701711811L737.8608499999997,341.7481296245877L741.0183749999995,319.2260661858788L744.1758999999996,317.0468415113605L747.3334249999996,293.64314009593176L750.4909499999997,320.2304090353168L753.6484749999996,333.9522107197697L756.8059999999997,340.0751492060157L759.9635249999995,315.2586086346562L763.1210499999996,306.9548856661879L766.2785749999996,346.06810371692455L769.4360999999997,303.3940179898198L772.5936249999996,312.4762583145738L775.7511499999996,318.55188263379705L778.9086749999997,344.89010227643615L782.0661999999995,324.8386009289677L785.2237249999996,301.8763250937838L788.3812499999996,323.9566163283137L791.5387749999996,341.9959657375638L794.6962999999996,355.22469487557134L797.8538249999997,334.0969262123117L801.0113499999995,274.1425974919255L804.1688749999996,329.45199218163214L807.3263999999996,327.82875229762243L810.4839249999997,329.45199218163214L813.6414499999996,338.7018251785874L816.7989749999997,258.93533893732024L819.9564999999996,345.56913856359716L823.1140249999996,312.67903331609966L826.2715499999996,355.7175941100496L829.4290749999996,340.0241954876835L832.5865999999996,345.1355120218726L835.7441249999995,339.5427348430349L838.9016499999996,341.0907573333162L842.0591749999995,280.1206471736624L845.2166999999996,347.652175096366L848.3742249999996,302.84427243012743L851.5317499999996,350.5627762721144L854.6892749999995,334.1957140335679L857.8467999999996,319.14928898444634L861.0043249999995,335.15482245958856L864.1618499999996,282.27456830098174L867.3193749999996,341.5829633199261L870.4768999999997,326.8465933799753L873.6344249999995,339.38658076066326L876.7919499999995,318.0140955998356L879.9494749999996,243.95355925193297L883.1069999999995,335.82640633216363L886.2645249999996,343.82423367867193L889.4220499999996,285.4827461242685L892.5795749999996,356.8692521315363L895.7370999999995,332.0622437183683L898.8946249999996,269.17599645027843L902.0521499999995,343.4783029923081L905.2096749999996,341.3264616085942L908.3671999999996,320.0350864483769L911.5247249999996,283.5134022419279L914.6822499999995,308.253338923822L917.8397749999996,351.1962315119239L920.9972999999995,298.5026343419011L924.1548249999995,331.397765636445L927.3123499999996,342.0129503103412L930.4698749999994,325.75108843583416L933.6273999999995,355.10250993875445L936.7849249999995,334.409234377055L939.9424499999996,319.02450436812273L943.0999749999995,359.68661146897625L946.2574999999996,306.1793146133432L949.4150249999994,229.97196292877297L952.5725499999995,332.88062282709063L955.7300749999995,353.6354241371164L958.8875999999996,332.17247012945415L962.0451249999995,359.9129568980299L965.2026499999996,337.5253835458031L968.3601749999995,340.708431133858L971.5176999999994,334.9856699796832L974.6752249999995,254.7495083075313L977.8327499999995,348.0632710823655L980.9902749999995,311.84124326706024L984.1477999999995,350.5593100327721L987.3053249999995,324.2817495786236L990.4628499999994,339.54880076188397L993.6203749999995,335.5725043003385L996.7778999999995,345.8103888218228L999.9354249999996,303.5189759181105L1003.0929499999995,355.92903470993133L1006.2504749999996,354.77547025680633L1009.4079999999994,324.2484736809373L1012.5655249999995,250.20821483318718L1015.7230499999995,337.2827467918405L1018.8805749999995,332.7556648987999L1022.0380999999995,343.98610705595837L1025.1956249999994,263.9853030351502L1028.3531499999995,240.81730589499938L1031.5106749999993,315.2939642759479L1034.6681999999994,255.3434484188383L1037.8257249999995,310.2218162463271L1040.9832499999995,308.4410357842088L1044.1407749999994,326.6859331864586L1047.2982999999995,338.5706280194805L1050.4558249999995,325.76876625648003L1053.6133499999994,360.3524760466364L1056.7708749999995,317.09675535788995L1059.9283999999996,371.0489440331101L1063.0859249999994,339.0678600531367L1066.2434499999995,318.5366311806908L1069.4009749999996,307.2694468865037L1072.5584999999994,352.16903158334674L1075.7160249999995,320.1973064495976L1078.8735499999993,360.96513385039196L1082.0310749999994,365.8034840363731L1085.1885999999995,254.83911059453033L1088.3461249999996,319.8468696520888L1091.5036499999994,366.2771456425015L1094.6611749999995,367.2158032564025L1097.8186999999994,284.65379498555205L1100.9762249999994,322.06526283117535" style="fill: none;" fill="none"></path></g><g><path stroke="rgb(255, 112, 67)" stroke-width="2px" d="M175.82139999999993,-56.82502687894254L178.9789249999999,2.214214655070407L182.1364499999999,-39.18325512225687L185.2939749999999,34.363064619212196L188.4514999999999,26.443227657906164L191.60902499999992,60.147899150849526L194.7665499999999,71.83623152512882L197.9240749999999,52.98907503715043L201.08159999999992,53.18301112835337L204.2391249999999,65.01692555501029L207.39664999999988,58.227602555202736L210.5541749999999,70.61195578942045L213.7116999999999,39.89570254546061L216.8692249999999,99.10686955085276L220.0267499999999,105.16030993828514L223.1842749999999,124.0617130719709L226.3417999999999,106.48631979869072L229.49932499999989,110.10420711224009L232.65684999999988,94.02848229041575L235.81437499999987,90.78460220190311L238.9718999999999,128.122412461502L242.12942499999988,97.57669819318443L245.28694999999988,100.89752879509666L248.4444749999999,108.64284060551682L251.60199999999986,155.03290821955858L254.75952499999985,160.7426709761997L257.91704999999985,118.26997375488389L261.07457499999987,142.0558280578037L264.2320999999999,104.58092803221592L267.38962499999985,125.52273295475993L270.5471499999999,154.26600276506971L273.7046749999999,76.34164942227989L276.86219999999986,145.71184400411857L280.0197249999998,172.6556156598615L283.17724999999984,153.9143527837911L286.33477499999987,171.45335054397688L289.49229999999983,152.92283501991963L292.64982499999985,142.24907090113823L295.8073499999999,138.49600025323826L298.96487499999984,160.67767898853114L302.12239999999986,133.7325208370513L305.2799249999998,111.50924722965055L308.43744999999984,173.27659243803865L311.59497499999986,165.5600504141598L314.7524999999998,194.93954845575288L317.91002499999985,150.3981995949389L321.06754999999987,173.1024139110869L324.22507499999983,150.39767965903755L327.38259999999985,145.0255286143387L330.5401249999999,179.3244868425233L333.69764999999984,126.16381392112251L336.8551749999998,170.2708429923435L340.01269999999977,177.62602956478514L343.1702249999998,189.98455931590257L346.3277499999998,198.7602107708281L349.48527499999983,171.08402274205238L352.6427999999998,171.2216324439426L355.8003249999998,161.47803365267347L358.95784999999984,162.22084874373323L362.1153749999998,168.58694391984312L365.2728999999998,133.69179252477903L368.43042499999984,185.8378971906819L371.5879499999998,195.02169832816594L374.74547499999983,203.6269841194163L377.90299999999985,194.4132000116212L381.0605249999998,187.53098179743944L384.2180499999998,173.62928229111998L387.37557499999974,175.3760936076835L390.53309999999976,185.7926627672646L393.6906249999998,168.59734263787007L396.84814999999975,155.30552794383226L400.00567499999977,179.43661968524745L403.1631999999998,208.64471219136266L406.32072499999987,229.68391843942595L409.47824999999983,183.28171898768602L412.63577499999985,204.981590454396L415.7932999999998,168.0056555821356L418.9508249999998,175.81145326907924L422.1083499999998,201.92766028184258L425.2658749999998,147.53127303490376L428.4233999999998,190.10501113304827L431.5809249999998,225.02910562662078L434.73844999999983,210.8232436180125L437.8959749999998,227.3279155584492L441.0534999999998,196.15099910589467L444.21102499999984,191.08647680282698L447.3685499999998,189.80726117354277L450.5260749999998,200.57409381866557L453.68359999999984,178.13695324384352L456.8411249999998,158.19117219631596L459.9986499999998,209.74385668681322L463.1561749999998,218.47271391061736L466.31369999999976,230.48427310356826L469.4712249999998,198.8300554935759L472.6287499999998,213.36815654314583L475.78627499999976,198.80128570703462L478.9437999999998,175.40278365061937L482.1013249999998,227.56327320979292L485.25884999999977,183.47426858315205L488.4163749999998,190.21055812102202L491.5738999999998,207.43915414810283L494.7314249999998,233.4383755830628L497.8889499999998,238.58244807903682L501.0464749999998,203.26996146715706L504.2039999999998,215.7383710054261L507.3615249999998,193.85149592619777L510.5190499999998,199.1189665427585L513.6765749999997,216.07840908490795L516.8340999999997,154.218688598047L519.9916249999998,219.5030535551228L523.1491499999997,236.98884454140395L526.3066749999997,234.14878133627184L529.4641999999998,237.32697618924752L532.6217249999997,221.67118626374565L535.7792499999997,209.0679400150603L538.9367749999998,205.06478019861177L542.0942999999997,218.25624726368932L545.2518249999997,199.51706413122426L548.4093499999998,170.51538617794438L551.5668749999998,231.81929518626387L554.7243999999997,232.9811786138104L557.8819249999998,257.24970674514867L561.0394499999998,212.0405868750362L564.1969749999997,233.22069575236495L567.3544999999997,205.47726268034816L570.5120249999998,199.62451755083626L573.6695499999997,235.89177978955883L576.8270749999997,172.4136721537674L579.9845999999998,222.74537383593145L583.1421249999997,239.4878297952515L586.2996499999997,241.1098564954914L589.4571749999998,258.02441123815777L592.6146999999997,219.80530962577333L595.7722249999997,223.38108213131343L598.9297499999998,227.85079776323857L602.0872749999997,210.5636222912725L605.2447999999997,205.8190338795012L608.4023249999997,187.05333401606737L611.5598499999996,228.65288554705205L614.7173749999997,243.55043561642086L617.8748999999997,254.99959747607988L621.0324249999996,228.6372874700116L624.1899499999997,239.09527818973348L627.3474749999997,223.69685653539906L630.5049999999997,199.69210921801155L633.6625249999996,247.60194947169475L636.8200499999997,208.39826257412352L639.9775749999997,207.65111468388585L643.1350999999997,222.1410350065975L646.2926249999996,260.05181462948235L649.4501499999997,265.5591490085318L652.6076749999996,220.6063575377841L655.7651999999997,249.04217191842986L658.9227249999997,209.61959200639092L662.0802499999998,223.70188258244542L665.2377749999997,247.3854828247667L668.3952999999997,165.90060842954298L671.5528249999996,239.31833069141194L674.7103499999997,262.4201226601243L677.8678749999997,249.07527450414904L681.0253999999996,258.82528583820147L684.1829249999997,241.84695229163634L687.3404499999996,235.1579769207891L690.4979749999997,219.03563117981057L693.6554999999996,244.71370553970434L696.8130249999997,212.6171957896316L699.9705499999997,193.22618634884276L703.1280749999997,251.30060016192022L706.2855999999996,252.0018203808721L709.4431249999997,271.8125914060162L712.6006499999996,229.80506350444014L715.7581749999997,250.57684938724321L718.9156999999997,227.81180257063744L722.0732249999998,219.5030535551228L725.2307499999996,251.1590042847863L728.3882749999996,196.31633872252345L731.5457999999996,245.91562403165474L734.7033249999996,248.6851492661706L737.8608499999997,259.23568857633245L741.0183749999995,268.6442753351661L744.1758999999996,246.41198950547536L747.3334249999996,243.26880366985714L750.4909499999997,231.80439035709188L753.6484749999996,229.19188576478325L756.8059999999997,230.71287158819445L759.9635249999995,201.02539818103597L763.1210499999996,246.64058799010155L766.2785749999996,267.7683566533612L769.4360999999997,265.7343674072862L772.5936249999996,251.66126236548888L775.7511499999996,252.35052405870977L778.9086749999997,242.9528559538044L782.0661999999995,228.19447539402987L785.2237249999996,250.9342186634367L788.3812499999996,228.761725462401L791.5387749999996,218.64862555724022L794.6962999999996,234.22191898639485L797.8538249999997,269.5699345515334L801.0113499999995,284.4959077835092L804.1688749999996,245.69031847440377L807.3263999999996,262.2348521672772L810.4839249999997,222.72163009643654L813.6414499999996,232.9508490195651L816.7989749999997,257.4939033068153L819.9564999999996,197.38255394422194L823.1140249999996,249.87753559992962L826.2715499999996,275.06565702878606L829.4290749999996,263.6203080324036L832.5865999999996,275.95890690730266L835.7441249999995,254.54396031453155L838.9016499999996,246.8270716667185L842.0591749999995,242.43084030885063L845.2166999999996,252.29818384464068L848.3742249999996,226.77609025515142L851.5317499999996,214.5343727698703L854.6892749999995,258.28403256489776L857.8467999999996,269.6612699582036L861.0043249999995,279.8488940092243L864.1618499999996,248.95967542208254L867.3193749999996,264.4955334663401L870.4768999999997,243.19618595563546L873.6344249999995,222.15472665199968L876.7919499999995,269.25797301072436L879.9494749999996,227.88251385322084L883.1069999999995,244.60018620124328L886.2645249999996,253.80981082182763L889.4220499999996,278.5797304740329L892.5795749999996,280.09465037859496L895.7370999999995,252.10216800983233L898.8946249999996,263.5891118783227L902.0521499999995,242.0474742375897L905.2096749999996,238.83842985446736L908.3671999999996,259.07017564773656L911.5247249999996,207.46827055857835L914.6822499999995,254.12818490541997L917.8397749999996,281.41858049539513L920.9972999999995,274.4107111050542L924.1548249999995,282.7210199282729L927.3123499999996,260.1128204419073L930.4698749999994,254.5271490537213L933.6273999999995,244.2438567968525L936.7849249999995,260.43431414090765L939.9424499999996,242.02095750662096L943.0999749999995,217.28570024783895L946.2574999999996,264.4081842349135L949.4150249999994,275.8070856241089L952.5725499999995,297.6625912372892L955.7300749999995,255.53755782200835L958.8875999999996,273.4035952641423L962.0451249999995,241.02753331111126L965.2026499999996,233.18447355123766L968.3601749999995,275.85491972703295L971.5176999999994,214.14372759599053L974.6752249999995,257.5138341830337L977.8327499999995,285.4624686241159L980.9902749999995,275.8854226332454L984.1477999999995,290.52907067078905L987.3053249999995,259.16255092620946L990.4628499999994,263.6407588445233L993.6203749999995,256.05836028319237L996.7778999999995,249.65136348284304L999.9354249999996,243.64523726243337L1003.0929499999995,224.20882008626012L1006.2504749999996,266.3201618561387L1009.4079999999994,281.74839316881713L1012.5655249999995,289.81311893463226L1015.7230499999995,260.5275559792161L1018.8805749999995,274.2932055913495L1022.0380999999995,263.89223450880877L1025.1956249999994,232.7690447660603L1028.3531499999995,283.3010950822106L1031.5106749999993,240.0472808251024L1034.6681999999994,242.17867139669664L1037.8257249999995,255.48036487286004L1040.9832499999995,294.1237341807448L1044.1407749999994,300.4650457455571L1047.2982999999995,253.48190458004387L1050.4558249999995,279.1242766747117L1053.6133499999994,242.82391185027L1056.7708749999995,256.3242208407485L1059.9283999999996,274.832725744982L1063.0859249999994,202.72541526647817L1066.2434499999995,270.2559033173791L1069.4009749999996,297.77593726378313L1072.5584999999994,281.5444049835215L1075.7160249999995,291.65057240999755L1078.8735499999993,271.6517579005324L1082.0310749999994,268.4548453551082L1085.1885999999995,251.31793135863182L1088.3461249999996,272.1560957248404L1091.5036499999994,245.18216778681926L1094.6611749999995,221.70220910585942L1097.8186999999994,282.03973058553936L1100.9762249999994,284.43472865911724" style="fill: none;" fill="none"></path></g></g></g></g></g></g><g transform="translate(60, 378)" clip-path="url(#clip_1)"><clipPath id="clip_1"><rect width="1263" height="21"></rect></clipPath><g><g><line x1="156.87624999999994" y1="0" x2="156.87624999999994" y2="5" style="visibility: inherit;" fill="rgb(0, 0, 0)" stroke="rgb(204, 204, 204)" stroke-width="1px"></line><line x1="314.7524999999998" y1="0" x2="314.7524999999998" y2="5" style="visibility: inherit;" fill="rgb(0, 0, 0)" stroke="rgb(204, 204, 204)" stroke-width="1px"></line><line x1="472.6287499999998" y1="0" x2="472.6287499999998" y2="5" style="visibility: inherit;" fill="rgb(0, 0, 0)" stroke="rgb(204, 204, 204)" stroke-width="1px"></line><line x1="630.5049999999997" y1="0" x2="630.5049999999997" y2="5" style="visibility: inherit;" fill="rgb(0, 0, 0)" stroke="rgb(204, 204, 204)" stroke-width="1px"></line><line x1="788.3812499999996" y1="0" x2="788.3812499999996" y2="5" style="visibility: inherit;" fill="rgb(0, 0, 0)" stroke="rgb(204, 204, 204)" stroke-width="1px"></line><line x1="946.2574999999996" y1="0" x2="946.2574999999996" y2="5" style="visibility: inherit;" fill="rgb(0, 0, 0)" stroke="rgb(204, 204, 204)" stroke-width="1px"></line><line x1="1104.1337499999995" y1="0" x2="1104.1337499999995" y2="5" style="visibility: inherit;" fill="rgb(0, 0, 0)" stroke="rgb(204, 204, 204)" stroke-width="1px"></line><line x1="1262.0099999999993" y1="0" x2="1262.0099999999993" y2="5" style="visibility: inherit;" fill="rgb(0, 0, 0)" stroke="rgb(204, 204, 204)" stroke-width="1px"></line></g><g transform="translate(0, 8)"><text x="156.87624999999994" y="0" dx="0em" dy="0.95em" style="text-anchor: middle; visibility: inherit; font-family: &quot;Helvetica Neue&quot;, sans-serif; font-size: 12px; font-weight: 200;" fill="rgb(50, 49, 63)" stroke="none" stroke-width="1px">0</text><text x="314.7524999999998" y="0" dx="0em" dy="0.95em" style="text-anchor: middle; visibility: inherit; font-family: &quot;Helvetica Neue&quot;, sans-serif; font-size: 12px; font-weight: 200;" fill="rgb(50, 49, 63)" stroke="none" stroke-width="1px">50</text><text x="472.6287499999998" y="0" dx="0em" dy="0.95em" style="text-anchor: middle; visibility: inherit; font-family: &quot;Helvetica Neue&quot;, sans-serif; font-size: 12px; font-weight: 200;" fill="rgb(50, 49, 63)" stroke="none" stroke-width="1px">100</text><text x="630.5049999999997" y="0" dx="0em" dy="0.95em" style="text-anchor: middle; visibility: inherit; font-family: &quot;Helvetica Neue&quot;, sans-serif; font-size: 12px; font-weight: 200;" fill="rgb(50, 49, 63)" stroke="none" stroke-width="1px">150</text><text x="788.3812499999996" y="0" dx="0em" dy="0.95em" style="text-anchor: middle; visibility: inherit; font-family: &quot;Helvetica Neue&quot;, sans-serif; font-size: 12px; font-weight: 200;" fill="rgb(50, 49, 63)" stroke="none" stroke-width="1px">200</text><text x="946.2574999999996" y="0" dx="0em" dy="0.95em" style="text-anchor: middle; visibility: inherit; font-family: &quot;Helvetica Neue&quot;, sans-serif; font-size: 12px; font-weight: 200;" fill="rgb(50, 49, 63)" stroke="none" stroke-width="1px">250</text><text x="1104.1337499999995" y="0" dx="0em" dy="0.95em" style="text-anchor: middle; visibility: inherit; font-family: &quot;Helvetica Neue&quot;, sans-serif; font-size: 12px; font-weight: 200;" fill="rgb(50, 49, 63)" stroke="none" stroke-width="1px">300</text><text x="1262.0099999999993" y="0" dx="0em" dy="0.95em" style="text-anchor: middle; visibility: hidden; font-family: &quot;Helvetica Neue&quot;, sans-serif; font-size: 12px; font-weight: 200;" fill="rgb(50, 49, 63)" stroke="none" stroke-width="1px">350</text></g><line x1="0" y1="0" x2="1263.01" y2="0" fill="rgb(0, 0, 0)" stroke="rgb(204, 204, 204)" stroke-width="1px"></line></g></g></g></g></svg>