<svg viewBox="0 0 1492 400" xmlns="http://www.w3.org/2000/svg"><g><g><g><g><g><line x1="50" y1="378" x2="45" y2="378" style="visibility: inherit;" fill="rgb(0, 0, 0)" stroke="rgb(204, 204, 204)" stroke-width="1px"></line><line x1="50" y1="336" x2="45" y2="336" style="visibility: inherit;" fill="rgb(0, 0, 0)" stroke="rgb(204, 204, 204)" stroke-width="1px"></line><line x1="50" y1="293.99999999999994" x2="45" y2="293.99999999999994" style="visibility: inherit;" fill="rgb(0, 0, 0)" stroke="rgb(204, 204, 204)" stroke-width="1px"></line><line x1="50" y1="251.99999999999994" x2="45" y2="251.99999999999994" style="visibility: inherit;" fill="rgb(0, 0, 0)" stroke="rgb(204, 204, 204)" stroke-width="1px"></line><line x1="50" y1="209.99999999999991" x2="45" y2="209.99999999999991" style="visibility: inherit;" fill="rgb(0, 0, 0)" stroke="rgb(204, 204, 204)" stroke-width="1px"></line><line x1="50" y1="168.0000000000001" x2="45" y2="168.0000000000001" style="visibility: inherit;" fill="rgb(0, 0, 0)" stroke="rgb(204, 204, 204)" stroke-width="1px"></line><line x1="50" y1="126.00000000000009" x2="45" y2="126.00000000000009" style="visibility: inherit;" fill="rgb(0, 0, 0)" stroke="rgb(204, 204, 204)" stroke-width="1px"></line><line x1="50" y1="84.00000000000006" x2="45" y2="84.00000000000006" style="visibility: inherit;" fill="rgb(0, 0, 0)" stroke="rgb(204, 204, 204)" stroke-width="1px"></line><line x1="50" y1="42" x2="45" y2="42" style="visibility: inherit;" fill="rgb(0, 0, 0)" stroke="rgb(204, 204, 204)" stroke-width="1px"></line><line x1="50" y1="0" x2="45" y2="0" style="visibility: inherit;" fill="rgb(0, 0, 0)" stroke="rgb(204, 204, 204)" stroke-width="1px"></line></g><g transform="translate(40, 0)"><text x="0" y="378" dx="0em" dy="0.3em" style="text-anchor: end; visibility: hidden; font-family: &quot;Helvetica Neue&quot;, sans-serif; font-size: 12px; font-weight: 200;" fill="rgb(50, 49, 63)" stroke="none" stroke-width="1px">0.36</text><text x="0" y="336" dx="0em" dy="0.3em" style="text-anchor: end; visibility: inherit; font-family: &quot;Helvetica Neue&quot;, sans-serif; font-size: 12px; font-weight: 200;" fill="rgb(50, 49, 63)" stroke="none" stroke-width="1px">0.37</text><text x="0" y="293.99999999999994" dx="0em" dy="0.3em" style="text-anchor: end; visibility: inherit; font-family: &quot;Helvetica Neue&quot;, sans-serif; font-size: 12px; font-weight: 200;" fill="rgb(50, 49, 63)" stroke="none" stroke-width="1px">0.38</text><text x="0" y="251.99999999999994" dx="0em" dy="0.3em" style="text-anchor: end; visibility: inherit; font-family: &quot;Helvetica Neue&quot;, sans-serif; font-size: 12px; font-weight: 200;" fill="rgb(50, 49, 63)" stroke="none" stroke-width="1px">0.39</text><text x="0" y="209.99999999999991" dx="0em" dy="0.3em" style="text-anchor: end; visibility: inherit; font-family: &quot;Helvetica Neue&quot;, sans-serif; font-size: 12px; font-weight: 200;" fill="rgb(50, 49, 63)" stroke="none" stroke-width="1px">0.4</text><text x="0" y="168.0000000000001" dx="0em" dy="0.3em" style="text-anchor: end; visibility: inherit; font-family: &quot;Helvetica Neue&quot;, sans-serif; font-size: 12px; font-weight: 200;" fill="rgb(50, 49, 63)" stroke="none" stroke-width="1px">0.41</text><text x="0" y="126.00000000000009" dx="0em" dy="0.3em" style="text-anchor: end; visibility: inherit; font-family: &quot;Helvetica Neue&quot;, sans-serif; font-size: 12px; font-weight: 200;" fill="rgb(50, 49, 63)" stroke="none" stroke-width="1px">0.42</text><text x="0" y="84.00000000000006" dx="0em" dy="0.3em" style="text-anchor: end; visibility: inherit; font-family: &quot;Helvetica Neue&quot;, sans-serif; font-size: 12px; font-weight: 200;" fill="rgb(50, 49, 63)" stroke="none" stroke-width="1px">0.43</text><text x="0" y="42" dx="0em" dy="0.3em" style="text-anchor: end; visibility: inherit; font-family: &quot;Helvetica Neue&quot;, sans-serif; font-size: 12px; font-weight: 200;" fill="rgb(50, 49, 63)" stroke="none" stroke-width="1px">0.44</text><text x="0" y="0" dx="0em" dy="0.3em" style="text-anchor: end; visibility: hidden; font-family: &quot;Helvetica Neue&quot;, sans-serif; font-size: 12px; font-weight: 200;" fill="rgb(50, 49, 63)" stroke="none" stroke-width="1px">0.45</text></g><line x1="50" y1="0" x2="50" y2="378" fill="rgb(0, 0, 0)" stroke="rgb(204, 204, 204)" stroke-width="1px"></line></g></g><g transform="translate(50, 0)" clip-path="url(#clip_0)"><clipPath id="clip_0"><rect width="1442" height="378"></rect></clipPath><g><g><g><line x1="0" y1="0" x2="0" y2="378" fill="rgb(0, 0, 0)" stroke="rgb(60, 60, 60)" stroke-width="1px" opacity="0.25"></line><line x1="103" y1="0" x2="103" y2="378" fill="rgb(0, 0, 0)" stroke="rgb(60, 60, 60)" stroke-width="1px" opacity="0.25"></line><line x1="206" y1="0" x2="206" y2="378" fill="rgb(0, 0, 0)" stroke="rgb(60, 60, 60)" stroke-width="1px" opacity="0.25"></line><line x1="309" y1="0" x2="309" y2="378" fill="rgb(0, 0, 0)" stroke="rgb(60, 60, 60)" stroke-width="1px" opacity="0.25"></line><line x1="412" y1="0" x2="412" y2="378" fill="rgb(0, 0, 0)" stroke="rgb(60, 60, 60)" stroke-width="1px" opacity="0.25"></line><line x1="515" y1="0" x2="515" y2="378" fill="rgb(0, 0, 0)" stroke="rgb(60, 60, 60)" stroke-width="1px" opacity="0.25"></line><line x1="618" y1="0" x2="618" y2="378" fill="rgb(0, 0, 0)" stroke="rgb(60, 60, 60)" stroke-width="1px" opacity="0.25"></line><line x1="721" y1="0" x2="721" y2="378" fill="rgb(0, 0, 0)" stroke="rgb(60, 60, 60)" stroke-width="1px" opacity="0.25"></line><line x1="824" y1="0" x2="824" y2="378" fill="rgb(0, 0, 0)" stroke="rgb(60, 60, 60)" stroke-width="1px" opacity="0.25"></line><line x1="927.0000000000001" y1="0" x2="927.0000000000001" y2="378" fill="rgb(0, 0, 0)" stroke="rgb(60, 60, 60)" stroke-width="1px" opacity="0.25"></line><line x1="1030" y1="0" x2="1030" y2="378" fill="rgb(0, 0, 0)" stroke="rgb(60, 60, 60)" stroke-width="1px" opacity="0.25"></line><line x1="1133" y1="0" x2="1133" y2="378" fill="rgb(0, 0, 0)" stroke="rgb(60, 60, 60)" stroke-width="1px" opacity="0.25"></line><line x1="1236" y1="0" x2="1236" y2="378" fill="rgb(0, 0, 0)" stroke="rgb(60, 60, 60)" stroke-width="1px" opacity="0.25"></line><line x1="1339" y1="0" x2="1339" y2="378" fill="rgb(0, 0, 0)" stroke="rgb(60, 60, 60)" stroke-width="1px" opacity="0.25"></line><line x1="1442" y1="0" x2="1442" y2="378" fill="rgb(0, 0, 0)" stroke="rgb(60, 60, 60)" stroke-width="1px" opacity="0.25"></line></g><g><line x1="0" y1="378" x2="1442" y2="378" fill="rgb(0, 0, 0)" stroke="rgb(60, 60, 60)" stroke-width="1px" opacity="0.25"></line><line x1="0" y1="336" x2="1442" y2="336" fill="rgb(0, 0, 0)" stroke="rgb(60, 60, 60)" stroke-width="1px" opacity="0.25"></line><line x1="0" y1="293.99999999999994" x2="1442" y2="293.99999999999994" fill="rgb(0, 0, 0)" stroke="rgb(60, 60, 60)" stroke-width="1px" opacity="0.25"></line><line x1="0" y1="251.99999999999994" x2="1442" y2="251.99999999999994" fill="rgb(0, 0, 0)" stroke="rgb(60, 60, 60)" stroke-width="1px" opacity="0.25"></line><line x1="0" y1="209.99999999999991" x2="1442" y2="209.99999999999991" fill="rgb(0, 0, 0)" stroke="rgb(60, 60, 60)" stroke-width="1px" opacity="0.25"></line><line x1="0" y1="168.0000000000001" x2="1442" y2="168.0000000000001" fill="rgb(0, 0, 0)" stroke="rgb(60, 60, 60)" stroke-width="1px" opacity="0.25"></line><line x1="0" y1="126.00000000000009" x2="1442" y2="126.00000000000009" fill="rgb(0, 0, 0)" stroke="rgb(60, 60, 60)" stroke-width="1px" opacity="0.25"></line><line x1="0" y1="84.00000000000006" x2="1442" y2="84.00000000000006" fill="rgb(0, 0, 0)" stroke="rgb(60, 60, 60)" stroke-width="1px" opacity="0.25"></line><line x1="0" y1="42" x2="1442" y2="42" fill="rgb(0, 0, 0)" stroke="rgb(60, 60, 60)" stroke-width="1px" opacity="0.25"></line><line x1="0" y1="0" x2="1442" y2="0" fill="rgb(0, 0, 0)" stroke="rgb(60, 60, 60)" stroke-width="1px" opacity="0.25"></line></g></g></g><g><g><line x1="0" y1="1889.9999999999995" x2="1442" y2="1889.9999999999995" fill="rgb(0, 0, 0)" stroke="rgb(153, 153, 153)" stroke-width="1.5px"></line></g></g><g><g><line x1="103" y1="0" x2="103" y2="378" fill="rgb(0, 0, 0)" stroke="rgb(153, 153, 153)" stroke-width="1.5px"></line></g></g><g><g><g><g><g><path stroke="rgb(204, 51, 17)" stroke-width="2px" d="M133.9,-23.271994780779494L139.05,0.2500052962804489L144.20000000000002,18.264903726111186L149.35000000000002,36.462278169049455L154.5,51.30718937028229L159.65,64.37572258949643L164.79999999999998,76.214011199104L169.95,86.61758131398216L175.1,96.54554869682744L180.25,105.26244116346493L185.39999999999998,115.29527204749354L190.55,123.40181929973696L195.7,129.36628905278633L200.85,135.53652451006198L206,140.90822303515196L211.15,144.92018145987382L216.29999999999998,149.4796249445756L221.45000000000002,155.56370984245427L226.6,158.3971027747887L231.75000000000003,163.36265915004518L236.9,167.7202265846374L242.04999999999998,171.5508869258291L247.2,175.9057519195257L252.35,180.3054672865246L257.5,183.51657662026287L262.65,186.67788755381315L267.8,189.7356044166697L272.95,192.46122665753896L278.1,194.4851988814487L283.25,196.22850636244408L288.40000000000003,200.11929054780563L293.55,201.06059205778155L298.70000000000005,204.37899194577813L303.85,206.4997345037953L309,209.0732684704499L314.15,211.91219377343992L319.3,214.74307752156813L324.45,216.55276954697703L329.59999999999997,218.89082435343462L334.75,220.6273381306364L339.9,222.07147692259275L345.05,223.94411457853477L350.2,224.56702077999572L355.35,227.02539466099478L360.5,227.90680941933869L365.65,229.41837131809712L370.79999999999995,231.2652761394833L375.95000000000005,233.35430271398968L381.1,235.2576050897641L386.25,237.45523903009078L391.4,238.4923227217137L396.55,240.16976452885532L401.7,241.73827420628825L406.85,242.50778704902703L412,243.9285368379451L417.15000000000003,244.53068063271004L422.3,246.23786841679575L427.45,246.79980894948505L432.59999999999997,247.9814767764699L437.74999999999994,249.82629870139988L442.90000000000003,251.00579392163752L448.05,252.5205913188994L453.2,254.18656942376506L458.34999999999997,255.0878176271312L463.50000000000006,256.50755183855733L468.65000000000003,257.53554522316887L473.8,258.1061933283008L478.95,259.15647606265054L484.09999999999997,259.911247458721L489.25,261.07433828789215L494.4,261.7729065171876L499.55,262.827346454906L504.7,264.020261675425L509.85,264.98237789993976L515,266.4630396127181L520.15,267.76395617939124L525.3,268.42636354450343L530.45,269.50512729313465L535.6,270.34872595114484L540.75,270.8576472269376L545.9,271.65566122932773L551.05,272.59579833661394L556.2,273.33118207569623L561.35,274.0392954112132L566.5,274.7600405151088L571.65,275.80335540052397L576.8000000000001,276.7632657129568L581.95,277.9162368599268L587.1,278.73672895980314L592.25,279.40558417090114L597.4000000000001,280.21040821946235L602.5500000000001,280.9870443290672L607.7,281.40524698887947L612.85,281.8057761564223L618,283.1198117550977L623.15,283.1634978276288L628.3,284.19007707743725L633.45,284.8850727204936L638.6,285.73639409939676L643.75,286.7249772793133L648.9,287.84106313739596L654.05,288.41723120364003L659.1999999999999,289.12246892897645L664.3499999999999,289.83385652937864L669.5,290.48061135907614L674.65,290.9381474366378L679.8,291.2424456970323L684.9499999999999,292.28863090113566L690.1,292.33895256567735L695.25,293.10336414504394L700.4,293.63361753889404L705.55,294.6145521457677L710.7,295.5225543339867L715.85,296.4750420689301L721,296.8828654550674L726.15,297.71490352619736L731.3,298.361238669558L736.4499999999999,298.72636008399127L741.5999999999999,299.37903576379495L746.7500000000001,299.3825674350612L751.9000000000001,300.25902391652414L757.0500000000001,300.34514587983983L762.2,300.84900275638694L767.35,301.57179978097474L772.5,302.4829003608702L777.65,303.14921380043876L782.8,304.1087705396305L787.9499999999999,304.427157416213L793.1,305.19963691507553L798.25,305.81717752972025L803.4,306.0642190035778L808.55,306.5603697302515L813.7,306.8744568181104L818.85,307.48709770574794L824,307.51635315521037L829.15,308.10173003728283L834.3000000000001,308.9704648530267L839.45,309.4891186158411L844.6,310.2359355379331L849.75,311.09293169226146L854.9,311.3575568939228L860.05,312.112299404495L865.1999999999999,312.5893681412287L870.3499999999999,312.7588712563452L875.4999999999999,313.23789080332466L880.6500000000001,313.53438868119713L885.8000000000001,313.9850536667458L890.95,314.2837896451393L896.1,314.72646842025824L901.25,315.34148376963526L906.4,315.81463787463895L911.55,316.6052305958344L916.6999999999999,317.3092388100982L921.8499999999999,317.61987711734037L927.0000000000001,318.121699143316L932.1500000000001,318.59614664579556L937.3000000000001,318.7462560080602L942.45,319.0487884008818L947.6,319.73714848526276L952.75,319.69411917085995L957.9,320.200209992923L963.05,320.71821597405244L968.1999999999999,321.2187753720149L973.35,321.84920332061876L978.5,322.514485092873L983.65,322.9846228547227L988.8,323.3334564103135L993.95,323.79228392543877L999.1,324.2158319056877L1004.25,324.33182839050346L1009.4,324.45463207558896L1014.5500000000001,325.2772987124267L1019.7,325.04449657571024L1024.8500000000001,325.6697510611591L1030,325.99040262403L1035.15,326.53701210278155L1040.3,327.14205141072875L1045.45,327.7870934442753L1050.6,328.17578200188007L1055.75,328.62530476774464L1060.9,328.99613901457434L1066.05,329.23263264634016L1071.2,329.59977493595403L1076.35,329.49417833664927L1081.5,330.17395297162284L1086.65,330.0958378484208L1091.8,330.3839583969245L1096.95,330.82911864291356L1102.1,331.5129719212383L1107.25,331.9612696607466L1112.4,332.69717397552483L1117.55,332.84440482937976L1122.7,333.40001698862363L1127.85,333.85433711453794L1133,333.9655416623029L1138.1499999999999,334.26027429825973L1143.3,334.2825944775279L1148.4499999999998,334.79969596082987L1153.6000000000001,334.71392661532656L1158.75,334.97270470318676L1163.9,335.5820762289155L1169.05,336.0186190598132L1174.2,336.46369125496113L1179.35,337.1238889147699L1184.5,337.320263469494L1189.6499999999999,337.8417326736237L1194.8000000000002,338.21892133628444L1199.95,338.28952583347234L1205.1000000000001,338.548853796282L1210.25,338.6688220021276L1215.4,339.04385206294944L1220.55,339.10986630311515L1225.7,339.42190551754425L1230.85,339.94245595291284L1236,340.2609609260311L1241.15,340.88978327027337L1246.3,341.4796188192612L1251.45,341.62217879356285L1256.6,342.0399988665627L1261.75,342.37265820316946L1266.9,342.4474533848185L1272.05,342.6482999445877L1277.2,342.9631216255018L1282.35,343.198258917734L1287.5,343.3511446998296L1292.65,343.5766392345621L1297.8,344.03313188225275L1302.95,344.4387920593774L1308.1,344.94281418462793L1313.25,345.2761847682806L1318.3999999999999,345.4948638048097L1323.55,345.84019140876563L1328.6999999999998,346.1292790590515L1333.8500000000001,346.16942635477585L1339,346.196371515199L1344.15,346.83634477155204L1349.3,346.59253817135385L1354.45,347.03402810044486L1359.6,347.30434179959167L1364.75,347.6980599837877L1369.8999999999999,348.1491622127532L1375.0500000000002,348.7161749454276L1380.2,348.9724597166147L1385.3500000000001,349.25441322066274L1390.5,349.5344734860938L1395.65,349.80089711595286L1400.8,349.91393298628003L1405.95,349.9109811186083L1411.1,350.39299719635943" style="fill: none;" fill="none"></path></g><g><path stroke="rgb(0, 153, 136)" stroke-width="2px" d="M113.3,-27.463065665934153L118.45,19.18405675726018L123.6,55.55378845105332L128.75,77.5959737074553L133.9,95.67251503259524L139.05,114.29108838057505L144.20000000000002,124.27308311362472L149.35000000000002,137.82226391718208L154.5,148.53722601296317L159.65,159.12217120335387L164.79999999999998,168.76259593292124L169.95,175.67085548244518L175.1,181.88174340946046L180.25,187.63568035142166L185.39999999999998,192.27334921776125L190.55,196.66570314891084L195.7,199.66656720825515L200.85,204.72759897454412L206,209.30131123106307L211.15,214.36601450481345L216.29999999999998,217.97026169970076L221.45000000000002,221.6919398131845L226.6,224.74091144539548L231.75000000000003,227.04419728201856L236.9,230.36385201040622L242.04999999999998,232.61409392005572L247.2,234.65491002522117L252.35,236.9532185724854L257.5,240.20159684358188L262.65,243.4896016588129L267.8,245.42656073125153L272.95,247.96145132939327L278.1,249.34666961437136L283.25,250.88619819219207L288.40000000000003,253.24232419319827L293.55,253.66204961037653L298.70000000000005,255.7098223079684L303.85,258.1709985798364L309,260.12289594085513L314.15,262.3673365759047L319.3,264.0005172019191L324.45,265.5955956783516L329.59999999999997,266.8523634799228L334.75,268.5295143554674L339.9,269.5956991286651L345.05,270.03347059275904L350.2,271.8267166286181L355.35,273.38844991277085L360.5,275.4240546878044L365.65,276.49123778656735L370.79999999999995,277.99771961866986L375.95000000000005,279.0332841398636L381.1,279.79492107799575L386.25,281.2718837277798L391.4,281.65800586184935L396.55,282.9074913426594L401.7,284.18807048632993L406.85,285.6052753115542L412,287.09072639152026L417.15000000000003,288.20694002552847L422.3,289.234765789072L427.45,290.0431187749803L432.59999999999997,290.78122416176626L437.74999999999994,291.6846643782574L442.90000000000003,291.93617092987705L448.05,293.02966328901977L453.2,294.27957738085564L458.34999999999997,295.59004437275075L463.50000000000006,296.8176097851008L468.65000000000003,297.7259037145947L473.8,298.4781122251839L478.95,299.14702312684176L484.09999999999997,299.9852653259446L489.25,300.69126194945363L494.4,301.0675895680402L499.55,301.7749199134221L504.7,302.9223843287507L509.85,304.26539302606557L515,304.97671601385395L520.15,305.95396134003573L525.3,306.38641418419485L530.45,306.8438013243942L535.6,307.7659799469594L540.75,307.8523443432855L545.9,308.57317894261104L551.05,309.70239017356727L556.2,310.5338201079201L561.35,311.62314770484693L566.5,312.2766248187364L571.65,312.96626436594363L576.8000000000001,313.4751986583195L581.95,314.1089314131609L587.1,314.530309582356L592.25,314.70074436566665L597.4000000000001,315.4477989204728L602.5500000000001,316.3081954588523L607.7,317.32493946935733L612.85,317.85979639939114L618,318.5896902487564L623.15,319.1210321006087L628.3,319.3452921833268L633.45,320.2015874764419L638.6,320.5460353622527L643.75,320.82018759936284L648.9,321.44388130402456L654.05,322.2708706776725L659.1999999999999,323.15823794106086L664.3499999999999,323.6490934423796L669.5,324.33310812479147L674.65,324.6163773172194L679.8,324.99425727929105L684.9499999999999,325.5710298435381L690.1,325.47194575441154L695.25,326.0011586643744L700.4,326.85297975238115L705.55,327.5902568661866L710.7,328.3166758690106L715.85,328.9075675388346L721,329.36062030940474L726.15,329.7014891716595L731.3,330.1910256819976L736.4499999999999,330.52861362032763L741.5999999999999,330.4967487418695L746.7500000000001,331.1283344910854L751.9000000000001,331.7486090678549L757.0500000000001,332.6425970177411L762.2,333.0097802171193L767.35,333.62970265278386L772.5,333.94518049521434L777.65,334.1170486002363L782.8,334.739862407342L787.9499999999999,334.7536838757508L793.1,335.21016192562456L798.25,335.8016290581021L803.4,336.42987860857136L808.55,337.2051242479013L813.7,337.5896031011078L818.85,338.05658908381986L824,338.4042111711915L829.15,338.64299355909674L834.3000000000001,338.9458107255153L839.45,338.96636126178555L844.6,339.4032556405635L849.75,340.00208247219734L854.9,340.6503822935818L860.05,341.0886932667046L865.1999999999999,341.59087496443374L870.3499999999999,341.9414837160007L875.4999999999999,342.07283716302703L880.6500000000001,342.60137322416483L885.8000000000001,342.77950590195275L890.95,342.9222074941101L896.1,343.19567969072904L901.25,343.8856762862101L906.4,344.5991254014259L911.55,344.8688900535369L916.6999999999999,345.4244510010157L921.8499999999999,345.5187607084256L927.0000000000001,345.73491012682257L932.1500000000001,346.2296893657588L937.3000000000001,345.96657390604673L942.45,346.37740001076037L947.6,347.00467739480666L952.75,347.4400361358497L957.9,348.075497856334L963.05,348.47323322662635L968.1999999999999,348.834844725617L973.35,349.01590942087773L978.5,349.41883162108076L983.65,349.52553818255313L988.8,349.4199757109205L993.95,349.8868328910081L999.1,350.34891655121635L1004.25,351.0015277894258L1009.4,351.2344358429186L1014.5500000000001,351.71219776685405L1019.7,351.9326707356834L1024.8500000000001,352.0448385978071L1030,352.480461211009L1035.15,352.43943233371795" style="fill: none;" fill="none"></path></g><g><path stroke="rgb(0, 119, 187)" stroke-width="2px" d="M108.14999999999999,-85.30355495424027L113.3,10.858235500228375L118.45,55.861936149122414L123.6,90.96998052761495L128.75,111.74386081025011L133.9,128.3111788490181L139.05,146.06616132581783L144.20000000000002,154.8342472538135L149.35000000000002,167.18439649948883L154.5,176.9003673524295L159.65,186.6247924799348L164.79999999999998,195.61852955164358L169.95,201.82749066656515L175.1,207.452265683766L180.25,212.86669087005683L185.39999999999998,216.99210378050066L190.55,221.1407092449267L195.7,223.91666479837102L200.85,228.63038587128344L206,232.85359805243587L211.15,237.5575576820393L216.29999999999998,241.0079474527257L221.45000000000002,244.4242989443775L226.6,247.24401530031628L231.75000000000003,249.3881550402924L236.9,252.60885026746374L242.04999999999998,254.59314989294535L247.2,256.61816810317157L252.35,258.56420347824286L257.5,261.7702450820825L262.65,264.9290512855308L267.8,266.80014616723054L272.95,269.1547384586098L278.1,270.38698382093133L283.25,271.90987911987764L288.40000000000003,274.14401444320816L293.55,274.37505097564593L298.70000000000005,276.3689171716419L303.85,278.75708668942184L309,280.5660329094798L314.15,282.76626656408575L319.3,284.3994931303877L324.45,285.794053629351L329.59999999999997,286.9117794147649L334.75,288.4892929566863L339.9,289.42072190529416L345.05,289.8418129255662L350.2,291.57052455049967L355.35,293.02412455052263L360.5,295.0027681683847L365.65,296.02752225494964L370.79999999999995,297.4358225034559L375.95000000000005,298.4333910422577L381.1,299.18768433100695L386.25,300.62005308459004L391.4,301.0425140971142L396.55,302.27609527448305L401.7,303.5629097534142L406.85,304.8997004176808L412,306.43862325437874L417.15000000000003,307.43690882470435L422.3,308.41091945828015L427.45,309.24009211185L432.59999999999997,309.9208720878522L437.74999999999994,310.8236474847556L442.90000000000003,311.0237332018614L448.05,312.1485906570922L453.2,313.34973951776226L458.34999999999997,314.56588493539067L463.50000000000006,315.68661310304276L468.65000000000003,316.64912940171183L473.8,317.3556469535665L478.95,318.0422874975032L484.09999999999997,318.85587913487456L489.25,319.4676651263866L494.4,319.80026399487093L499.55,320.50055449834963L504.7,321.57759866538896L509.85,322.8987888152582L515,323.58491162850044L520.15,324.53645181779905L525.3,324.9025435132397L530.45,325.3890123699125L535.6,326.2380876180748L540.75,326.28148372182426L545.9,327.0105319165422L551.05,328.10551569990264L556.2,328.9166380138115L561.35,329.98438492024803L566.5,330.68362063730507L571.65,331.29018343076285L576.8000000000001,331.8564343782932L581.95,332.48263613812173L587.1,332.8553278529872L592.25,333.0358814733912L597.4000000000001,333.78491745787994L602.5500000000001,334.6159202610689L607.7,335.57641334508827L612.85,336.1178711027845L618,336.8539593537832L623.15,337.3177282727995L628.3,337.5537763783761L633.45,338.4064321216199L638.6,338.69714294108877L643.75,339.0434306418411L648.9,339.6464913410924L654.05,340.45533142274326L659.1999999999999,341.3194964633641L664.3499999999999,341.82379008481485L669.5,342.497565586256L674.65,342.79425385104787L679.8,343.1641331316556L684.9499999999999,343.7748902582358L690.1,343.6423935446452L695.25,344.20292086963065L700.4,345.02731938876656L705.55,345.70489606318137L710.7,346.43003469048136L715.85,347.0112175803769L721,347.44247674047415L726.15,347.77110515910636L731.3,348.26777793890363L736.4499999999999,348.53946370141017L741.5999999999999,348.5387955462942L746.7500000000001,349.137431038168L751.9000000000001,349.75830392612505L757.0500000000001,350.6122804184454L762.2,350.97889591780904L767.35,351.60640673280795L772.5,351.85825667040115L777.65,352.0484303754668L782.8,352.6781461955314L787.9499999999999,352.6789085003544L793.1,353.14607706153356L798.25,353.7225865821276L803.4,354.3124831873432L808.55,355.07094167081414L813.7,355.463480054854L818.85,355.914239815829L824,356.24719930765264L829.15,356.484108586329L834.3000000000001,356.7609293903755L839.45,356.79335124010765L844.6,357.28654002026326L849.75,357.85064425212556L854.9,358.47360447612806L860.05,358.8671574780154" style="fill: none;" fill="none"></path></g><g><path stroke="rgb(187, 187, 187)" stroke-width="2px" d="M133.9,-2.648977531071921L139.05,17.059481343511038L144.20000000000002,28.041614547939787L149.35000000000002,41.85858593250754L154.5,53.05323300125144L159.65,63.92771576318478L164.79999999999998,73.62979415298281L169.95,80.82947076508464L175.1,87.48625700295776L180.25,93.27479961141307L185.39999999999998,98.0203247863534L190.55,102.70974217372185L195.7,105.72056695604181L200.85,110.60153391769177L206,115.30054147349045L211.15,120.09575570890985L216.29999999999998,124.04684102014161L221.45000000000002,127.60241800428236L226.6,130.67141392232014L231.75000000000003,133.06398088701263L236.9,136.46803157528L242.04999999999998,138.7055607826772L247.2,140.977956971787L252.35,143.08417450759396L257.5,146.35030643150472L262.65,149.55063078504622L267.8,151.6679042364608L272.95,154.2357774657559L278.1,155.64110173583884L283.25,157.3353671601825L288.40000000000003,159.59424219658018L293.55,160.0982287149288L298.70000000000005,162.0012054574264L303.85,164.40508549629428L309,166.33780992093503L314.15,168.5801719032027L319.3,170.3038784108255L324.45,171.77345576306578L329.59999999999997,172.93020251835813L334.75,174.59771408868426L339.9,175.65866660218566L345.05,176.26119243758114L350.2,177.87944037655814L355.35,179.4205977402481L360.5,181.20817920400833L365.65,182.37421306054253L370.79999999999995,183.83128957576426L375.95000000000005,184.89224400492947L381.1,185.64102908175906L386.25,187.10609013428402L391.4,187.53627247364017L396.55,188.7284843344756L401.7,189.93655908916645L406.85,191.3073121034119L412,192.76495695112803L417.15000000000003,193.85193238842675L422.3,194.8895198382971L427.45,195.6778689422544L432.59999999999997,196.3914449882657L437.74999999999994,197.27608158332401L442.90000000000003,197.53748743135654L448.05,198.53841669608423L453.2,199.77877040338976L458.34999999999997,200.9351497808964L463.50000000000006,201.96513232348568L468.65000000000003,203.0525052367235L473.8,203.83469771675257L478.95,204.43352891486086L484.09999999999997,205.27283589864004L489.25,205.86941745025254L494.4,206.19297551241684L499.55,206.837893928853L504.7,207.9421763333229L509.85,209.1850091642382L515,209.8876200675786L520.15,210.85992911947275L525.3,211.2515624458544L530.45,211.697362980826L535.6,212.51569043901995L540.75,212.61635253637758L545.9,213.26241258846827L551.05,214.27446059106276L556.2,215.05957717146143L561.35,216.09392866727833L566.5,216.83055351590505L571.65,217.46539679796174L576.8000000000001,217.97474496723942L581.95,218.57142028909522L587.1,218.93246370956817L592.25,219.1152416471579L597.4000000000001,219.74912620614674L602.5500000000001,220.5693510315134L607.7,221.41362162769502L612.85,221.96724303480244L618,222.6909611946794L623.15,223.19786134167188L628.3,223.42256913014305L633.45,224.2405467004978L638.6,224.54629047689687L643.75,224.84052182755605L648.9,225.38163395409006L654.05,226.21987072310918L659.1999999999999,227.0183188226189L664.3499999999999,227.5096295239348L669.5,228.21316532383412L674.65,228.4756042554883L679.8,228.86665601848523L684.9499999999999,229.383801148314L690.1,229.29305130606673L695.25,229.7732132127504L700.4,230.56623338257913L705.55,231.19559747572808L710.7,231.91105587156892L715.85,232.49669506975664L721,232.94852741881147L726.15,233.25931403843845L731.3,233.7186057385988L736.4499999999999,234.01383069837934L741.5999999999999,234.0179634503648L746.7500000000001,234.55563176306228L751.9000000000001,235.13524871571948L757.0500000000001,235.94907366097476L762.2,236.30647103727486L767.35,236.93190713382913L772.5,237.19350081301567L777.65,237.33720740538664L782.8,237.9054632355294L787.9499999999999,237.8952435604009L793.1,238.3284896660812L798.25,238.85925809373282L803.4,239.4560916038453L808.55,240.14590187393463L813.7,240.52207511604695L818.85,241.00183125389452L824,241.32259158740496L829.15,241.55826891883916L834.3000000000001,241.8308339709825L839.45,241.8594470071384L844.6,242.27988740876805L849.75,242.85748108415004L854.9,243.43282316171403L860.05,243.83643938490195L865.1999999999999,244.30703789200857L870.3499999999999,244.6234312158568L875.4999999999999,244.7775730670182L880.6500000000001,245.26867835674832L885.8000000000001,245.3857563692053L890.95,245.58184456536554L896.1,245.80980257747925L901.25,246.44798180236864L906.4,247.11284895058162L911.55,247.34162567381907L916.6999999999999,247.90707528430076L921.8499999999999,247.9696622316891L927.0000000000001,248.17714111120492L932.1500000000001,248.59414787331613L937.3000000000001,248.30625707767686L942.45,248.6735147433746L947.6,249.2950357393636L952.75,249.67457863455655L957.9,250.25583428756175L963.05,250.59078944550293L968.1999999999999,250.97289670325256L973.35,251.10000445594557L978.5,251.45505086310047L983.65,251.57190122443035L988.8,251.4965469641732L993.95,251.91736922650603L999.1,252.32912306252626" style="fill: none;" fill="none"></path></g><g><path stroke="rgb(255, 112, 67)" stroke-width="2px" d="M149.35000000000002,-10.67788465637119L154.5,3.0159869620312634L159.65,16.410124035396166L164.79999999999998,28.496172591456798L169.95,38.063911913824086L175.1,46.329580921231354L180.25,53.897176482032194L185.39999999999998,60.413498029770835L190.55,66.75565358563728L195.7,71.26566376445771L200.85,77.63570166915048L206,83.6643737652351L211.15,89.82320918738668L216.29999999999998,94.79133231852506L221.45000000000002,99.45139583958814L226.6,103.53214314381262L231.75000000000003,106.7977245754891L236.9,111.13420774946775L242.04999999999998,114.20404466664212L247.2,117.19321752580794L252.35,120.11834775097464L257.5,124.01790386156932L262.65,127.91111353352466L267.8,130.6191756787551L272.95,133.75748019354427L278.1,135.7389235816522L283.25,138.0379654009479L288.40000000000003,140.8240868854992L293.55,141.77703337131533L298.70000000000005,144.30951167860022L303.85,147.1153739440662L309,149.5309718451393L314.15,152.11999938398864L319.3,154.16035954360785L324.45,156.03206566983783L329.59999999999997,157.629494682069L334.75,159.61430802101657L339.9,160.9965867686218L345.05,161.91300541014655L350.2,163.90176395832563L355.35,165.72089358249877L360.5,167.93388691721987L365.65,169.29112047363142L370.79999999999995,170.93865926360854L375.95000000000005,172.25795483492251L381.1,173.311581670816L386.25,174.96580200207882L391.4,175.64435092222664L396.55,177.06084046757587L401.7,178.43283190971346L406.85,180.03005472239923L412,181.73797550222528L417.15000000000003,182.9662241260994L422.3,184.09746869330328L427.45,185.15204777830058L432.59999999999997,186.0344055526324L437.74999999999994,187.073328316557L442.90000000000003,187.56544936406544L448.05,188.70421087672193L453.2,190.09051739172608L458.34999999999997,191.4694293264648L463.50000000000006,192.73241325444354L468.65000000000003,193.8452537317018L473.8,194.66152601015142L478.95,195.49766312777234L484.09999999999997,196.44547062703361L489.25,197.16191448316397L494.4,197.72183081392095L499.55,198.5098430076762L504.7,199.72451440340456L509.85,201.1112750227937L515,201.91226002228058L520.15,203.01343138793163L525.3,203.52234285882727L530.45,204.09535894490168L535.6,205.0556255791942L540.75,205.22319717196942L545.9,206.07813441760504L551.05,207.17870477324337L556.2,208.11123125955612L561.35,209.20572209592098L566.5,210.0172900632806L571.65,210.7039176240387L576.8000000000001,211.2923871173163L581.95,212.0205616886965L587.1,212.57637051823764L592.25,212.87589438581952L597.4000000000001,213.64477262820856L602.5500000000001,214.51841601842762L607.7,215.50484791239012L612.85,216.10538091855796L618,216.91958659370815L623.15,217.50533299465113L628.3,217.8433572994076L633.45,218.74149206760922L638.6,219.15810518895142L643.75,219.56216104716245L648.9,220.20053619304292L654.05,221.124774594811L659.1999999999999,222.0168814102847L664.3499999999999,222.54978314988017L669.5,223.2370572397029L674.65,223.59742805034475L679.8,224.0628856489571L684.9499999999999,224.6928910570499L690.1,224.67676068038753L695.25,225.28971038678995L700.4,226.11884363581845L705.55,226.83574905835303L710.7,227.62994591157437L715.85,228.21102301194026L721,228.73269519257084L726.15,229.1468660676567L731.3,229.69972565308873L736.4499999999999,230.04664684717983L741.5999999999999,230.11663473982455L746.7500000000001,230.73217962037242L751.9000000000001,231.37259014882403L757.0500000000001,232.23926313204979L762.2,232.65898986732506L767.35,233.3058320064985L772.5,233.6725976651447L777.65,233.88995273545217L782.8,234.47930534523104L787.9499999999999,234.54603858867384L793.1,235.02473479050377L798.25,235.61045565204583L803.4,236.24045367091293L808.55,236.99493297258587L813.7,237.4266040922508L818.85,237.90385592866133L824,238.28363402574337L829.15,238.5471097844968L834.3000000000001,238.8442892406L839.45,238.91921831086378L844.6,239.3746020373289L849.75,239.97817230863754L854.9,240.60383116047132L860.05,240.98748178867237L865.1999999999999,241.53022357272636L870.3499999999999,241.93882582186671L875.4999999999999,242.11686090525413L880.6500000000001,242.70134823364285L885.8000000000001,242.9101104443989L890.95,243.10774452527912L896.1,243.4273169090058L901.25,244.06595163757294L906.4,244.73598334492013L911.55,245.02740206684018L916.6999999999999,245.59239926581796L921.8499999999999,245.75098130824392L927.0000000000001,246.031110607749L932.1500000000001,246.51830476334752L937.3000000000001,246.3469255930399L942.45,246.7411609016434L947.6,247.3447753043044L952.75,247.8032923871082L957.9,248.42563573838507L963.05,248.7832476877471L968.1999999999999,249.18677472155352L973.35,249.4081451687215L978.5,249.80977007059906L983.65,249.98218118677408L988.8,249.89853926962206L993.95,250.3731955679002L999.1,250.8529404830973L1004.25,251.44655976969315L1009.4,251.6774809265059L1014.5500000000001,252.1517118251278L1019.7,252.4295423745434L1024.8500000000001,252.56055992347007L1030,252.98128890559275L1035.15,252.93354544451415L1040.3,253.2873621640226L1045.45,253.72399195863895L1050.6,254.16439781447139L1055.75,254.73917806557898L1060.9,255.03905353498132L1066.05,255.39913996689705L1071.2,255.6213377545048L1076.35,255.77216222293583L1081.5,255.97623331651928L1086.65,255.93612987156138L1091.8,256.2446912565047L1096.95,256.7356595687316L1102.1,257.1770072867299L1107.25,257.57513993646427L1112.4,257.9397039390769L1117.55,258.2322170746178L1122.7,258.37610823168984L1127.85,258.6848233558759L1133,258.8578891330801L1138.1499999999999,258.9240999774131L1143.3,259.0816568251078L1148.4499999999998,259.5748256450511L1153.6000000000001,260.1277370696174L1158.75,260.36034605935527L1163.9,260.7892385046862L1169.05,260.8833944886404L1174.2,261.0017210096014L1179.35,261.3572576894919L1184.5,261.2191451990619L1189.6499999999999,261.4655940826568L1194.8000000000002,261.92483318758383L1199.95,262.29414460185046L1205.1000000000001,262.7793595659988L1210.25,263.0436302557316L1215.4,263.3198199445306L1220.55,263.4896796197826L1225.7,263.7286967804886L1230.85,263.8179448080292L1236,263.7787238457013L1241.15,264.07642341456057L1246.3,264.4792750435504L1251.45,264.91938702612157L1256.6,265.1144473655371L1261.75,265.46187703171785L1266.9,265.6716446980592L1272.05,265.693652730898L1277.2,266.08014288357333L1282.35,266.09593208522904L1287.5,266.23893083402885L1292.65,266.49612733173916L1297.8,266.8924402629876L1302.95,267.31888955924023L1308.1,267.516636629303L1313.25,267.85692407687594" style="fill: none;" fill="none"></path></g></g></g></g><g opacity="0.2"><g><g><g><path stroke="rgb(204, 51, 17)" stroke-width="2px" d="M108.14999999999999,-65.01349568366999L113.3,37.29425311088568L118.45,112.45468497276306L123.6,133.01782250404358L128.75,132.50437617301944L133.9,176.38964295387268L139.05,158.44793558120728L144.20000000000002,156.04780554771423L149.35000000000002,192.26442217826843L154.5,191.83171033859253L159.65,199.78549718856812L164.79999999999998,209.3698704242706L169.95,212.76522517204282L175.1,225.55119037628174L180.25,226.02821230888367L185.39999999999998,262.83487915992737L190.55,249.44747328758237L195.7,227.0830178260803L200.85,241.72199606895444L206,237.74497747421262L211.15,220.49320578575131L216.29999999999998,239.02058243751523L221.45000000000002,279.87486362457275L226.6,218.5156488418579L231.75000000000003,272.58347511291504L236.9,266.9234240055084L242.04999999999998,261.67893648147583L247.2,281.6540265083313L252.35,290.4301786422729L257.5,266.2657821178436L262.65,270.45884370803833L267.8,272.98789858818054L272.95,268.62786054611206L278.1,252.4825894832611L283.25,247.40970969200131L288.40000000000003,317.0571649074554L293.55,230.00047445297238L298.70000000000005,308.666660785675L303.85,274.5815598964691L309,293.41259837150574L314.15,306.8290436267852L319.3,311.2471604347229L324.45,279.4193708896637L329.59999999999997,301.6145968437194L334.75,283.17246079444885L339.9,274.99549627304077L345.05,293.7391662597656L350.2,248.16786289215085L355.35,321.67129755020136L360.5,262.3740041255951L365.65,289.4324505329132L370.79999999999995,305.6887471675873L375.95000000000005,318.7607252597808L381.1,314.17713403701777L386.25,329.84350562095636L391.4,282.68192052841187L396.55,312.5906074047088L401.7,310.33179402351374L406.85,276.58515214920044L412,307.6228702068329L417.15000000000003,271.8518579006195L422.3,324.61391329765314L427.45,272.89652466773987L432.59999999999997,303.47962617874146L437.74999999999994,337.43004441261286L442.90000000000003,307.6232457160949L448.05,326.00555062294L453.2,335.8466470241546L458.34999999999997,299.71414446830744L463.50000000000006,327.50984072685236L468.65000000000003,309.4500982761383L473.8,287.20117449760437L478.95,313.210322856903L484.09999999999997,299.11508202552795L489.25,322.03416466712946L494.4,298.7116599082946L499.55,319.07014489173883L504.7,328.19389343261713L509.85,317.17494964599604L515,347.4481308460235L520.15,339.4942188262939L525.3,305.2408897876739L530.45,329.92787003517145L535.6,317.9622673988342L540.75,299.7982585430145L545.9,317.37221717834467L551.05,326.84644103050226L556.2,316.0702013969421L561.35,315.4829049110412L566.5,317.23465561866755L571.65,337.7055430412292L576.8000000000001,334.0976500511169L581.95,347.2347164154052L587.1,328.3850276470184L592.25,320.1357150077819L597.4000000000001,329.52707648277277L602.5500000000001,328.869434595108L607.7,307.345118522644L612.85,306.7975008487701L618,365.59236288070673L623.15,285.92118859291077L628.3,349.3613505363464L633.45,329.25295472145075L638.6,340.38329958915705L643.75,350.5269312858581L648.9,360.25650143623346L654.05,325.9975397586822L659.1999999999999,335.3594863414764L664.3499999999999,336.7119455337524L669.5,333.3137118816375L674.65,321.38966560363764L679.8,311.5938806533813L684.9499999999999,362.5934207439422L690.1,295.73662519454956L695.25,344.95637655258173L700.4,329.7680282592773L705.55,361.76354527473444L710.7,357.95638203620905L715.85,362.2557127475738L721,325.17004251480097L726.15,355.6727850437164L731.3,343.57312560081476L736.4499999999999,324.37308669090265L741.5999999999999,345.41174411773676L746.7500000000001,299.63265895843506L751.9000000000001,362.5713908672332L757.0500000000001,306.49208664894104L762.2,336.95089459419245L767.35,353.55866789817804L772.5,368.2601058483123L777.65,351.432534456253L782.8,373.8961243629455L787.9499999999999,327.66667842864985L793.1,361.7849493026733L798.25,351.2119853496551L803.4,324.28696990013117L808.55,343.28360795974726L813.7,330.20048975944513L818.85,353.13709616661066L824,309.70344185829157L829.15,352.0054364204406L834.3000000000001,374.33471918106073L839.45,348.6362421512603L844.6,366.78009867668146L849.75,376.17871999740595L854.9,331.51589870452875L860.05,369.7785401344299L865.1999999999999,349.14768576622004L870.3499999999999,325.78600287437433L875.4999999999999,350.15893220901484L880.6500000000001,336.45234346389765L885.8000000000001,348.9172482490539L890.95,337.50376939773554L896.1,349.2289209365844L901.25,363.4053969383239L906.4,352.8906369209289L911.55,378.7186646461486L916.6999999999999,372.76396393775934L921.8499999999999,342.15169787406916L927.0000000000001,357.8522408008575L932.1500000000001,356.25344753265375L937.3000000000001,330.6900286674499L942.45,343.17921638488764L947.6,374.77419018745417L952.75,316.24556422233576L957.9,360.8559393882751L963.05,362.42782115936274L968.1999999999999,361.6160953044891L973.35,372.8428208827972L978.5,376.44783496856684L983.65,361.1822569370269L988.8,351.73732280731195L993.95,361.2330758571624L999.1,358.85147094726557L1004.25,333.837422132492L1009.4,334.53899860382074L1014.5500000000001,392.97174453735346L1019.7,305.8490896224975L1024.8500000000001,377.32777833938593L1030,352.5349044799804L1035.15,371.87563419342035L1040.3,377.42428421974176L1045.45,381.4963066577911L1050.6,360.6009685993194L1055.75,366.1954307556152L1060.9,360.046842098236L1066.05,349.07083153724665L1071.2,360.4528927803039L1076.35,320.604475736618L1081.5,387.50182628631586L1086.65,323.49664807319635L1091.8,354.7663056850433L1096.95,368.5650193691253L1102.1,389.58001971244806L1107.25,370.09008765220636L1112.4,395.39027452468866L1117.55,345.4076135158538L1122.7,380.8863544464111L1127.85,372.74506330490107L1133,343.49977612495417L1138.1499999999999,359.5685684680938L1143.3,336.20212912559504L1148.4499999999998,379.33762907981867L1153.6000000000001,327.3155772686004L1158.75,357.32752919197077L1163.9,388.3001589775085L1169.05,373.83942246437067L1174.2,375.078477859497L1179.35,394.4839203357696L1184.5,354.4056916236877L1189.6499999999999,383.27434301376337L1194.8000000000002,371.12599253654474L1199.95,344.4575750827789L1205.1000000000001,361.23407721519465L1210.25,349.1771006584167L1215.4,371.9363415241241L1220.55,344.9071848392486L1225.7,366.8598318099975L1230.85,385.7726061344146L1236,368.33758592605585L1241.15,396.38950467109674L1246.3,393.601723909378L1251.45,354.23496007919306L1256.6,379.0499889850616L1261.75,371.87388181686396L1266.9,349.0882301330566L1272.05,360.50120830535883L1277.2,370.97891807556147L1282.35,364.1465270519256L1287.5,356.9868171215057L1292.65,363.7103104591369L1297.8,384.83621120452875L1308.1,390.0907123088836L1313.25,375.1693511009216L1318.3999999999999,365.1241028308868L1323.55,376.8696570396423L1328.6999999999998,372.1317315101623L1333.8500000000001,349.78417396545404L1339,348.62485170364374L1344.15,404.57185149192804L1349.3,324.57598686218256L1354.45,386.94043993949884L1359.6,371.7613542079925L1364.75,383.35382580757135L1375.0500000000002,400.16099452972406L1380.2,372.2462618350982L1385.3500000000001,374.88233685493464L1390.5,375.0130140781402L1395.65,374.0602219104766L1400.8,360.2154457569122L1405.95,349.6417307853698L1411.1,394.3969273567199" style="fill: none;" fill="none"></path></g><g><path stroke="rgb(0, 153, 136)" stroke-width="2px" d="M103,-315.90863227844227L108.14999999999999,69.08223867416388L113.3,159.66258287429812L118.45,156.34520888328552L123.6,197.4319303035736L128.75,184.54432725906372L133.9,200.39832830429077L139.05,239.51087236404416L144.20000000000002,200.6181263923645L149.35000000000002,253.82753849029538L154.5,249.9669277667999L159.65,268.7982165813446L164.79999999999998,277.1971070766449L169.95,259.43639516830444L175.1,262.5870430469513L180.25,267.3520052433014L185.39999999999998,260.4734265804291L190.55,264.96076226234436L195.7,248.8301360607147L200.85,291.8244445323944L206,291.75259709358215L211.15,309.7695314884185L216.29999999999998,288.7525284290314L221.45000000000002,297.73395895957947L226.6,289.43357706069946L231.75000000000003,277.70654797554016L236.9,305.93821048736567L242.04999999999998,285.5579459667206L247.2,284.21162009239197L252.35,294.4797956943512L257.5,323.91121029853815L262.65,330.6281948089599L267.8,298.1640422344207L272.95,318.7981510162353L278.1,289.0404188632965L283.25,296.0847222805023L288.40000000000003,324.0559065341949L293.55,266.5663146972656L298.70000000000005,320.065369606018L303.85,337.18170762062067L309,324.0900778770446L314.15,337.4081397056579L319.3,319.67521548271174L324.45,321.006771326065L329.59999999999997,311.318632364273L334.75,328.93652558326716L339.9,308.66866350173945L345.05,286.3496446609497L350.2,339.7697174549102L355.35,333.5142338275909L360.5,355.02515673637384L365.65,318.86198759078974L370.79999999999995,338.70339632034296L375.95000000000005,321.37063980102533L381.1,311.37583494186396L386.25,343.36321592330927L391.4,298.11046957969666L396.55,336.8520104885101L401.7,340.1899123191833L406.85,348.365249633789L412,353.6857151985168L417.15000000000003,338.85309934616083L422.3,336.4216768741607L427.45,327.583315372467L432.59999999999997,325.44704318046564L437.74999999999994,334.5856869220733L442.90000000000003,304.0088438987732L448.05,346.07652068138117L453.2,355.54573774337763L458.34999999999997,360.4793035984039L463.50000000000006,358.2093501091003L468.65000000000003,343.59553098678583L473.8,336.8301057815551L478.95,333.5731887817382L484.09999999999997,343.5246849060058L489.25,337.69390225410456L494.4,320.966967344284L499.55,339.5032310485839L504.7,364.65096116065973L509.85,377.12049722671503L515,343.8826704025268L520.15,359.8375582695007L525.3,330.420788526535L530.45,332.46255755424494L535.6,359.8146522045135L540.75,312.76359200477594L545.9,349.8682880401611L551.05,374.8635613918304L556.2,358.85485053062433L561.35,375.3780090808868L566.5,350.78703403472895L571.65,353.8841092586517L576.8000000000001,343.8732826709747L581.95,352.2099637985229L587.1,340.0280678272247L592.25,325.07941961288446L597.4000000000001,361.2245643138885L602.5500000000001,369.35471534729L607.7,380.3905570507049L612.85,351.2331390380859L618,364.3998706340789L623.15,352.6620769500732L628.3,333.58220100402826L633.45,374.8666906356811L638.6,342.65638232231134L643.75,338.513638973236L648.9,361.91124558448786L654.05,376.2108886241912L659.1999999999999,381.33608937263483L664.3499999999999,355.99484682083124L669.5,369.63384389877314L674.65,343.4694850444793L679.8,350.26682853698725L684.9499999999999,364.3307769298553L690.1,318.7818789482116L695.25,361.89972996711725L700.4,384.90079879760737L710.7,378.26492428779596L715.85,369.71570491790766L721,360.78496813774103L726.15,353.44563961029047L731.3,364.4346678256988L736.4499999999999,354.2413437366485L741.5999999999999,328.2493436336517L746.7500000000001,375.85340380668634L751.9000000000001,375.847520828247L757.0500000000001,396.4508378505706L762.2,359.3188548088073L767.35,378.2173597812652L772.5,356.7212069034576L777.65,346.5711915493011L782.8,380.03632664680475L787.9499999999999,335.7625329494476L793.1,368.64788174629206L798.25,379.2798006534576L808.55,394.5859336853027L813.7,366.1433601379394L818.85,372.85333514213556L824,364.3918597698211L829.15,356.55185222625727L834.3000000000001,361.72999978065485L839.45,340.5174815654754L844.6,372.48208165168757L849.75,385.4808354377746L854.9,390.0358879566192L860.05,374.57792401313776L865.1999999999999,380.0736272335052L870.3499999999999,368.88745665550226L875.4999999999999,352.197071313858L880.6500000000001,383.4548377990722L885.8000000000001,356.5870249271392L890.95,354.0140354633331L896.1,364.5101451873779L901.25,397.809430360794L906.4,400.5044603347778L911.55,366.06312632560724L916.6999999999999,389.1859853267669L921.8499999999999,352.9666149616241L927.0000000000001,362.8480160236358L932.1500000000001,385.5007374286651L937.3000000000001,325.03122925758356L942.45,379.1454935073852L968.1999999999999,378.0184650421142L973.35,363.6617445945739L978.5,382.08310246467585L983.65,358.1952059268951L988.8,340.8245229721069L993.95,387.9828536510467L1004.25,404.48122859001154L1009.4,370.3603291511535L1014.5500000000001,391.02560520172113L1019.7,370.1114916801452L1024.8500000000001,361.3120579719543L1030,388.54261279106134L1035.15,349.03628468513483" style="fill: none;" fill="none"></path></g><g><path stroke="rgb(0, 119, 187)" stroke-width="2px" d="M103,-282.95068502426136L108.14999999999999,110.36710381507879L113.3,200.306578874588L118.45,188.19077253341672L123.6,227.9262864589691L128.75,212.53841757774353L133.9,224.29335951805115L139.05,265.47783851623535L144.20000000000002,221.8949818611145L149.35000000000002,272.92381167411804L154.5,268.8734436035156L159.65,287.38454818725586L164.79999999999998,296.77916407585144L169.95,277.11374402046204L175.1,280.5415177345276L180.25,287.8793442249298L185.39999999999998,277.6591086387634L190.55,285.64581513404846L195.7,269.39552664756775L200.85,309.75025534629816L206,308.9863443374633L211.15,326.16576790809626L216.29999999999998,308.76867413520813L221.45000000000002,314.22782778739924L226.6,307.0723736286163L231.75000000000003,296.5499782562256L236.9,325.930323600769L242.04999999999998,301.2798929214477L247.2,305.7912611961365L252.35,307.27339625358576L257.5,344.3888568878173L262.65,348.643627166748L267.8,317.74434685707087L272.95,334.9530601501464L278.1,305.69725871086115L283.25,316.6200721263885L288.40000000000003,341.29115581512445L293.55,281.4781630039215L298.70000000000005,339.03033971786493L303.85,355.4240727424621L309,339.84844923019403L314.15,356.32905006408686L319.3,340.07575750350946L324.45,334.239467382431L329.59999999999997,326.4585399627685L334.75,345.3076028823852L339.9,323.5552275180816L345.05,305.53629040718073L350.2,357.06842780113215L355.35,348.98684263229364L360.5,372.37643837928766L365.65,336.7136979103088L370.79999999999995,354.1851425170898L375.95000000000005,339.21734333038324L381.1,330.4640972614288L386.25,360.8366632461547L391.4,319.0433585643768L396.55,355.53397178649897L401.7,359.83743309974665L406.85,364.09858703613276L412,375.43083071708674L417.15000000000003,352.7322971820831L422.3,353.1272077560424L427.45,347.74716138839716L432.59999999999997,341.89434885978693L437.74999999999994,353.69310021400446L442.90000000000003,320.62813282012934L448.05,366.7170131206512L453.2,372.22560882568354L458.34999999999997,374.78470444679255L463.50000000000006,371.7353188991546L468.65000000000003,365.25703310966486L473.8,353.3780479431152L478.95,353.38092684745783L484.09999999999997,361.1149156093597L489.25,351.5325450897216L494.4,337.3873615264892L499.55,357.85336732864374L504.7,379.51787352561945L509.85,394.57028746604914L515,361.11253738403315L520.15,377.0027124881744L525.3,345.2487730979919L530.45,352.63666749000544L535.6,374.16073322296137L540.75,328.7492716312408L545.9,368.7761807441711L551.05,391.2915909290313L556.2,376.0574305057525L561.35,392.47619748115534L566.5,371.89065456390375L571.65,367.2789001464843L576.8000000000001,365.6779789924621L581.95,370.1308929920196L587.1,355.40704965591425L592.25,344.0307462215423L597.4000000000001,379.68309760093683L607.7,395.15295267105097L612.85,369.90308403968805L618,383.0529177188873L623.15,366.5932202339172L628.3,352.53903508186335L633.45,392.83918976783747L638.6,357.3580706119537L643.75,361.39241695404047L648.9,378.7751162052154L659.1999999999999,397.97615647315973L664.3499999999999,375.0550711154937L669.5,387.1201837062835L674.65,362.5404739379882L679.8,367.9016196727752L684.9499999999999,384.81843709945673L690.1,334.69633698463434L695.25,382.2256708145141L715.85,387.148847579956L721,377.35519051551813L726.15,370.6626141071319L731.3,383.0106103420257L736.4499999999999,367.6231169700622L741.5999999999999,348.4916710853576L746.7500000000001,391.52916312217707L757.0500000000001,411.5647101402282L762.2,377.2472941875457L767.35,396.739854812622L772.5,370.0406455993652L777.65,365.8290588855743L782.8,398.47658514976496L787.9499999999999,352.7345502376556L793.1,387.36689329147333L824,381.13869667053217L829.15,374.2524826526641L834.3000000000001,377.58913278579706L839.45,359.2404985427856L844.6,394.6276152133941" style="fill: none;" fill="none"></path></g><g><path stroke="rgb(187, 187, 187)" stroke-width="2px" d="M108.14999999999999,-9.405580759048462L113.3,74.03420448303223L118.45,71.07456564903259L123.6,109.61633563041687L128.75,100.05824804306036L133.9,112.69363403320312L139.05,149.6093237400055L144.20000000000002,112.03599214553839L149.35000000000002,160.1566278934479L154.5,159.02371644973755L159.65,176.60380840301514L164.79999999999998,182.7577793598175L169.95,168.12856435775757L175.1,173.98563265800476L180.25,173.47055912017822L185.39999999999998,167.8065025806427L190.55,175.6237292289734L195.7,155.04732370376587L200.85,194.59958910942078L206,200.01055240631104L211.15,210.4229235649109L216.29999999999998,201.64051294326782L221.45000000000002,200.25062799453733L226.6,195.78895211219788L231.75000000000003,185.69013118743896L236.9,213.963725566864L242.04999999999998,191.3503074645996L247.2,196.1580777168274L252.35,195.802720785141L257.5,230.51742553710938L262.65,234.365519285202L267.8,209.31479573249817L272.95,225.99416613578796L278.1,195.9109926223755L283.25,207.0767605304718L288.40000000000003,227.48493790626523L293.55,175.59306263923645L298.70000000000005,221.80623650550842L303.85,241.5764236450195L309,229.67666029930112L314.15,243.55147719383237L319.3,229.06458020210263L324.45,222.8248679637909L329.59999999999997,213.857581615448L334.75,234.65754032135007L339.9,214.53988194465637L345.05,198.71792435646057L350.2,239.19206500053403L355.35,238.75422120094296L360.5,251.11047863960266L365.65,228.6696696281433L370.79999999999995,242.5461137294769L375.95000000000005,228.26762437820432L381.1,216.68904662132263L386.25,248.6970806121826L391.4,205.8661186695099L396.55,240.20030736923215L401.7,242.76766419410703L406.85,252.0101988315582L412,258.1133508682251L417.15000000000003,243.1714618206024L422.3,242.52458453178403L427.45,232.2890782356262L432.59999999999997,229.90522027015683L437.74999999999994,239.28418993949887L442.90000000000003,210.0853407382965L448.05,247.0949077606201L453.2,260.57631611824036L458.34999999999997,258.1945860385895L463.50000000000006,253.47556114196775L468.65000000000003,257.9657757282257L473.8,243.71544957160947L478.95,235.2529728412628L484.09999999999997,248.86756181716916L489.25,237.13740348815918L494.4,223.30201506614685L499.55,241.23721361160275L504.7,267.34774947166443L509.85,276.6058051586151L515,248.31706523895264L520.15,264.4713485240936L525.3,233.01731586456296L530.45,236.66714072227478L535.6,258.7029004096985L540.75,218.3406615257263L545.9,250.27384400367737L551.05,272.6747238636017L556.2,260.68896889686584L561.35,276.63121461868286L566.5,260.2409863471985L571.65,255.13205766677854L576.8000000000001,248.39754939079282L581.95,254.444500207901L587.1,240.77934265136716L592.25,230.24555683135983L597.4000000000001,258.5912489891052L602.5500000000001,271.13914132118225L607.7,273.78122448921204L612.85,256.51142835617065L618,268.1135380268097L623.15,255.196019411087L628.3,237.6879000663757L633.45,276.459481716156L638.6,244.1721940040588L643.75,243.82985472679138L648.9,260.490825176239L654.05,280.8934950828552L659.1999999999999,279.3664240837097L664.3499999999999,259.885379076004L669.5,274.80674028396606L674.65,245.94234466552734L679.8,255.02015590667725L684.9499999999999,264.13651943206787L690.1,223.16570520401L695.25,262.3444640636444L700.4,284.60703134536743L705.55,274.2781484127044L710.7,281.1056578159332L715.85,272.9420864582061L721,264.2882251739502L726.15,254.90800380706787L731.3,265.8465886116028L736.4499999999999,254.75091576576233L741.5999999999999,234.3094432353973L746.7500000000001,272.6300382614135L751.9000000000001,276.3435745239258L757.0500000000001,294.0356934070587L762.2,261.9143807888031L767.35,281.9161319732666L772.5,256.0793423652649L777.65,247.75067210197446L782.8,279.2339944839477L787.9499999999999,237.14929461479187L793.1,270.0644338130951L798.25,277.8755271434784L803.4,283.48087906837463L808.55,291.20310187339777L813.7,268.45900654792786L818.85,276.75012588500977L824,265.3021001815796L829.15,259.2342460155487L834.3000000000001,262.33883142471313L839.45,244.0191113948822L844.6,274.1129243373871L849.75,286.7236518859863L854.9,287.2606301307678L860.05,274.6748113632202L865.1999999999999,280.3695344924926L870.3499999999999,268.93978357315063L875.4999999999999,256.6582524776459L880.6500000000001,283.2289123535156L885.8000000000001,254.46077227592468L890.95,260.82327604293823L896.1,263.57688546180725L901.25,296.322169303894L906.4,299.21133756637573L911.55,265.31561851501465L916.6999999999999,292.4475395679474L921.8499999999999,252.9122972488403L927.0000000000001,264.6037781238556L932.1500000000001,281.69232845306396L937.3000000000001,225.39960980415344L942.45,277.966525554657L947.6,298.9880347251892L952.75,280.09278416633606L957.9,296.94977045059204L963.05,277.5612258911133L968.1999999999999,281.8106138706207L973.35,261.3814079761505L978.5,280.23810625076294L983.65,261.0657298564911L988.8,245.36080598831177L993.95,286.2568938732147L999.1,286.00029587745667" style="fill: none;" fill="none"></path></g><g><path stroke="rgb(255, 112, 67)" stroke-width="2px" d="M108.14999999999999,-102.4323678016662L113.3,20.54791688919073L118.45,32.47133731842047L123.6,78.99756073951721L128.75,69.32444214820868L133.9,87.86158204078674L139.05,124.08933877944946L144.20000000000002,86.68210744857788L149.35000000000002,137.59753346443176L154.5,132.64456629753116L159.65,155.193647146225L164.79999999999998,164.43881034851074L169.95,154.0767574310303L175.1,153.73504400253296L180.25,158.74033212661743L185.39999999999998,156.24044179916382L190.55,165.36744475364685L195.7,145.1537811756134L200.85,187.25963473320007L206,192.34453082084656L211.15,205.83682894706726L216.29999999999998,192.35817432403564L221.45000000000002,194.66668009757996L226.6,190.11688470840454L231.75000000000003,178.62642645835876L236.9,209.85740661621094L242.04999999999998,186.43138647079468L247.2,189.77867603302002L252.35,193.3342480659485L257.5,224.50815081596372L262.65,231.08882546424866L267.8,204.35143947601316L272.95,221.45638704299924L278.1,192.51764059066772L283.25,205.53479433059692L288.40000000000003,224.56122279167175L293.55,171.07493519783017L298.70000000000005,223.89794826507568L303.85,237.1914768218994L309,228.69445323944092L314.15,238.68174791336057L319.3,223.71570110321045L324.45,221.052964925766L329.59999999999997,214.14885163307187L334.75,231.10259413719177L339.9,211.6535925865173L345.05,196.0688316822052L350.2,239.25239682197568L355.35,235.7562804222107L360.5,254.47166204452512L365.65,223.17784667015076L370.79999999999995,237.3284125328064L375.95000000000005,226.19518876075745L381.1,216.99971795082092L386.25,244.50902581214902L391.4,204.55696821212769L396.55,238.2154905796051L401.7,238.43228459358212L406.85,250.7620060443878L412,258.3066129684448L417.15000000000003,238.69576692581174L422.3,236.03227972984314L427.45,234.12707090377808L432.59999999999997,227.47517466545105L437.74999999999994,236.4079141616821L442.90000000000003,211.18796110153198L448.05,243.9471387863159L453.2,258.042129278183L458.34999999999997,259.7478175163269L463.50000000000006,255.8954679965973L468.65000000000003,250.04465818405149L473.8,236.27986550331116L478.95,238.5302925109863L484.09999999999997,245.67585825920102L489.25,234.71211433410642L494.4,227.32897639274594L499.55,240.54164528846738L504.7,265.06853342056274L509.85,276.33981943130493L515,245.72229623794553L520.15,263.7300932407379L525.3,231.8060481548309L530.45,236.19061946868896L535.6,259.2540228366852L540.75,214.75242018699643L545.9,255.05570411682126L551.05,270.687153339386L556.2,262.3077893257141L561.35,273.26277136802673L566.5,257.8442358970642L571.65,251.44305467605588L576.8000000000001,246.44102096557614L581.95,255.79958796501157L587.1,246.20858073234555L592.25,231.11548662185666L597.4000000000001,260.75881361961365L602.5500000000001,268.38165163993835L607.7,276.69029474258423L612.85,253.57669830322263L618,268.02141308784485L623.15,254.48067426681516L628.3,239.302464723587L633.45,276.0775887966156L638.6,245.9007883071899L643.75,245.63943386077878L648.9,261.6204822063446L654.05,281.4078176021576L659.1999999999999,280.50546884536743L664.3499999999999,257.66624450683594L669.5,268.7536561489105L674.65,247.5820684432983L679.8,255.19263982772824L684.9499999999999,267.0299434661865L690.1,223.58765244483948L695.25,266.86847448349L700.4,282.620587348938L705.55,275.9108626842499L710.7,282.23856925964355L715.85,268.34134697914124L721,264.91657733917236L726.15,257.9970681667328L731.3,268.3728897571564L736.4499999999999,254.41496014595032L741.5999999999999,235.05282640457153L746.7500000000001,274.32133197784424L751.9000000000001,276.9030833244324L757.0500000000001,294.0979027748108L762.2,262.7328658103943L767.35,279.8296773433685L772.5,260.1513648033142L777.65,249.64023470878598L782.8,277.3421788215637L787.9499999999999,239.41699504852295L793.1,270.08996844291687L798.25,278.6662244796753L803.4,282.7115857601165L808.55,292.83869504928583L813.7,269.485148191452L818.85,273.4655463695526L824,266.67521238327026L829.15,258.30798983573914L834.3000000000001,261.20429277420044L839.45,244.57473993301392L844.6,273.85332226753235L849.75,285.81717252731323L854.9,288.264616727829L860.05,270.3003787994385L865.1999999999999,283.12114119529724L870.3499999999999,273.34187865257263L875.4999999999999,255.83914160728455L880.6500000000001,287.87959456443787L885.8000000000001,259.0918028354645L890.95,258.46933364868164L896.1,268.33483815193176L901.25,293.97573709487915L906.4,297.23916292190546L911.55,267.92290449142456L916.6999999999999,290.0972270965576L921.8499999999999,258.2745695114136L927.0000000000001,268.20966839790344L932.1500000000001,285.1873183250427L937.3000000000001,232.71077513694763L942.45,278.1859481334686L947.6,295.606073141098L952.75,284.5508301258087L957.9,298.42026472091675L963.05,277.5779986381531L968.1999999999999,281.75316095352173L973.35,267.31420397758484L978.5,282.368870973587L983.65,263.99019598960876L988.8,243.0879735946655L993.95,289.10563230514526L999.1,290.08408427238464L1004.25,300.092031955719L1009.4,270.64021468162537L1014.5500000000001,291.17456316947937L1019.7,275.3377103805542L1024.8500000000001,263.38512539863586L1030,287.81050086021423L1035.15,248.97345542907712L1040.3,282.69155859947205L1045.45,290.0798285007476L1050.6,290.90394616127014L1055.75,302.77804970741266L1060.9,280.1482343673706L1066.05,285.6048846244812L1071.2,274.293919801712L1076.35,268.4693956375122L1081.5,273.18629264831543L1086.65,252.54817843437192L1091.8,282.3568546772003L1096.95,298.3546757698059L1102.1,294.6525299549102L1107.25,291.43729448318476L1112.4,288.9976108074188L1117.55,283.1923627853393L1122.7,270.674010515213L1127.85,285.11146545410156L1133,273.6958587169647L1138.1499999999999,264.6095359325409L1143.3,272.6315402984619L1148.4499999999998,302.05143928527826L1153.6000000000001,307.82113909721375L1158.75,280.4545247554779L1163.9,297.89367556571955L1169.05,269.0407955646515L1174.2,271.26781582832336L1179.35,292.24739313125605L1184.5,249.202766418457L1189.6499999999999,282.93726682662964L1194.8000000000002,301.9902312755585L1199.95,294.55740094184875L1205.1000000000001,305.22449254989624L1210.25,286.19168043136597L1215.4,287.5433886051178L1220.55,278.40662240982056L1225.7,284.7457194328308L1230.85,271.6754937171936L1236,260.32134532928467L1241.15,290.35132169723505L1246.3,300.0781381130218L1251.45,303.8576388359069L1256.6,282.3926532268524L1261.75,296.2729775905609L1266.9,284.2961096763611L1272.05,267.6499092578888L1277.2,300.47367453575134L1282.35,267.50258445739746L1287.5,278.9927923679352L1292.65,289.4603633880615L1297.8,302.3164236545562L1302.95,305.47758579254145L1308.1,285.22987604141235L1313.25,298.37032198905945" style="fill: none;" fill="none"></path></g></g></g></g></g></g><g transform="translate(50, 378)" clip-path="url(#clip_1)"><clipPath id="clip_1"><rect width="1442" height="22"></rect></clipPath><g><g><line x1="0" y1="0" x2="0" y2="5" style="visibility: inherit;" fill="rgb(0, 0, 0)" stroke="rgb(204, 204, 204)" stroke-width="1px"></line><line x1="103" y1="0" x2="103" y2="5" style="visibility: inherit;" fill="rgb(0, 0, 0)" stroke="rgb(204, 204, 204)" stroke-width="1px"></line><line x1="206" y1="0" x2="206" y2="5" style="visibility: inherit;" fill="rgb(0, 0, 0)" stroke="rgb(204, 204, 204)" stroke-width="1px"></line><line x1="309" y1="0" x2="309" y2="5" style="visibility: inherit;" fill="rgb(0, 0, 0)" stroke="rgb(204, 204, 204)" stroke-width="1px"></line><line x1="412" y1="0" x2="412" y2="5" style="visibility: inherit;" fill="rgb(0, 0, 0)" stroke="rgb(204, 204, 204)" stroke-width="1px"></line><line x1="515" y1="0" x2="515" y2="5" style="visibility: inherit;" fill="rgb(0, 0, 0)" stroke="rgb(204, 204, 204)" stroke-width="1px"></line><line x1="618" y1="0" x2="618" y2="5" style="visibility: inherit;" fill="rgb(0, 0, 0)" stroke="rgb(204, 204, 204)" stroke-width="1px"></line><line x1="721" y1="0" x2="721" y2="5" style="visibility: inherit;" fill="rgb(0, 0, 0)" stroke="rgb(204, 204, 204)" stroke-width="1px"></line><line x1="824" y1="0" x2="824" y2="5" style="visibility: inherit;" fill="rgb(0, 0, 0)" stroke="rgb(204, 204, 204)" stroke-width="1px"></line><line x1="927.0000000000001" y1="0" x2="927.0000000000001" y2="5" style="visibility: inherit;" fill="rgb(0, 0, 0)" stroke="rgb(204, 204, 204)" stroke-width="1px"></line><line x1="1030" y1="0" x2="1030" y2="5" style="visibility: inherit;" fill="rgb(0, 0, 0)" stroke="rgb(204, 204, 204)" stroke-width="1px"></line><line x1="1133" y1="0" x2="1133" y2="5" style="visibility: inherit;" fill="rgb(0, 0, 0)" stroke="rgb(204, 204, 204)" stroke-width="1px"></line><line x1="1236" y1="0" x2="1236" y2="5" style="visibility: inherit;" fill="rgb(0, 0, 0)" stroke="rgb(204, 204, 204)" stroke-width="1px"></line><line x1="1339" y1="0" x2="1339" y2="5" style="visibility: inherit;" fill="rgb(0, 0, 0)" stroke="rgb(204, 204, 204)" stroke-width="1px"></line><line x1="1442" y1="0" x2="1442" y2="5" style="visibility: inherit;" fill="rgb(0, 0, 0)" stroke="rgb(204, 204, 204)" stroke-width="1px"></line></g><g transform="translate(0, 8)"><text x="0" y="0" dx="0em" dy="0.95em" style="text-anchor: middle; visibility: hidden; font-family: &quot;Helvetica Neue&quot;, sans-serif; font-size: 12px; font-weight: 200;" fill="rgb(50, 49, 63)" stroke="none" stroke-width="1px">-20</text><text x="103" y="0" dx="0em" dy="0.95em" style="text-anchor: middle; visibility: inherit; font-family: &quot;Helvetica Neue&quot;, sans-serif; font-size: 12px; font-weight: 200;" fill="rgb(50, 49, 63)" stroke="none" stroke-width="1px">0</text><text x="206" y="0" dx="0em" dy="0.95em" style="text-anchor: middle; visibility: inherit; font-family: &quot;Helvetica Neue&quot;, sans-serif; font-size: 12px; font-weight: 200;" fill="rgb(50, 49, 63)" stroke="none" stroke-width="1px">20</text><text x="309" y="0" dx="0em" dy="0.95em" style="text-anchor: middle; visibility: inherit; font-family: &quot;Helvetica Neue&quot;, sans-serif; font-size: 12px; font-weight: 200;" fill="rgb(50, 49, 63)" stroke="none" stroke-width="1px">40</text><text x="412" y="0" dx="0em" dy="0.95em" style="text-anchor: middle; visibility: inherit; font-family: &quot;Helvetica Neue&quot;, sans-serif; font-size: 12px; font-weight: 200;" fill="rgb(50, 49, 63)" stroke="none" stroke-width="1px">60</text><text x="515" y="0" dx="0em" dy="0.95em" style="text-anchor: middle; visibility: inherit; font-family: &quot;Helvetica Neue&quot;, sans-serif; font-size: 12px; font-weight: 200;" fill="rgb(50, 49, 63)" stroke="none" stroke-width="1px">80</text><text x="618" y="0" dx="0em" dy="0.95em" style="text-anchor: middle; visibility: inherit; font-family: &quot;Helvetica Neue&quot;, sans-serif; font-size: 12px; font-weight: 200;" fill="rgb(50, 49, 63)" stroke="none" stroke-width="1px">100</text><text x="721" y="0" dx="0em" dy="0.95em" style="text-anchor: middle; visibility: inherit; font-family: &quot;Helvetica Neue&quot;, sans-serif; font-size: 12px; font-weight: 200;" fill="rgb(50, 49, 63)" stroke="none" stroke-width="1px">120</text><text x="824" y="0" dx="0em" dy="0.95em" style="text-anchor: middle; visibility: inherit; font-family: &quot;Helvetica Neue&quot;, sans-serif; font-size: 12px; font-weight: 200;" fill="rgb(50, 49, 63)" stroke="none" stroke-width="1px">140</text><text x="927.0000000000001" y="0" dx="0em" dy="0.95em" style="text-anchor: middle; visibility: inherit; font-family: &quot;Helvetica Neue&quot;, sans-serif; font-size: 12px; font-weight: 200;" fill="rgb(50, 49, 63)" stroke="none" stroke-width="1px">160</text><text x="1030" y="0" dx="0em" dy="0.95em" style="text-anchor: middle; visibility: inherit; font-family: &quot;Helvetica Neue&quot;, sans-serif; font-size: 12px; font-weight: 200;" fill="rgb(50, 49, 63)" stroke="none" stroke-width="1px">180</text><text x="1133" y="0" dx="0em" dy="0.95em" style="text-anchor: middle; visibility: inherit; font-family: &quot;Helvetica Neue&quot;, sans-serif; font-size: 12px; font-weight: 200;" fill="rgb(50, 49, 63)" stroke="none" stroke-width="1px">200</text><text x="1236" y="0" dx="0em" dy="0.95em" style="text-anchor: middle; visibility: inherit; font-family: &quot;Helvetica Neue&quot;, sans-serif; font-size: 12px; font-weight: 200;" fill="rgb(50, 49, 63)" stroke="none" stroke-width="1px">220</text><text x="1339" y="0" dx="0em" dy="0.95em" style="text-anchor: middle; visibility: inherit; font-family: &quot;Helvetica Neue&quot;, sans-serif; font-size: 12px; font-weight: 200;" fill="rgb(50, 49, 63)" stroke="none" stroke-width="1px">240</text><text x="1442" y="0" dx="0em" dy="0.95em" style="text-anchor: middle; visibility: hidden; font-family: &quot;Helvetica Neue&quot;, sans-serif; font-size: 12px; font-weight: 200;" fill="rgb(50, 49, 63)" stroke="none" stroke-width="1px">260</text></g><line x1="0" y1="0" x2="1442" y2="0" fill="rgb(0, 0, 0)" stroke="rgb(204, 204, 204)" stroke-width="1px"></line></g></g></g></g></svg>