<svg viewBox="0 0 1492 400" xmlns="http://www.w3.org/2000/svg"><g><g><g><g><g><line x1="50" y1="353.21784746524753" x2="45" y2="353.21784746524753" style="visibility: inherit;" fill="rgb(0, 0, 0)" stroke="rgb(204, 204, 204)" stroke-width="1px"></line><line x1="50" y1="303.2711486351332" x2="45" y2="303.2711486351332" style="visibility: inherit;" fill="rgb(0, 0, 0)" stroke="rgb(204, 204, 204)" stroke-width="1px"></line><line x1="50" y1="253.32444980501904" x2="45" y2="253.32444980501904" style="visibility: inherit;" fill="rgb(0, 0, 0)" stroke="rgb(204, 204, 204)" stroke-width="1px"></line><line x1="50" y1="203.37775097490473" x2="45" y2="203.37775097490473" style="visibility: inherit;" fill="rgb(0, 0, 0)" stroke="rgb(204, 204, 204)" stroke-width="1px"></line><line x1="50" y1="153.43105214479039" x2="45" y2="153.43105214479039" style="visibility: inherit;" fill="rgb(0, 0, 0)" stroke="rgb(204, 204, 204)" stroke-width="1px"></line><line x1="50" y1="103.48435331467618" x2="45" y2="103.48435331467618" style="visibility: inherit;" fill="rgb(0, 0, 0)" stroke="rgb(204, 204, 204)" stroke-width="1px"></line><line x1="50" y1="53.53765448456187" x2="45" y2="53.53765448456187" style="visibility: inherit;" fill="rgb(0, 0, 0)" stroke="rgb(204, 204, 204)" stroke-width="1px"></line><line x1="50" y1="3.590955654447555" x2="45" y2="3.590955654447555" style="visibility: inherit;" fill="rgb(0, 0, 0)" stroke="rgb(204, 204, 204)" stroke-width="1px"></line></g><g transform="translate(40, 0)"><text x="0" y="353.21784746524753" dx="0em" dy="0.3em" style="text-anchor: end; visibility: inherit; font-family: &quot;Helvetica Neue&quot;, sans-serif; font-size: 12px; font-weight: 200;" fill="rgb(50, 49, 63)" stroke="none" stroke-width="1px">0.13</text><text x="0" y="303.2711486351332" dx="0em" dy="0.3em" style="text-anchor: end; visibility: inherit; font-family: &quot;Helvetica Neue&quot;, sans-serif; font-size: 12px; font-weight: 200;" fill="rgb(50, 49, 63)" stroke="none" stroke-width="1px">0.14</text><text x="0" y="253.32444980501904" dx="0em" dy="0.3em" style="text-anchor: end; visibility: inherit; font-family: &quot;Helvetica Neue&quot;, sans-serif; font-size: 12px; font-weight: 200;" fill="rgb(50, 49, 63)" stroke="none" stroke-width="1px">0.15</text><text x="0" y="203.37775097490473" dx="0em" dy="0.3em" style="text-anchor: end; visibility: inherit; font-family: &quot;Helvetica Neue&quot;, sans-serif; font-size: 12px; font-weight: 200;" fill="rgb(50, 49, 63)" stroke="none" stroke-width="1px">0.16</text><text x="0" y="153.43105214479039" dx="0em" dy="0.3em" style="text-anchor: end; visibility: inherit; font-family: &quot;Helvetica Neue&quot;, sans-serif; font-size: 12px; font-weight: 200;" fill="rgb(50, 49, 63)" stroke="none" stroke-width="1px">0.17</text><text x="0" y="103.48435331467618" dx="0em" dy="0.3em" style="text-anchor: end; visibility: inherit; font-family: &quot;Helvetica Neue&quot;, sans-serif; font-size: 12px; font-weight: 200;" fill="rgb(50, 49, 63)" stroke="none" stroke-width="1px">0.18</text><text x="0" y="53.53765448456187" dx="0em" dy="0.3em" style="text-anchor: end; visibility: inherit; font-family: &quot;Helvetica Neue&quot;, sans-serif; font-size: 12px; font-weight: 200;" fill="rgb(50, 49, 63)" stroke="none" stroke-width="1px">0.19</text><text x="0" y="3.590955654447555" dx="0em" dy="0.3em" style="text-anchor: end; visibility: hidden; font-family: &quot;Helvetica Neue&quot;, sans-serif; font-size: 12px; font-weight: 200;" fill="rgb(50, 49, 63)" stroke="none" stroke-width="1px">0.2</text></g><line x1="50" y1="0" x2="50" y2="378" fill="rgb(0, 0, 0)" stroke="rgb(204, 204, 204)" stroke-width="1px"></line></g></g><g transform="translate(50, 0)" clip-path="url(#clip_0)"><clipPath id="clip_0"><rect width="1442" height="378"></rect></clipPath><g><g><g><line x1="106.22788457109598" y1="0" x2="106.22788457109598" y2="378" fill="rgb(0, 0, 0)" stroke="rgb(60, 60, 60)" stroke-width="1px" opacity="0.25"></line><line x1="220.55032856002418" y1="0" x2="220.55032856002418" y2="378" fill="rgb(0, 0, 0)" stroke="rgb(60, 60, 60)" stroke-width="1px" opacity="0.25"></line><line x1="334.8727725489524" y1="0" x2="334.8727725489524" y2="378" fill="rgb(0, 0, 0)" stroke="rgb(60, 60, 60)" stroke-width="1px" opacity="0.25"></line><line x1="449.1952165378807" y1="0" x2="449.1952165378807" y2="378" fill="rgb(0, 0, 0)" stroke="rgb(60, 60, 60)" stroke-width="1px" opacity="0.25"></line><line x1="563.5176605268089" y1="0" x2="563.5176605268089" y2="378" fill="rgb(0, 0, 0)" stroke="rgb(60, 60, 60)" stroke-width="1px" opacity="0.25"></line><line x1="677.840104515737" y1="0" x2="677.840104515737" y2="378" fill="rgb(0, 0, 0)" stroke="rgb(60, 60, 60)" stroke-width="1px" opacity="0.25"></line><line x1="792.1625485046653" y1="0" x2="792.1625485046653" y2="378" fill="rgb(0, 0, 0)" stroke="rgb(60, 60, 60)" stroke-width="1px" opacity="0.25"></line><line x1="906.4849924935935" y1="0" x2="906.4849924935935" y2="378" fill="rgb(0, 0, 0)" stroke="rgb(60, 60, 60)" stroke-width="1px" opacity="0.25"></line><line x1="1020.8074364825219" y1="0" x2="1020.8074364825219" y2="378" fill="rgb(0, 0, 0)" stroke="rgb(60, 60, 60)" stroke-width="1px" opacity="0.25"></line><line x1="1135.1298804714502" y1="0" x2="1135.1298804714502" y2="378" fill="rgb(0, 0, 0)" stroke="rgb(60, 60, 60)" stroke-width="1px" opacity="0.25"></line><line x1="1249.4523244603783" y1="0" x2="1249.4523244603783" y2="378" fill="rgb(0, 0, 0)" stroke="rgb(60, 60, 60)" stroke-width="1px" opacity="0.25"></line><line x1="1363.7747684493065" y1="0" x2="1363.7747684493065" y2="378" fill="rgb(0, 0, 0)" stroke="rgb(60, 60, 60)" stroke-width="1px" opacity="0.25"></line></g><g><line x1="0" y1="353.21784746524753" x2="1442" y2="353.21784746524753" fill="rgb(0, 0, 0)" stroke="rgb(60, 60, 60)" stroke-width="1px" opacity="0.25"></line><line x1="0" y1="303.2711486351332" x2="1442" y2="303.2711486351332" fill="rgb(0, 0, 0)" stroke="rgb(60, 60, 60)" stroke-width="1px" opacity="0.25"></line><line x1="0" y1="253.32444980501904" x2="1442" y2="253.32444980501904" fill="rgb(0, 0, 0)" stroke="rgb(60, 60, 60)" stroke-width="1px" opacity="0.25"></line><line x1="0" y1="203.37775097490473" x2="1442" y2="203.37775097490473" fill="rgb(0, 0, 0)" stroke="rgb(60, 60, 60)" stroke-width="1px" opacity="0.25"></line><line x1="0" y1="153.43105214479039" x2="1442" y2="153.43105214479039" fill="rgb(0, 0, 0)" stroke="rgb(60, 60, 60)" stroke-width="1px" opacity="0.25"></line><line x1="0" y1="103.48435331467618" x2="1442" y2="103.48435331467618" fill="rgb(0, 0, 0)" stroke="rgb(60, 60, 60)" stroke-width="1px" opacity="0.25"></line><line x1="0" y1="53.53765448456187" x2="1442" y2="53.53765448456187" fill="rgb(0, 0, 0)" stroke="rgb(60, 60, 60)" stroke-width="1px" opacity="0.25"></line><line x1="0" y1="3.590955654447555" x2="1442" y2="3.590955654447555" fill="rgb(0, 0, 0)" stroke="rgb(60, 60, 60)" stroke-width="1px" opacity="0.25"></line></g></g></g><g><g><line x1="0" y1="1002.5249322567332" x2="1442" y2="1002.5249322567332" fill="rgb(0, 0, 0)" stroke="rgb(153, 153, 153)" stroke-width="1.5px"></line></g></g><g><g><line x1="-8.094559417832249" y1="0" x2="-8.094559417832249" y2="378" fill="rgb(0, 0, 0)" stroke="rgb(153, 153, 153)" stroke-width="1.5px"></line></g></g><g><g><g><g><g><path stroke="rgb(204, 51, 17)" stroke-width="2px" d="M37.63441817773904,-12.292328278949128L43.35054037718545,8.02964551234112L49.06666257663186,24.617269329266207L54.78278477607827,39.093228617100294L60.49890697552468,52.066537553284604L66.2150291749711,63.42407728048295L71.93115137441751,74.10183609254506L77.64727357386393,83.4734431159639L83.36339577331033,93.84146550245208L89.07951797275675,102.33898134962618L94.79564017220316,108.79007899091442L100.51176237164957,115.31500252749953L106.22788457109598,121.03202750248136L111.94400677054239,125.4518558682689L117.6601289699888,130.2868153733041L123.3762511694352,136.38251842062476L129.09237336888162,139.56965124228105L134.80849556832803,144.57163353206775L140.52461776777446,148.99743673706988L146.24073996722086,152.92228723464186L151.95686216666726,157.25257044560556L157.6729843661137,161.57915244730503L163.3891065655601,164.85990487570245L169.1052287650065,168.06510995599263L174.8213509644529,171.15167858342159L180.53747316389934,173.92870917330342L186.25359536334574,176.08376096371163L191.96971756279214,177.97611180285077L197.68583976223857,181.6388528819068L203.40196196168498,182.81086508576388L209.11808416113138,185.95553619207786L214.83420636057778,188.09341531828542L220.55032856002418,190.5876187943079L226.26645075947064,193.280773904983L231.98257295891705,195.9502157251699L237.69869515836345,197.77177812517078L243.41481735780985,200.00983766407208L249.13093955725628,201.74507464289138L254.8470617567027,203.22846946283923L260.5631839561491,205.04825756090895L266.27930615559546,205.8341139464216L271.99542835504195,208.09524516085045L277.7115505544883,209.07788943219026L283.42767275393476,210.56147887228L289.14379495338113,212.30295879519988L294.85991715282756,214.2258234739302L300.576039352274,215.99359390682403L306.29216155172037,217.98203140519462L312.0082837511668,219.04928371801978L317.7244059506132,220.6140089133847L323.4405281500596,222.08588294563967L329.15665034950604,222.92101653078177L334.8727725489524,224.26160928504322L340.58889474839884,224.95186838717544L346.3050169478452,226.498204454181L352.0211391472917,227.14676372679185L357.7372613467381,228.27402815294042L363.4533835461845,229.9024954202269L369.1695057456309,231.01817357428513L374.8856279450773,232.38421861059464L380.6017501445237,233.85887299990225L386.3178723439701,234.74744274587925L392.03399454341655,236.02503739097918L397.75011674286293,237.00152188529836L403.46623894230936,237.62375391626824L409.18236114175585,238.60676531836836L414.89848334120217,239.36154146946703L420.61460554064865,240.41977591203678L426.33072774009497,241.12443283665283L432.04684993954146,242.09244593038127L437.7629721389879,243.15939342390075L443.47909433843427,244.05130359449973L449.1952165378807,245.3210161542701L454.91133873732707,246.45599986837453L460.6274609367735,247.11653428334404L466.34358313621993,248.0809624900287L472.0597053356663,248.8694238779416L477.77582753511274,249.4070769913179L483.4919497345591,250.1548188824928L489.20807193400555,251.00322573957834L494.924194133452,251.69927713766344L500.64031633289835,252.37239779367505L506.3564385323448,253.05179584657225L512.0725607317912,253.96131345820532L517.7886829312375,254.80831623457618L523.5048051306841,255.79035534967213L529.2209273301304,256.5326807162076L534.9370495295768,257.1635069349479L540.6531717290233,257.88915880741524L546.3692939284697,258.59222862278193L552.0854161279161,259.03591935983053L557.8015383273624,259.4643324038374L563.5176605268089,260.5352229494914L569.2337827262553,260.70310206907334L574.9499049257017,261.568015114915L580.6660271251482,262.1986074390011L586.3821493245946,262.93668785430225L592.0982715240409,263.768154383598L597.8143937234873,264.6855614625172L603.5305159229338,265.22664182705034L609.2466381223802,265.8557458712286L614.9627603218266,266.48716496545137L620.678882521273,267.07186438631203L626.3950047207194,267.5230464450038L632.1111269201658,267.86511667794815L637.8272491196122,268.71619226551024L643.5433713190587,268.8776496104242L649.259493518505,269.53237796945774L654.9756157179514,270.0251157650594L660.691737917398,270.82259816414864L666.4078601168443,271.5695720530557L672.1239823162907,272.3449391838452L677.840104515737,272.75006133709735L683.5562267151836,273.44087771133456L689.27234891463,274.00544576454524L694.9884711140763,274.377876921951L700.7045933135228,274.9431350395254L706.4207155129692,275.0652182585497L712.1368377124156,275.775257963535L717.8529599118621,275.9522756414692L723.5690821113085,276.41048525528686L729.2852043107548,277.01311728888686L735.0013265102012,277.73844797599656L740.7174487096477,278.3017682630307L746.4335709090941,279.05595956293433L752.1496931085404,279.3865874906179L757.8658153079868,280.0157332669133L763.5819375074333,280.5423927449633L769.2980597068797,280.8228590188814L775.014181906326,281.26675336783677L780.7303041057726,281.5893435278541L786.4464263052189,282.1065400372955L792.1625485046653,282.2378738344213L797.8786707041119,282.7340087192754L803.5947929035582,283.4115725877259L809.3109151030045,283.8629991685467L815.027037302451,284.4603236770572L820.7431595018975,285.1269768642629L826.4592817013438,285.41156627127054L832.1754039007901,286.01054795229436L837.8915261002367,286.4311979373424L843.6076482996831,286.6516764492236L849.3237704991294,287.07085148072935L855.039892698576,287.37167887452574L860.7560148980223,287.7703565174903L866.4721370974686,288.0706770989201L872.1882592969151,288.46198080433345L877.9043814963616,288.96150240638616L883.6205036958079,289.37062716565566L889.3366258952544,289.97806760943183L895.0527480947007,290.53099393759874L900.7688702941472,290.83581962412757L906.4849924935935,291.2602760013349L912.20111469304,291.66672917144507L917.9172368924864,291.8674151962068L923.6333590919328,292.16350727142975L929.3494812913792,292.6992317950593L935.0656034908257,292.7750092103255L940.781725690272,293.1954266830919L946.4978478897185,293.6225012992422L952.2139700891648,294.0380865045449L957.9300922886113,294.53290020557824L963.6462144880578,295.04845044757496L969.3623366875041,295.44384045821323L975.0784588869504,295.7636588686539L980.7945810863969,296.15041971099004L986.5107032858434,296.51481835990853L992.2268254852897,296.6882885309982L997.942947684736,296.8649312506314L1003.6590698841826,297.46726627901876L1009.375192083629,297.4208101471266L1015.0913142830753,297.90217192924536L1020.8074364825219,298.19834288698956L1026.5235586819683,298.6308574097197L1032.2396808814146,299.09797554446214L1037.9558030808612,299.58857975301635L1043.6719252803075,299.9248170286823L1049.3880474797538,300.2970704292388L1055.1041696792001,300.6213589508582L1060.8202918786467,300.8637629283637L1066.536414078093,301.18423147622127L1072.2525362775395,301.21642540347557L1077.9686584769859,301.72047345867907L1083.6847806764324,301.7689098181716L1089.4009028758787,302.03829799637305L1095.1170250753253,302.40072291017935L1100.8331472747716,302.9032829114473L1106.549269474218,303.267104017622L1112.2653916736645,303.7990145939928L1117.9815138731108,303.98340601659584L1123.697636072557,304.4087984720039L1129.4137582720036,304.77449063704177L1135.1298804714502,304.93644505425743L1140.8460026708965,305.20660101265713L1146.5621248703428,305.3140836220811L1152.2782470697894,305.7126800351808L1157.9943692692357,305.7545589368726L1163.710491468682,306.0002435728145L1169.4266136681285,306.4494091683579L1175.1427358675749,306.7984552598832L1180.8588580670214,307.1520535537184L1186.5749802664677,307.6290300077682L1192.2911024659143,307.8375934779889L1198.0072246653606,308.23399438817603L1203.723346864807,308.54703068334265L1209.4394690642534,308.6810195445687L1215.1555912636998,308.92433913065645L1220.871713463146,309.08596304071193L1226.5878356625926,309.394610700185L1232.303957862039,309.5238138747907L1238.0200800614855,309.7948165737248L1243.7362022609318,310.18445319259956L1249.4523244603783,310.4586887928988L1255.1684466598247,310.9085748958097L1260.8845688592712,311.3364862889332L1266.6006910587175,311.50970015237425L1272.3168132581638,311.8394896476086L1278.0329354576102,312.1206604223667L1283.7490576570567,312.25387217330166L1289.465179856503,312.4586296336674L1295.1813020559496,312.72765000040835L1300.8974242553961,312.951040806291L1306.6135464548424,313.1270782409647L1312.3296686542888,313.3437962942994L1318.0457908537353,313.69004505329656L1323.7619130531816,314.00767395393876L1329.478035252628,314.379873126611L1335.1941574520745,314.6567477308082L1340.9102796515208,314.86883777341956L1346.6264018509673,315.15145148807096L1352.3425240504137,315.4023083100069L1358.0586462498602,315.51255724854036L1363.7747684493065,315.6145723377739L1369.4908906487528,316.05680872137214L1375.2070128481994,316.00432057815436L1380.9231350476457,316.33622874574536L1386.639257247092,316.5732866856581L1392.3553794465386,316.8782393457623L1398.0715016459849,317.2145151502274L1403.7876238454314,317.61392540230065L1409.503746044878,317.8430138558462L1415.2198682443243,318.08588207832486L1420.9359904437706,318.32735175401194L1426.652112643217,318.5609577107671L1432.3682348426635,318.70941469289363L1438.0843570421098,318.79272528357313L1443.8004792415563,319.14192473877216" style="fill: none;" fill="none"></path></g><g><path stroke="rgb(0, 153, 136)" stroke-width="2px" d="M9.053807180506986,-0.27522220714854484L14.769929379953398,38.44027481689585L20.48605157939981,62.157547709593075L26.202173778846223,81.30808080410947L31.91829597829263,100.37581287496624L37.63441817773904,111.03673044310386L43.35054037718545,124.68919768016443L49.06666257663186,135.52510688099298L54.78278477607827,146.0439411937831L60.49890697552468,155.55359381645766L66.2150291749711,162.50098094417032L71.93115137441751,168.72232049705917L77.64727357386393,174.45009168585446L83.36339577331033,179.11596774150246L89.07951797275675,183.50276148996662L94.79564017220316,186.6064387791847L100.51176237164957,191.46655976921002L106.22788457109598,195.86014764324327L111.94400677054239,200.630432098078L117.6601289699888,204.11618825575482L123.3762511694352,207.6694062649942L129.09237336888162,210.61950761010434L134.80849556832803,212.9058484830771L140.52461776777446,216.031864127624L146.24073996722086,218.23170240179536L151.95686216666726,220.23434888417495L157.6729843661137,222.43660156411784L163.3891065655601,225.41185678202368L169.1052287650065,228.40134107388556L174.8213509644529,230.25929153057416L180.53747316389934,232.59739498577568L186.25359536334574,233.9710641866885L191.96971756279214,235.46122185403095L197.68583976223857,237.60979150833236L203.40196196168498,238.14825557948535L209.11808416113138,240.02111389273983L214.83420636057778,242.2165409953464L220.55032856002418,243.9933801271092L226.26645075947064,245.99502919486468L231.98257295891705,247.49890276460394L237.69869515836345,248.96405686297325L243.41481735780985,250.15003308638808L249.13093955725628,251.6645214624449L254.8470617567027,252.68472699998978L260.5631839561491,253.1916147421535L266.27930615559546,254.77298396484397L271.99542835504195,256.16666408229526L277.7115505544883,257.92275620599696L283.42767275393476,258.9178807810687L289.14379495338113,260.25119113447266L294.85991715282756,261.2120053285487L300.576039352274,261.952864218578L306.29216155172037,263.2453565438585L312.0082837511668,263.6831350678027L317.7244059506132,264.7894629587943L323.4405281500596,265.91530832847707L329.15665034950604,267.1411139917437L334.8727725489524,268.41442747358167L340.58889474839884,269.40364726430016L346.3050169478452,270.3217586862048L352.0211391472917,271.0688591699738L357.7372613467381,271.7587611181567L363.4533835461845,272.57088247021306L369.1695057456309,272.88184648270123L374.8856279450773,273.8289502448935L380.6017501445237,274.88947298509976L386.3178723439701,275.9917192858746L392.03399454341655,277.02973574755504L397.75011674286293,277.82841693295256L403.46623894230936,278.5080985939639L409.18236114175585,279.12294964804363L414.89848334120217,279.8607301407876L420.61460554064865,280.49812174262945L426.33072774009497,280.88792127907556L432.04684993954146,281.5205781904667L437.7629721389879,282.47191309463415L443.47909433843427,283.5615111491678L449.1952165378807,284.19249813183956L454.91133873732707,285.0140605596903L460.6274609367735,285.4374847146589L466.34358313621993,285.8768891203033L472.0597053356663,286.650464560083L477.77582753511274,286.81471109208206L483.4919497345591,287.4384228831903L489.20807193400555,288.35085832783074L494.924194133452,289.05062868449147L500.64031633289835,289.93082784919346L506.3564385323448,290.50109078671625L512.0725607317912,291.09524953042217L517.7886829312375,291.55916208920235L523.5048051306841,292.10989236989224L529.2209273301304,292.50826831529866L534.9370495295768,292.72559015374907L540.6531717290233,293.34949486504354L546.3692939284697,294.0508546962658L552.0854161279161,294.85878541927246L557.8015383273624,295.3310443712727L563.5176605268089,295.93754794530713L569.2337827262553,296.40475050783994L574.9499049257017,296.65545211013836L580.6660271251482,297.34312617271013L586.3821493245946,297.6761539743969L592.0982715240409,297.95866301987473L597.8143937234873,298.4815073203339L603.5305159229338,299.1417468502397L609.2466381223802,299.8416689583963L614.9627603218266,300.27101870409035L620.678882521273,300.8306445060974L626.3950047207194,301.11558473280917L632.1111269201658,301.46402412254497L637.8272491196122,301.9464032236035L643.5433713190587,301.9643464798683L649.259493518505,302.41105714738967L654.9756157179514,303.0725231790187L660.691737917398,303.65701740812466L666.4078601168443,304.2333624469366L672.1239823162907,304.71863288972276L677.840104515737,305.1108550731873L683.5562267151836,305.42682928330214L689.27234891463,305.84102891317383L694.9884711140763,306.15289772783404L700.7045933135228,306.2148040754334L706.4207155129692,306.7183935863916L712.1368377124156,307.2137509334461L717.8529599118621,307.88635972917643L723.5690821113085,308.21432985629315L729.2852043107548,308.70709738781704L735.0013265102012,308.9995777945187L740.7174487096477,309.1961221252452L746.4335709090941,309.6869164484262L752.1496931085404,309.7774650628579L757.8658153079868,310.1578376293463L763.5819375074333,310.6247430870719L769.2980597068797,311.11460743358845L775.014181906326,311.6976844937972L780.7303041057726,312.0297523890031L786.4464263052189,312.4141803080444L792.1625485046653,312.7210038225218L797.8786707041119,312.9566494192077L803.5947929035582,313.2327289465491L809.3109151030045,313.32503065418666L815.027037302451,313.68469631064585L820.7431595018975,314.14637755799896L826.4592817013438,314.63867277801046L832.1754039007901,314.9980222840253L837.8915261002367,315.3970732917402L843.6076482996831,315.6997348799198L849.3237704991294,315.8620504138993L855.039892698576,316.27478286255194L860.7560148980223,316.46596207606746L866.4721370974686,316.63375007687523L872.1882592969151,316.8834716910383L877.9043814963616,317.39207630537436L883.6205036958079,317.9147579435966L889.3366258952544,318.1618973308389L895.0527480947007,318.58601962908057L900.7688702941472,318.72215891955426L906.4849924935935,318.93391714083276L912.20111469304,319.31776733119716L917.9172368924864,319.22596301571343L923.6333590919328,319.55577292557524L929.3494812913792,320.01749968675387L935.0656034908257,320.36184891507617L940.781725690272,320.82755459108733L946.4978478897185,321.1484124496157L952.2139700891648,321.44667589555L957.9300922886113,321.63354330702504L963.6462144880578,321.95557246452717L969.3623366875041,322.0956971679723L975.0784588869504,322.10343649089407L980.7945810863969,322.46112259637664L986.5107032858434,322.81557643924407L992.2268254852897,323.28369395218135L997.942947684736,323.49938298542764L1003.6590698841826,323.86211259298915L1009.375192083629,324.06961740548843L1015.0913142830753,324.2107732131941L1020.8074364825219,324.54613576120886L1026.5235586819683,324.5932007511526" style="fill: none;" fill="none"></path></g><g><path stroke="rgb(0, 119, 187)" stroke-width="2px" d="M3.337684981060575,-10.615438584617777L9.053807180506986,38.02553849781475L14.769929379953398,74.85523072311497L20.48605157939981,96.95211885142402L26.202173778846223,114.34897768796594L31.91829597829263,132.27672341862126L37.63441817773904,141.6143227473847L43.35054037718545,153.9385254625559L49.06666257663186,163.67543307160437L54.78278477607827,173.2363068553807L60.49890697552468,181.99968049013216L66.2150291749711,188.19359852070633L71.93115137441751,193.77724944467457L77.64727357386393,199.0955660896906L83.36339577331033,203.21851223225335L89.07951797275675,207.3046069704199L94.79564017220316,210.1435920397774L100.51176237164957,214.61557484332903L106.22788457109598,218.62705335805467L111.94400677054239,223.006097956009L117.6601289699888,226.2926065483837L123.3762511694352,229.52023439892298L129.09237336888162,232.21763805627643L134.80849556832803,234.32009317249245L140.52461776777446,237.30416220961007L146.24073996722086,239.2344917067541L151.95686216666726,241.18130560546533L157.6729843661137,243.04570204998365L163.3891065655601,245.93175266624232L169.1052287650065,248.7625508644516L174.8213509644529,250.52804468447454L180.53747316389934,252.6756803871889L186.25359536334574,253.8922563547916L191.96971756279214,255.33683583516466L197.68583976223857,257.3472735570362L203.40196196168498,257.7101011651039L209.11808416113138,259.50402250061313L214.83420636057778,261.60213518069514L220.55032856002418,263.2314334015215L226.26645075947064,265.1618653364534L231.98257295891705,266.63627355924086L237.69869515836345,267.9137493033686L243.41481735780985,268.9640524394547L249.13093955725628,270.3712734514456L254.8470617567027,271.261907505277L260.5631839561491,271.73939685841145L266.27930615559546,273.2416277108019L271.99542835504195,274.5248361869985L277.7115505544883,276.2064419450188L283.42767275393476,277.1472960896287L289.14379495338113,278.3799583506734L294.85991715282756,279.29087634164557L300.576039352274,280.0085141027778L306.29216155172037,281.2430117352865L312.0082837511668,281.69585948914664L317.7244059506132,282.7688910357009L323.4405281500596,283.8782223656075L329.15665034950604,285.02128813705264L334.8727725489524,286.3117691380974L340.58889474839884,287.19316584178983L346.3050169478452,288.0527013351985L352.0211391472917,288.79971415700476L357.7372613467381,289.43144590742236L363.4533835461845,290.2267834210362L369.1695057456309,290.4885351026147L374.8856279450773,291.44115551577704L380.6017501445237,292.44701098853L386.3178723439701,293.46097867577964L392.03399454341655,294.40236327883036L397.75011674286293,295.2252069208262L403.46623894230936,295.85725230339744L409.18236114175585,296.4720650587886L414.89848334120217,297.1774114941712L420.61460554064865,297.7326277562027L426.33072774009497,298.0799438536225L432.04684993954146,298.69444678285174L437.7629721389879,299.5785873270474L443.47909433843427,300.63425168488493L449.1952165378807,301.23420134358787L454.91133873732707,302.0223645512205L460.6274609367735,302.3873904962016L466.34358313621993,302.8374055944849L472.0597053356663,303.5448679593265L477.77582753511274,303.6707136725281L483.4919497345591,304.28784087739757L489.20807193400555,305.1606071136479L494.924194133452,305.8329043435853L500.64031633289835,306.6828092601833L506.3564385323448,307.27377679267096L512.0725607317912,307.7979375865116L517.7886829312375,308.2920934172528L523.5048051306841,308.8266242367432L529.2209273301304,309.18163016329663L534.9370495295768,309.3992180833102L540.6531717290233,310.0128615727224L546.3692939284697,310.6815442713261L552.0854161279161,311.43741688827356L557.8015383273624,311.9044859392478L563.5176605268089,312.50397573486055L569.2337827262553,312.9150542258841L574.9499049257017,313.16695542405097L580.6660271251482,313.8400859111449L586.3821493245946,314.1281951166697L592.0982715240409,314.4531701887402L597.8143937234873,314.95213498277667L603.5305159229338,315.5887135509195L609.2466381223802,316.26121839352817L614.9627603218266,316.69098286417216L620.678882521273,317.2336058838548L626.3950047207194,317.52083059933545L632.1111269201658,317.8563547535284L637.8272491196122,318.35239981772844L643.5433713190587,318.3438894234078L649.259493518505,318.80298566803737L654.9756157179514,319.43549412870317L660.691737917398,319.97062570956865L666.4078601168443,320.5361237016411L672.1239823162907,321.0061302300743L677.840104515737,321.376183122309L683.5562267151836,321.6771994048105L689.27234891463,322.08813329914386L694.9884711140763,322.34967000615023L700.7045933135228,322.4286457191126L706.4207155129692,322.90188865786246L712.1368377124156,323.38877539068466L717.8529599118621,324.0248889742739L723.5690821113085,324.3456265923214L729.2852043107548,324.8345091208163L735.0013265102012,325.0790830883028L740.7174487096477,325.2823166886721L746.4335709090941,325.7688376568641L752.1496931085404,325.8468630309529L757.8658153079868,326.2268057438786L763.5819375074333,326.67592538960565L769.2980597068797,327.1329057846798L775.014181906326,327.6957560504398L780.7303041057726,328.0262913329304L786.4464263052189,328.3931474384801L792.1625485046653,328.6842871974099L797.8786707041119,328.91325410918L803.5947929035582,329.1668330652026L809.3109151030045,329.26298101297596L815.027037302451,329.6512377201858L820.7431595018975,330.08332827206885L826.4592817013438,330.55156278973095L832.1754039007901,330.87607921219563" style="fill: none;" fill="none"></path></g><g><path stroke="rgb(187, 187, 187)" stroke-width="2px" d="M31.91829597829263,-3.4122428954296993L37.63441817773904,9.155516347547007L43.35054037718545,24.09719513757625L49.06666257663186,36.21819488797826L54.78278477607827,47.78710743356311L60.49890697552468,58.048106260590146L66.2150291749711,65.7947634619207L71.93115137441751,72.9017675315149L77.64727357386393,79.08747549773062L83.36339577331033,84.20752266607042L89.07951797275675,89.1991598076624L94.79564017220316,92.5590021117768L100.51176237164957,97.59623048497667L106.22788457109598,102.41293665802584L111.94400677054239,107.26708540509992L117.6601289699888,111.31418852672698L123.3762511694352,114.9650193365103L129.09237336888162,118.14197071698368L134.80849556832803,120.67655025049089L140.52461776777446,124.0921096213481L146.24073996722086,126.43827017467692L151.95686216666726,128.79302737494564L157.6729843661137,130.97834510198018L163.3891065655601,134.16767498912273L169.1052287650065,137.27910453271494L174.8213509644529,139.42549340517132L180.53747316389934,141.9493782997029L186.25359536334574,143.43989756036933L191.96971756279214,145.17072613051175L197.68583976223857,147.37875282647923L203.40196196168498,148.03980453645332L209.11808416113138,149.9131737815568L214.83420636057778,152.20353459239837L220.55032856002418,154.0817689842857L226.26645075947064,156.21240795858859L231.98257295891705,157.89374768446848L237.69869515836345,159.349828926475L243.41481735780985,160.53075830094662L249.13093955725628,162.13653038395276L254.8470617567027,163.22168889521498L260.5631839561491,163.90878892404794L266.27930615559546,165.44704325717495L271.99542835504195,166.91425407961717L277.7115505544883,168.57878094199265L283.42767275393476,169.72197944747023L289.14379495338113,171.10040696631344L294.85991715282756,172.14542411967076L300.576039352274,172.92531857605908L306.29216155172037,174.29088903182964L312.0082837511668,174.79687105335375L317.7244059506132,175.9276311123991L323.4405281500596,177.06660056821187L329.15665034950604,178.33284856297036L334.8727725489524,179.664513645232L340.58889474839884,180.6932383577816L346.3050169478452,181.67791274447987L352.0211391472917,182.4570517390348L357.7372613467381,183.1717481910576L363.4533835461845,184.02066326309816L369.1695057456309,184.36137724854171L374.8856279450773,185.29472819702883L380.6017501445237,186.41437273813293L386.3178723439701,187.464552239055L392.03399454341655,188.41193190011768L397.75011674286293,189.40131680916187L403.46623894230936,190.1474868103923L409.18236114175585,190.7456489081103L414.89848334120217,191.53040581295767L420.61460554064865,192.1215974859457L426.33072774009497,192.49419289342546L432.04684993954146,193.1172598784776L437.7629721389879,194.09417442036278L443.47909433843427,195.17474131550958L449.1952165378807,195.8376211154968L454.91133873732707,196.70582217133995L460.6274609367735,197.12333323551064L466.34358313621993,197.58053765807102L472.0597053356663,198.3222008851523L477.77582753511274,198.50739973003672L483.4919497345591,199.1118316841159L489.20807193400555,199.99191376742962L494.924194133452,200.69883459989856L500.64031633289835,201.5913429967805L506.3564385323448,202.25844975010332L512.0725607317912,202.8468918030419L517.7886829312375,203.3386299818402L523.5048051306841,203.89437624586355L529.2209273301304,204.27048760319136L534.9370495295768,204.50941895222545L540.6531717290233,205.08633300407388L546.3692939284697,205.79999538741578L552.0854161279161,206.52988778066066L557.8015383273624,207.04335620992148L563.5176605268089,207.68104593441979L569.2337827262553,208.15717901377772L574.9499049257017,208.42182281712127L580.6660271251482,209.12252663393193L586.3821493245946,209.44551457523636L592.0982715240409,209.7584001434124L597.8143937234873,210.25142681828422L603.5305159229338,210.9588760753992L609.2466381223802,211.63649196136134L614.9627603218266,212.09061788499235L620.678882521273,212.6970065618591L626.3950047207194,212.98226385066232L632.1111269201658,213.35979498687007L637.8272491196122,213.82721202463733L643.5433713190587,213.8503476516156L649.259493518505,214.28750522916016L654.9756157179514,214.94663260183378L660.691737917398,215.48878219497908L666.4078601168443,216.09094177938343L672.1239823162907,216.6002831776337L677.840104515737,217.0135930257221L683.5562267151836,217.32527087111032L689.27234891463,217.74139426186593L694.9884711140763,218.03999273987955L700.7045933135228,218.1291137326083L706.4207155129692,218.59598096470978L712.1368377124156,219.09132424155328L717.8529599118621,219.74844150956983L723.5690821113085,220.08712855410005L729.2852043107548,220.61182274424135L735.0013265102012,220.8818872741109L740.7174487096477,221.0679010798497L746.4335709090941,221.54900040353917L752.1496931085404,221.62514342932573L757.8658153079868,222.0102734055228L763.5819375074333,222.46184332900307L769.2980597068797,222.95798747869438L775.014181906326,223.51683403498944L780.7303041057726,223.86069293114116L786.4464263052189,224.2747387064743L792.1625485046653,224.57911249745243L797.8786707041119,224.82410899981522L803.5947929035582,225.09351894789634L809.3109151030045,225.19389255306234L815.027037302451,225.56185476693724L820.7431595018975,226.035306441671L826.4592817013438,226.5067030085886L832.1754039007901,226.861971202653L837.8915261002367,227.26167179800524L843.6076482996831,227.55689084670917L849.3237704991294,227.7414284438722L855.039892698576,228.15200380911583L860.7560148980223,228.31037790579916L866.4721370974686,228.52127354982264L872.1882592969151,228.75281515685757L877.9043814963616,229.2564135348569L883.6205036958079,229.7771785774504L889.3366258952544,230.00896204099192L895.0527480947007,230.46299974895933L900.7688702941472,230.58282697739034L906.4849924935935,230.7985930247498L912.20111469304,231.1522425133314L917.9172368924864,231.0340949861557L923.6333590919328,231.35254746370637L929.3494812913792,231.83633940920498L935.0656034908257,232.16238866019683L940.781725690272,232.61912065277767L946.4978478897185,232.91552114461052L952.2139700891648,233.24211535581034L957.9300922886113,233.40140192137426L963.6462144880578,233.70890630441352L969.3623366875041,233.8604649639796L975.0784588869504,233.8846442977094L980.7945810863969,234.2316984710404L986.5107032858434,234.57254841384056" style="fill: none;" fill="none"></path></g><g><path stroke="rgb(255, 112, 67)" stroke-width="2px" d="M54.78278477607827,-7.7434225575552205L60.49890697552468,5.507491482994283L66.2150291749711,16.115493591743018L71.93115137441751,25.285385278761453L77.64727357386393,33.627376227586296L83.36339577331033,40.83731865336995L89.07951797275675,47.76370367419037L94.79564017220316,52.867565034486915L100.51176237164957,59.615133982086206L106.22788457109598,65.96459103737095L111.94400677054239,72.3549985434484L117.6601289699888,77.59651938410764L123.3762511694352,82.49859535893864L129.09237336888162,86.82240917599756L134.80849556832803,90.35903532953347L140.52461776777446,94.81800843465021L146.24073996722086,98.10102114765238L151.95686216666726,101.27643796769155L157.6729843661137,104.36230499292043L163.3891065655601,108.27977981814763L169.1052287650065,112.16093254624712L174.8213509644529,114.97593913402653L180.53747316389934,118.14336866495978L186.25359536334574,120.27234575354083L191.96971756279214,122.6602460859433L197.68583976223857,125.45180175729476L203.40196196168498,126.61837388744078L209.11808416113138,129.15054976332658L214.83420636057778,131.89952660291752L220.55032856002418,134.29937772031084L226.26645075947064,136.8312783117157L231.98257295891705,138.88244166638992L237.69869515836345,140.77650947494467L243.41481735780985,142.42414065668223L249.13093955725628,144.38855011174715L254.8470617567027,145.83122534257166L260.5631839561491,146.86556974886216L266.27930615559546,148.7964323095292L271.99542835504195,150.57588940119683L277.7115505544883,152.67161942908743L283.42767275393476,154.04868844479293L289.14379495338113,155.6585307190122L294.85991715282756,156.98798157255771L300.576039352274,158.08852945355966L306.29216155172037,159.67758034576443L312.0082837511668,160.45240945731348L317.7244059506132,161.83069919134294L323.4405281500596,163.16591100916347L329.15665034950604,164.67742970489704L334.8727725489524,166.2716682479739L340.58889474839884,167.47286213752542L346.3050169478452,168.58958243099787L352.0211391472917,169.63858988524296L357.7372613467381,170.5426530558327L363.4533835461845,171.56799118460086L369.1695057456309,172.14533694434985L374.8856279450773,173.23942252181783L380.6017501445237,174.52520371966182L386.3178723439701,175.80050061751254L392.03399454341655,176.98005965639626L397.75011674286293,178.03700455174803L403.46623894230936,178.8552271482884L409.18236114175585,179.68507393017137L414.89848334120217,180.59894409951772L420.61460554064865,181.32680590937315L426.33072774009497,181.9272200479795L432.04684993954146,182.70351745629085L437.7629721389879,183.8076378897424L443.47909433843427,185.04022858377328L449.1952165378807,185.8187917319205L454.91133873732707,186.82548888147412L460.6274609367735,187.371443922397L466.34358313621993,187.9640464586754L472.0597053356663,188.85164631284877L477.77582753511274,189.12351948729176L483.4919497345591,189.92342606826486L489.20807193400555,190.90678129245762L494.924194133452,191.76065588032444L500.64031633289835,192.73382511320355L506.3564385323448,193.4916225128909L512.0725607317912,194.1524472515213L517.7886829312375,194.73642451119798L523.5048051306841,195.42334606032264L529.2209273301304,195.978051218498L534.9370495295768,196.33622396477568L540.6531717290233,197.045249281919L546.3692939284697,197.8299291106935L552.0854161279161,198.69569518900667L557.8015383273624,199.27406090012605L563.5176605268089,200.00846165100987L569.2337827262553,200.5721569476742L574.9499049257017,200.949568754532L580.6660271251482,201.73794628400222L586.3821493245946,202.17083417793728L592.0982715240409,202.59241441622748L597.8143937234873,203.18430713872144L603.5305159229338,203.98189304204018L609.2466381223802,204.75472441525525L614.9627603218266,205.26584509313395L620.678882521273,205.88721431675776L626.3950047207194,206.2694934918067L632.1111269201658,206.72648035474754L637.8272491196122,207.30066997618863L643.5433713190587,207.40283920080762L649.259493518505,207.96032924212702L654.9756157179514,208.67040105632114L660.691737917398,209.29955184542305L666.4078601168443,209.98207198359574L672.1239823162907,210.51231911877028L677.840104515737,210.99893240667578L683.5562267151836,211.4075734297532L689.27234891463,211.91321755758707L694.9884711140763,212.27140400877644L700.7045933135228,212.42994693713067L706.4207155129692,212.9742046705934L712.1368377124156,213.53467169360468L717.8529599118621,214.2510488772674L723.5690821113085,214.65538651655356L729.2852043107548,215.21693788687506L735.0013265102012,215.582126770939L740.7174487096477,215.84103797426107L746.4335709090941,216.35810639310444L752.1496931085404,216.50899244390078L757.8658153079868,216.94638163989885L763.5819375074333,217.45647961245473L769.2980597068797,217.99596232706475L775.014181906326,218.61933218510023L780.7303041057726,219.02137144411924L786.4464263052189,219.45361373856502L792.1625485046653,219.81801680792685L797.8786707041119,220.10136758620953L803.5947929035582,220.40671201334754L809.3109151030045,220.55770007924457L815.027037302451,220.9682409467633L820.7431595018975,221.47800660595803L826.4592817013438,222.00184811448509L832.1754039007901,222.36187774652004L837.8915261002367,222.8281598766319L843.6076482996831,223.20349854707297L849.3237704991294,223.42189638976657L855.039892698576,223.91259137977974L860.7560148980223,224.15054105085025L866.4721370974686,224.37990350189813L872.1882592969151,224.69028290150112L877.9043814963616,225.2117848059375L883.6205036958079,225.75335882227006L889.3366258952544,226.0438302537009L895.0527480947007,226.51458921397676L900.7688702941472,226.71519412537938L906.4849924935935,226.99581477906784L912.20111469304,227.4122541127838L917.9172368924864,227.38920243661047L923.6333590919328,227.74195915893333L929.3494812913792,228.2307353044489L935.0656034908257,228.6246305938767L940.781725690272,229.12424230146217L946.4978478897185,229.4514670273362L952.2139700891648,229.8079152842762L957.9300922886113,230.0447663391551L963.6462144880578,230.39828139693373L969.3623366875041,230.6018193027208L975.0784588869504,230.6358332798332L980.7945810863969,231.0330098434048L986.5107032858434,231.4329571639817L992.2268254852897,231.90518222028606L997.942947684736,232.1442395129839L1003.6590698841826,232.5389284069291L1009.375192083629,232.80728658580796L1015.0913142830753,232.98018751516315L1020.8074364825219,233.3382613454403L1026.5235586819683,233.3941389145652L1032.2396808814146,233.70762772189244L1037.9558030808612,234.07315745948532L1043.6719252803075,234.4406390058182L1049.3880474797538,234.8922281981504L1055.1041696792001,235.17027028481118L1060.8202918786467,235.48583032049623L1066.536414078093,235.7135937164172L1072.2525362775395,235.89531416068652L1077.9686584769859,236.11008953478668L1083.6847806764324,236.16861118500105L1089.4009028758787,236.44738217449697L1095.1170250753253,236.8395894813035L1100.8331472747716,237.20068250201146L1106.549269474218,237.53456964083298L1112.2653916736645,237.8471893878196L1117.9815138731108,238.11449949294175L1123.697636072557,238.2883242441293L1129.4137582720036,238.5643721255497L1135.1298804714502,238.75545429626825L1140.8460026708965,238.8789873396187L1146.5621248703428,239.05888412134507L1152.2782470697894,239.44536174055963L1157.9943692692357,239.86807144348828L1163.710491468682,240.09427733204433L1169.4266136681285,240.44053604094523L1175.1427358675749,240.58046155761681L1180.8588580670214,240.7346653481625L1186.5749802664677,241.03402235519462L1192.2911024659143,241.02793233287613L1198.0072246653606,241.25891113439357L1203.723346864807,241.61886070620946L1209.4394690642534,241.92421651488115L1215.1555912636998,242.2992724141653L1220.871713463146,242.54061337145205L1226.5878356625926,242.78877214179383L1232.303957862039,242.97188725985322L1238.0200800614855,243.19649092408596L1243.7362022609318,243.32956670787453L1249.4523244603783,243.38336105532278L1255.1684466598247,243.64111786199632L1260.8845688592712,243.96159603045595L1266.6006910587175,244.30410526153923L1272.3168132581638,244.49975408842457L1278.0329354576102,244.78629216141357L1283.7490576570567,244.99020328926073L1289.465179856503,245.08044090053033L1295.1813020559496,245.3884356340192L1300.8974242553961,245.47436115386364L1306.6135464548424,245.63615318004193L1312.3296686542888,245.865628256631L1318.0457908537353,246.17714181227657L1323.7619130531816,246.5062572387808L1329.478035252628,246.70015982767347L1335.1941574520745,246.97796478904257" style="fill: none;" fill="none"></path></g></g></g></g><g opacity="0.2"><g><g><g><path stroke="rgb(204, 51, 17)" stroke-width="2px" d="M-2.3784372183858364,-79.67483826423688L3.337684981060575,30.626025975268362L9.053807180506986,107.88232129824041L14.769929379953398,128.46158778682343L20.48605157939981,127.95072510738675L26.202173778846223,171.08237587221964L31.91829597829263,153.58011925484146L37.63441817773904,151.22489642693162L43.35054037718545,186.415401187899L49.06666257663186,185.99965542342738L54.78278477607827,193.6304434183694L60.49890697552468,202.77826433798467L66.2150291749711,206.00635976269422L71.93115137441751,218.10429357384658L77.64727357386393,218.55368006254682L83.36339577331033,252.85278005783633L89.07951797275675,240.46629516740427L94.79564017220316,219.54734667576926L100.51176237164957,233.2719434708621L106.22788457109598,229.55553656017005L111.94400677054239,213.3295435248111L117.6601289699888,230.74851702180908L123.3762511694352,268.47212366136426L129.09237336888162,211.4584643055457L134.80849556832803,261.80895304628183L140.52461776777446,256.6151824720091L146.24073996722086,251.7869198550082L151.95686216666726,270.09305581396495L157.6729843661137,278.0644189285314L163.3891065655601,256.01084025799025L169.1052287650065,259.86099137540543L174.8213509644529,262.17900101279685L180.53747316389934,258.1809646762615L186.25359536334574,243.28318483688543L191.96971756279214,238.5717716381123L197.68583976223857,301.98282500233086L203.40196196168498,222.2924148875499L209.11808416113138,294.48927925402074L214.83420636057778,263.6374603755942L220.55032856002418,280.76378934235544L226.26645075947064,292.8427444263434L231.98257295891705,296.79820887292567L237.69869515836345,268.0563778968926L243.41481735780985,288.1599853842694L249.13093955725628,271.47545141534266L254.8470617567027,264.01651393421463L260.5631839561491,281.05918764869057L266.27930615559546,239.2764406137688L271.99542835504195,306.0869933582247L277.7115505544883,252.42802870125928L283.42767275393476,277.1601383989342L289.14379495338113,291.82027480365974L294.85991715282756,303.49956022148L300.576039352274,299.415263709323L306.29216155172037,313.3263730152941L312.0082837511668,271.0294141137891L317.7244059506132,297.9992273837167L323.4405281500596,295.9795931079018L329.15665034950604,265.4692424656721L334.8727725489524,293.5542606290553L340.58889474839884,261.13844577952125L346.3050169478452,308.6975730994718L352.0211391472917,262.09549461327356L357.7372613467381,289.8365140435046L363.4533835461845,320.01246695573593L369.1695057456309,293.5547816137226L374.8856279450773,309.9308926596328L380.6017501445237,318.6197260873941L386.3178723439701,286.44981600080564L392.03399454341655,311.2627527482865L397.75011674286293,295.19089674805474L403.46623894230936,275.13670837768643L409.18236114175585,298.5520665420581L414.89848334120217,285.90962932724045L420.61460554064865,306.40918516173303L426.33072774009497,285.54687514606707L432.04684993954146,303.77523553684034L437.7629721389879,311.8680625052589L443.47909433843427,302.08828718426L449.1952165378807,328.79202614198107L454.91133873732707,321.82616343522193L460.6274609367735,291.41814906691786L466.34358313621993,313.4007249699499L472.0597053356663,302.7886394298164L477.77582753511274,286.5258053358442L483.4919497345591,302.2636357379828L489.20807193400555,310.67575188104917L494.924194133452,301.10370058952407L500.64031633289835,300.58011099893014L506.3564385323448,302.1417997522255L512.0725607317912,320.25502253153485L517.7886829312375,317.0794721318373L523.5048051306841,328.6054392047218L529.2209273301304,312.0371592429745L534.9370495295768,304.72290664658203L540.6531717290233,313.0461576906905L546.3692939284697,312.46511093393616L552.0854161279161,293.30530438448716L557.8015383273624,292.81453682793045L563.5176605268089,344.5483887129978L569.2337827262553,273.97468929055873L574.9499049257017,330.46193085330395L580.6660271251482,312.80419752593986L586.3821493245946,322.60652404039286L592.0982715240409,331.47896735017196L597.8143937234873,339.93425079423974L603.5305159229338,309.9242687117205L609.2466381223802,318.190955706241L614.9627603218266,319.38058698073337L620.678882521273,316.38849761029155L626.3950047207194,305.83677186517895L632.1111269201658,297.1083436027061L637.8272491196122,341.95678769891504L643.5433713190587,282.8632831250228L649.259493518505,326.6136403954147L654.9756157179514,313.2590171404558L660.691737917398,341.23909410657706L666.4078601168443,337.9396982088343L672.1239823162907,341.6648874324887L677.840104515737,309.1910944321269L683.5562267151836,335.9569794180137L689.27234891463,325.40287202870786L694.9884711140763,308.48449037056344L700.7045933135228,327.01211923948574L706.4207155129692,286.37620830996025L712.1368377124156,341.9378833981317L717.8529599118621,292.540722172096L723.5690821113085,319.5908415071624L729.2852043107548,334.1190943646907L735.0013265102012,346.84950356189387L740.7174487096477,332.26825912106733L746.4335709090941,351.6971914643454L752.1496931085404,311.40133466977704L757.8658153079868,341.2574029963121L763.5819375074333,332.07564364694406L769.2980597068797,308.4081289036197L775.014181906326,325.1493757748965L780.7303041057726,313.64156873898503L786.4464263052189,333.7523211589413L792.1625485046653,295.4175995046929L797.8786707041119,332.7672880059191L803.5947929035582,352.0737889523917L809.3109151030045,329.8296043200152L815.027037302451,345.57323997987464L820.7431595018975,353.6552751230428L826.4592817013438,314.8026947095403L832.1754039007901,348.15739835585373L837.8915261002367,330.27571604794986L843.6076482996831,309.7367142315078L849.3237704991294,331.15789194237914L855.039892698576,319.1525445492366L860.7560148980223,330.0746903927694L866.4721370974686,320.07766446552415L872.1882592969151,330.3464211099348L877.9043814963616,342.65907503037835L883.6205036958079,333.53789875517424L889.3366258952544,355.83113037265394L895.0527480947007,350.7245875169564L900.7688702941472,324.157644247581L906.4849924935935,337.8497911405418L912.20111469304,336.4615158550622L917.9172368924864,314.0739115864278L923.6333590919328,325.0577568998402L929.3494812913792,352.45083299872414L935.0656034908257,301.25992156332035L940.781725690272,340.45315152282836L946.4978478897185,341.81344248903815L952.2139700891648,341.111601715861L957.9300922886113,350.7927620819861L963.6462144880578,353.8859224778759L969.3623366875041,340.73574849162515L975.0784588869504,332.5338868749877L980.7945810863969,340.77966005643685L986.5107032858434,338.7159653630482L992.2268254852897,316.85009002548185L997.942947684736,317.46857325189774L1003.6590698841826,367.9717849265214L1009.375192083629,291.9639921454418L1015.0913142830753,354.6400105705408L1020.8074364825219,333.22798730453695L1026.5235586819683,349.9611217002808L1032.2396808814146,354.72254942711066L1037.9558030808612,358.20592733877646L1043.6719252803075,340.23210517114904L1049.3880474797538,345.0691501011123L1055.1041696792001,339.7522038662237L1060.8202918786467,330.2088067313978L1066.536414078093,340.10453835405195L1072.2525362775395,305.1388012638157L1077.9686584769859,363.3260902222038L1083.6847806764324,307.70747895253913L1089.4009028758787,335.1696971594063L1095.1170250753253,347.1122286869538L1100.8331472747716,365.0929725080176L1106.549269474218,348.4253333275862L1112.2653916736645,370.0199989326544L1117.9815138731108,327.0081746412908L1123.697636072557,357.6847938187567L1129.4137582720036,350.70851141865245L1135.1298804714502,325.33871648825414L1140.8460026708965,339.33824433489696L1146.5621248703428,318.9325401668918L1152.2782470697894,356.36045079458773L1157.9943692692357,311.0909766608535L1163.710491468682,337.39452496773964L1169.4266136681285,364.00500767002154L1175.1427358675749,351.64851661114733L1180.8588580670214,352.7116974642582L1186.5749802664677,369.25273737054596L1192.2911024659143,334.8560643897172L1198.0072246653606,359.72363010087906L1203.723346864807,349.3163659613589L1209.4394690642534,326.17757622892003L1215.1555912636998,340.7807764521524L1220.871713463146,330.3014675757886L1226.5878356625926,350.01366672529275L1232.303957862039,326.57091965269956L1238.0200800614855,345.6418611031906L1243.7362022609318,361.85386197891467L1249.4523244603783,346.9158918937787L1255.1684466598247,370.8655570476136L1260.8845688592712,368.5054965049364L1266.6006910587175,334.70773261231085L1272.3168132581638,356.11454603164213L1278.0329354576102,349.959558746279L1283.7490576570567,330.22391528674825L1289.465179856503,340.1456961427653L1295.1813020559496,349.19006439273943L1300.8974242553961,343.29981174472425L1306.6135464548424,337.0982335448321L1312.3296686542888,342.92254441924865L1318.0457908537353,361.0560111742001L1323.7619130531816,357.55730142804066L1329.478035252628,365.52672945670014L1335.1941574520745,352.78954745882265L1340.9102796515208,344.1441046112058L1346.6264018509673,354.24741141057166L1352.3425240504137,350.18120050900666L1358.0586462498602,330.8307879977224L1363.7747684493065,329.8194079058132L1369.4908906487528,377.76704093477593L1375.2070128481994,308.66445335991045L1380.9231350476457,362.84797515042334L1386.639257247092,349.8630277300743L1392.3553794465386,359.79165581314675L1398.0715016459849,364.6337617370205L1403.7876238454314,374.0517504197994L1409.503746044878,350.27996431664246L1415.2198682443243,352.54364269587705L1420.9359904437706,352.65565439933744L1426.652112643217,351.83770847174287L1432.3682348426635,339.8988238368662L1438.0843570421098,330.70716577882024L1443.8004792415563,369.17950181160575" style="fill: none;" fill="none"></path></g><g><path stroke="rgb(0, 153, 136)" stroke-width="2px" d="M-2.3784372183858364,63.69106214658649L3.337684981060575,154.77183446800285L9.053807180506986,151.51746653078732L14.769929379953398,191.37614276314545L20.48605157939981,178.9769309615561L26.202173778846223,194.21714658008256L31.91829597829263,231.20698352899583L37.63441817773904,194.4273266801305L43.35054037718545,244.5301988511572L49.06666257663186,240.9485781165228L54.78278477607827,258.33711122367674L60.49890697552468,266.0278124553534L66.2150291749711,249.7183130204711L71.93115137441751,252.6245887735775L77.64727357386393,257.0088980276938L83.36339577331033,250.67513857508033L89.07951797275675,254.81019387910442L94.79564017220316,239.89269104875356L100.51176237164957,279.32736018834504L106.22788457109598,279.26149284112745L111.94400677054239,295.4760986401878L117.6601289699888,276.5438879639494L123.3762511694352,284.66514580992396L129.09237336888162,277.161850205698L134.80849556832803,266.4934983215007L140.52461776777446,292.0440005050564L146.24073996722086,273.64431058513634L151.95686216666726,272.4202198962239L157.6729843661137,281.7282063878304L163.3891065655601,308.07499642209893L169.1052287650065,314.0190593436037L174.8213509644529,285.0529072551257L180.53747316389934,303.5330520929466L186.25359536334574,276.8051989877696L191.96971756279214,283.1781067168085L197.68583976223857,308.20375406129256L203.40196196168498,256.2874831163041L209.11808416113138,304.660090780987L214.83420636057778,319.7940999537739L220.55032856002418,308.23374789285043L226.26645075947064,319.99304167028527L231.98257295891705,304.31326384535544L237.69869515836345,305.49671773022175L243.41481735780985,296.8619178550932L249.13093955725628,312.52413105409835L254.8470617567027,294.49173532459497L260.5631839561491,274.36386483700016L266.27930615559546,322.0685701582588L271.99542835504195,316.565260265254L277.7115505544883,335.3941671246133L283.42767275393476,303.5892440106294L289.14379495338113,321.1311698891002L294.85991715282756,305.82017478220774L300.576039352274,296.9142396009621L306.29216155172037,325.2195598522142L312.0082837511668,285.004976665738L317.7244059506132,319.50413477325446L323.4405281500596,322.43705517077206L329.15665034950604,329.59322613384234L334.8727725489524,334.22954311414935L340.58889474839884,321.26312786267846L346.3050169478452,319.1262720367306L352.0211391472917,311.3276525525506L357.7372613467381,309.435882799357L363.4533835461845,317.5089867768007L369.1695057456309,290.31217304471085L374.8856279450773,327.5934637017643L380.6017501445237,335.8466795213171L386.3178723439701,340.1270895475061L392.03399454341655,338.15866062184455L397.75011674286293,325.4223717405395L403.46623894230936,319.4845606350418L409.18236114175585,316.6173587319798L414.89848334120217,325.36067227066L420.61460554064865,320.24460283818973L426.33072774009497,305.46136519922925L432.04684993954146,321.8341270579929L437.7629721389879,343.7354293529327L443.47909433843427,354.46213151986285L449.1952165378807,325.6736352029198L454.91133873732707,339.57105005478013L460.6274609367735,313.8362681517773L466.34358313621993,315.63731214648703L472.0597053356663,339.5516991957105L477.77582753511274,298.15403425627323L483.4919497345591,330.9038002775195L489.20807193400555,352.5268223337627L494.924194133452,338.7190168446707L500.64031633289835,352.9691383162645L506.3564385323448,331.705521254048L512.0725607317912,334.402807729203L517.7886829312375,325.66574600652984L523.5048051306841,332.9447949246919L529.2209273301304,322.29527291489694L534.9370495295768,309.10996967679677L540.6531717290233,340.7726639766194L546.3692939284697,347.79270908877334L552.0854161279161,357.26101000513313L557.8015383273624,332.09447352134634L563.5176605268089,343.5187741577345L569.2337827262553,333.339180317806L574.9499049257017,316.6248757964645L580.6660271251482,352.52957610986107L586.3821493245946,324.5996625245586L592.0982715240409,320.9649013538639L597.8143937234873,341.3668842028173L603.5305159229338,353.68288731040747L609.2466381223802,358.0682385338584L614.9627603218266,336.2372691689983L620.678882521273,348.0324364620929L626.3950047207194,325.3122951229861L632.1111269201658,331.2517436088666L637.8272491196122,343.4582655099516L643.5433713190587,303.51861337502544L649.259493518505,341.35668778861526L654.9756157179514,361.1110122697863L660.691737917398,355.26697840439493L666.4078601168443,355.44277351640386L672.1239823162907,348.1031415240779L677.840104515737,340.3915264793299L683.5562267151836,334.0212236736273L689.27234891463,343.5491401211976L694.9884711140763,334.71331459088856L700.7045933135228,311.91733276950526L706.4207155129692,353.37587848863063L712.1368377124156,353.3719338904357L717.8529599118621,370.91698567691003L723.5690821113085,339.1212914341747L729.2852043107548,355.40221113873883L735.0013265102012,336.8677350427611L740.7174487096477,328.0252111381588L746.4335709090941,356.95861561898056L752.1496931085404,318.5452997063573L757.8658153079868,347.1836780127491L763.5819375074333,356.31110610396036L769.2980597068797,359.29523185163123L775.014181906326,369.339667383597L780.7303041057726,345.02367558229884L786.4464263052189,350.80206537961567L792.1625485046653,343.51162922515505L797.8786707041119,336.72059408745133L803.5947929035582,341.20977011244855L809.3109151030045,322.7236711641448L815.027037302451,350.48247849944363L820.7431595018975,361.60468245520343L826.4592817013438,365.4807339532194L832.1754039007901,352.28203396653265L837.8915261002367,356.99032125730224L843.6076482996831,347.389690235459L849.3237704991294,332.9337053939174L855.039892698576,359.87784156238735L860.7560148980223,336.752299725773L866.4721370974686,334.515935828379L872.1882592969151,343.61322123527026L877.9043814963616,372.06605457373735L883.6205036958079,374.34112018927055L889.3366258952544,344.9544590479346L895.0527480947007,364.75753280868474L900.7688702941472,333.604138234297L906.4849924935935,342.177089786784L912.20111469304,361.6215028173177L917.9172368924864,309.0675466396058L923.6333590919328,356.19589406611533L929.3494812913792,371.5158203387322L935.0656034908257,358.9191553482522L940.781725690272,373.1759751941393L946.4978478897185,357.3538941286671L952.2139700891648,355.2311048887352L957.9300922886113,342.8801958084387L963.6462144880578,358.7073378678215L969.3623366875041,338.1469756800218L975.0784588869504,322.9932435162601L980.7945810863969,363.7353608915252L986.5107032858434,363.86501164729134L992.2268254852897,377.69127487888045L997.942947684736,348.657394783659L1003.6590698841826,366.32033795769564L1009.375192083629,348.44349336455923L1015.0913142830753,340.84872773803903L1020.8074364825219,364.2111687454935L1026.5235586819683,330.17881289983995" style="fill: none;" fill="none"></path></g><g><path stroke="rgb(0, 119, 187)" stroke-width="2px" d="M-2.3784372183858364,105.77932947566433L3.337684981060575,194.12939787684016L9.053807180506986,182.49409845021265L14.769929379953398,220.34169944057513L20.48605157939981,205.79029997854437L26.202173778846223,216.91860689754915L31.91829597829263,255.28600173307274L37.63441817773904,214.65381212259905L43.35054037718545,262.1200553190157L49.06666257663186,258.40662546356515L54.78278477607827,275.30282806016055L60.49890697552468,283.80433028685223L66.2150291749711,265.9518975466958L71.93115137441751,269.07951735700567L77.64727357386393,275.75258668076606L83.36339577331033,266.45092643154766L89.07951797275675,273.7241700919888L94.79564017220316,258.8854103727749L100.51176237164957,295.4596504099787L106.22788457109598,294.77500213082106L111.94400677054239,310.07289819465103L117.6601289699888,294.58030271802875L123.3762511694352,299.46066380175546L129.09237336888162,293.0601438853519L134.80849556832803,283.5977970794751L140.52461776777446,309.86472760689105L146.24073996722086,287.8583352619272L151.95686216666726,291.9122658106212L157.6729843661137,293.24114884403343L163.3891065655601,326.1164721700888L169.1052287650065,329.83555843049817L174.8213509644529,302.5949819863586L180.53747316389934,317.83274153431086L186.25359536334574,291.82786629452545L191.96971756279214,301.5942448669377L197.68583976223857,323.4027374647246L203.40196196168498,269.93266696283064L209.11808416113138,321.4186045726643L214.83420636057778,335.7409940602449L220.55032856002418,322.13756341347994L226.26645075947064,336.5270854967556L231.98257295891705,322.3374726729448L237.69869515836345,317.20488058388435L243.41481735780985,310.33219970618325L249.13093955725628,326.9203515116674L254.8470617567027,307.75920528735975L260.5631839561491,291.68370239445716L266.27930615559546,337.1694595914843L271.99542835504195,330.1358688779817L277.7115505544883,350.3918271673408L283.42767275393476,319.38244764025933L289.14379495338113,334.6642676057853L294.85991715282756,321.5824914637074L300.576039352274,313.874076753344L306.29216155172037,340.43640558709507L312.0082837511668,303.7516423740517L317.7244059506132,335.8368552390203L323.4405281500596,339.57090120201804L329.15665034950604,343.2579841185816L334.8727725489524,353.0142407031728L340.58889474839884,333.4000610974941L346.3050169478452,333.7434644195979L352.0211391472917,329.0537837240875L357.7372613467381,323.9317601811343L363.4533835461845,334.2361670620616L369.1695057456309,305.1603849143164L374.8856279450773,345.5188342953367L380.6017501445237,350.2620275588126L386.3178723439701,352.45976416444853L392.03399454341655,349.8406253893822L397.75011674286293,344.25901894352666L403.46623894230936,333.9618314215599L409.18236114175585,333.96413863937204L414.89848334120217,340.67710050336814L420.61460554064865,332.3548170022131L426.33072774009497,319.9751793388365L432.04684993954146,337.8512052417815L437.7629721389879,356.51495996162015L443.47909433843427,369.3267916196776L449.1952165378807,340.67494213831804L454.91133873732707,354.3614326263201L460.6274609367735,326.86944386703817L466.34358313621993,333.31648027158974L472.0597053356663,351.924936190318L477.77582753511274,312.35890448819663L483.4919497345591,347.29435004135087L489.20807193400555,366.5464453032855L494.924194133452,353.5513014687344L500.64031633289835,367.55149915280657L506.3564385323448,349.97422074334327L512.0725607317912,346.0034244622674L517.7886829312375,344.6221452566053L523.5048051306841,348.46038815305457L529.2209273301304,335.72581107851335L534.9370495295768,325.80365809059106L540.6531717290233,356.65607238006595L546.3692939284697,361.9195060469891L552.0854161279161,369.8188244247119L557.8015383273624,348.2639025071174L563.5176605268089,359.5349592249508L569.2337827262553,345.4126278495972L574.9499049257017,333.23193190273196L580.6660271251482,367.85940109115586L586.3821493245946,337.4202764955784L592.0982715240409,340.9176465668791L597.8143937234873,355.87883768289856L603.5305159229338,368.17526665227604L609.2466381223802,372.20694371304L614.9627603218266,352.6919744732834L620.678882521273,363.00129349535916L626.3950047207194,341.91153645924464L632.1111269201658,346.53996424316176L637.8272491196122,361.0403072078013L643.5433713190587,317.6067086151021L649.259493518505,358.82842958976835L654.9756157179514,374.93318205041834L660.691737917398,367.2219391375756L666.4078601168443,370.7817529425662L672.1239823162907,363.02600305386335L677.840104515737,354.66271061675707L683.5562267151836,348.91796154366887L689.27234891463,359.498936856529L694.9884711140763,346.30075785450947L700.7045933135228,329.70352603053885L706.4207155129692,366.74776866399003L712.1368377124156,368.75765308388907L717.8529599118621,383.63552386633785L723.5690821113085,354.57101731531975L729.2852043107548,371.16147633861596L735.0013265102012,348.3826125848711L740.7174487096477,344.7522425706576L746.4335709090941,372.6289412935187L752.1496931085404,333.4020706097821L757.8658153079868,363.21080375797777L763.5819375074333,370.62195950248014L769.2980597068797,372.0792280431809L775.014181906326,383.33815326090524L780.7303041057726,360.86793570932L786.4464263052189,365.0263608969897L792.1625485046653,357.9010024556687L797.8786707041119,352.003679301455L803.5947929035582,354.8637362719375L809.3109151030045,339.053265721907L815.027037302451,369.374201224398L820.7431595018975,374.49987166002205L826.4592817013438,378.9087416198806L832.1754039007901,364.54601303377814" style="fill: none;" fill="none"></path></g><g><path stroke="rgb(187, 187, 187)" stroke-width="2px" d="M-2.3784372183858364,-18.98779044596546L3.337684981060575,68.79075777522866L9.053807180506986,65.7447092785352L14.769929379953398,105.022487606901L20.48605157939981,95.36030596794035L26.202173778846223,108.12234637708411L31.91829597829263,144.89136025346122L37.63441817773904,107.46158896623933L43.35054037718545,155.25486168093175L49.06666257663186,154.14442007586257L54.78278477607827,171.29032318083648L60.49890697552468,177.2507599061694L66.2150291749711,163.04611295338913L71.93115137441751,168.74829013652428L77.64727357386393,168.2468796074793L83.36339577331033,162.73218247817587L89.07951797275675,170.3383353409947L94.79564017220316,150.24328688743716L100.51176237164957,188.65876116511052L106.22788457109598,193.84613107061406L111.94400677054239,203.7801922795022L117.6601289699888,195.40566145885936L123.3762511694352,194.0759597352557L129.09237336888162,189.8011316876445L134.80849556832803,180.08246042547688L140.52461776777446,207.14478568703325L146.24073996722086,185.53664890699739L151.95686216666726,190.1543592920452L157.6729843661137,189.81400745156387L163.3891065655601,222.77856800848235L169.1052287650065,226.38928945810213L174.8213509644529,202.72557046021063L180.53747316389934,218.5214534395579L186.25359536334574,189.91768340034815L191.96971756279214,200.5942221864595L197.68583976223857,219.92625138162765L203.40196196168498,170.30863921496098L209.11808416113138,214.5697847384085L214.83420636057778,233.13566876718372L220.55032856002418,221.98801098910937L226.26645075947064,234.97898694632238L231.98257295891705,221.41254621093273L237.69869515836345,215.53241555073856L243.41481735780985,207.04386351434732L249.13093955725628,226.66436936241416L254.8470617567027,207.6904054864141L260.5631839561491,192.60834592759088L266.27930615559546,230.9078639036089L271.99542835504195,230.49948635085994L277.7115505544883,242.0107170002991L283.42767275393476,221.0404143057487L289.14379495338113,234.04047028144822L294.85991715282756,220.66292370113L300.576039352274,209.72879521025024L306.29216155172037,239.76914325623247L312.0082837511668,199.4405388540079L317.7244059506132,231.85062287220217L323.4405281500596,234.24722676796847L329.15665034950604,242.84540886362694L334.8727725489524,248.49571085917944L340.58889474839884,234.6237498296337L346.3050169478452,234.02074729047345L352.0211391472917,224.44229533017918L357.7372613467381,222.20295437754368L363.4533835461845,230.99471949027887L369.1695057456309,203.4592657244715L374.8856279450773,238.27853169682726L380.6017501445237,250.76980893175914L386.3178723439701,248.57036051935935L392.03399454341655,244.20324375926248L397.75011674286293,248.35943615550104L403.46623894230936,235.13237971763925L409.18236114175585,227.22234394104714L414.89848334120217,239.92744816869777L420.61460554064865,228.98714228819196L426.33072774009497,215.98306728791647L432.04684993954146,232.81972877968246L437.7629721389879,257.00495342949887L443.47909433843427,265.48770020816926L449.1952165378807,239.41539466716452L454.91133873732707,254.35991427383172L460.6274609367735,225.1255295080971L466.34358313621993,228.54653811245404L472.0597053356663,249.04110737941718L477.77582753511274,211.29323773964398L483.4919497345591,241.2336311558938L489.20807193400555,261.8923105930431L494.924194133452,250.87475012902104L500.64031633289835,265.5112189445769L506.3564385323448,250.46034403940808L512.0725607317912,245.73776688347942L517.7886829312375,239.4909374439169L523.5048051306841,245.10119804647158L529.2209273301304,232.3927446316743L534.9370495295768,222.52298781600194L540.6531717290233,248.93772913615703L546.3692939284697,260.4845355957318L552.0854161279161,262.90465822790577L557.8015383273624,247.01477472930898L563.5176605268089,257.70887814134505L569.2337827262553,245.79760569383302L574.9499049257017,229.5018007130615L580.6660271251482,265.35462583887545L586.3821493245946,235.55735435335941L592.0982715240409,235.23836288423567L597.8143937234873,250.6910658206222L603.5305159229338,269.3999229273692L609.2466381223802,268.00740533817043L614.9627603218266,250.13234697817887L620.678882521273,263.84302604001783L626.3950047207194,237.20589869332477L632.1111269201658,245.63453749298137L637.8272491196122,254.05149135081518L643.5433713190587,215.8543840751038L649.259493518505,252.40026766113255L654.9756157179514,272.7799225957748L660.691737917398,263.35977554794584L666.4078601168443,269.59402692911317L672.1239823162907,262.136801254749L677.840104515737,254.19111524164023L683.5562267151836,245.53086154419708L689.27234891463,255.62464176679023L694.9884711140763,245.38513469012702L700.7045933135228,226.33853066623502L706.4207155129692,261.8511528043297L712.1368377124156,265.2481961139928L717.8529599118621,281.3273458995662L723.5690821113085,252.00402160849256L729.2852043107548,270.3323366289983L735.0013265102012,246.61421194656887L740.7174487096477,238.88815818389975L746.4335709090941,267.8869090272718L752.1496931085404,228.99808296620438L757.8658153079868,259.4992047371855L763.5819375074333,266.6476353566279L769.2980597068797,271.75626215099453L775.014181906326,278.7634314992291L780.7303041057726,258.02615780370496L786.4464263052189,265.6201791664148L792.1625485046653,255.12390107517456L797.8786707041119,249.53105624578248L803.5947929035582,252.39468568255478L809.3109151030045,235.41445570176876L815.027037302451,263.208466715298L820.7431595018975,274.7035468400522L826.4592817013438,275.190444224795L832.1754039007901,263.72252972911923L837.8915261002367,268.9226265457801L843.6076482996831,258.4675806696343L849.3237704991294,247.15030516917702L855.039892698576,271.5271777501632L860.7560148980223,245.11571119077377L866.4721370974686,250.99770251049387L872.1882592969151,253.53660964680253L877.9043814963616,283.3922314150514L883.6205036958079,285.9966337666725L889.3366258952544,255.13677683909395L895.0527480947007,279.8912144510799L900.7688702941472,243.68166368095652L906.4849924935935,254.48167583320796L912.20111469304,270.12758965476604L917.9172368924864,217.96072508482655L923.6333590919328,266.7309184770081L929.3494812913792,285.7956825378731L935.0656034908257,268.67061881958944L940.781725690272,283.95883945388465L946.4978478897185,266.3612426423983L952.2139700891648,270.2355823336504L957.9300922886113,251.5121376562203L963.6462144880578,268.80302335145393L969.3623366875041,251.22150263827155L975.0784588869504,236.66459562404404L980.7945810863969,274.27909318899924L986.5107032858434,274.04651074825927" style="fill: none;" fill="none"></path></g><g><path stroke="rgb(255, 112, 67)" stroke-width="2px" d="M-2.3784372183858364,-121.49859423510986L3.337684981060575,12.976628402580332L9.053807180506986,25.559524512568544L14.769929379953398,73.8871042167242L20.48605157939981,63.94024167029772L26.202173778846223,82.95595874605942L31.91829597829263,119.55565260557779L37.63441817773904,81.75129334259765L43.35054037718545,133.012091149795L49.06666257663186,128.09042342459287L54.78278477607827,150.3867065236951L60.49890697552468,159.44417381673168L66.2150291749711,149.28809871321073L71.93115137441751,148.95243573473473L77.64727357386393,153.86695852735733L83.36339577331033,151.4140882875272L89.07951797275675,160.3522500917618L94.79564017220316,140.49447294094963L100.51176237164957,181.59703727957594L106.22788457109598,186.4932511824635L111.94400677054239,199.41292666664327L117.6601289699888,186.50582924085873L123.3762511694352,188.72313998470736L129.09237336888162,184.35014354050858L134.80849556832803,173.25108618925123L140.52461776777446,203.2423128237492L146.24073996722086,180.79814450552684L151.95686216666726,184.02289074308973L157.6729843661137,187.44360164192253L163.3891065655601,217.1211210803503L169.1052287650065,223.315703200425L174.8213509644529,197.99450869684375L180.53747316389934,214.23992701765334L186.25359536334574,186.65870102750836L191.96971756279214,199.1240778818394L197.68583976223857,217.1718798722174L203.40196196168498,165.91666404359782L209.11808416113138,216.54491203836332L214.83420636057778,229.03730566901078L220.55032856002418,221.0643051740615L226.26645075947064,230.43190719687848L231.98257295891705,216.37268939264413L237.69869515836345,213.8587150939828L243.41481735780985,207.3191666978025L249.13093955725628,223.3282068324392L254.8470617567027,204.95062154768706L260.5631839561491,190.0692155121391L266.27930615559546,230.96480008510207L271.99542835504195,227.69309080110494L277.7115505544883,245.12642858964307L283.42767275393476,215.8656224586404L289.14379495338113,229.165170191632L294.85991715282756,218.71101743205864L300.576039352274,210.0237469582991L306.29216155172037,235.87158253409683L312.0082837511668,198.19017565258952L317.7244059506132,229.99554532485968L323.4405281500596,230.19865491870914L329.15665034950604,241.6859946998355L334.8727725489524,248.674780731954L340.58889474839884,230.445006239941L346.3050169478452,227.95164804882683L352.0211391472917,226.16615916775376L357.7372613467381,219.9156084091394L363.4533835461845,228.30428024217923L369.1695057456309,204.5070403167077L374.8856279450773,235.34769523797874L380.6017501445237,248.4299179383429L386.3178723439701,250.0050034402249L392.03399454341655,246.4444453714239L397.75011674286293,241.02106941165263L403.46623894230936,228.18400721042374L409.18236114175585,230.29019936738442L414.89848334120217,236.95857982913944L420.61460554064865,226.71483044875714L426.33072774009497,219.7780684569834L432.04684993954146,232.16998647323112L437.7629721389879,254.91014850883687L443.47909433843427,265.2454423378945L449.1952165378807,237.00159827737872L454.91133873732707,253.67660566953276L460.6274609367735,223.98829440585465L466.34358313621993,228.1004263845194L472.0597053356663,249.5504815312331L477.77582753511274,207.8932173747394L483.4919497345591,245.66750837978068L489.20807193400555,260.0708737699292L494.924194133452,252.36707349519014L500.64031633289835,262.4304877543202L506.3564385323448,248.2463824827061L512.0725607317912,242.31921434969667L517.7886829312375,237.67009603185133L523.5048051306841,246.35639896265738L529.2209273301304,237.45396182132043L534.9370495295768,223.33966849511887L540.6531717290233,250.93845911118856L546.3692939284697,257.9561970055304L552.0854161279161,265.56495479168547L557.8015383273624,244.29746755765507L563.5176605268089,257.6234366559148L569.2337827262553,245.1347643443192L574.9499049257017,231.01198641067938L580.6660271251482,265.005938243718L586.3821493245946,237.16749468070975L592.0982715240409,236.92397156195733L597.8143937234873,251.73325843428063L603.5305159229338,269.86895798066314L609.2466381223802,269.04662089658746L614.9627603218266,248.0819746069958L620.678882521273,258.2967721251548L626.3950047207194,238.73208606286556L632.1111269201658,245.7938099484001L637.8272491196122,256.7134252949777L643.5433713190587,216.25286291917487L649.259493518505,256.5640515482368L654.9756157179514,270.9736687543925L660.691737917398,264.85261989878217L666.4078601168443,270.62535329114024L672.1239823162907,257.9178674192964L677.840104515737,254.7701524861066L683.5562267151836,248.38794145943814L689.27234891463,257.9462982968525L694.9884711140763,245.0735114327259L700.7045933135228,227.0341940497861L706.4207155129692,263.3995936618005L712.1368377124156,265.75987748362087L717.8529599118621,281.38324011172483L723.5690821113085,252.75900281772994L729.2852043107548,268.4300727560785L735.0013265102012,250.37810288836243L740.7174487096477,240.64491848189263L746.4335709090941,266.160440266361L752.1496931085404,231.11930925213449L757.8658153079868,259.5222769153069L763.5819375074333,267.3691991207798L769.2980597068797,271.0568030220106L775.014181906326,280.2445909082427L780.7303041057726,258.9675770974396L786.4464263052189,262.61610714862604L792.1625485046653,256.3869167613692L797.8786707041119,248.6761948331937L803.5947929035582,251.34936716089277L809.3109151030045,235.93209118187977L815.027037302451,262.9711209861716L820.7431595018975,273.87912581730745L826.4592817013438,276.1018696869718L832.1754039007901,259.71645534343196L837.8915261002367,271.42893492719463L843.6076482996831,262.5030534758311L849.3237704991294,246.392049199174L855.039892698576,275.75199126971773L860.7560148980223,249.39976810963356L866.4721370974686,248.824452184219L872.1882592969151,257.9127319990049L877.9043814963616,281.2721959512179L883.6205036958079,284.21925736113246L889.3366258952544,257.5340505722896L895.0527480947007,277.7631409380944L900.7688702941472,248.64419148934786L906.4849924935935,257.7975199611599L912.20111469304,273.30760563732576L917.9172368924864,224.83846695643814L923.6333590919328,266.93134872114024L929.3494812913792,282.7459871485088L935.0656034908257,272.72968478857496L940.781725690272,285.283926741864L946.4978478897185,266.3753836547953L952.2139700891648,270.1829628822574L957.9300922886113,256.9745130396548L963.6462144880578,270.74339353146456L969.3623366875041,253.9170773066627L975.0784588869504,234.5464952461175L980.7945810863969,276.8641446815508L986.5107032858434,277.7510094379854L992.2268254852897,286.7901678412869L997.942947684736,260.02792974807096L1003.6590698841826,278.73805210329556L1009.375192083629,264.3291047345692L1015.0913142830753,253.35992141822115L1020.8074364825219,275.6894731096468L1026.5235586819683,240.02561656528533L1032.2396808814146,271.0379731476083L1037.9558030808612,277.7466182815042L1043.6719252803075,278.4934125888276L1049.3880474797538,289.2062714488849L1055.1041696792001,268.72070777402723L1060.8202918786467,273.68703132785146L1066.536414078093,263.37503295605836L1072.2525362775395,258.03538667495354L1077.9686584769859,262.36030367700255L1083.6847806764324,243.34369348466836L1089.4009028758787,270.73275055897636L1095.1170250753253,285.225278753607L1100.8331472747716,281.88442736162665L1106.549269474218,278.9773329183289L1112.2653916736645,276.7672415334408L1117.9815138731108,271.49323932041045L1123.697636072557,260.0580724323909L1129.4137582720036,273.23831467658056L1135.1298804714502,262.8271059388654L1140.8460026708965,254.4862158424512L1146.5621248703428,261.85249247918836L1152.2782470697894,288.5532543816679L1157.9943692692357,293.73184197420915L1163.710491468682,268.9995089973911L1169.4266136681285,284.8097562682785L1175.1427358675749,258.559943808501L1180.8588580670214,260.60317124710446L1186.5749802664677,279.7099117868742L1192.2911024659143,240.23899699971784L1198.0072246653606,271.2614011434808L1203.723346864807,288.49810443331967L1209.4394690642534,281.79824161238605L1215.1555912636998,291.4031893643294L1220.871713463146,274.2201474952181L1226.5878356625926,275.44728966575303L1232.303957862039,267.13215109717754L1238.0200800614855,272.9060753116322L1243.7362022609318,260.9766428271472L1249.4523244603783,250.53484484682593L1255.1684466598247,277.99274632359294L1260.8845688592712,286.77751535651066L1266.6006910587175,290.1753773563652L1272.3168132581638,270.76609357768086L1278.0329354576102,283.3475011600483L1283.7490576570567,272.49747447974016L1289.465179856503,257.2822661252421L1295.1813020559496,287.13334788424766L1300.8974242553961,257.14777765470853L1306.6135464548424,267.6675000559753L1312.3296686542888,277.18551779486774L1318.0457908537353,288.79141880098575L1323.7619130531816,291.63078523754L1329.478035252628,273.3458607971787L1335.1941574520745,285.23889878133673" style="fill: none;" fill="none"></path></g></g></g></g></g></g><g transform="translate(50, 378)" clip-path="url(#clip_1)"><clipPath id="clip_1"><rect width="1442" height="22"></rect></clipPath><g><g><line x1="106.22788457109598" y1="0" x2="106.22788457109598" y2="5" style="visibility: inherit;" fill="rgb(0, 0, 0)" stroke="rgb(204, 204, 204)" stroke-width="1px"></line><line x1="220.55032856002418" y1="0" x2="220.55032856002418" y2="5" style="visibility: inherit;" fill="rgb(0, 0, 0)" stroke="rgb(204, 204, 204)" stroke-width="1px"></line><line x1="334.8727725489524" y1="0" x2="334.8727725489524" y2="5" style="visibility: inherit;" fill="rgb(0, 0, 0)" stroke="rgb(204, 204, 204)" stroke-width="1px"></line><line x1="449.1952165378807" y1="0" x2="449.1952165378807" y2="5" style="visibility: inherit;" fill="rgb(0, 0, 0)" stroke="rgb(204, 204, 204)" stroke-width="1px"></line><line x1="563.5176605268089" y1="0" x2="563.5176605268089" y2="5" style="visibility: inherit;" fill="rgb(0, 0, 0)" stroke="rgb(204, 204, 204)" stroke-width="1px"></line><line x1="677.840104515737" y1="0" x2="677.840104515737" y2="5" style="visibility: inherit;" fill="rgb(0, 0, 0)" stroke="rgb(204, 204, 204)" stroke-width="1px"></line><line x1="792.1625485046653" y1="0" x2="792.1625485046653" y2="5" style="visibility: inherit;" fill="rgb(0, 0, 0)" stroke="rgb(204, 204, 204)" stroke-width="1px"></line><line x1="906.4849924935935" y1="0" x2="906.4849924935935" y2="5" style="visibility: inherit;" fill="rgb(0, 0, 0)" stroke="rgb(204, 204, 204)" stroke-width="1px"></line><line x1="1020.8074364825219" y1="0" x2="1020.8074364825219" y2="5" style="visibility: inherit;" fill="rgb(0, 0, 0)" stroke="rgb(204, 204, 204)" stroke-width="1px"></line><line x1="1135.1298804714502" y1="0" x2="1135.1298804714502" y2="5" style="visibility: inherit;" fill="rgb(0, 0, 0)" stroke="rgb(204, 204, 204)" stroke-width="1px"></line><line x1="1249.4523244603783" y1="0" x2="1249.4523244603783" y2="5" style="visibility: inherit;" fill="rgb(0, 0, 0)" stroke="rgb(204, 204, 204)" stroke-width="1px"></line><line x1="1363.7747684493065" y1="0" x2="1363.7747684493065" y2="5" style="visibility: inherit;" fill="rgb(0, 0, 0)" stroke="rgb(204, 204, 204)" stroke-width="1px"></line></g><g transform="translate(0, 8)"><text x="106.22788457109598" y="0" dx="0em" dy="0.95em" style="text-anchor: middle; visibility: inherit; font-family: &quot;Helvetica Neue&quot;, sans-serif; font-size: 12px; font-weight: 200;" fill="rgb(50, 49, 63)" stroke="none" stroke-width="1px">20</text><text x="220.55032856002418" y="0" dx="0em" dy="0.95em" style="text-anchor: middle; visibility: inherit; font-family: &quot;Helvetica Neue&quot;, sans-serif; font-size: 12px; font-weight: 200;" fill="rgb(50, 49, 63)" stroke="none" stroke-width="1px">40</text><text x="334.8727725489524" y="0" dx="0em" dy="0.95em" style="text-anchor: middle; visibility: inherit; font-family: &quot;Helvetica Neue&quot;, sans-serif; font-size: 12px; font-weight: 200;" fill="rgb(50, 49, 63)" stroke="none" stroke-width="1px">60</text><text x="449.1952165378807" y="0" dx="0em" dy="0.95em" style="text-anchor: middle; visibility: inherit; font-family: &quot;Helvetica Neue&quot;, sans-serif; font-size: 12px; font-weight: 200;" fill="rgb(50, 49, 63)" stroke="none" stroke-width="1px">80</text><text x="563.5176605268089" y="0" dx="0em" dy="0.95em" style="text-anchor: middle; visibility: inherit; font-family: &quot;Helvetica Neue&quot;, sans-serif; font-size: 12px; font-weight: 200;" fill="rgb(50, 49, 63)" stroke="none" stroke-width="1px">100</text><text x="677.840104515737" y="0" dx="0em" dy="0.95em" style="text-anchor: middle; visibility: inherit; font-family: &quot;Helvetica Neue&quot;, sans-serif; font-size: 12px; font-weight: 200;" fill="rgb(50, 49, 63)" stroke="none" stroke-width="1px">120</text><text x="792.1625485046653" y="0" dx="0em" dy="0.95em" style="text-anchor: middle; visibility: inherit; font-family: &quot;Helvetica Neue&quot;, sans-serif; font-size: 12px; font-weight: 200;" fill="rgb(50, 49, 63)" stroke="none" stroke-width="1px">140</text><text x="906.4849924935935" y="0" dx="0em" dy="0.95em" style="text-anchor: middle; visibility: inherit; font-family: &quot;Helvetica Neue&quot;, sans-serif; font-size: 12px; font-weight: 200;" fill="rgb(50, 49, 63)" stroke="none" stroke-width="1px">160</text><text x="1020.8074364825219" y="0" dx="0em" dy="0.95em" style="text-anchor: middle; visibility: inherit; font-family: &quot;Helvetica Neue&quot;, sans-serif; font-size: 12px; font-weight: 200;" fill="rgb(50, 49, 63)" stroke="none" stroke-width="1px">180</text><text x="1135.1298804714502" y="0" dx="0em" dy="0.95em" style="text-anchor: middle; visibility: inherit; font-family: &quot;Helvetica Neue&quot;, sans-serif; font-size: 12px; font-weight: 200;" fill="rgb(50, 49, 63)" stroke="none" stroke-width="1px">200</text><text x="1249.4523244603783" y="0" dx="0em" dy="0.95em" style="text-anchor: middle; visibility: inherit; font-family: &quot;Helvetica Neue&quot;, sans-serif; font-size: 12px; font-weight: 200;" fill="rgb(50, 49, 63)" stroke="none" stroke-width="1px">220</text><text x="1363.7747684493065" y="0" dx="0em" dy="0.95em" style="text-anchor: middle; visibility: inherit; font-family: &quot;Helvetica Neue&quot;, sans-serif; font-size: 12px; font-weight: 200;" fill="rgb(50, 49, 63)" stroke="none" stroke-width="1px">240</text></g><line x1="0" y1="0" x2="1442" y2="0" fill="rgb(0, 0, 0)" stroke="rgb(204, 204, 204)" stroke-width="1px"></line></g></g></g></g></svg>